<svg width="48" height="48" viewBox="0 0 48 48" fill="none" xmlns="http://www.w3.org/2000/svg">
<path d="M39.3722 6.71997H8.62725C8.12134 6.71997 7.63616 6.92094 7.27843 7.27867C6.9207 7.6364 6.71973 8.12159 6.71973 8.62749V39.3729C6.71985 39.8787 6.92088 40.3638 7.2786 40.7214C7.63631 41.0791 8.12142 41.28 8.62725 41.28H25.1791V27.8966H20.6752V22.6809H25.1791V18.8342C25.1791 14.3702 27.9055 11.94 31.8876 11.94C33.7951 11.94 35.4343 12.0816 35.9124 12.1454V16.8105L33.1504 16.812C30.9847 16.812 30.5656 17.8411 30.5656 19.3512V22.6814H35.7304L35.058 27.8971H30.5656V41.28H39.3727C39.8785 41.2798 40.3636 41.0788 40.7212 40.7211C41.0788 40.3634 41.2797 39.8783 41.2797 39.3724V8.62749C41.2797 8.12159 41.0788 7.6364 40.721 7.27867C40.3633 6.92094 39.8781 6.71997 39.3722 6.71997Z" fill="white"/>
</svg>
