<?xml version="1.0" standalone="no"?>
<!DOCTYPE svg PUBLIC "-//W3C//DTD SVG 1.1//EN" "http://www.w3.org/Graphics/SVG/1.1/DTD/svg11.dtd" >
<svg xmlns="http://www.w3.org/2000/svg" xmlns:xlink="http://www.w3.org/1999/xlink" version="1.1">
<metadata>
Created by FontForge 20170731 at Tue Oct  8 02:00:29 2013
 By Aleksey,,,
Copyright (c) 2013 Schick Toikka. All rights reserved. Noe Display is a trademark of Schick Toikka. Unauthorised copying or modification of any of its data is illegal. | wf-rip by planemo
</metadata>
<defs>
<font id="NoeDisplay-BlackItalic" horiz-adv-x="597" >
  <font-face 
    font-family="Noe Display"
    font-weight="900"
    font-style="italic"
    font-stretch="normal"
    units-per-em="1000"
    panose-1="2 10 10 0 9 4 0 0 0 2"
    ascent="750"
    descent="-250"
    x-height="507"
    cap-height="703"
    bbox="-295 -268 1199 1007"
    underline-thickness="20"
    underline-position="-140"
    slope="-12"
    unicode-range="U+0020-FB02"
  />
<missing-glyph horiz-adv-x="600" 
d="M565 -250h-490v1001h490v-1001zM330 252l215 -461v925zM308 252l-213 461v-920zM319 229l-212 -459h425zM530 731h-422l211 -455z" />
    <glyph glyph-name="fi" unicode="fi" horiz-adv-x="622" 
d="M27 20l54 345q8 55 21 106h-53v20h59q31 102 92 162t169 60q34 0 99.5 -10.5t92.5 -22.5l-74 -153h-2l-107 151q-12 16 -24 16t-22.5 -15.5t-23 -61.5t-25.5 -126h115q2 0 47 3l165 13l-85 -351q-7 -29 -7 -46q0 -22 18 -22q16 0 31 15q23 22 39 57l2 -1
q-16 -75 -65.5 -121t-113.5 -46q-50 0 -73 30.5t-23 71.5q0 37 9 71l70 282q3 16 1 20t-12 4h-121l-50 -309q-9 -59 -23.5 -111t-39.5 -106t-57 -93t-79.5 -63.5t-103.5 -24.5q-66 0 -119 28l78 162h2l66 -162q4 -7 10 -7q13 0 22 18q6 12 11.5 36.5t9 45.5t10 65.5
t10.5 69.5z" />
    <glyph glyph-name="fl" unicode="fl" horiz-adv-x="622" 
d="M27 20l54 345q8 55 21 106h-53v20h59q66 222 255 222q50 0 97 -28l193 48l-127 -577q-5 -26 -5 -41q0 -27 22 -27q16 0 31 15q23 22 39 57l2 -1q-18 -82 -73 -127q-46 -40 -107 -40q-49 0 -74.5 31t-25.5 77q0 30 8 68l109 478q2 14 0.5 17.5t-10.5 10.5q-30 20 -57 20
q-38 0 -60.5 -41.5t-42.5 -161.5h96v-20h-100l-48 -309q-12 -74 -32.5 -138.5t-55 -126t-90 -97.5t-125.5 -36q-66 0 -119 28l78 162h2l66 -162q4 -7 10 -7q14 0 25 25q5 13 10.5 37t8.5 45t9 62.5t10 65.5z" />
    <glyph glyph-name="f_b" unicode="fb" horiz-adv-x="886" 
d="M318 -8l134 654q2 14 0.5 17.5t-10.5 10.5q-30 20 -57 20q-38 0 -60.5 -41.5t-42.5 -161.5h96v-20h-100l-48 -309q-12 -74 -32.5 -138.5t-55 -126t-90 -97.5t-125.5 -36q-66 0 -119 28l78 162h2l66 -162q4 -7 10 -7q16 0 27 30q5 14 10 37.5t8 43.5t9 60.5t9 63.5l54 345
q8 55 21 106h-53v20h59q66 222 255 222q50 0 97 -28l193 48l-82 -391h2q26 65 71 114.5t101 49.5q57 0 93.5 -37t36.5 -116q0 -146 -82 -253.5t-193 -107.5q-64 0 -100 39zM594 354q-35 -64 -86 -313q9 -3 20 -3q59 0 102 106q22 55 35.5 121.5t13.5 100.5q0 45 -24 45
q-30 0 -61 -57z" />
    <glyph glyph-name="f_h" unicode="fh" horiz-adv-x="916" 
d="M604 345q-22 -36 -42.5 -102.5t-61.5 -242.5h-182l134 646q2 14 0.5 17.5t-10.5 10.5q-30 20 -57 20q-38 0 -60.5 -41.5t-42.5 -161.5h96v-20h-100l-48 -309q-12 -74 -32.5 -138.5t-55 -126t-90 -97.5t-125.5 -36q-66 0 -119 28l78 162h2l66 -162q4 -7 10 -7q19 0 32 44
q5 19 9.5 46.5t10.5 72t11 72.5l54 345q8 55 21 106h-53v20h59q66 222 255 222q50 0 97 -28l193 48l-86 -425h2q40 93 98 146t117 53q44 0 70 -27.5t26 -71.5q0 -52 -22 -113l-36 -118q-13 -44 -13 -67q0 -22 18 -22q15 0 30 15q23 22 39 57l2 -1q-16 -76 -65 -121.5
t-113 -45.5q-51 0 -78.5 28t-27.5 68q0 39 24 115l43 130q14 39 14 58q0 18 -16 18q-36 0 -75 -64z" />
    <glyph glyph-name="f_j" unicode="fj" horiz-adv-x="615" 
d="M230 162q-9 -59 -23.5 -111t-39.5 -106t-57 -93t-79.5 -63.5t-103.5 -24.5q-66 0 -119 28l78 162h2l66 -162q4 -7 10 -7q22 0 36 63q4 19 8 44.5t9.5 64t9.5 63.5l54 345q8 55 21 106h-53v20h59q31 102 92 162t169 60q34 0 99.5 -10.5t92.5 -22.5l-74 -153h-2l-107 151
q-12 16 -24 16t-22.5 -15.5t-23 -61.5t-25.5 -126h115q2 0 47 3l175 13l-75 -332q-16 -71 -31 -122t-42.5 -109.5t-60 -94.5t-83 -60.5t-113.5 -24.5q-65 0 -118 28l93 161h2l41 -161q3 -7 10 -7q21 0 42 46q23 53 50 191l84 422q5 27 -11 27h-128z" />
    <glyph glyph-name="f_k" unicode="fk" horiz-adv-x="880" 
d="M701 -8q-43 0 -69.5 24t-37.5 78l-36 176l-55 -270h-183l132 646q2 14 0.5 17.5t-10.5 10.5q-30 20 -57 20q-38 0 -60.5 -41.5t-42.5 -161.5h96v-20h-100l-48 -309q-12 -74 -32.5 -138.5t-55 -126t-90 -97.5t-125.5 -36q-66 0 -119 28l78 162h2l66 -162q4 -7 10 -7
q17 0 28 32q6 18 11 45t12.5 80t11.5 78l54 345q8 55 21 106h-53v20h59q66 222 255 222q50 0 97 -28l193 48l-93 -454l136 90q19 12 19 22q0 6 -10 29l-30 69v2h267v-2l-170 -93q-34 -20 -42 -25l-12 -8l47 -195q12 -48 19 -64t22 -16q16 0 31 15q18 17 36 57l2 -1
q-17 -76 -64 -121.5t-110 -45.5z" />
    <glyph glyph-name="g_f" unicode="gf" horiz-adv-x="852" 
d="M208 -236q-125 0 -191.5 31t-66.5 80q0 74 133 101q-78 27 -78 90q0 44 40.5 76t116.5 40q-125 28 -125 140q0 83 69.5 134t173.5 51q86 0 149 -34q10 -6 13 -6t10 6l141 131h2l-33 -168h-92q13 -10 24 -33t11 -49q0 -86 -72.5 -133.5t-173.5 -47.5q-49 0 -85 7
q-10 -8 -10 -22q0 -27 39 -34l138 -26q73 -14 109 -50t36 -87q0 -101 -99 -155q34 -23 65 -23q35 0 55 21t30 70q3 17 5.5 31t6.5 45t10 70l54 345q8 55 21 106h-53v20h58q66 222 262 222q69 0 122 -23l-79 -163h-2l-59 156q-6 10 -12 10q-18 0 -27 -34.5t-26 -141.5
q-3 -17 -4 -26h96v-20h-100l-48 -309q-62 -398 -295 -398q-55 0 -100 32q-68 -32 -159 -32zM261 -68q-162 39 -169 41q-32 -36 -32 -86q0 -42 45.5 -73t105.5 -31q55 0 88 24t33 63q0 45 -71 62zM299 488q-36 0 -62 -77.5t-26 -150.5q0 -68 27 -68q37 0 64.5 76t27.5 149
q0 37 -6.5 54t-24.5 17z" />
    <glyph glyph-name="q_f" unicode="qf" horiz-adv-x="889" 
d="M142 -8q-53 0 -89 45.5t-36 115.5q0 142 77 248t183 106q67 0 111 -39l181 39l-136 -679q-2 -13 -1 -17.5t9 -11.5q21 -17 48 -17q35 0 55 21.5t30 70.5q3 17 5.5 31t6.5 45t10 70l54 345q8 55 21 106h-53v20h58q66 222 262 222q69 0 122 -23l-79 -163h-2l-59 156
q-6 10 -12 10q-18 0 -27 -34.5t-26 -141.5q-3 -17 -4 -26h96v-20h-100l-48 -309q-62 -398 -295 -398q-24 0 -51 8h-283v2l69 50q14 9 18 30l62 312h-2q-27 -75 -70.5 -124.5t-104.5 -49.5zM293 145q37 75 87 311q-10 6 -21 6q-51 0 -89 -72q-30 -57 -44.5 -131t-14.5 -125
q0 -46 25 -46q28 0 57 57z" />
    <glyph glyph-name="g_j" unicode="gj" horiz-adv-x="837" 
d="M433 -236q-47 0 -86 23q-66 -23 -139 -23q-125 0 -191.5 31t-66.5 80q0 74 133 101q-78 27 -78 90q0 44 40.5 76t116.5 40q-125 28 -125 140q0 83 69.5 134t173.5 51q86 0 149 -34q10 -6 13 -6t10 6l141 131h2l-33 -168h-92q13 -10 24 -33t11 -49q0 -86 -72.5 -133.5
t-173.5 -47.5q-49 0 -85 7q-10 -8 -10 -22q0 -27 39 -34l138 -26q73 -14 109 -50t36 -87q0 -110 -116 -164q28 -14 56 -14q41 0 62 32q40 60 69 207l82 407q2 15 0 20.5t-11 11.5l-43 28v2l257 16l-75 -332q-47 -210 -121 -310.5t-213 -100.5zM124 -36l-32 9
q-32 -36 -32 -86q0 -42 45.5 -73t105.5 -31q55 0 88 24t33 63q0 45 -71 62zM299 488q-36 0 -62 -77.5t-26 -150.5q0 -68 27 -68q37 0 64.5 76t27.5 149q0 37 -6.5 54t-24.5 17zM771 543q-38 0 -64.5 20t-26.5 56q0 42 30 66.5t72 24.5q38 0 63 -20.5t25 -56.5
q0 -42 -28.5 -66t-70.5 -24z" />
    <glyph glyph-name=".notdef" horiz-adv-x="600" 
d="M565 -250h-490v1001h490v-1001zM330 252l215 -461v925zM308 252l-213 461v-920zM319 229l-212 -459h425zM530 731h-422l211 -455z" />
    <glyph glyph-name=".null" horiz-adv-x="0" 
 />
    <glyph glyph-name="nonmarkingreturn" horiz-adv-x="333" 
 />
    <glyph glyph-name="space" unicode=" " horiz-adv-x="190" 
 />
    <glyph glyph-name="exclam" unicode="!" horiz-adv-x="348" 
d="M174 222h-2l-53 481h295zM151 164q37 0 62 -21t25 -56q0 -40 -28.5 -67.5t-67.5 -27.5q-35 0 -59.5 22t-24.5 56q0 41 27.5 67.5t65.5 26.5z" />
    <glyph glyph-name="quotedbl" unicode="&#x22;" horiz-adv-x="371" 
d="M224 596l-94 -149h-2l-26 161q-1 8 -1 21q0 35 19 59.5t56 24.5q31 0 48.5 -16.5t17.5 -43.5q0 -29 -18 -57zM407 596l-94 -149h-2l-26 161q-1 8 -1 21q0 35 19 59.5t56 24.5q31 0 48.5 -16.5t17.5 -43.5q0 -29 -18 -57z" />
    <glyph glyph-name="numbersign" unicode="#" horiz-adv-x="588" 
d="M511 215h-130l-54 -189l-19 6l52 183h-159l-54 -189l-19 6l52 183h-125v20h130l58 202h-125v20h130l57 196l21 -6l-55 -190h157l57 196l21 -6l-55 -190h122v-20h-128l-58 -202h124v-20zM265 437l-58 -202h158l58 202h-158z" />
    <glyph glyph-name="dollar" unicode="$" horiz-adv-x="573" 
d="M547 223q0 -95 -81 -161.5t-211 -70.5l-18 -95h-20l18 94q-144 2 -243 25l75 258h2l86 -245q5 -13 22 -15q22 -2 37 -2q17 0 26 1l42 219q-19 16 -56 43l-12 9q-61 45 -95.5 92.5t-34.5 112.5q0 101 77.5 162.5t198.5 62.5h16l16 80h20l-16 -81q109 -3 197 -26l-51 -238
h-2l-114 231q-5 11 -17 12q-9 1 -17 1l-44 -226q17 -14 37 -28l11 -8q39 -29 59.5 -45.5t45.5 -43.5t35.5 -55.5t10.5 -62.5zM270 597q0 -60 61 -116l41 211h-1q-44 0 -72.5 -24t-28.5 -71zM347 121q0 48 -48 94l-39 -198q39 11 63 38t24 66z" />
    <glyph glyph-name="percent" unicode="%" horiz-adv-x="705" 
d="M294 698q-30 0 -52.5 -87t-22.5 -138q0 -25 5 -35t18 -10q30 0 52.5 87t22.5 138q0 25 -5 35t-18 10zM298 713q55 0 90.5 -32.5t35.5 -80.5q0 -88 -49.5 -137.5t-136.5 -49.5q-55 0 -90.5 32.5t-35.5 80.5q0 88 49.5 137.5t136.5 49.5zM507 276q-30 0 -52.5 -87
t-22.5 -138q0 -25 5 -35t18 -10q30 0 52.5 87t22.5 138q0 25 -5 35t-18 10zM511 291q55 0 90.5 -32.5t35.5 -80.5q0 -88 -49.5 -137.5t-136.5 -49.5q-55 0 -90.5 32.5t-35.5 80.5q0 88 49.5 137.5t136.5 49.5zM703 701l-640 -711l-15 15l640 710z" />
    <glyph glyph-name="ampersand" unicode="&#x26;" horiz-adv-x="741" 
d="M310 437q-58 -20 -89.5 -61.5t-31.5 -91.5q0 -70 49.5 -110.5t139.5 -40.5q91 0 149 42t58 106q0 43 -22 68.5t-59 25.5q-31 0 -51 -15.5t-20 -40.5q0 -36 45 -46v-2q-36 -37 -87 -37q-45 0 -75 26.5t-30 72.5q0 34 25 60.5t82 56.5l202 108q33 20 33 46q0 14 -11 24.5
t-30 11.5v2q43 31 95 31q45 0 72 -24t27 -71q0 -69 -88 -110l-164 -77v-2q48 -6 83 -46.5t35 -99.5q0 -106 -88 -179.5t-220 -73.5q-139 0 -221.5 59.5t-82.5 158.5q0 94 66 152.5t163 72.5v2q-75 6 -108.5 38.5t-33.5 76.5q0 75 66 118.5t182 43.5q100 0 168 -26l-87 -154
h-2l-55 149q-3 8 -5.5 9.5t-13.5 1.5q-42 0 -74 -41.5t-32 -102.5q0 -76 41 -109v-2z" />
    <glyph glyph-name="quotesingle" unicode="'" horiz-adv-x="188" 
d="M224 596l-94 -149h-2l-26 161q-1 8 -1 21q0 35 19 59.5t56 24.5q31 0 48.5 -16.5t17.5 -43.5q0 -29 -18 -57z" />
    <glyph glyph-name="parenleft" unicode="(" horiz-adv-x="353" 
d="M262 -152l-2 -2q-203 92 -203 342q0 306 205 471q36 28 86.5 50t91.5 28l1 -2q-64 -44 -117 -124q-68 -101 -104 -236t-36 -260q0 -187 78 -267z" />
    <glyph glyph-name="parenright" unicode=")" horiz-adv-x="353" 
d="M108 -76q-36 -28 -86.5 -50t-91.5 -28l-1 2q84 60 147 174q54 98 82 217t28 229q0 187 -78 267l2 2q203 -92 203 -342q0 -306 -205 -471z" />
    <glyph glyph-name="asterisk" unicode="*" horiz-adv-x="466" 
d="M357 703l-75 -192l161 129l47 -145l-207 11l172 -112l-123 -89l-53 198l-54 -197l-123 89l173 111l-203 -10l47 145l157 -130l-71 192h152z" />
    <glyph glyph-name="plus" unicode="+" horiz-adv-x="540" 
d="M71 314v20h209v210h21v-210h209v-20h-209v-210h-21v210h-209z" />
    <glyph glyph-name="comma" unicode="," horiz-adv-x="252" 
d="M59 12q-24 5 -39.5 23.5t-15.5 45.5q0 37 26.5 62.5t64.5 25.5t60.5 -24t22.5 -62q0 -67 -48.5 -120t-112.5 -80q-28 -12 -49 -15v2q25 10 48 32q46 44 56 93q3 14 -13 17z" />
    <glyph glyph-name="hyphen" unicode="-" horiz-adv-x="351" 
d="M49 239v21h260v-21h-260z" />
    <glyph glyph-name="period" unicode="." horiz-adv-x="252" 
d="M96 164q37 0 62 -21t25 -56q0 -40 -28.5 -67.5t-67.5 -27.5q-35 0 -59.5 22t-24.5 56q0 41 27.5 67.5t65.5 26.5z" />
    <glyph glyph-name="slash" unicode="/" horiz-adv-x="380" 
d="M440 728l-466 -881l-18 12l466 879z" />
    <glyph glyph-name="zero" unicode="0" horiz-adv-x="691" 
d="M301 10q49 0 93 105t67 232t23 219q0 67 -11 97t-41 30q-49 0 -93 -105t-67 -232t-23 -219q0 -67 11 -97t41 -30zM308 -10q-126 0 -194.5 75.5t-68.5 207.5q0 191 107 315.5t273 124.5q126 0 194.5 -75.5t68.5 -207.5q0 -191 -107 -315.5t-273 -124.5z" />
    <glyph glyph-name="one" unicode="1" horiz-adv-x="400" 
d="M336 2v-2h-350v2l82 70q11 9 14 25l87 432q3 14 -6 19l-73 38v2l314 137h3l-127 -628q-3 -17 3 -25z" />
    <glyph glyph-name="two" unicode="2" horiz-adv-x="570" 
d="M329 713q124 0 185 -40t61 -132q0 -60 -33.5 -117t-94 -105t-135 -87.5t-165.5 -72.5h261q20 0 27 2.5t21 14.5l75 61h2l-92 -237h-471v2q23 23 74 73t80.5 79.5t65.5 68t58 65.5q128 158 128 287q0 118 -60 118h-1q-15 0 -20.5 -2.5t-10.5 -12.5l-138 -219h-2l-55 197
q137 57 240 57z" />
    <glyph glyph-name="three" unicode="3" horiz-adv-x="574" 
d="M222 -10q-140 0 -232 41l115 222h2l60 -219q4 -13 10 -17.5t20 -4.5h1q44 1 83.5 62t39.5 154q0 112 -89 130v2q68 14 113 74t45 137q0 122 -68 122h-6q-16 0 -24 -13l-139 -220h-2l-55 198q143 55 244 55q122 0 183 -49t61 -126q0 -75 -59.5 -120t-137.5 -52v-3
q73 -9 113 -51.5t40 -99.5q0 -97 -82.5 -159.5t-235.5 -62.5z" />
    <glyph glyph-name="four" unicode="4" horiz-adv-x="619" 
d="M482 2v-2h-352v2l79 69q14 11 16 26l16 81h-252v2l378 523h180l-103 -504h9q17 0 29 15l145 186h3l-60 -222h-131l-16 -81q-2 -13 7 -25zM28 199h217l85 416z" />
    <glyph glyph-name="five" unicode="5" horiz-adv-x="559" 
d="M531 247q0 -121 -81.5 -189t-242.5 -68q-117 0 -224 40l119 222h2l56 -215q4 -16 9 -20t19 -4h1q42 0 82.5 64t40.5 147q0 67 -28 104t-80 37q-57 0 -117 -29l-1 1l87 369l209 -10q40 -2 59 -2q94 0 142 37l35 27h1l-33 -109q-22 -74 -65.5 -98.5t-136.5 -24.5
q-36 0 -56 1l-175 8l-40 -170q35 32 93 53.5t123 21.5q86 0 144 -50.5t58 -142.5z" />
    <glyph glyph-name="six" unicode="6" horiz-adv-x="618" 
d="M313 -8q-118 0 -193 71.5t-75 210.5q0 189 108.5 314t277.5 125q117 0 210 -36l-91 -202h-2l-92 200q-6 13 -10 15.5t-18 2.5h-2q-44 0 -83 -81.5t-65 -206.5q57 33 118 33q88 0 146 -50t58 -146q0 -107 -79.5 -178.5t-207.5 -71.5zM316 398q-25 0 -42 -8
q-27 -138 -27 -253q0 -67 14 -96t45 -29q43 0 70 62.5t27 147.5q0 176 -87 176z" />
    <glyph glyph-name="seven" unicode="7" horiz-adv-x="541" 
d="M290 0h-255v2q264 359 445 538v2h-330q-16 0 -28 -11l-65 -61h-1l68 233h506v-2l-115 -141q-17 -22 -34 -59q-87 -190 -191 -501z" />
    <glyph glyph-name="eight" unicode="8" horiz-adv-x="582" 
d="M564 213q0 -104 -87.5 -163.5t-218.5 -59.5q-101 0 -169.5 42.5t-68.5 125.5q0 73 51 115t130 48l-21 19q-81 72 -81 158q0 69 41 119.5t102 73t134 22.5q85 0 145.5 -42.5t60.5 -115.5q0 -60 -45 -98.5t-113 -49.5l27 -23q30 -26 43.5 -39t33.5 -36t28 -46t8 -50z
M315 221l-106 93q-61 -59 -61 -147q0 -68 34 -113t87 -45q42 0 71 27.5t29 79.5q0 58 -54 105zM281 607q0 -76 77 -143l57 -49q44 52 44 137q0 64 -26.5 102.5t-76.5 38.5q-36 0 -55.5 -24t-19.5 -62z" />
    <glyph glyph-name="nine" unicode="9" horiz-adv-x="632" 
d="M361 713q118 0 193 -71.5t75 -210.5q0 -189 -108.5 -314t-277.5 -125q-117 0 -210 36l91 202h2l92 -200q6 -12 10 -15t17 -3h3q43 0 82 81.5t66 205.5q-60 -32 -118 -32q-88 0 -146 50t-58 146q0 107 79.5 178.5t207.5 71.5zM358 307q23 0 41 7q28 135 28 254
q0 67 -14 96t-45 29q-43 0 -70 -62.5t-27 -147.5q0 -176 87 -176z" />
    <glyph glyph-name="colon" unicode=":" horiz-adv-x="252" 
d="M96 164q37 0 62 -21t25 -56q0 -40 -28.5 -67.5t-67.5 -27.5q-35 0 -59.5 22t-24.5 56q0 41 27.5 67.5t65.5 26.5zM162 495q37 0 62 -21t25 -56q0 -40 -28.5 -67.5t-67.5 -27.5q-35 0 -59.5 22t-24.5 56q0 41 27.5 67.5t65.5 26.5z" />
    <glyph glyph-name="semicolon" unicode=";" horiz-adv-x="252" 
d="M59 12q-24 5 -39.5 23.5t-15.5 45.5q0 37 26.5 62.5t64.5 25.5t60.5 -24t22.5 -62q0 -67 -48.5 -120t-112.5 -80q-28 -12 -49 -15v1q29 15 48 33q46 44 56 93q3 14 -13 17zM162 495q37 0 62 -21t25 -56q0 -40 -28.5 -67.5t-67.5 -27.5q-35 0 -59.5 22t-24.5 56
q0 41 27.5 67.5t65.5 26.5z" />
    <glyph glyph-name="less" unicode="&#x3c;" horiz-adv-x="540" 
d="M70 324l390 179l7 -20l-350 -160l350 -160l-7 -20l-390 179v2z" />
    <glyph glyph-name="equal" unicode="=" horiz-adv-x="540" 
d="M70 404v20h440v-20h-440zM70 224v20h440v-20h-440z" />
    <glyph glyph-name="greater" unicode="&#x3e;" horiz-adv-x="540" 
d="M509 322l-390 -179l-7 20l350 160l-350 160l7 20l390 -179v-2z" />
    <glyph glyph-name="question" unicode="?" horiz-adv-x="476" 
d="M542 556q0 -36 -13.5 -67t-33.5 -51.5t-49.5 -41t-53.5 -32t-55 -26t-45 -22.5q-25 -14 -35 -29q-11 -15 -11 -43l-2 -2q-31 0 -59 28t-28 62q0 31 20 59.5t48.5 51t57 45.5t48.5 54t20 66t-15 60t-43 25h-2q-21 0 -29 -13l-139 -221h-2l-55 197q134 57 244 57
q109 0 170.5 -40t61.5 -117zM194 164q37 0 62 -21t25 -56q0 -40 -28.5 -67.5t-67.5 -27.5q-35 0 -59.5 22t-24.5 56q0 41 27.5 67.5t65.5 26.5z" />
    <glyph glyph-name="at" unicode="@" horiz-adv-x="1003" 
d="M958 317q0 -80 -33 -153.5t-97.5 -122.5t-145.5 -49q-65 0 -109 35t-44 95q0 7 2 23l-4 1q-24 -68 -66.5 -111t-96.5 -43q-52 0 -90.5 41t-38.5 116q0 144 79.5 251t185.5 107q73 0 111 -38l187 40l2 -3l-84 -354q-11 -46 -11 -72q0 -51 43 -51q57 0 123 87t66 204
q0 155 -108.5 257.5t-280.5 102.5q-125 0 -233 -63t-173.5 -176t-65.5 -249q0 -94 36 -171t96 -125t133.5 -74t152.5 -26q135 0 256 75l9 -17q-120 -78 -267 -78q-80 0 -155.5 25t-139.5 73.5t-103 131t-39 187.5q0 142 69 259.5t182.5 182.5t243.5 65q186 0 297 -110
t111 -273zM538 207l65 249q-9 5 -21 5q-61 0 -100 -91q-52 -122 -52 -245q0 -37 27 -37q17 0 42.5 35.5t38.5 83.5z" />
    <glyph glyph-name="A" unicode="A" horiz-adv-x="644" 
d="M363 104l-14 141h-208l-23 -45q-9 -17 -2 -36l58 -162v-2h-243v2l138 162q18 21 30 45l200 385q7 14 7.5 19t-5.5 15l-46 73v2h258l58 -577q2 -14 10 -43l24 -81v-2h-300v2l50 75q9 14 8 27zM316 582l-164 -316h195z" />
    <glyph glyph-name="B" unicode="B" horiz-adv-x="677" 
d="M108 703h384q95 0 152.5 -37.5t57.5 -103.5q0 -174 -249 -191v-2q194 -8 194 -161q0 -93 -74.5 -150.5t-204.5 -57.5h-402v2l69 72q12 13 15 31l100 493q3 19 -4 32l-39 71zM355 357h-46l-63 -313q-3 -15 0 -19t17 -4h29q56 0 98.5 61t42.5 156q0 119 -78 119zM370 660
l-57 -282h46q42 0 72.5 32.5t44 76.5t13.5 90t-16.5 75.5t-51.5 29.5h-24q-14 0 -19 -4t-8 -18z" />
    <glyph glyph-name="C" unicode="C" horiz-adv-x="638" 
d="M316 -10q-133 0 -207.5 74.5t-74.5 202.5q0 196 117.5 321t310.5 125q128 0 228 -18l-53 -265h-2l-125 251q-5 8 -8.5 10t-13.5 2h-9q-27 0 -56.5 -21t-58.5 -64.5t-52 -103t-37.5 -145t-14.5 -182.5q0 -78 20.5 -122.5t59.5 -44.5h5q19 0 31 12l228 255h2l-54 -269
q-107 -18 -236 -18z" />
    <glyph glyph-name="D" unicode="D" horiz-adv-x="737" 
d="M400 682q-17 0 -21.5 -3t-7.5 -19l-124 -616q-3 -16 -0.5 -19.5t19.5 -3.5h14q66 0 120 73t85 193q31 118 31 250q0 61 -28.5 103t-73.5 42h-14zM108 703h342q134 0 211.5 -73.5t77.5 -196.5q0 -192 -125 -312.5t-334 -120.5h-314v2l70 72q11 12 14 31l100 493
q4 20 -2 31l-41 72z" />
    <glyph glyph-name="E" unicode="E" 
d="M269 21h67q14 0 20.5 3t18.5 18l183 222h2l-51 -264h-543v2l69 71q12 13 15 32l100 493q4 20 -2 31l-41 72l1 2h531l-52 -257h-2l-105 216q-7 15 -11 17.5t-18 2.5h-47q-20 0 -25 -3t-8 -19l-61 -301h32q13 0 18 2t19 14l123 107h2l-54 -267h-2l-79 107q-5 8 -9.5 11.5
t-8.5 4t-13 0.5h-32l-59 -294q-3 -16 0 -19.5t22 -3.5z" />
    <glyph glyph-name="F" unicode="F" horiz-adv-x="577" 
d="M108 703h531l-52 -257h-2l-105 216q-7 15 -11 17.5t-18 2.5h-47q-20 0 -25 -3t-8 -19l-61 -301h32q13 0 18.5 2t18.5 14l123 107h2l-54 -267h-2l-79 107q-5 8 -9.5 11.5t-8.5 4t-13 0.5h-32l-47 -233q-5 -20 4 -29l73 -74v-2h-370v2l69 71q12 13 15 32l100 493
q4 20 -2 31l-41 72z" />
    <glyph glyph-name="G" unicode="G" horiz-adv-x="692" 
d="M291 -10q-111 0 -184 76.5t-73 200.5q0 198 117.5 322t314.5 124q141 0 241 -23l-53 -264h-2l-132 254q-5 9 -8.5 11t-15.5 2h-8q-84 0 -156 -137.5t-72 -374.5q0 -88 20 -125.5t59 -37.5q21 0 41 10l36 179q3 17 -2 31l-28 72v2h311v-2l-58 -73q-11 -15 -14 -30
l-44 -217l-165 30q-67 -30 -125 -30z" />
    <glyph glyph-name="H" unicode="H" horiz-adv-x="764" 
d="M506 371l46 227q4 20 -2 31l-41 72v2h335v-2l-69 -72q-11 -12 -14 -31l-100 -493q-4 -20 2 -31l40 -72v-2h-335v2l70 72q11 12 14 31l49 245h-193l-49 -245q-4 -20 2 -31l40 -72v-2h-335v2l70 72q11 12 14 31l100 493q4 20 -2 31l-41 72v2h335v-2l-69 -72
q-11 -12 -14 -31l-46 -227h193z" />
    <glyph glyph-name="I" unicode="I" horiz-adv-x="363" 
d="M301 0h-335v2l70 72q11 12 14 31l100 493q4 20 -2 31l-41 72v2h335v-2l-69 -72q-11 -12 -14 -31l-100 -493q-4 -20 2 -31l40 -72v-2z" />
    <glyph glyph-name="J" unicode="J" horiz-adv-x="339" 
d="M348 598l-96 -467q-36 -174 -137.5 -258t-281.5 -84l-1 2q159 78 202 287l105 520q4 21 -2 31l-41 72l1 2h335v-2l-70 -72q-11 -12 -14 -31z" />
    <glyph glyph-name="K" unicode="K" horiz-adv-x="715" 
d="M359 598l-100 -493q-4 -20 2 -31l40 -72v-2h-335v2l70 72q11 12 14 31l100 493q4 20 -2 31l-41 72l1 2h335l-1 -2l-69 -72q-11 -12 -14 -31zM422 0l-109 337l219 202q13 12 14 20.5t-5 22.5l-41 119v2h336v-2l-222 -128q-47 -27 -66 -46l-67 -62l131 -367q5 -16 20 -40
l40 -56v-2h-250z" />
    <glyph glyph-name="L" unicode="L" horiz-adv-x="580" 
d="M270 21h44q13 0 19 3t19 18l204 238h2l-56 -280h-536v2l69 73q12 13 15 30l100 493q4 20 -2 31l-41 72v2h335v-2l-69 -72q-11 -12 -14 -31l-111 -554q-3 -16 0 -19.5t22 -3.5z" />
    <glyph glyph-name="M" unicode="M" horiz-adv-x="887" 
d="M573 100l73 359q2 10 14 58l-324 -527h-2l-147 526l-62 -311q-3 -17 4 -34l71 -169v-2h-253v2l139 169q14 17 17 34l66 327q4 20 0 31l-53 138v2h233l128 -444l273 444h217v-2l-73 -87q-11 -12 -14 -29l-98 -485q-3 -15 3 -26l40 -72v-2h-335v2l70 72q9 9 13 26z" />
    <glyph glyph-name="N" unicode="N" horiz-adv-x="692" 
d="M548 0h-126l-233 496l-58 -290q-3 -17 4 -34l71 -170v-2h-254v2l139 170q14 17 17 34l62 305q4 20 -1 31l-77 159l1 2h232l239 -514l62 308q3 17 -4 34l-72 170l1 2h254l-1 -2l-138 -170q-15 -19 -18 -34z" />
    <glyph glyph-name="O" unicode="O" horiz-adv-x="733" 
d="M428 713q154 0 230.5 -76.5t76.5 -208.5q0 -190 -110 -314t-284 -124q-153 0 -230 77t-77 208q0 190 110 314t284 124zM321 11q43 0 81.5 65t61.5 155.5t36.5 177.5t13.5 141q0 80 -16 111t-50 31q-43 0 -81.5 -65t-61.5 -155.5t-36.5 -177.5t-13.5 -141q0 -80 16 -111
t50 -31z" />
    <glyph glyph-name="P" unicode="P" horiz-adv-x="668" 
d="M108 703h357q66 0 117.5 -16.5t86 -58.5t34.5 -105q0 -130 -98 -199t-262 -69h-54l-27 -138q-4 -20 4 -30l60 -85v-2h-360v2l70 72q11 12 14 31l100 493q4 22 -2 32l-41 71zM371 660l-78 -384h34q44 0 77.5 30.5t51 76.5t26 90.5t8.5 83.5q0 55 -16.5 90t-49.5 35h-24
q-15 0 -20.5 -4t-8.5 -18z" />
    <glyph glyph-name="Q" unicode="Q" horiz-adv-x="733" 
d="M428 713q154 0 230.5 -76.5t76.5 -208.5q0 -190 -110 -314t-284 -124q-72 0 -131 19l-29 -24l215 -50q88 -20 136 -20t92 15l53 18l2 -1l-60 -81q-75 -102 -179 -102q-47 0 -142 26l-187 49q-55 15 -83 15h-36l-1 2l199 159q-156 64 -156 260q0 190 110 314t284 124z
M321 11q43 0 81.5 65t61.5 155.5t36.5 177.5t13.5 141q0 80 -16 111t-50 31q-43 0 -81.5 -65t-61.5 -155.5t-36.5 -177.5t-13.5 -141q0 -80 16 -111t50 -31z" />
    <glyph glyph-name="R" unicode="R" horiz-adv-x="694" 
d="M367 334h-62l-46 -229q-4 -20 2 -31l40 -72v-2h-335v2l70 72q11 12 14 31l100 493q4 20 -2 31l-41 72l1 2h417q77 0 129 -36.5t52 -108.5q0 -98 -72.5 -154.5t-200.5 -57.5v-2l154 -36l1 -1l13 -219q1 -18 16 -41l29 -45v-2h-253l-12 324q0 10 -14 10zM371 660l-62 -305
h54q54 0 91.5 68t37.5 152q0 107 -62 107h-25q-21 0 -26 -3.5t-8 -18.5z" />
    <glyph glyph-name="S" unicode="S" horiz-adv-x="573" 
d="M547 223q0 -97 -84.5 -164.5t-218.5 -68.5q-149 0 -252 25l75 258h2l86 -245q5 -13 22 -15q22 -2 37 -2q56 0 94.5 30t38.5 80q0 41 -29.5 75.5t-91.5 77.5l-12 9q-60 43 -95 91.5t-35 113.5q0 101 77.5 162.5t198.5 62.5q129 0 233 -27l-51 -238h-2l-114 231
q-5 11 -17 12q-10 1 -38 1q-44 0 -72.5 -24t-28.5 -71q0 -78 115 -159l11 -8q38 -27 60 -45t45.5 -44t34.5 -55t11 -63z" />
    <glyph glyph-name="T" unicode="T" horiz-adv-x="630" 
d="M394 117q-4 -21 3 -35l47 -80v-2h-355v2l79 80q13 15 17 35l114 565h-20q-13 0 -19 -2.5t-17 -15.5l-191 -255h-2l59 294h597l-59 -294h-2l-89 255q-6 13 -11 15.5t-17 2.5h-20z" />
    <glyph glyph-name="U" unicode="U" horiz-adv-x="664" 
d="M289 -10q-230 0 -230 187q0 37 9 81l69 340q4 22 -2 32l-41 71v2h335v-2l-68 -71q-11 -13 -16 -32l-67 -335q-11 -52 -11 -97q0 -133 112 -133q64 0 114 56t73 169l44 219q5 31 3 42.5t-14 42.5l-54 139v2h238v-2l-110 -144q-22 -29 -28.5 -41t-12.5 -39l-44 -217
q-27 -136 -97 -203t-202 -67z" />
    <glyph glyph-name="V" unicode="V" horiz-adv-x="613" 
d="M577 494l-249 -494h-156l-60 577q-3 20 -9 43l-25 81v2h300v-2l-50 -75q-9 -14 -8 -27l48 -472l190 376q9 17 2 36l-58 162v2h243v-2l-138 -162q-18 -21 -30 -45z" />
    <glyph glyph-name="W" unicode="W" horiz-adv-x="983" 
d="M698 0h-156l-34 358l-183 -358h-158l-55 577q-1 15 -9 43l-25 81v2h301v-2l-50 -75q-9 -14 -8 -27l44 -476l140 273l-17 181q-1 20 -6 39l-23 85v2h294v-2l-50 -75q-9 -14 -8 -27l43 -472l190 376q9 17 2 36l-58 162v2h243v-2l-138 -162q-18 -21 -30 -45z" />
    <glyph glyph-name="X" unicode="X" horiz-adv-x="694" 
d="M521 497l-69 -68l134 -300q10 -21 20 -38l53 -89v-2h-348v2l56 73q9 12 3 25l-71 159l-80 -77q-12 -12 -14 -17.5t1 -16.5l31 -146v-2h-292v2l196 140q34 24 75 64l74 72l-131 296q-6 14 -21 38l-53 89v2h348v-2l-55 -73q-9 -12 -3 -25l68 -154l75 72q12 12 14 17.5
t-1 16.5l-32 146l1 2h292v-2l-196 -140q-34 -24 -75 -64z" />
    <glyph glyph-name="Y" unicode="Y" horiz-adv-x="641" 
d="M429 255l-29 -144q-3 -19 3 -29l48 -80v-2h-355v2l80 80q12 12 15 29l25 125q3 13 0 22l-95 315q-5 16 -18 49l-33 79v2h351v-2l-73 -79q-12 -12 -8 -27l79 -304l150 228q8 12 8.5 17t-4.5 18l-56 147v2h263v-2l-158 -151q-19 -18 -30 -35l-147 -220q-11 -17 -16 -40z
" />
    <glyph glyph-name="Z" unicode="Z" horiz-adv-x="650" 
d="M559 0h-599v2l527 680h-156q-17 0 -27 -12l-219 -256h-3l59 289h595l-1 -2l-525 -680h159q17 0 27 12l219 256h2z" />
    <glyph glyph-name="bracketleft" unicode="[" horiz-adv-x="378" 
d="M276 635l-138 -685q-4 -14 8 -18l141 -58v-2l-280 -10l173 861l276 -10v-2l-165 -58q-9 -3 -11 -6t-4 -12z" />
    <glyph glyph-name="backslash" unicode="\" horiz-adv-x="380" 
d="M240 -151l-119 885l19 4l120 -885z" />
    <glyph glyph-name="bracketright" unicode="]" horiz-adv-x="378" 
d="M120 -50l138 685q4 14 -8 18l-141 58v2l280 10l-173 -861l-276 10v2l165 58q9 3 11 6t4 12z" />
    <glyph glyph-name="asciicircum" unicode="^" horiz-adv-x="540" 
d="M289 712l179 -390l-19 -9l-161 352l-161 -352l-19 9l179 390h2z" />
    <glyph glyph-name="underscore" unicode="_" horiz-adv-x="500" 
d="M-45 -91v20h490v-20h-490z" />
    <glyph glyph-name="grave" unicode="`" horiz-adv-x="355" 
d="M33 703h186l104 -168l-1 -2l-289 168v2z" />
    <glyph glyph-name="a" unicode="a" 
d="M405 -8q-43 0 -70 26t-28 71q0 32 10 75h-2q-56 -172 -172 -172q-50 0 -88 43.5t-38 120.5q0 142 77.5 246.5t182.5 104.5q67 0 112 -39l189 39q-16 -67 -33 -142.5t-27 -118.5t-16 -66q-10 -39 -10 -65q0 -27 17 -27q16 0 31 15q23 22 39 57l2 -1q-18 -77 -65 -122
t-111 -45zM381 456q-11 6 -22 6q-55 0 -94 -83q-23 -49 -38 -118.5t-15 -128.5q0 -44 25 -44q28 0 54 54q42 87 90 314z" />
    <glyph glyph-name="b" unicode="b" horiz-adv-x="562" 
d="M332 733l-85 -391h2q26 65 71 114.5t101 49.5q57 0 93.5 -37t36.5 -116q0 -146 -82 -253.5t-193 -107.5q-64 0 -100 39l-182 -39l134 656q2 15 0 19t-10 9l-44 25v2zM270 354q-35 -64 -86 -313q9 -3 20 -3q59 0 102 106q22 55 35.5 121.5t13.5 100.5q0 45 -24 45
q-30 0 -61 -57z" />
    <glyph glyph-name="c" unicode="c" horiz-adv-x="454" 
d="M208 -8q-90 0 -142.5 54t-52.5 141q0 130 86.5 225t223.5 95q83 0 154 -22l-90 -216h-1l-62 208q-3 9 -11 9q-27 0 -61.5 -93.5t-34.5 -165.5q0 -58 24 -89t59 -31q60 0 126 70l2 -1q-70 -184 -220 -184z" />
    <glyph glyph-name="d" unicode="d" horiz-adv-x="591" 
d="M142 -8q-49 0 -87 44t-38 129q0 132 77 237t184 105q75 0 97 -47l37 188q2 15 0 19t-10 9l-44 25v2l258 30l-115 -556q-8 -38 -8 -60q0 -29 18 -29q15 0 34.5 19.5t33.5 52.5l2 -1q-21 -85 -74 -130q-45 -37 -102 -37q-43 0 -70.5 27t-27.5 71q0 31 10 74h-2
q-57 -172 -173 -172zM298 156q27 57 74 290q-15 9 -30 9q-37 0 -68 -60q-25 -47 -43.5 -124t-18.5 -129q0 -54 24 -54q32 0 62 68z" />
    <glyph glyph-name="e" unicode="e" horiz-adv-x="489" 
d="M215 -8q-93 0 -147.5 57.5t-54.5 152.5q0 125 88.5 215t224.5 90q75 0 120 -29.5t45 -85.5q0 -67 -68.5 -112t-206.5 -54v-6q0 -118 96 -118q85 0 149 92l2 -1q-28 -100 -95.5 -150.5t-152.5 -50.5zM329 487q-34 0 -71 -81.5t-42 -165.5q73 15 104.5 68t31.5 124
q0 55 -23 55z" />
    <glyph glyph-name="f" unicode="f" horiz-adv-x="320" 
d="M49 471v20h58q66 222 262 222q69 0 122 -23l-79 -163h-2l-59 156q-6 10 -12 10q-18 0 -27 -34.5t-26 -141.5q-3 -17 -4 -26h96v-20h-100l-48 -309q-12 -74 -32.5 -138.5t-55 -126t-90 -97.5t-125.5 -36q-66 0 -119 28l78 162h2l66 -162q4 -7 10 -7q15 0 24 22
q6 13 11 37.5t8.5 44.5t9.5 64t10 67l54 345q8 55 21 106h-53z" />
    <glyph glyph-name="g" unicode="g" horiz-adv-x="532" 
d="M259 173q-49 0 -85 7q-10 -8 -10 -22q0 -27 39 -34l138 -26q73 -14 109 -50t36 -87q0 -49 -24 -87.5t-64 -62t-88.5 -35.5t-101.5 -12q-125 0 -191.5 31t-66.5 80q0 74 133 101q-78 27 -78 90q0 44 40.5 76t116.5 40q-125 28 -125 140q0 83 69.5 134t173.5 51
q86 0 149 -34q10 -6 13 -6t10 6l141 131h2l-33 -168h-92q13 -10 24 -33t11 -49q0 -86 -72.5 -133.5t-173.5 -47.5zM124 -36l-32 9q-32 -36 -32 -86q0 -42 45.5 -73t105.5 -31q55 0 88 24t33 63q0 45 -71 62zM299 488q-36 0 -62 -77.5t-26 -150.5q0 -68 27 -68q37 0 64.5 76
t27.5 149q0 37 -6.5 54t-24.5 17z" />
    <glyph glyph-name="h" unicode="h" horiz-adv-x="592" 
d="M396 -8q-51 0 -78.5 28t-27.5 68q0 39 24 115l43 130q14 39 14 58q0 18 -16 18q-36 0 -75 -64q-22 -36 -42.5 -102.5t-61.5 -242.5h-182l135 648q2 15 0 19t-10 9l-44 25v2l258 30l-90 -425h2q40 93 98 146t117 53q44 0 70 -27.5t26 -71.5q0 -38 -22 -113l-36 -118
q-13 -44 -13 -67q0 -22 18 -22q15 0 30 15q23 22 39 57l2 -1q-16 -76 -65 -121.5t-113 -45.5z" />
    <glyph glyph-name="i" unicode="i" horiz-adv-x="314" 
d="M119 -8q-50 0 -73 30.5t-23 71.5q0 28 9 71l64 262q6 24 -7 32l-46 30v2l259 16l-85 -351q-7 -29 -7 -46q0 -22 18 -22q16 0 31 15q23 22 39 57l2 -1q-16 -75 -66.5 -121t-114.5 -46zM240 710q38 0 63 -20.5t25 -56.5q0 -42 -28.5 -66t-70.5 -24q-38 0 -64.5 20t-26.5 56
q0 42 30 66.5t72 24.5z" />
    <glyph glyph-name="j" unicode="j" horiz-adv-x="295" 
d="M15 22l82 407q2 15 0 20.5t-11 11.5l-43 28v2l257 16l-75 -332q-16 -70 -31.5 -121.5t-44 -109.5t-63.5 -94.5t-89 -61t-121 -24.5q-66 0 -119 28l78 161h2l66 -161q3 -7 10 -7q18 0 35 26q31 47 67 211zM138 619q0 42 30 66.5t72 24.5q38 0 63 -20.5t25 -56.5
q0 -42 -28.5 -66t-70.5 -24q-38 0 -64.5 20t-26.5 56z" />
    <glyph glyph-name="k" unicode="k" horiz-adv-x="556" 
d="M329 733l-93 -454l136 90q19 12 19 22q0 6 -10 29l-30 69v2h267v-2l-170 -93q-34 -20 -42 -25l-12 -8l47 -195q12 -48 19 -64t22 -16q16 0 31 15q18 17 36 57l2 -1q-17 -76 -64 -121.5t-110 -45.5q-43 0 -69.5 24t-37.5 78l-36 176l-55 -270h-183l129 648q2 15 0 19
t-10 9l-44 25v2z" />
    <glyph glyph-name="l" unicode="l" horiz-adv-x="305" 
d="M335 733l-129 -577q-5 -21 -5 -41q0 -27 22 -27q16 0 31 15q23 22 39 57l2 -1q-20 -91 -85 -137q-42 -30 -95 -30q-49 0 -74.5 31t-25.5 77q0 30 8 68l108 480q2 15 0 19t-10 9l-44 25v2z" />
    <glyph glyph-name="m" unicode="m" horiz-adv-x="908" 
d="M715 -8q-51 0 -78.5 28t-27.5 68q0 45 24 115l43 130q14 44 14 59q0 17 -16 17q-26 0 -56 -35q-36 -44 -60 -114t-68 -260h-183l76 359q4 17 4 31q0 19 -13 19q-22 0 -52 -35q-36 -44 -60 -114t-68 -260h-183l88 424q4 21 2.5 25.5t-13.5 12.5l-42 27v2l258 16l-37 -193
h2q35 81 92 137t109 56q44 0 74 -29.5t30 -87.5q0 -33 -11 -76h2q36 83 95.5 138t121.5 55q43 0 68 -27.5t25 -71.5q0 -38 -22 -113l-36 -118q-13 -44 -13 -67q0 -22 17 -22q16 0 31 15q23 22 39 57l2 -1q-16 -76 -65 -121.5t-113 -45.5z" />
    <glyph glyph-name="n" unicode="n" horiz-adv-x="611" 
d="M419 -8q-51 0 -78.5 28t-27.5 68q0 45 24 115l43 130q14 44 14 59q0 17 -16 17q-26 0 -56 -35q-37 -44 -61.5 -116t-66.5 -258h-183l88 424q3 19 1.5 24.5t-12.5 13.5l-42 27v2l258 16l-37 -193h2q36 83 95.5 138t121.5 55q43 0 68 -27.5t25 -71.5q0 -38 -22 -113
l-36 -118q-13 -44 -13 -67q0 -22 17 -22q16 0 31 15q23 22 39 57h2q-16 -76 -65 -122t-113 -46z" />
    <glyph glyph-name="o" unicode="o" horiz-adv-x="561" 
d="M241 -8q-43 0 -81 10.5t-72.5 33.5t-54.5 67t-20 104q0 131 88.5 215.5t220.5 84.5q42 0 79 -10t71.5 -33t55 -67t20.5 -105q0 -133 -89 -216.5t-218 -83.5zM231 12q46 -1 85.5 137.5t39.5 278.5q0 59 -26 59q-46 1 -85.5 -137.5t-39.5 -278.5q0 -59 26 -59z" />
    <glyph glyph-name="p" unicode="p" horiz-adv-x="583" 
d="M301 -8q-63 0 -97 47l-45 -198q-2 -10 -0.5 -14t11.5 -9l81 -44v-2h-336v2l47 42q13 12 16 28l121 585q3 15 1.5 20.5t-10.5 11.5l-44 28v2l257 16l-36 -184h2q28 72 73.5 128t103.5 56q127 0 127 -148q0 -142 -84 -254.5t-188 -112.5zM303 362q-39 -60 -96 -309
q11 -7 27 -7q18 0 40.5 22t43.5 64q59 122 59 241q0 38 -23 38q-20 0 -51 -49z" />
    <glyph glyph-name="q" unicode="q" horiz-adv-x="569" 
d="M277 507q67 0 111 -39l181 39l-133 -666q-2 -12 -1 -16t8 -11l41 -40v-2h-314v2l69 50q14 9 18 30l62 312h-2q-27 -75 -70.5 -124.5t-104.5 -49.5q-53 0 -89 45.5t-36 115.5q0 142 77 248t183 106zM293 145q37 75 87 311q-10 6 -21 6q-51 0 -89 -72q-30 -57 -44.5 -131
t-14.5 -125q0 -46 25 -46q28 0 57 57z" />
    <glyph glyph-name="r" unicode="r" horiz-adv-x="441" 
d="M12 0l87 424q4 21 2.5 25.5t-13.5 12.5l-42 27v2l258 16l-37 -193h2q66 193 164 193q35 0 53 -16l-85 -242h-2l-67 118q-5 8 -9 8t-10 -6q-9 -9 -26 -45q-40 -85 -93 -324h-182z" />
    <glyph glyph-name="s" unicode="s" horiz-adv-x="424" 
d="M388 165q0 -71 -58 -122t-163 -51q-98 0 -175 30l55 179h2l99 -179q7 -11 20 -11h1q31 0 51 17t20 44q0 9 -3 16.5t-12.5 17.5t-17 16.5t-27.5 23.5t-34 29q-52 44 -72.5 82t-20.5 82q0 69 51 118.5t144 49.5q75 0 170 -20l-56 -176h-2l-97 171q-4 6 -12 6h-1
q-23 -1 -38 -17t-15 -44q0 -22 20.5 -47.5t74.5 -69.5q55 -46 75.5 -75t20.5 -70z" />
    <glyph glyph-name="t" unicode="t" horiz-adv-x="325" 
d="M124 -8q-50 0 -74 31t-24 71q0 31 8 71l69 306h-62v20h52q20 0 35 12l196 186h2l-41 -198h88v-20h-92l-64 -315q-5 -26 -5 -45q0 -23 19 -23q16 0 31 15q23 22 39 57l2 -1q-18 -85 -78 -132q-44 -35 -101 -35z" />
    <glyph glyph-name="u" unicode="u" horiz-adv-x="616" 
d="M426 -8q-51 0 -76.5 26t-25.5 70q0 43 17 97h-2q-35 -82 -95.5 -137.5t-116.5 -55.5q-44 0 -69.5 27.5t-25.5 71.5q0 38 22 113l36 118q13 44 13 67q0 22 -17 22q-14 0 -31 -15q-23 -22 -39 -47l-2 1q26 72 71.5 114.5t106.5 42.5q51 0 78.5 -28t27.5 -68q0 -45 -24 -115
l-43 -130q-14 -44 -14 -59q0 -17 16 -17q23 0 53 35q31 38 51 94t61 205q10 39 16 60l187 23l-79 -331q-9 -41 -9 -64q0 -24 19 -24q16 0 31 15q23 22 39 57l2 -1q-22 -85 -75 -129q-46 -38 -103 -38z" />
    <glyph glyph-name="v" unicode="v" horiz-adv-x="490" 
d="M155 -8q-55 0 -83 30t-28 75q0 33 15 98l30 127q13 57 13 66q0 23 -20 23q-26 0 -75 -60l-2 1q63 155 181 155q103 0 103 -113q0 -46 -20 -117l-30 -105q-9 -30 -9 -51q0 -43 38 -43q48 0 82 63t34 146q0 71 -31 129q-12 22 -29 44v2l181 45q-6 -84 -35 -174.5
t-74.5 -166.5t-109 -125t-131.5 -49z" />
    <glyph glyph-name="w" unicode="w" horiz-adv-x="765" 
d="M155 -8q-55 0 -83 30t-28 75q0 33 15 98l30 127q13 57 13 66q0 23 -20 23q-26 0 -75 -60l-2 1q63 155 181 155q103 0 103 -113q0 -46 -20 -117l-30 -105q-10 -33 -10 -55q0 -39 31 -39q48 0 79 104q32 106 44 303l185 22q-13 -129 -54 -319q-9 -43 -9 -62q0 -48 39 -48
q46 0 80.5 60.5t34.5 147.5q0 68 -20 118q-13 32 -30 56v2l171 45q-11 -130 -61.5 -249.5t-124.5 -192.5t-149 -73q-49 0 -75 31t-26 88q0 9 2 31h-2q-22 -63 -72 -106.5t-117 -43.5z" />
    <glyph glyph-name="x" unicode="x" horiz-adv-x="514" 
d="M209 507q97 0 120 -114l8 -43l21 44q32 62 57.5 87.5t60.5 25.5q42 0 70 -34l-80 -187h-2l-42 48q-20 22 -42 22q-10 0 -21 -5q-2 -1 -6 -2.5t-7.5 -3.5t-6.5 -4l36 -182q13 -66 48 -66q37 0 65 67l2 -1q-18 -80 -68 -123.5t-110 -43.5q-96 0 -120 114l-9 41
q-5 -10 -13.5 -27.5t-10.5 -22.5q-30 -58 -55 -81.5t-59 -23.5q-42 0 -70 34l80 187h2l39 -46q20 -24 44 -24q15 0 28 7l13 8l-35 182q-13 66 -48 66q-37 0 -65 -67l-2 1q18 80 68 123.5t110 43.5z" />
    <glyph glyph-name="y" unicode="y" horiz-adv-x="523" 
d="M304 -35q-76 -85 -179.5 -143t-170.5 -58q-25 0 -38 7l61 182h2l130 -105q7 -6 16 -2q6 2 28 17q8 5 8 20v9q-1 126 -20.5 251t-45.5 206q-12 34 -28 34q-24 0 -51 -58h-2q6 75 50.5 128.5t105.5 53.5q24 0 43.5 -10t30.5 -22t21.5 -36.5t15 -39.5t12.5 -45
q38 -150 32 -329l2 -1q29 41 57 125q20 61 20 144q0 101 -50 167v2l178 45q-10 -147 -72 -292t-156 -250z" />
    <glyph glyph-name="z" unicode="z" horiz-adv-x="421" 
d="M246 -15q-16 0 -34.5 4.5t-46.5 13t-51 13.5q-50 12 -71 12q-50 0 -69 -39h-2q3 28 13 50q18 41 56 74l236 205q-29 0 -67 10q-106 24 -120 24q-52 0 -75 -57h-2q13 68 32 114.5t42.5 68.5t45 30.5t48.5 8.5q16 0 34.5 -4.5t46.5 -13t51 -13.5q50 -12 71 -12q49 0 70 43
h2q-6 -72 -70 -128l-236 -205q29 -1 97 -17.5t90 -16.5q45 0 75 58h2q-16 -107 -57 -165q-43 -58 -111 -58z" />
    <glyph glyph-name="braceleft" unicode="{" horiz-adv-x="354" 
d="M202 -142q-77 0 -122 45t-24 128l49 189q7 26 -11.5 46.5t-48.5 25.5v1q32 5 58.5 25t30.5 47l28 189q8 53 29 89t52.5 53t63 24t70.5 7q27 0 60 -7v-2q-62 -1 -97.5 -42t-43.5 -94l-26 -176q-7 -46 -42.5 -76t-96.5 -37v-1q57 -10 80.5 -39t12.5 -74l-45 -176
q-14 -55 5 -95t81 -41v-2q-37 -7 -63 -7z" />
    <glyph glyph-name="bar" unicode="|" horiz-adv-x="221" 
d="M20 -250l-19 4l199 996l20 -4z" />
    <glyph glyph-name="braceright" unicode="}" horiz-adv-x="354" 
d="M-7 -142q-27 0 -60 7v2q62 1 97.5 42t43.5 94l26 176q7 47 43 77.5t96 35.5v1q-57 10 -80.5 39t-12.5 74l45 176q14 55 -5 95t-81 41v2q37 7 63 7q77 0 122 -45t24 -128l-49 -189q-7 -26 11.5 -46.5t48.5 -25.5v-1q-32 -5 -57.5 -25t-31.5 -47l-28 -189q-8 -53 -29 -89
t-52.5 -53t-63 -24t-70.5 -7z" />
    <glyph glyph-name="asciitilde" unicode="~" horiz-adv-x="503" 
d="M381 276q-46 0 -116.5 33t-110.5 33q-60 0 -96 -58l-17 11q40 67 113 67q46 0 116.5 -33t110.5 -33q60 0 96 58l17 -11q-40 -67 -113 -67z" />
    <glyph glyph-name="uni00A0" unicode="&#xa0;" horiz-adv-x="0" 
 />
    <glyph glyph-name="exclamdown" unicode="&#xa1;" horiz-adv-x="312" 
d="M169 277l53 -481h-295l240 481h2zM190 335q-37 0 -62 21t-25 56q0 40 28.5 67.5t67.5 27.5q35 0 59.5 -22t24.5 -56q0 -41 -27.5 -67.5t-65.5 -26.5z" />
    <glyph glyph-name="cent" unicode="&#xa2;" horiz-adv-x="459" 
d="M208 -8q-90 0 -142.5 54t-52.5 141q0 127 83 221t216 98l20 99l19 -3l-19 -95q78 -2 145 -22l-90 -216h-1l-61 202l-68 -350q19 -14 43 -14q60 0 126 70l2 -1q-63 -169 -196 -183l-20 -101l-19 3l19 97h-4zM217 227q0 -56 23 -89l68 347q-27 -10 -59 -99.5t-32 -158.5z
" />
    <glyph glyph-name="sterling" unicode="&#xa3;" horiz-adv-x="605" 
d="M491 0h-525v2l136 139q67 69 67 120q0 16 -6 34h-94v20h86q-3 8 -23.5 48.5t-30 70t-9.5 61.5q0 103 81 160.5t218 57.5q127 0 227 -18l-49 -251h-2l-114 232q-7 13 -19 13h-8q-34 0 -58.5 -19.5t-37.5 -52t-18.5 -65.5t-5.5 -67q0 -16 1 -49t1 -48q0 -41 -7 -73h169v-20
h-173q-28 -101 -125 -124v-2h263q35 0 47 3.5t33 20.5l67 54l2 -1z" />
    <glyph glyph-name="currency" unicode="&#xa4;" horiz-adv-x="737" 
d="M115 64l-15 14l112 112q-61 64 -61 162q0 97 61 161l-112 113l14 15l113 -113q67 57 161 57q95 0 161 -58l113 113l15 -14l-113 -113q62 -65 62 -161t-62 -161l112 -112l-14 -15l-113 113q-66 -57 -161 -57t-160 56zM173 352q0 -95 61.5 -153.5t153.5 -58.5t154 58.5
t62 153.5t-62.5 154t-153.5 59t-153 -59t-62 -154z" />
    <glyph glyph-name="yen" unicode="&#xa5;" horiz-adv-x="647" 
d="M595 515l-147 -220q-8 -11 -13 -25h129v-20h-133l-15 -74h129v-20h-133l-9 -45q-3 -19 3 -29l48 -80v-2h-355v2l80 80q12 12 15 29l9 45h-151v20h155l12 60q2 10 1 14h-149v20h144l-91 303q-5 16 -18 49l-33 79v2h351v-2l-73 -79q-12 -12 -8 -27l79 -304l150 228
q8 12 8.5 17t-4.5 18l-56 147v2h263v-2l-158 -151q-19 -18 -30 -35z" />
    <glyph glyph-name="brokenbar" unicode="&#xa6;" horiz-adv-x="221" 
d="M20 -250l-19 4l87 436l20 -4zM134 320l-20 4l86 426l20 -4z" />
    <glyph glyph-name="section" unicode="&#xa7;" horiz-adv-x="573" 
d="M205 -201q-122 0 -185 20l103 184h2l58 -168q5 -12 10 -15t22 -3h3q35 0 63 19t28 50q0 27 -26 50.5t-86 60.5l-33 20q-75 45 -102.5 82t-27.5 86q0 72 60.5 124.5t134.5 59.5q-87 62 -87 151q0 87 69 140t168 53q122 0 185 -20l-103 -184h-2l-58 168q-5 12 -10 15t-22 3
h-3q-35 0 -63.5 -19t-28.5 -50q0 -28 25.5 -51.5t84.5 -59.5l33 -20q73 -44 101.5 -82.5t28.5 -79.5q0 -79 -60 -131t-136 -59q88 -62 88 -149t-68 -141t-166 -54zM315 312l-74 49q-61 -20 -61 -71q0 -15 13 -31t27 -26.5t46 -32.5l74 -50q61 20 61 72q0 15 -13 31t-27 26.5
t-46 32.5z" />
    <glyph glyph-name="dieresis" unicode="&#xa8;" horiz-adv-x="478" 
d="M136 697q33 0 54 -18t21 -50q0 -36 -24.5 -57.5t-59.5 -21.5q-32 0 -54.5 18t-22.5 49q0 36 26 58t60 22zM353 697q33 0 54 -18t21 -50q0 -36 -24.5 -57.5t-59.5 -21.5q-32 0 -54.5 18t-22.5 49q0 36 26 58t60 22z" />
    <glyph glyph-name="copyright" unicode="&#xa9;" horiz-adv-x="813" 
d="M382 350q0 -189 70 -189h3q15 0 21 8l98 139h1v-155q-55 -10 -138 -10q-102 0 -152 54.5t-50 152.5t52 154t150 56q79 0 138 -11v-152h-1l-97 137q-6 8 -15 8h-6q-74 0 -74 -192zM426 713q157 0 258 -100.5t101 -260.5q0 -155 -99.5 -258.5t-259.5 -103.5
q-162 0 -260.5 103.5t-98.5 258.5q0 153 104.5 257t254.5 104zM426 693q-142 0 -239 -98t-97 -243q0 -147 92 -244.5t244 -97.5q150 0 243 97.5t93 244.5q0 151 -94 246t-242 95z" />
    <glyph glyph-name="ordfeminine" unicode="&#xaa;" horiz-adv-x="414" 
d="M135 366q-34 0 -59.5 29.5t-25.5 81.5q0 96 52 166.5t123 70.5q50 0 76 -26l126 27l1 -2q-46 -196 -49 -210q-9 -39 -9 -53q0 -19 13 -19q15 0 46 38l2 -1q-17 -42 -39 -65q-33 -37 -81 -37q-28 0 -46 18t-19 46q0 19 4 39l-2 1q-40 -104 -113 -104zM200 431
q11 0 28.5 24t25.5 56l42 168q-7 4 -14 4q-38 0 -65 -55q-36 -75 -36 -169q0 -28 19 -28z" />
    <glyph glyph-name="guillemotleft" unicode="&#xab;" horiz-adv-x="484" 
d="M27 253l287 247l2 -1l-143 -248l40 -246l-2 -1l-184 247v2zM224 253l287 247l2 -1l-143 -248l40 -246l-2 -1l-184 247v2z" />
    <glyph glyph-name="logicalnot" unicode="&#xac;" horiz-adv-x="540" 
d="M496 109h-21v205h-440v20h461v-225z" />
    <glyph glyph-name="uni00AD" unicode="&#xad;" horiz-adv-x="351" 
d="M306 239h-260v21h260v-21z" />
    <glyph glyph-name="registered" unicode="&#xae;" horiz-adv-x="813" 
d="M426 713q157 0 258 -100.5t101 -260.5q0 -155 -99.5 -258.5t-259.5 -103.5q-162 0 -260.5 103.5t-98.5 258.5q0 153 104.5 257t254.5 104zM426 693q-142 0 -239 -98t-97 -243q0 -147 92 -244.5t244 -97.5q150 0 243 97.5t93 244.5q0 151 -94 246t-242 95zM246 169v2
l30 38q4 5 4 17v266q0 12 -4 17l-30 39v1h234q55 0 90.5 -22t35.5 -71q0 -48 -35.5 -73.5t-101.5 -26.5v-1l104 -20l34 -118q2 -9 14 -21l27 -25v-2h-162l-40 176q-2 5 -9 5h-36v-124q0 -11 5 -17l29 -38v-2h-189zM401 520v-154h34q42 0 42 80q0 86 -41 86h-19
q-8 0 -11.5 -1t-4 -3t-0.5 -8z" />
    <glyph glyph-name="macron" unicode="&#xaf;" horiz-adv-x="405" 
d="M350 593h-300v20h300v-20z" />
    <glyph glyph-name="degree" unicode="&#xb0;" horiz-adv-x="324" 
d="M73 589q0 54 37 88t90 34t90 -34t37 -88q0 -53 -37 -86t-90 -33t-90 33t-37 86zM95 589q0 -43 31 -71t74 -28t74 28t31 71q0 45 -31 73.5t-74 28.5t-74 -29t-31 -73z" />
    <glyph glyph-name="plusminus" unicode="&#xb1;" horiz-adv-x="540" 
d="M70 364v20h210v160h21v-160h210v-20h-210v-160h-21v160h-210zM70 104v20h441v-20h-441z" />
    <glyph glyph-name="twosuperior" unicode="&#xb2;" horiz-adv-x="330" 
d="M266 713q52 0 82 -19t30 -51q0 -50 -59 -87.5t-154 -55.5v-2h117q28 0 42 10l34 23h2l-45 -113h-260v2l87 76q73 63 94 92q29 39 29 77q0 32 -23 32h-4q-7 0 -12 -6l-73 -104h-2l-36 98q67 28 151 28z" />
    <glyph glyph-name="threesuperior" unicode="&#xb3;" horiz-adv-x="330" 
d="M378 647q0 -32 -29.5 -51t-79.5 -23v-2q40 -2 63.5 -19.5t23.5 -43.5q0 -48 -50 -71.5t-121 -23.5q-78 0 -127 20l80 101h2l24 -98q2 -6 12 -6h2q27 0 46 24.5t19 58.5q0 21 -15.5 36t-40.5 19v2q33 2 54.5 29t21.5 67q0 15 -7 23t-17 8h-3q-7 0 -12 -6l-71 -97h-2
l-38 91q68 28 144 28q59 0 90 -17.5t31 -48.5z" />
    <glyph glyph-name="acute" unicode="&#xb4;" horiz-adv-x="355" 
d="M137 703h186v-2l-289 -168l-1 2z" />
    <glyph glyph-name="mu" unicode="&#xb5;" horiz-adv-x="626" 
d="M523 115q0 -27 21 -27q16 0 36 21.5t32 50.5l2 -1q-14 -60 -48 -101q-54 -66 -136 -66q-46 0 -71 26.5t-25 73.5q0 32 17 93h-2q-51 -114 -133 -166l-14 -9l-37 -169q-2 -10 -0.5 -14t11.5 -9l81 -44v-2h-336v2l47 42q11 10 16 28l116 478q13 52 13 67q0 22 -17 22
q-15 0 -33 -16q-9 -8 -37 -46l-2 1q26 72 71 114.5t106 42.5q52 0 79.5 -28t27.5 -68q0 -39 -24 -115l-43 -130q-14 -44 -14 -59q0 -17 16 -17t36 18t35 42q27 37 52 125l57 209l186 23l2 -1l-79 -329q-9 -36 -9 -62z" />
    <glyph glyph-name="paragraph" unicode="&#xb6;" horiz-adv-x="612" 
d="M372 -250h-21l48 250h-53q-119 0 -196 70.5t-77 198.5q0 118 47 215.5t142 158t221 60.5h144v-20h-74l-129 -663h69v-20h-73zM347 20h56l129 663h-56z" />
    <glyph glyph-name="periodcentered" unicode="&#xb7;" horiz-adv-x="262" 
d="M163 504q37 0 62 -21t25 -56q0 -40 -28.5 -67.5t-67.5 -27.5q-35 0 -59.5 22t-24.5 56q0 41 27.5 67.5t65.5 26.5z" />
    <glyph glyph-name="cedilla" unicode="&#xb8;" horiz-adv-x="360" 
d="M310 -124q0 -51 -41.5 -81.5t-99.5 -30.5q-53 0 -89 26.5t-28 73.5l3 1q3 -32 26.5 -45t49.5 -13q30 0 52 18.5t22 48.5q0 19 -16 29.5t-39 10.5t-39 -7l-1 2l95 86h2l-17 -54q18 3 33 3q40 0 63.5 -19t23.5 -49z" />
    <glyph glyph-name="onesuperior" unicode="&#xb9;" horiz-adv-x="280" 
d="M305 719l-52 -259q-2 -8 3 -11l55 -29v-2h-252v2l67 29q7 3 9 11l35 178q1 8 -4 9l-63 14v2z" />
    <glyph glyph-name="ordmasculine" unicode="&#xba;" horiz-adv-x="408" 
d="M201 366q-63 0 -107 34t-44 111q0 89 59 145.5t148 56.5q28 0 52.5 -6.5t47.5 -21.5t36.5 -45t13.5 -71q0 -91 -59.5 -147t-146.5 -56zM195 380q32 -1 58 92t26 188q0 40 -17 40q-32 0 -58.5 -93t-26.5 -188q0 -39 18 -39z" />
    <glyph glyph-name="guillemotright" unicode="&#xbb;" horiz-adv-x="484" 
d="M265 251l-287 -247l-2 1l143 248l-40 246l2 1l184 -247v-2zM460 251l-287 -247l-2 1l143 248l-40 246l2 1l184 -247v-2z" />
    <glyph glyph-name="onequarter" unicode="&#xbc;" horiz-adv-x="556" 
d="M82 341v20h436v-20h-436zM424 419v-1h-252v1l67 30q7 3 9 11l35 178q1 7 -4 9l-63 15v1l202 56l-52 -259q-2 -8 3 -11zM162 1l42 25q6 4 7 11l6 33h-140v2l209 218h79l-41 -204h8q10 0 16 7l63 80h2l-27 -103h-65l-7 -34q-1 -5 4 -10l30 -25v-1h-186v1zM110 86h110
l29 143z" />
    <glyph glyph-name="onehalf" unicode="&#xbd;" horiz-adv-x="556" 
d="M82 341v20h436v-20h-436zM424 419v-1h-252v1l67 30q7 3 9 11l35 178q1 7 -4 9l-63 15v1l202 56l-52 -259q-2 -8 3 -11zM296 295q52 0 82 -19t30 -51q0 -50 -59 -87.5t-154 -55.5v-2h117q28 0 42 10l34 23h2l-45 -113h-260v2l87 76q73 63 94 92q29 39 29 77q0 32 -23 32
h-4q-7 0 -12 -6l-73 -104h-2l-36 98q67 28 151 28z" />
    <glyph glyph-name="threequarters" unicode="&#xbe;" horiz-adv-x="556" 
d="M51 341v20h456v-20h-456zM469 508q0 -48 -50 -71.5t-121 -23.5q-78 0 -127 20l80 101h1l25 -98q2 -6 12 -6h2q27 0 46 24.5t19 58.5q0 21 -15.5 36t-40.5 19v2q33 2 54.5 29t21.5 67q0 15 -7 23t-17 8h-3q-7 0 -12 -6l-72 -97h-1l-38 91q68 28 144 28q59 0 90 -17.5
t31 -48.5q0 -33 -30 -52t-79 -23v-1q40 -2 63.5 -19.5t23.5 -43.5zM162 1l42 25q6 4 7 11l6 33h-140v2l209 218h79l-41 -204h8q10 0 16 7l63 80h2l-27 -103h-65l-7 -34q-1 -5 4 -10l30 -25v-1h-186v1zM110 86h110l29 143z" />
    <glyph glyph-name="questiondown" unicode="&#xbf;" horiz-adv-x="449" 
d="M234 256q31 0 59 -28t28 -62q0 -31 -20 -59.5t-48.5 -51t-57 -45.5t-48.5 -54t-20 -66t15 -60t43 -25h2q21 0 29 13l139 221h2l55 -197q-134 -57 -244 -57q-109 0 -170.5 40t-61.5 117q0 36 13.5 67t33.5 51.5t49.5 41t53.5 32t55 26t45 22.5q25 14 35 29q11 15 11 43z
M284 334q-37 0 -62 21t-25 56q0 40 28.5 67.5t67.5 27.5q35 0 59.5 -22t24.5 -56q0 -41 -27.5 -67.5t-65.5 -26.5z" />
    <glyph glyph-name="Agrave" unicode="&#xc0;" horiz-adv-x="644" 
d="M363 104l-14 141h-208l-23 -45q-9 -17 -2 -36l58 -162v-2h-243v2l138 162q18 21 30 45l200 385q7 14 7.5 19t-5.5 15l-46 73v2h258l58 -577q2 -14 10 -43l24 -81v-2h-300v2l50 75q9 14 8 27zM316 582l-164 -316h195zM186 907h186l104 -168l-1 -2l-289 168v2z" />
    <glyph glyph-name="Aacute" unicode="&#xc1;" horiz-adv-x="644" 
d="M363 104l-14 141h-208l-23 -45q-9 -17 -2 -36l58 -162v-2h-243v2l138 162q18 21 30 45l200 385q7 14 7.5 19t-5.5 15l-46 73v2h258l58 -577q2 -14 10 -43l24 -81v-2h-300v2l50 75q9 14 8 27zM316 582l-164 -316h195zM403 907h186v-2l-289 -168l-1 2z" />
    <glyph glyph-name="Acircumflex" unicode="&#xc2;" horiz-adv-x="644" 
d="M363 104l-14 141h-208l-23 -45q-9 -17 -2 -36l58 -162v-2h-243v2l138 162q18 21 30 45l200 385q7 14 7.5 19t-5.5 15l-46 73v2h258l58 -577q2 -14 10 -43l24 -81v-2h-300v2l50 75q9 14 8 27zM316 582l-164 -316h195zM423 914l140 -175l-1 -1l-159 62l-191 -62l-1 1
l210 175h2z" />
    <glyph glyph-name="Atilde" unicode="&#xc3;" horiz-adv-x="644" 
d="M363 104l-14 141h-208l-23 -45q-9 -17 -2 -36l58 -162v-2h-243v2l138 162q18 21 30 45l200 385q7 14 7.5 19t-5.5 15l-46 73v2h258l58 -577q2 -14 10 -43l24 -81v-2h-300v2l50 75q9 14 8 27zM316 582l-164 -316h195zM456 767q-29 0 -71.5 25t-64.5 25q-52 0 -77 -51h-2
q7 61 40 98t78 37q29 0 71.5 -25t64.5 -25q51 0 77 51h2q-7 -61 -40 -98t-78 -37z" />
    <glyph glyph-name="Adieresis" unicode="&#xc4;" horiz-adv-x="644" 
d="M363 104l-14 141h-208l-23 -45q-9 -17 -2 -36l58 -162v-2h-243v2l138 162q18 21 30 45l200 385q7 14 7.5 19t-5.5 15l-46 73v2h258l58 -577q2 -14 10 -43l24 -81v-2h-300v2l50 75q9 14 8 27zM316 582l-164 -316h195zM305 901q33 0 54 -18t21 -50q0 -36 -24.5 -57.5
t-59.5 -21.5q-32 0 -54.5 18t-22.5 49q0 36 26 58t60 22zM522 901q33 0 54 -18t21 -50q0 -36 -24.5 -57.5t-59.5 -21.5q-32 0 -54.5 18t-22.5 49q0 36 26 58t60 22z" />
    <glyph glyph-name="Aring" unicode="&#xc5;" horiz-adv-x="644" 
d="M363 104l-14 141h-208l-23 -45q-9 -17 -2 -36l58 -162v-2h-243v2l138 162q18 21 30 45l200 385q7 14 7.5 19t-5.5 15l-46 73v2h258l58 -577q2 -14 10 -43l24 -81v-2h-300v2l50 75q9 14 8 27zM316 582l-164 -316h195zM400 742q-36 0 -62 23.5t-26 62.5q0 46 32 80t82 34
q36 0 62 -23.5t26 -62.5q0 -46 -32 -80t-82 -34zM425 921q-37 0 -63.5 -27t-26.5 -65q0 -30 19 -48t47 -18q37 0 63.5 27t26.5 65q0 30 -19 48t-47 18z" />
    <glyph glyph-name="AE" unicode="&#xc6;" horiz-adv-x="946" 
d="M178 0h-258v2l170 153q28 25 50 51l323 392q9 12 3 22l-56 81v2h578l-53 -257h-2l-107 221q-6 15 -24 15h-61q-11 0 -14.5 -2.5t-5.5 -15.5l-62 -305h36q14 0 27 11l129 112h2l-54 -267h-2l-83 112q-9 11 -23 11h-36l-61 -299q-2 -12 0 -15t14 -3h80q16 0 30 15l186 228
h4l-51 -264h-543v2l70 72q10 11 13 26l29 145h-228l-36 -44q-13 -15 -15 -22.5t2 -24.5l29 -152v-2zM497 598q2 10 2 12l-284 -345h215z" />
    <glyph glyph-name="Ccedilla" unicode="&#xc7;" horiz-adv-x="638" 
d="M418 -124q0 -51 -41.5 -81.5t-99.5 -30.5q-53 0 -89 26.5t-28 73.5l3 1q3 -32 26.5 -45t49.5 -13q30 0 52 18.5t22 48.5q0 19 -16 29.5t-39 10.5t-39 -7l-1 2l89 81q-129 3 -201 77t-72 200q0 196 117.5 321t310.5 125q128 0 228 -18l-53 -265h-2l-125 251q-5 8 -8.5 10
t-13.5 2h-9q-27 0 -56.5 -21t-58.5 -64.5t-52 -103t-37.5 -145t-14.5 -182.5q0 -78 20.5 -122.5t59.5 -44.5h5q19 0 31 12l228 255h2l-54 -269q-107 -18 -236 -18h-3l-15 -49q18 3 33 3q40 0 63.5 -19t23.5 -49z" />
    <glyph glyph-name="Egrave" unicode="&#xc8;" 
d="M269 21h67q14 0 20.5 3t18.5 18l183 222h2l-51 -264h-543v2l69 71q12 13 15 32l100 493q4 20 -2 31l-41 72l1 2h531l-52 -257h-2l-105 216q-7 15 -11 17.5t-18 2.5h-47q-20 0 -25 -3t-8 -19l-61 -301h32q13 0 18 2t19 14l123 107h2l-54 -267h-2l-79 107q-5 8 -9.5 11.5
t-8.5 4t-13 0.5h-32l-59 -294q-3 -16 0 -19.5t22 -3.5zM214 907h186l104 -168l-1 -2l-289 168v2z" />
    <glyph glyph-name="Eacute" unicode="&#xc9;" 
d="M269 21h67q14 0 20.5 3t18.5 18l183 222h2l-51 -264h-543v2l69 71q12 13 15 32l100 493q4 20 -2 31l-41 72l1 2h531l-52 -257h-2l-105 216q-7 15 -11 17.5t-18 2.5h-47q-20 0 -25 -3t-8 -19l-61 -301h32q13 0 18 2t19 14l123 107h2l-54 -267h-2l-79 107q-5 8 -9.5 11.5
t-8.5 4t-13 0.5h-32l-59 -294q-3 -16 0 -19.5t22 -3.5zM431 907h186v-2l-289 -168l-1 2z" />
    <glyph glyph-name="Ecircumflex" unicode="&#xca;" 
d="M269 21h67q14 0 20.5 3t18.5 18l183 222h2l-51 -264h-543v2l69 71q12 13 15 32l100 493q4 20 -2 31l-41 72l1 2h531l-52 -257h-2l-105 216q-7 15 -11 17.5t-18 2.5h-47q-20 0 -25 -3t-8 -19l-61 -301h32q13 0 18 2t19 14l123 107h2l-54 -267h-2l-79 107q-5 8 -9.5 11.5
t-8.5 4t-13 0.5h-32l-59 -294q-3 -16 0 -19.5t22 -3.5zM451 914l140 -175l-1 -1l-159 62l-191 -62l-1 1l210 175h2z" />
    <glyph glyph-name="Edieresis" unicode="&#xcb;" 
d="M269 21h67q14 0 20.5 3t18.5 18l183 222h2l-51 -264h-543v2l69 71q12 13 15 32l100 493q4 20 -2 31l-41 72l1 2h531l-52 -257h-2l-105 216q-7 15 -11 17.5t-18 2.5h-47q-20 0 -25 -3t-8 -19l-61 -301h32q13 0 18 2t19 14l123 107h2l-54 -267h-2l-79 107q-5 8 -9.5 11.5
t-8.5 4t-13 0.5h-32l-59 -294q-3 -16 0 -19.5t22 -3.5zM333 901q33 0 54 -18t21 -50q0 -36 -24.5 -57.5t-59.5 -21.5q-32 0 -54.5 18t-22.5 49q0 36 26 58t60 22zM550 901q33 0 54 -18t21 -50q0 -36 -24.5 -57.5t-59.5 -21.5q-32 0 -54.5 18t-22.5 49q0 36 26 58t60 22z" />
    <glyph glyph-name="Igrave" unicode="&#xcc;" horiz-adv-x="363" 
d="M301 0h-335v2l70 72q11 12 14 31l100 493q4 20 -2 31l-41 72v2h335v-2l-69 -72q-11 -12 -14 -31l-100 -493q-4 -20 2 -31l40 -72v-2zM87 907h186l104 -168l-1 -2l-289 168v2z" />
    <glyph glyph-name="Iacute" unicode="&#xcd;" horiz-adv-x="363" 
d="M301 0h-335v2l70 72q11 12 14 31l100 493q4 20 -2 31l-41 72v2h335v-2l-69 -72q-11 -12 -14 -31l-100 -493q-4 -20 2 -31l40 -72v-2zM304 907h186v-2l-289 -168l-1 2z" />
    <glyph glyph-name="Icircumflex" unicode="&#xce;" horiz-adv-x="363" 
d="M301 0h-335v2l70 72q11 12 14 31l100 493q4 20 -2 31l-41 72v2h335v-2l-69 -72q-11 -12 -14 -31l-100 -493q-4 -20 2 -31l40 -72v-2zM324 914l140 -175l-1 -1l-159 62l-191 -62l-1 1l210 175h2z" />
    <glyph glyph-name="Idieresis" unicode="&#xcf;" horiz-adv-x="363" 
d="M301 0h-335v2l70 72q11 12 14 31l100 493q4 20 -2 31l-41 72v2h335v-2l-69 -72q-11 -12 -14 -31l-100 -493q-4 -20 2 -31l40 -72v-2zM206 901q33 0 54 -18t21 -50q0 -36 -24.5 -57.5t-59.5 -21.5q-32 0 -54.5 18t-22.5 49q0 36 26 58t60 22zM423 901q33 0 54 -18t21 -50
q0 -36 -24.5 -57.5t-59.5 -21.5q-32 0 -54.5 18t-22.5 49q0 36 26 58t60 22z" />
    <glyph glyph-name="Eth" unicode="&#xd0;" horiz-adv-x="741" 
d="M32 351v20h79l48 237q3 19 -3 29l-45 64v2h332q152 0 226 -71.5t74 -191.5q0 -187 -115 -313.5t-300 -126.5h-353v2l64 63q13 13 16 30l52 256h-75zM413 682q-15 0 -18.5 -3t-6.5 -18l-60 -290h105v-20h-109l-62 -307q-3 -15 0 -19t18 -4h13q44 0 81.5 34t63.5 91
t43 121.5t27 135.5q10 75 10 126q0 74 -19 113.5t-72 39.5h-14z" />
    <glyph glyph-name="Ntilde" unicode="&#xd1;" horiz-adv-x="692" 
d="M548 0h-126l-233 496l-58 -290q-3 -17 4 -34l71 -170v-2h-254v2l139 170q14 17 17 34l62 305q4 20 -1 31l-77 159l1 2h232l239 -514l62 308q3 17 -4 34l-72 170l1 2h254l-1 -2l-138 -170q-15 -19 -18 -34zM518 767q-29 0 -71.5 25t-64.5 25q-52 0 -77 -51h-2q7 61 40 98
t78 37q29 0 71.5 -25t64.5 -25q51 0 77 51h2q-7 -61 -40 -98t-78 -37z" />
    <glyph glyph-name="Ograve" unicode="&#xd2;" horiz-adv-x="733" 
d="M428 713q154 0 230.5 -76.5t76.5 -208.5q0 -190 -110 -314t-284 -124q-153 0 -230 77t-77 208q0 190 110 314t284 124zM321 11q43 0 81.5 65t61.5 155.5t36.5 177.5t13.5 141q0 80 -16 111t-50 31q-43 0 -81.5 -65t-61.5 -155.5t-36.5 -177.5t-13.5 -141q0 -80 16 -111
t50 -31zM257 907h186l104 -168l-1 -2l-289 168v2z" />
    <glyph glyph-name="Oacute" unicode="&#xd3;" horiz-adv-x="733" 
d="M428 713q154 0 230.5 -76.5t76.5 -208.5q0 -190 -110 -314t-284 -124q-153 0 -230 77t-77 208q0 190 110 314t284 124zM321 11q43 0 81.5 65t61.5 155.5t36.5 177.5t13.5 141q0 80 -16 111t-50 31q-43 0 -81.5 -65t-61.5 -155.5t-36.5 -177.5t-13.5 -141q0 -80 16 -111
t50 -31zM474 907h186v-2l-289 -168l-1 2z" />
    <glyph glyph-name="Ocircumflex" unicode="&#xd4;" horiz-adv-x="733" 
d="M428 713q154 0 230.5 -76.5t76.5 -208.5q0 -190 -110 -314t-284 -124q-153 0 -230 77t-77 208q0 190 110 314t284 124zM321 11q43 0 81.5 65t61.5 155.5t36.5 177.5t13.5 141q0 80 -16 111t-50 31q-43 0 -81.5 -65t-61.5 -155.5t-36.5 -177.5t-13.5 -141q0 -80 16 -111
t50 -31zM494 914l140 -175l-1 -1l-159 62l-191 -62l-1 1l210 175h2z" />
    <glyph glyph-name="Otilde" unicode="&#xd5;" horiz-adv-x="733" 
d="M428 713q154 0 230.5 -76.5t76.5 -208.5q0 -190 -110 -314t-284 -124q-153 0 -230 77t-77 208q0 190 110 314t284 124zM321 11q43 0 81.5 65t61.5 155.5t36.5 177.5t13.5 141q0 80 -16 111t-50 31q-43 0 -81.5 -65t-61.5 -155.5t-36.5 -177.5t-13.5 -141q0 -80 16 -111
t50 -31zM527 767q-29 0 -71.5 25t-64.5 25q-51 0 -77 -51h-2q7 61 40 98t78 37q29 0 71.5 -25t64.5 -25q52 0 77 51h2q-7 -61 -40 -98t-78 -37z" />
    <glyph glyph-name="Odieresis" unicode="&#xd6;" horiz-adv-x="733" 
d="M428 713q154 0 230.5 -76.5t76.5 -208.5q0 -190 -110 -314t-284 -124q-153 0 -230 77t-77 208q0 190 110 314t284 124zM321 11q43 0 81.5 65t61.5 155.5t36.5 177.5t13.5 141q0 80 -16 111t-50 31q-43 0 -81.5 -65t-61.5 -155.5t-36.5 -177.5t-13.5 -141q0 -80 16 -111
t50 -31zM376 901q33 0 54 -18t21 -50q0 -36 -24.5 -57.5t-59.5 -21.5q-32 0 -54.5 18t-22.5 49q0 36 26 58t60 22zM593 901q33 0 54 -18t21 -50q0 -36 -24.5 -57.5t-59.5 -21.5q-32 0 -54.5 18t-22.5 49q0 36 26 58t60 22z" />
    <glyph glyph-name="multiply" unicode="&#xd7;" horiz-adv-x="540" 
d="M142 161l-15 15l148 148l-148 148l15 15l148 -148l148 148l15 -15l-148 -148l148 -148l-15 -15l-148 148z" />
    <glyph glyph-name="Oslash" unicode="&#xd8;" horiz-adv-x="733" 
d="M428 713q44 0 86 -8l33 74l19 -7l-32 -71q101 -25 151 -96.5t50 -176.5q0 -190 -110 -314t-284 -124q-60 0 -114 13l-38 -85l-20 7l37 85q-86 29 -129 98t-43 167q0 190 110 314t284 124zM321 11q43 0 81.5 65t61.5 155.5t36.5 177.5t13.5 141q0 52 -8 86l-246 -557
q6 -37 21 -52.5t40 -15.5zM255 153v-32l241 543q-15 28 -48 28q-43 0 -81.5 -65t-61.5 -155.5t-36.5 -177.5t-13.5 -141z" />
    <glyph glyph-name="Ugrave" unicode="&#xd9;" horiz-adv-x="664" 
d="M289 -10q-230 0 -230 187q0 37 9 81l69 340q4 22 -2 32l-41 71v2h335v-2l-68 -71q-11 -13 -16 -32l-67 -335q-11 -52 -11 -97q0 -133 112 -133q64 0 114 56t73 169l44 219q5 31 3 42.5t-14 42.5l-54 139v2h238v-2l-110 -144q-22 -29 -28.5 -41t-12.5 -39l-44 -217
q-27 -136 -97 -203t-202 -67zM289 907h186l104 -168l-1 -2l-289 168v2z" />
    <glyph glyph-name="Uacute" unicode="&#xda;" horiz-adv-x="664" 
d="M289 -10q-230 0 -230 187q0 37 9 81l69 340q4 22 -2 32l-41 71v2h335v-2l-68 -71q-11 -13 -16 -32l-67 -335q-11 -52 -11 -97q0 -133 112 -133q64 0 114 56t73 169l44 219q5 31 3 42.5t-14 42.5l-54 139v2h238v-2l-110 -144q-22 -29 -28.5 -41t-12.5 -39l-44 -217
q-27 -136 -97 -203t-202 -67zM506 907h186v-2l-289 -168l-1 2z" />
    <glyph glyph-name="Ucircumflex" unicode="&#xdb;" horiz-adv-x="664" 
d="M289 -10q-230 0 -230 187q0 37 9 81l69 340q4 22 -2 32l-41 71v2h335v-2l-68 -71q-11 -13 -16 -32l-67 -335q-11 -52 -11 -97q0 -133 112 -133q64 0 114 56t73 169l44 219q5 31 3 42.5t-14 42.5l-54 139v2h238v-2l-110 -144q-22 -29 -28.5 -41t-12.5 -39l-44 -217
q-27 -136 -97 -203t-202 -67zM526 914l140 -175l-1 -1l-159 62l-191 -62l-1 1l210 175h2z" />
    <glyph glyph-name="Udieresis" unicode="&#xdc;" horiz-adv-x="664" 
d="M289 -10q-230 0 -230 187q0 37 9 81l69 340q4 22 -2 32l-41 71v2h335v-2l-68 -71q-11 -13 -16 -32l-67 -335q-11 -52 -11 -97q0 -133 112 -133q64 0 114 56t73 169l44 219q5 31 3 42.5t-14 42.5l-54 139v2h238v-2l-110 -144q-22 -29 -28.5 -41t-12.5 -39l-44 -217
q-27 -136 -97 -203t-202 -67zM408 901q33 0 54 -18t21 -50q0 -36 -24.5 -57.5t-59.5 -21.5q-32 0 -54.5 18t-22.5 49q0 36 26 58t60 22zM625 901q33 0 54 -18t21 -50q0 -36 -24.5 -57.5t-59.5 -21.5q-32 0 -54.5 18t-22.5 49q0 36 26 58t60 22z" />
    <glyph glyph-name="Yacute" unicode="&#xdd;" horiz-adv-x="641" 
d="M429 255l-29 -144q-3 -19 3 -29l48 -80v-2h-355v2l80 80q12 12 15 29l25 125q3 13 0 22l-95 315q-5 16 -18 49l-33 79v2h351v-2l-73 -79q-12 -12 -8 -27l79 -304l150 228q8 12 8.5 17t-4.5 18l-56 147v2h263v-2l-158 -151q-19 -18 -30 -35l-147 -220q-11 -17 -16 -40z
M490 907h186v-2l-289 -168l-1 2z" />
    <glyph glyph-name="Thorn" unicode="&#xde;" horiz-adv-x="676" 
d="M301 0h-335v2l70 72q11 12 14 31l100 493q4 20 -2 31l-41 72v2h335v-2l-69 -72q-11 -12 -14 -31l-5 -23h84q66 0 117.5 -16.5t86 -58.5t34.5 -105q0 -130 -98 -199t-262 -69h-53l-4 -22q-4 -20 2 -31l40 -72v-2zM268 148h22q46 0 82 30.5t54.5 76.5t27.5 90.5t9 83.5
q0 125 -86 125h-27z" />
    <glyph glyph-name="germandbls" unicode="&#xdf;" horiz-adv-x="649" 
d="M294 538l-79 -426q-22 -123 -66 -208q-75 -140 -228 -140q-61 0 -114 28l79 161h2l65 -161q4 -7 10 -7q11 0 19 14t14.5 44.5t11 58.5t11 76.5t11.5 79.5l62 370q2 12 9 43h-52v20h58q35 122 109 172t196 50q100 0 151.5 -30t51.5 -72q0 -57 -73 -98l-69 -39
q-23 -13 -33 -25.5t-10 -30.5q0 -16 9 -31t19 -23.5t32 -26.5l48 -38q44 -35 62 -65t18 -73q0 -75 -63 -122t-166 -47q-96 0 -175 32l92 153h2l56 -157q3 -7 11 -8q6 -1 20 -1q30 0 52 16t22 43q0 10 -7.5 21.5t-15.5 19t-23.5 21t-22.5 20.5l-44 42q-36 35 -50.5 58
t-14.5 54q0 61 74 116l63 46q77 57 77 145q0 38 -21.5 59.5t-60.5 21.5q-51 0 -82 -37.5t-47 -118.5z" />
    <glyph glyph-name="agrave" unicode="&#xe0;" 
d="M405 -8q-43 0 -70 26t-28 71q0 32 10 75h-2q-56 -172 -172 -172q-50 0 -88 43.5t-38 120.5q0 142 77.5 246.5t182.5 104.5q67 0 112 -39l189 39q-16 -67 -33 -142.5t-27 -118.5t-16 -66q-10 -39 -10 -65q0 -27 17 -27q16 0 31 15q23 22 39 57l2 -1q-18 -77 -65 -122
t-111 -45zM381 456q-11 6 -22 6q-55 0 -94 -83q-23 -49 -38 -118.5t-15 -128.5q0 -44 25 -44q28 0 54 54q42 87 90 314zM160 703h186l104 -168l-1 -2l-289 168v2z" />
    <glyph glyph-name="aacute" unicode="&#xe1;" 
d="M405 -8q-43 0 -70 26t-28 71q0 32 10 75h-2q-56 -172 -172 -172q-50 0 -88 43.5t-38 120.5q0 142 77.5 246.5t182.5 104.5q67 0 112 -39l189 39q-16 -67 -33 -142.5t-27 -118.5t-16 -66q-10 -39 -10 -65q0 -27 17 -27q16 0 31 15q23 22 39 57l2 -1q-18 -77 -65 -122
t-111 -45zM381 456q-11 6 -22 6q-55 0 -94 -83q-23 -49 -38 -118.5t-15 -128.5q0 -44 25 -44q28 0 54 54q42 87 90 314zM377 703h186v-2l-289 -168l-1 2z" />
    <glyph glyph-name="acircumflex" unicode="&#xe2;" 
d="M405 -8q-43 0 -70 26t-28 71q0 32 10 75h-2q-56 -172 -172 -172q-50 0 -88 43.5t-38 120.5q0 142 77.5 246.5t182.5 104.5q67 0 112 -39l189 39q-16 -67 -33 -142.5t-27 -118.5t-16 -66q-10 -39 -10 -65q0 -27 17 -27q16 0 31 15q23 22 39 57l2 -1q-18 -77 -65 -122
t-111 -45zM381 456q-11 6 -22 6q-55 0 -94 -83q-23 -49 -38 -118.5t-15 -128.5q0 -44 25 -44q28 0 54 54q42 87 90 314zM397 710l140 -175l-1 -1l-159 62l-191 -62l-1 1l210 175h2z" />
    <glyph glyph-name="atilde" unicode="&#xe3;" 
d="M405 -8q-43 0 -70 26t-28 71q0 32 10 75h-2q-56 -172 -172 -172q-50 0 -88 43.5t-38 120.5q0 142 77.5 246.5t182.5 104.5q67 0 112 -39l189 39q-16 -67 -33 -142.5t-27 -118.5t-16 -66q-10 -39 -10 -65q0 -27 17 -27q16 0 31 15q23 22 39 57l2 -1q-18 -77 -65 -122
t-111 -45zM381 456q-11 6 -22 6q-55 0 -94 -83q-23 -49 -38 -118.5t-15 -128.5q0 -44 25 -44q28 0 54 54q42 87 90 314zM430 563q-29 0 -71.5 25t-64.5 25q-52 0 -77 -51h-2q7 61 40 98t78 37q29 0 71.5 -25t64.5 -25q51 0 77 51h2q-7 -61 -40 -98t-78 -37z" />
    <glyph glyph-name="adieresis" unicode="&#xe4;" 
d="M405 -8q-43 0 -70 26t-28 71q0 32 10 75h-2q-56 -172 -172 -172q-50 0 -88 43.5t-38 120.5q0 142 77.5 246.5t182.5 104.5q67 0 112 -39l189 39q-16 -67 -33 -142.5t-27 -118.5t-16 -66q-10 -39 -10 -65q0 -27 17 -27q16 0 31 15q23 22 39 57l2 -1q-18 -77 -65 -122
t-111 -45zM381 456q-11 6 -22 6q-55 0 -94 -83q-23 -49 -38 -118.5t-15 -128.5q0 -44 25 -44q28 0 54 54q42 87 90 314zM279 697q33 0 54 -18t21 -50q0 -36 -24.5 -57.5t-59.5 -21.5q-32 0 -54.5 18t-22.5 49q0 36 26 58t60 22zM496 697q33 0 54 -18t21 -50
q0 -36 -24.5 -57.5t-59.5 -21.5q-32 0 -54.5 18t-22.5 49q0 36 26 58t60 22z" />
    <glyph glyph-name="aring" unicode="&#xe5;" 
d="M405 -8q-43 0 -70 26t-28 71q0 32 10 75h-2q-56 -172 -172 -172q-50 0 -88 43.5t-38 120.5q0 142 77.5 246.5t182.5 104.5q67 0 112 -39l189 39q-16 -67 -33 -142.5t-27 -118.5t-16 -66q-10 -39 -10 -65q0 -27 17 -27q16 0 31 15q23 22 39 57l2 -1q-18 -77 -65 -122
t-111 -45zM381 456q-11 6 -22 6q-55 0 -94 -83q-23 -49 -38 -118.5t-15 -128.5q0 -44 25 -44q28 0 54 54q42 87 90 314zM374 538q-36 0 -62 23.5t-26 62.5q0 46 32 80t82 34q36 0 62 -23.5t26 -62.5q0 -46 -32 -80t-82 -34zM399 717q-37 0 -63.5 -27t-26.5 -65q0 -30 19 -48
t47 -18q37 0 63.5 27t26.5 65q0 30 -19 48t-47 18z" />
    <glyph glyph-name="ae" unicode="&#xe6;" horiz-adv-x="789" 
d="M515 -8q-84 0 -136.5 46.5t-63.5 126.5l-3 -9q-23 -71 -65 -117.5t-104 -46.5q-50 0 -88 43.5t-38 120.5q0 142 78 246.5t184 104.5q102 0 140 -74q87 74 207 74q75 0 120 -29.5t45 -85.5q0 -67 -68.5 -112t-206.5 -54v-6q0 -118 96 -118q85 0 149 92l2 -1
q-28 -100 -95.5 -150.5t-152.5 -50.5zM239 88q16 0 38 29.5t36 71.5v13q0 131 95 221q-21 38 -56 38q-48 0 -87 -82q-23 -49 -38 -118.5t-15 -130.5q0 -42 27 -42zM629 487q-34 0 -71 -81.5t-42 -165.5q73 15 104.5 68t31.5 124q0 55 -23 55z" />
    <glyph glyph-name="ccedilla" unicode="&#xe7;" horiz-adv-x="454" 
d="M312 -124q0 -51 -41.5 -81.5t-99.5 -30.5q-53 0 -89 26.5t-28 73.5l3 1q3 -32 26.5 -45t49.5 -13q30 0 52 18.5t22 48.5q0 19 -16 29.5t-39 10.5t-39 -7l-1 2l91 83q-87 1 -138.5 55t-51.5 140q0 130 86.5 225t223.5 95q83 0 154 -22l-90 -216h-1l-62 208q-3 9 -11 9
q-27 0 -61.5 -93.5t-34.5 -165.5q0 -58 24 -89t59 -31q60 0 126 70l2 -1q-70 -184 -220 -184l-16 -51q18 3 33 3q40 0 63.5 -19t23.5 -49z" />
    <glyph glyph-name="egrave" unicode="&#xe8;" horiz-adv-x="489" 
d="M215 -8q-93 0 -147.5 57.5t-54.5 152.5q0 125 88.5 215t224.5 90q75 0 120 -29.5t45 -85.5q0 -67 -68.5 -112t-206.5 -54v-6q0 -118 96 -118q85 0 149 92l2 -1q-28 -100 -95.5 -150.5t-152.5 -50.5zM329 487q-34 0 -71 -81.5t-42 -165.5q73 15 104.5 68t31.5 124
q0 55 -23 55zM132 703h186l104 -168l-1 -2l-289 168v2z" />
    <glyph glyph-name="eacute" unicode="&#xe9;" horiz-adv-x="489" 
d="M215 -8q-93 0 -147.5 57.5t-54.5 152.5q0 125 88.5 215t224.5 90q75 0 120 -29.5t45 -85.5q0 -67 -68.5 -112t-206.5 -54v-6q0 -118 96 -118q85 0 149 92l2 -1q-28 -100 -95.5 -150.5t-152.5 -50.5zM329 487q-34 0 -71 -81.5t-42 -165.5q73 15 104.5 68t31.5 124
q0 55 -23 55zM349 703h186v-2l-289 -168l-1 2z" />
    <glyph glyph-name="ecircumflex" unicode="&#xea;" horiz-adv-x="489" 
d="M215 -8q-93 0 -147.5 57.5t-54.5 152.5q0 125 88.5 215t224.5 90q75 0 120 -29.5t45 -85.5q0 -67 -68.5 -112t-206.5 -54v-6q0 -118 96 -118q85 0 149 92l2 -1q-28 -100 -95.5 -150.5t-152.5 -50.5zM329 487q-34 0 -71 -81.5t-42 -165.5q73 15 104.5 68t31.5 124
q0 55 -23 55zM369 710l140 -175l-1 -1l-159 62l-191 -62l-1 1l210 175h2z" />
    <glyph glyph-name="edieresis" unicode="&#xeb;" horiz-adv-x="489" 
d="M215 -8q-93 0 -147.5 57.5t-54.5 152.5q0 125 88.5 215t224.5 90q75 0 120 -29.5t45 -85.5q0 -67 -68.5 -112t-206.5 -54v-6q0 -118 96 -118q85 0 149 92l2 -1q-28 -100 -95.5 -150.5t-152.5 -50.5zM329 487q-34 0 -71 -81.5t-42 -165.5q73 15 104.5 68t31.5 124
q0 55 -23 55zM251 697q33 0 54 -18t21 -50q0 -36 -24.5 -57.5t-59.5 -21.5q-32 0 -54.5 18t-22.5 49q0 36 26 58t60 22zM468 697q33 0 54 -18t21 -50q0 -36 -24.5 -57.5t-59.5 -21.5q-32 0 -54.5 18t-22.5 49q0 36 26 58t60 22z" />
    <glyph glyph-name="igrave" unicode="&#xec;" horiz-adv-x="312" 
d="M119 -8q-50 0 -73 30.5t-23 71.5q0 28 9 71l64 262q6 24 -7 32l-46 30v2l259 16l-85 -351q-7 -29 -7 -46q0 -22 18 -22q16 0 31 15q23 22 39 57l2 -1q-16 -75 -66.5 -121t-114.5 -46zM-10 703h186l104 -168l-1 -2l-289 168v2z" />
    <glyph glyph-name="iacute" unicode="&#xed;" horiz-adv-x="312" 
d="M119 -8q-50 0 -73 30.5t-23 71.5q0 28 9 71l64 262q6 24 -7 32l-46 30v2l259 16l-85 -351q-7 -29 -7 -46q0 -22 18 -22q16 0 31 15q23 22 39 57l2 -1q-16 -75 -66.5 -121t-114.5 -46zM207 703h186v-2l-289 -168l-1 2z" />
    <glyph glyph-name="icircumflex" unicode="&#xee;" horiz-adv-x="312" 
d="M119 -8q-50 0 -73 30.5t-23 71.5q0 28 9 71l64 262q6 24 -7 32l-46 30v2l259 16l-85 -351q-7 -29 -7 -46q0 -22 18 -22q16 0 31 15q23 22 39 57l2 -1q-16 -75 -66.5 -121t-114.5 -46zM227 710l140 -175l-1 -1l-159 62l-191 -62l-1 1l210 175h2z" />
    <glyph glyph-name="idieresis" unicode="&#xef;" horiz-adv-x="312" 
d="M119 -8q-50 0 -73 30.5t-23 71.5q0 28 9 71l64 262q6 24 -7 32l-46 30v2l259 16l-85 -351q-7 -29 -7 -46q0 -22 18 -22q16 0 31 15q23 22 39 57l2 -1q-16 -75 -66.5 -121t-114.5 -46zM109 697q33 0 54 -18t21 -50q0 -36 -24.5 -57.5t-59.5 -21.5q-32 0 -54.5 18t-22.5 49
q0 36 26 58t60 22zM326 697q33 0 54 -18t21 -50q0 -36 -24.5 -57.5t-59.5 -21.5q-32 0 -54.5 18t-22.5 49q0 36 26 58t60 22z" />
    <glyph glyph-name="eth" unicode="&#xf0;" horiz-adv-x="576" 
d="M191 530l-8 19l143 63q-41 84 -144 99v2h27q138 0 223 -54l133 59l6 -19l-119 -53q111 -84 111 -260q0 -82 -19 -151t-57 -124.5t-102.5 -87t-149.5 -31.5q-103 0 -162.5 57t-59.5 154q0 125 72.5 210.5t162.5 85.5q81 0 111 -59q0 91 -24 154zM235 13q40 0 80.5 151
t43.5 265q-13 10 -30 10q-41 0 -71.5 -65.5t-43 -144t-12.5 -146.5q0 -36 7 -53t26 -17z" />
    <glyph glyph-name="ntilde" unicode="&#xf1;" horiz-adv-x="611" 
d="M419 -8q-51 0 -78.5 28t-27.5 68q0 45 24 115l43 130q14 44 14 59q0 17 -16 17q-26 0 -56 -35q-37 -44 -61.5 -116t-66.5 -258h-183l88 424q3 19 1.5 24.5t-12.5 13.5l-42 27v2l258 16l-37 -193h2q36 83 95.5 138t121.5 55q43 0 68 -27.5t25 -71.5q0 -38 -22 -113
l-36 -118q-13 -44 -13 -67q0 -22 17 -22q16 0 31 15q23 22 39 57h2q-16 -76 -65 -122t-113 -46zM432 563q-29 0 -71.5 25t-64.5 25q-52 0 -77 -51h-2q7 61 40 98t78 37q29 0 71.5 -25t64.5 -25q51 0 77 51h2q-7 -61 -40 -98t-78 -37z" />
    <glyph glyph-name="ograve" unicode="&#xf2;" horiz-adv-x="561" 
d="M241 -8q-43 0 -81 10.5t-72.5 33.5t-54.5 67t-20 104q0 131 88.5 215.5t220.5 84.5q42 0 79 -10t71.5 -33t55 -67t20.5 -105q0 -133 -89 -216.5t-218 -83.5zM231 12q46 -1 85.5 137.5t39.5 278.5q0 59 -26 59q-46 1 -85.5 -137.5t-39.5 -278.5q0 -59 26 -59zM132 703h186
l104 -168l-1 -2l-289 168v2z" />
    <glyph glyph-name="oacute" unicode="&#xf3;" horiz-adv-x="561" 
d="M241 -8q-43 0 -81 10.5t-72.5 33.5t-54.5 67t-20 104q0 131 88.5 215.5t220.5 84.5q42 0 79 -10t71.5 -33t55 -67t20.5 -105q0 -133 -89 -216.5t-218 -83.5zM231 12q46 -1 85.5 137.5t39.5 278.5q0 59 -26 59q-46 1 -85.5 -137.5t-39.5 -278.5q0 -59 26 -59zM349 703h186
v-2l-289 -168l-1 2z" />
    <glyph glyph-name="ocircumflex" unicode="&#xf4;" horiz-adv-x="561" 
d="M241 -8q-43 0 -81 10.5t-72.5 33.5t-54.5 67t-20 104q0 131 88.5 215.5t220.5 84.5q42 0 79 -10t71.5 -33t55 -67t20.5 -105q0 -133 -89 -216.5t-218 -83.5zM231 12q46 -1 85.5 137.5t39.5 278.5q0 59 -26 59q-46 1 -85.5 -137.5t-39.5 -278.5q0 -59 26 -59zM369 710
l140 -175l-1 -1l-159 62l-191 -62l-1 1l210 175h2z" />
    <glyph glyph-name="otilde" unicode="&#xf5;" horiz-adv-x="561" 
d="M241 -8q-43 0 -81 10.5t-72.5 33.5t-54.5 67t-20 104q0 131 88.5 215.5t220.5 84.5q42 0 79 -10t71.5 -33t55 -67t20.5 -105q0 -133 -89 -216.5t-218 -83.5zM231 12q46 -1 85.5 137.5t39.5 278.5q0 59 -26 59q-46 1 -85.5 -137.5t-39.5 -278.5q0 -59 26 -59zM402 563
q-29 0 -71.5 25t-64.5 25q-52 0 -77 -51h-2q7 61 40 98t78 37q29 0 71.5 -25t64.5 -25q51 0 77 51h2q-7 -61 -40 -98t-78 -37z" />
    <glyph glyph-name="odieresis" unicode="&#xf6;" horiz-adv-x="561" 
d="M241 -8q-43 0 -81 10.5t-72.5 33.5t-54.5 67t-20 104q0 131 88.5 215.5t220.5 84.5q42 0 79 -10t71.5 -33t55 -67t20.5 -105q0 -133 -89 -216.5t-218 -83.5zM231 12q46 -1 85.5 137.5t39.5 278.5q0 59 -26 59q-46 1 -85.5 -137.5t-39.5 -278.5q0 -59 26 -59zM251 697
q33 0 54 -18t21 -50q0 -36 -24.5 -57.5t-59.5 -21.5q-32 0 -54.5 18t-22.5 49q0 36 26 58t60 22zM468 697q33 0 54 -18t21 -50q0 -36 -24.5 -57.5t-59.5 -21.5q-32 0 -54.5 18t-22.5 49q0 36 26 58t60 22z" />
    <glyph glyph-name="divide" unicode="&#xf7;" horiz-adv-x="540" 
d="M277 564q36 0 59 -19t23 -53q0 -39 -26.5 -61.5t-65.5 -22.5q-35 0 -60 18.5t-25 52.5q0 39 28.5 62t66.5 23zM277 244q36 0 59 -19t23 -53q0 -39 -26.5 -61.5t-65.5 -22.5q-35 0 -60 18.5t-25 52.5q0 39 28.5 62t66.5 23zM50 314v20h440v-20h-440z" />
    <glyph glyph-name="oslash" unicode="&#xf8;" horiz-adv-x="561" 
d="M241 -8q-34 0 -65 6l-35 -79l-19 8l33 76q-142 42 -142 204q0 131 88.5 215.5t220.5 84.5q24 0 54 -5l37 85l18 -8l-35 -81q67 -16 109.5 -66t42.5 -140q0 -133 -89 -216.5t-218 -83.5zM231 12q44 -1 82.5 128t42.5 267l-151 -343q0 -52 26 -52zM330 487
q-42 1 -79.5 -116.5t-44.5 -252.5l149 336q-4 33 -25 33z" />
    <glyph glyph-name="ugrave" unicode="&#xf9;" horiz-adv-x="616" 
d="M426 -8q-51 0 -76.5 26t-25.5 70q0 43 17 97h-2q-35 -82 -95.5 -137.5t-116.5 -55.5q-44 0 -69.5 27.5t-25.5 71.5q0 38 22 113l36 118q13 44 13 67q0 22 -17 22q-14 0 -31 -15q-23 -22 -39 -47l-2 1q26 72 71.5 114.5t106.5 42.5q51 0 78.5 -28t27.5 -68q0 -45 -24 -115
l-43 -130q-14 -44 -14 -59q0 -17 16 -17q23 0 53 35q31 38 51 94t61 205q10 39 16 60l187 23l-79 -331q-9 -41 -9 -64q0 -24 19 -24q16 0 31 15q23 22 39 57l2 -1q-22 -85 -75 -129q-46 -38 -103 -38zM148 703h186l104 -168l-1 -2l-289 168v2z" />
    <glyph glyph-name="uacute" unicode="&#xfa;" horiz-adv-x="616" 
d="M426 -8q-51 0 -76.5 26t-25.5 70q0 43 17 97h-2q-35 -82 -95.5 -137.5t-116.5 -55.5q-44 0 -69.5 27.5t-25.5 71.5q0 38 22 113l36 118q13 44 13 67q0 22 -17 22q-14 0 -31 -15q-23 -22 -39 -47l-2 1q26 72 71.5 114.5t106.5 42.5q51 0 78.5 -28t27.5 -68q0 -45 -24 -115
l-43 -130q-14 -44 -14 -59q0 -17 16 -17q23 0 53 35q31 38 51 94t61 205q10 39 16 60l187 23l-79 -331q-9 -41 -9 -64q0 -24 19 -24q16 0 31 15q23 22 39 57l2 -1q-22 -85 -75 -129q-46 -38 -103 -38zM365 703h186v-2l-289 -168l-1 2z" />
    <glyph glyph-name="ucircumflex" unicode="&#xfb;" horiz-adv-x="616" 
d="M426 -8q-51 0 -76.5 26t-25.5 70q0 43 17 97h-2q-35 -82 -95.5 -137.5t-116.5 -55.5q-44 0 -69.5 27.5t-25.5 71.5q0 38 22 113l36 118q13 44 13 67q0 22 -17 22q-14 0 -31 -15q-23 -22 -39 -47l-2 1q26 72 71.5 114.5t106.5 42.5q51 0 78.5 -28t27.5 -68q0 -45 -24 -115
l-43 -130q-14 -44 -14 -59q0 -17 16 -17q23 0 53 35q31 38 51 94t61 205q10 39 16 60l187 23l-79 -331q-9 -41 -9 -64q0 -24 19 -24q16 0 31 15q23 22 39 57l2 -1q-22 -85 -75 -129q-46 -38 -103 -38zM385 710l140 -175l-1 -1l-159 62l-191 -62l-1 1l210 175h2z" />
    <glyph glyph-name="udieresis" unicode="&#xfc;" horiz-adv-x="616" 
d="M426 -8q-51 0 -76.5 26t-25.5 70q0 43 17 97h-2q-35 -82 -95.5 -137.5t-116.5 -55.5q-44 0 -69.5 27.5t-25.5 71.5q0 38 22 113l36 118q13 44 13 67q0 22 -17 22q-14 0 -31 -15q-23 -22 -39 -47l-2 1q26 72 71.5 114.5t106.5 42.5q51 0 78.5 -28t27.5 -68q0 -45 -24 -115
l-43 -130q-14 -44 -14 -59q0 -17 16 -17q23 0 53 35q31 38 51 94t61 205q10 39 16 60l187 23l-79 -331q-9 -41 -9 -64q0 -24 19 -24q16 0 31 15q23 22 39 57l2 -1q-22 -85 -75 -129q-46 -38 -103 -38zM267 697q33 0 54 -18t21 -50q0 -36 -24.5 -57.5t-59.5 -21.5
q-32 0 -54.5 18t-22.5 49q0 36 26 58t60 22zM484 697q33 0 54 -18t21 -50q0 -36 -24.5 -57.5t-59.5 -21.5q-32 0 -54.5 18t-22.5 49q0 36 26 58t60 22z" />
    <glyph glyph-name="yacute" unicode="&#xfd;" horiz-adv-x="518" 
d="M304 -35q-76 -85 -179.5 -143t-170.5 -58q-25 0 -38 7l61 182h2l130 -105q7 -6 16 -2q6 2 28 17q8 5 8 20v9q-1 126 -20.5 251t-45.5 206q-12 34 -28 34q-24 0 -51 -58h-2q6 75 50.5 128.5t105.5 53.5q24 0 43.5 -10t30.5 -22t21.5 -36.5t15 -39.5t12.5 -45
q38 -150 32 -329l2 -1q29 41 57 125q20 61 20 144q0 101 -50 167v2l178 45q-10 -147 -72 -292t-156 -250zM331 703h186v-2l-289 -168l-1 2z" />
    <glyph glyph-name="thorn" unicode="&#xfe;" horiz-adv-x="566" 
d="M336 733l-85 -391h2q26 66 71.5 115.5t102.5 49.5q55 0 91.5 -37.5t36.5 -110.5q0 -148 -83.5 -257.5t-188.5 -109.5q-36 0 -58 10t-40 35l-42 -196q-2 -10 -0.5 -14t11.5 -9l78 -44v-2h-333v2l47 42q13 12 16 28l169 797q4 16 2.5 23t-12.5 13l-42 24v2zM278 362
q-6 -10 -11.5 -22.5t-11 -28.5t-9.5 -28.5t-9.5 -34.5t-9 -34.5t-9.5 -39.5t-9 -39t-10 -43t-9 -42q12 -9 28 -9q43 0 83 83q25 51 41.5 119.5t16.5 126.5q0 41 -24 41q-13 0 -29 -13.5t-28 -35.5z" />
    <glyph glyph-name="ydieresis" unicode="&#xff;" horiz-adv-x="518" 
d="M304 -35q-76 -85 -179.5 -143t-170.5 -58q-25 0 -38 7l61 182h2l130 -105q7 -6 16 -2q6 2 28 17q8 5 8 20v9q-1 126 -20.5 251t-45.5 206q-12 34 -28 34q-24 0 -51 -58h-2q6 75 50.5 128.5t105.5 53.5q24 0 43.5 -10t30.5 -22t21.5 -36.5t15 -39.5t12.5 -45
q38 -150 32 -329l2 -1q29 41 57 125q20 61 20 144q0 101 -50 167v2l178 45q-10 -147 -72 -292t-156 -250zM233 697q33 0 54 -18t21 -50q0 -36 -24.5 -57.5t-59.5 -21.5q-32 0 -54.5 18t-22.5 49q0 36 26 58t60 22zM450 697q33 0 54 -18t21 -50q0 -36 -24.5 -57.5
t-59.5 -21.5q-32 0 -54.5 18t-22.5 49q0 36 26 58t60 22z" />
    <glyph glyph-name="Amacron" unicode="&#x100;" horiz-adv-x="644" 
d="M363 104l-14 141h-208l-23 -45q-9 -17 -2 -36l58 -162v-2h-243v2l138 162q18 21 30 45l200 385q7 14 7.5 19t-5.5 15l-46 73v2h258l58 -577q2 -14 10 -43l24 -81v-2h-300v2l50 75q9 14 8 27zM316 582l-164 -316h195zM552 797h-300v20h300v-20z" />
    <glyph glyph-name="amacron" unicode="&#x101;" 
d="M405 -8q-43 0 -70 26t-28 71q0 32 10 75h-2q-56 -172 -172 -172q-50 0 -88 43.5t-38 120.5q0 142 77.5 246.5t182.5 104.5q67 0 112 -39l189 39q-16 -67 -33 -142.5t-27 -118.5t-16 -66q-10 -39 -10 -65q0 -27 17 -27q16 0 31 15q23 22 39 57l2 -1q-18 -77 -65 -122
t-111 -45zM381 456q-11 6 -22 6q-55 0 -94 -83q-23 -49 -38 -118.5t-15 -128.5q0 -44 25 -44q28 0 54 54q42 87 90 314zM526 593h-300v20h300v-20z" />
    <glyph glyph-name="Abreve" unicode="&#x102;" horiz-adv-x="644" 
d="M363 104l-14 141h-208l-23 -45q-9 -17 -2 -36l58 -162v-2h-243v2l138 162q18 21 30 45l200 385q7 14 7.5 19t-5.5 15l-46 73v2h258l58 -577q2 -14 10 -43l24 -81v-2h-300v2l50 75q9 14 8 27zM316 582l-164 -316h195zM405 829q125 0 151 94h2q-1 -89 -48 -134.5
t-113 -45.5q-51 0 -87 27.5t-36 79.5q0 32 16 73h2q-7 -46 23 -70t90 -24z" />
    <glyph glyph-name="abreve" unicode="&#x103;" 
d="M405 -8q-43 0 -70 26t-28 71q0 32 10 75h-2q-56 -172 -172 -172q-50 0 -88 43.5t-38 120.5q0 142 77.5 246.5t182.5 104.5q67 0 112 -39l189 39q-16 -67 -33 -142.5t-27 -118.5t-16 -66q-10 -39 -10 -65q0 -27 17 -27q16 0 31 15q23 22 39 57l2 -1q-18 -77 -65 -122
t-111 -45zM381 456q-11 6 -22 6q-55 0 -94 -83q-23 -49 -38 -118.5t-15 -128.5q0 -44 25 -44q28 0 54 54q42 87 90 314zM379 625q125 0 151 94h2q-1 -89 -48 -134.5t-113 -45.5q-51 0 -87 27.5t-36 79.5q0 32 16 73h2q-7 -46 23 -70t90 -24z" />
    <glyph glyph-name="Aogonek" unicode="&#x104;" horiz-adv-x="644" 
d="M363 104l-14 141h-208l-23 -45q-9 -17 -2 -36l58 -162v-2h-243v2l138 162q18 21 30 45l200 385q7 14 7.5 19t-5.5 15l-46 73v2h258l58 -577q2 -14 10 -43l24 -81v-2h-285q-38 -11 -63 -45.5t-25 -75.5q0 -27 15.5 -41.5t43.5 -14.5q51 0 95 51l1 -1q-22 -47 -63 -78
t-96 -31q-43 0 -69 21t-26 60q0 60 54.5 104t119.5 55l48 73q9 14 8 27zM316 582l-164 -316h195z" />
    <glyph glyph-name="aogonek" unicode="&#x105;" 
d="M354 -236q-43 0 -69 21t-26 60q0 56 46 93.5t108 53.5h-8q-43 0 -70 26t-28 71q0 32 10 75h-2q-56 -172 -172 -172q-50 0 -88 43.5t-38 120.5q0 142 77.5 246.5t182.5 104.5q67 0 112 -39l189 39q-16 -67 -33 -142.5t-27 -118.5t-16 -66q-10 -39 -10 -65q0 -27 17 -27
q16 0 31 15q23 22 39 57l2 -1q-15 -64 -51 -106.5t-85 -55.5q-39 -14 -63 -46t-24 -72q0 -27 15.5 -41.5t43.5 -14.5q51 0 95 51l1 -1q-22 -47 -63 -78t-96 -31zM212 132q0 -44 25 -44q28 0 54 54q42 87 90 314q-11 6 -22 6q-55 0 -94 -83q-23 -49 -38 -118.5t-15 -128.5z
" />
    <glyph glyph-name="Cacute" unicode="&#x106;" horiz-adv-x="638" 
d="M316 -10q-133 0 -207.5 74.5t-74.5 202.5q0 196 117.5 321t310.5 125q128 0 228 -18l-53 -265h-2l-125 251q-5 8 -8.5 10t-13.5 2h-9q-27 0 -56.5 -21t-58.5 -64.5t-52 -103t-37.5 -145t-14.5 -182.5q0 -78 20.5 -122.5t59.5 -44.5h5q19 0 31 12l228 255h2l-54 -269
q-107 -18 -236 -18zM472 907h186v-2l-289 -168l-1 2z" />
    <glyph glyph-name="cacute" unicode="&#x107;" horiz-adv-x="454" 
d="M208 -8q-90 0 -142.5 54t-52.5 141q0 130 86.5 225t223.5 95q83 0 154 -22l-90 -216h-1l-62 208q-3 9 -11 9q-27 0 -61.5 -93.5t-34.5 -165.5q0 -58 24 -89t59 -31q60 0 126 70l2 -1q-70 -184 -220 -184zM340 703h186v-2l-289 -168l-1 2z" />
    <glyph glyph-name="Ccircumflex" unicode="&#x108;" horiz-adv-x="638" 
d="M316 -10q-133 0 -207.5 74.5t-74.5 202.5q0 196 117.5 321t310.5 125q128 0 228 -18l-53 -265h-2l-125 251q-5 8 -8.5 10t-13.5 2h-9q-27 0 -56.5 -21t-58.5 -64.5t-52 -103t-37.5 -145t-14.5 -182.5q0 -78 20.5 -122.5t59.5 -44.5h5q19 0 31 12l228 255h2l-54 -269
q-107 -18 -236 -18zM492 914l140 -175l-1 -1l-159 62l-191 -62l-1 1l210 175h2z" />
    <glyph glyph-name="ccircumflex" unicode="&#x109;" horiz-adv-x="454" 
d="M208 -8q-90 0 -142.5 54t-52.5 141q0 130 86.5 225t223.5 95q83 0 154 -22l-90 -216h-1l-62 208q-3 9 -11 9q-27 0 -61.5 -93.5t-34.5 -165.5q0 -58 24 -89t59 -31q60 0 126 70l2 -1q-70 -184 -220 -184zM360 710l140 -175l-1 -1l-159 62l-191 -62l-1 1l210 175h2z" />
    <glyph glyph-name="Cdotaccent" unicode="&#x10a;" horiz-adv-x="638" 
d="M316 -10q-133 0 -207.5 74.5t-74.5 202.5q0 196 117.5 321t310.5 125q128 0 228 -18l-53 -265h-2l-125 251q-5 8 -8.5 10t-13.5 2h-9q-27 0 -56.5 -21t-58.5 -64.5t-52 -103t-37.5 -145t-14.5 -182.5q0 -78 20.5 -122.5t59.5 -44.5h5q19 0 31 12l228 255h2l-54 -269
q-107 -18 -236 -18zM488 914q36 0 59 -19t23 -53q0 -39 -26.5 -61.5t-65.5 -22.5q-35 0 -60 18.5t-25 52.5q0 39 28.5 62t66.5 23z" />
    <glyph glyph-name="cdotaccent" unicode="&#x10b;" horiz-adv-x="454" 
d="M208 -8q-90 0 -142.5 54t-52.5 141q0 130 86.5 225t223.5 95q83 0 154 -22l-90 -216h-1l-62 208q-3 9 -11 9q-27 0 -61.5 -93.5t-34.5 -165.5q0 -58 24 -89t59 -31q60 0 126 70l2 -1q-70 -184 -220 -184zM356 710q36 0 59 -19t23 -53q0 -39 -26.5 -61.5t-65.5 -22.5
q-35 0 -60 18.5t-25 52.5q0 39 28.5 62t66.5 23z" />
    <glyph glyph-name="Ccaron" unicode="&#x10c;" horiz-adv-x="638" 
d="M316 -10q-133 0 -207.5 74.5t-74.5 202.5q0 196 117.5 321t310.5 125q128 0 228 -18l-53 -265h-2l-125 251q-5 8 -8.5 10t-13.5 2h-9q-27 0 -56.5 -21t-58.5 -64.5t-52 -103t-37.5 -145t-14.5 -182.5q0 -78 20.5 -122.5t59.5 -44.5h5q19 0 31 12l228 255h2l-54 -269
q-107 -18 -236 -18zM479 852l191 62l1 -1l-210 -175h-2l-140 175l1 1z" />
    <glyph glyph-name="ccaron" unicode="&#x10d;" horiz-adv-x="454" 
d="M208 -8q-90 0 -142.5 54t-52.5 141q0 130 86.5 225t223.5 95q83 0 154 -22l-90 -216h-1l-62 208q-3 9 -11 9q-27 0 -61.5 -93.5t-34.5 -165.5q0 -58 24 -89t59 -31q60 0 126 70l2 -1q-70 -184 -220 -184zM347 648l191 62l1 -1l-210 -175h-2l-140 175l1 1z" />
    <glyph glyph-name="Dcaron" unicode="&#x10e;" horiz-adv-x="738" 
d="M400 682q-17 0 -21.5 -3t-7.5 -19l-124 -616q-3 -16 -0.5 -19.5t19.5 -3.5h14q66 0 120 73t85 193q31 118 31 250q0 61 -28.5 103t-73.5 42h-14zM108 703h342q134 0 211.5 -73.5t77.5 -196.5q0 -192 -125 -312.5t-334 -120.5h-314v2l70 72q11 12 14 31l100 493
q4 20 -2 31l-41 72zM445 852l191 62l1 -1l-210 -175h-2l-140 175l1 1z" />
    <glyph glyph-name="dcaron" unicode="&#x10f;" horiz-adv-x="590" 
d="M141 -8q-49 0 -87 44t-38 129q0 132 77 237t184 105q75 0 97 -47l37 188q2 15 0 19t-10 9l-44 25v2l258 30l-115 -556q-8 -38 -8 -60q0 -29 18 -29q15 0 34.5 19.5t33.5 52.5l2 -1q-21 -85 -74 -130q-45 -37 -102 -37q-43 0 -70.5 27t-27.5 71q0 31 10 74h-2
q-57 -172 -173 -172zM297 156q27 57 74 290q-15 9 -30 9q-37 0 -68 -60q-25 -47 -43.5 -124t-18.5 -129q0 -54 24 -54q32 0 62 68zM672 703h131l-172 -197h-2z" />
    <glyph glyph-name="Dcroat" unicode="&#x110;" horiz-adv-x="741" 
d="M32 351v20h79l48 237q3 19 -3 29l-45 64v2h332q152 0 226 -71.5t74 -191.5q0 -187 -115 -313.5t-300 -126.5h-353v2l64 63q13 13 16 30l52 256h-75zM413 682q-15 0 -18.5 -3t-6.5 -18l-60 -290h105v-20h-109l-62 -307q-3 -15 0 -19t18 -4h13q44 0 81.5 34t63.5 91
t43 121.5t27 135.5q10 75 10 126q0 74 -19 113.5t-72 39.5h-14z" />
    <glyph glyph-name="dcroat" unicode="&#x111;" horiz-adv-x="590" 
d="M141 -8q-49 0 -87 44t-38 129q0 132 77 237t184 105q75 0 97 -47l21 110h-109v20h113l12 58q2 15 0 19t-10 9l-44 25v2l258 30l-30 -143h65v-20h-69l-81 -393q-8 -38 -8 -60q0 -29 18 -29q15 0 34.5 19.5t33.5 52.5l2 -1q-21 -85 -74 -130q-45 -37 -102 -37
q-43 0 -70.5 27t-27.5 71q0 31 10 74h-2q-57 -172 -173 -172zM297 156q27 57 74 290q-15 9 -30 9q-37 0 -68 -60q-25 -47 -43.5 -124t-18.5 -129q0 -54 24 -54q32 0 62 68z" />
    <glyph glyph-name="Emacron" unicode="&#x112;" 
d="M269 21h67q14 0 20.5 3t18.5 18l183 222h2l-51 -264h-543v2l69 71q12 13 15 32l100 493q4 20 -2 31l-41 72l1 2h531l-52 -257h-2l-105 216q-7 15 -11 17.5t-18 2.5h-47q-20 0 -25 -3t-8 -19l-61 -301h32q13 0 18 2t19 14l123 107h2l-54 -267h-2l-79 107q-5 8 -9.5 11.5
t-8.5 4t-13 0.5h-32l-59 -294q-3 -16 0 -19.5t22 -3.5zM580 797h-300v20h300v-20z" />
    <glyph glyph-name="emacron" unicode="&#x113;" horiz-adv-x="489" 
d="M215 -8q-93 0 -147.5 57.5t-54.5 152.5q0 125 88.5 215t224.5 90q75 0 120 -29.5t45 -85.5q0 -67 -68.5 -112t-206.5 -54v-6q0 -118 96 -118q85 0 149 92l2 -1q-28 -100 -95.5 -150.5t-152.5 -50.5zM329 487q-34 0 -71 -81.5t-42 -165.5q73 15 104.5 68t31.5 124
q0 55 -23 55zM498 593h-300v20h300v-20z" />
    <glyph glyph-name="Ebreve" unicode="&#x114;" 
d="M269 21h67q14 0 20.5 3t18.5 18l183 222h2l-51 -264h-543v2l69 71q12 13 15 32l100 493q4 20 -2 31l-41 72l1 2h531l-52 -257h-2l-105 216q-7 15 -11 17.5t-18 2.5h-47q-20 0 -25 -3t-8 -19l-61 -301h32q13 0 18 2t19 14l123 107h2l-54 -267h-2l-79 107q-5 8 -9.5 11.5
t-8.5 4t-13 0.5h-32l-59 -294q-3 -16 0 -19.5t22 -3.5zM433 829q125 0 151 94h2q-1 -89 -48 -134.5t-113 -45.5q-51 0 -87 27.5t-36 79.5q0 32 16 73h2q-7 -46 23 -70t90 -24z" />
    <glyph glyph-name="ebreve" unicode="&#x115;" horiz-adv-x="489" 
d="M215 -8q-93 0 -147.5 57.5t-54.5 152.5q0 125 88.5 215t224.5 90q75 0 120 -29.5t45 -85.5q0 -67 -68.5 -112t-206.5 -54v-6q0 -118 96 -118q85 0 149 92l2 -1q-28 -100 -95.5 -150.5t-152.5 -50.5zM329 487q-34 0 -71 -81.5t-42 -165.5q73 15 104.5 68t31.5 124
q0 55 -23 55zM351 625q125 0 151 94h2q-1 -89 -48 -134.5t-113 -45.5q-51 0 -87 27.5t-36 79.5q0 32 16 73h2q-7 -46 23 -70t90 -24z" />
    <glyph glyph-name="Edotaccent" unicode="&#x116;" 
d="M269 21h67q14 0 20.5 3t18.5 18l183 222h2l-51 -264h-543v2l69 71q12 13 15 32l100 493q4 20 -2 31l-41 72l1 2h531l-52 -257h-2l-105 216q-7 15 -11 17.5t-18 2.5h-47q-20 0 -25 -3t-8 -19l-61 -301h32q13 0 18 2t19 14l123 107h2l-54 -267h-2l-79 107q-5 8 -9.5 11.5
t-8.5 4t-13 0.5h-32l-59 -294q-3 -16 0 -19.5t22 -3.5zM447 914q36 0 59 -19t23 -53q0 -39 -26.5 -61.5t-65.5 -22.5q-35 0 -60 18.5t-25 52.5q0 39 28.5 62t66.5 23z" />
    <glyph glyph-name="edotaccent" unicode="&#x117;" horiz-adv-x="489" 
d="M215 -8q-93 0 -147.5 57.5t-54.5 152.5q0 125 88.5 215t224.5 90q75 0 120 -29.5t45 -85.5q0 -67 -68.5 -112t-206.5 -54v-6q0 -118 96 -118q85 0 149 92l2 -1q-28 -100 -95.5 -150.5t-152.5 -50.5zM329 487q-34 0 -71 -81.5t-42 -165.5q73 15 104.5 68t31.5 124
q0 55 -23 55zM365 710q36 0 59 -19t23 -53q0 -39 -26.5 -61.5t-65.5 -22.5q-35 0 -60 18.5t-25 52.5q0 39 28.5 62t66.5 23z" />
    <glyph glyph-name="Eogonek" unicode="&#x118;" 
d="M324 -236q-43 0 -69 21t-26 60q0 59 53 100t120 55h-436v2l69 71q12 13 15 32l100 493q4 20 -2 31l-41 72l1 2h531l-52 -257h-2l-105 216q-7 15 -11 17.5t-18 2.5h-47q-20 0 -25 -3t-8 -19l-61 -301h32q13 0 18 2t19 14l123 107h2l-54 -267h-2l-79 107q-5 8 -9.5 11.5
t-8.5 4t-13 0.5h-32l-59 -294q-3 -16 0 -19.5t22 -3.5h67q14 0 20.5 3t18.5 18l183 222h2l-51 -264h-89q-41 -14 -66.5 -47t-25.5 -74q0 -27 15.5 -41.5t43.5 -14.5q51 0 95 51l1 -1q-22 -47 -63 -78t-96 -31z" />
    <glyph glyph-name="eogonek" unicode="&#x119;" horiz-adv-x="489" 
d="M183 -236q-43 0 -69 21t-26 60q0 58 49.5 97t113.5 53q-4 0 -11.5 -1t-13.5 -1.5t-11 -0.5q-93 0 -147.5 57.5t-54.5 152.5q0 125 88.5 215t224.5 90q75 0 120 -29.5t45 -85.5q0 -67 -68.5 -112t-206.5 -54v-6q0 -118 96 -118q85 0 149 92l2 -1q-22 -81 -71.5 -129.5
t-113.5 -63.5q-41 -14 -66 -47t-25 -74q0 -27 15.5 -41.5t43.5 -14.5q51 0 95 51l1 -1q-22 -47 -63 -78t-96 -31zM329 487q-34 0 -71 -81.5t-42 -165.5q73 15 104.5 68t31.5 124q0 55 -23 55z" />
    <glyph glyph-name="Ecaron" unicode="&#x11a;" 
d="M269 21h67q14 0 20.5 3t18.5 18l183 222h2l-51 -264h-543v2l69 71q12 13 15 32l100 493q4 20 -2 31l-41 72l1 2h531l-52 -257h-2l-105 216q-7 15 -11 17.5t-18 2.5h-47q-20 0 -25 -3t-8 -19l-61 -301h32q13 0 18 2t19 14l123 107h2l-54 -267h-2l-79 107q-5 8 -9.5 11.5
t-8.5 4t-13 0.5h-32l-59 -294q-3 -16 0 -19.5t22 -3.5zM438 852l191 62l1 -1l-210 -175h-2l-140 175l1 1z" />
    <glyph glyph-name="ecaron" unicode="&#x11b;" horiz-adv-x="489" 
d="M215 -8q-93 0 -147.5 57.5t-54.5 152.5q0 125 88.5 215t224.5 90q75 0 120 -29.5t45 -85.5q0 -67 -68.5 -112t-206.5 -54v-6q0 -118 96 -118q85 0 149 92l2 -1q-28 -100 -95.5 -150.5t-152.5 -50.5zM329 487q-34 0 -71 -81.5t-42 -165.5q73 15 104.5 68t31.5 124
q0 55 -23 55zM356 648l191 62l1 -1l-210 -175h-2l-140 175l1 1z" />
    <glyph glyph-name="Gcircumflex" unicode="&#x11c;" horiz-adv-x="687" 
d="M291 -10q-111 0 -184 76.5t-73 200.5q0 198 117.5 322t314.5 124q141 0 241 -23l-53 -264h-2l-132 254q-5 9 -8.5 11t-15.5 2h-8q-84 0 -156 -137.5t-72 -374.5q0 -88 20 -125.5t59 -37.5q21 0 41 10l36 179q3 17 -2 31l-28 72v2h311v-2l-58 -73q-11 -15 -14 -30
l-44 -217l-165 30q-67 -30 -125 -30zM496 914l140 -175l-1 -1l-159 62l-191 -62l-1 1l210 175h2z" />
    <glyph glyph-name="gcircumflex" unicode="&#x11d;" horiz-adv-x="532" 
d="M259 173q-49 0 -85 7q-10 -8 -10 -22q0 -27 39 -34l138 -26q73 -14 109 -50t36 -87q0 -49 -24 -87.5t-64 -62t-88.5 -35.5t-101.5 -12q-125 0 -191.5 31t-66.5 80q0 74 133 101q-78 27 -78 90q0 44 40.5 76t116.5 40q-125 28 -125 140q0 83 69.5 134t173.5 51
q86 0 149 -34q10 -6 13 -6t10 6l141 131h2l-33 -168h-92q13 -10 24 -33t11 -49q0 -86 -72.5 -133.5t-173.5 -47.5zM124 -36l-32 9q-32 -36 -32 -86q0 -42 45.5 -73t105.5 -31q55 0 88 24t33 63q0 45 -71 62zM299 488q-36 0 -62 -77.5t-26 -150.5q0 -68 27 -68q37 0 64.5 76
t27.5 149q0 37 -6.5 54t-24.5 17zM350 710l140 -175l-1 -1l-159 62l-191 -62l-1 1l210 175h2z" />
    <glyph glyph-name="Gbreve" unicode="&#x11e;" horiz-adv-x="687" 
d="M291 -10q-111 0 -184 76.5t-73 200.5q0 198 117.5 322t314.5 124q141 0 241 -23l-53 -264h-2l-132 254q-5 9 -8.5 11t-15.5 2h-8q-84 0 -156 -137.5t-72 -374.5q0 -88 20 -125.5t59 -37.5q21 0 41 10l36 179q3 17 -2 31l-28 72v2h311v-2l-58 -73q-11 -15 -14 -30
l-44 -217l-165 30q-67 -30 -125 -30zM478 829q125 0 151 94h2q-1 -89 -48 -134.5t-113 -45.5q-51 0 -87 27.5t-36 79.5q0 32 16 73h2q-7 -46 23 -70t90 -24z" />
    <glyph glyph-name="gbreve" unicode="&#x11f;" horiz-adv-x="532" 
d="M259 173q-49 0 -85 7q-10 -8 -10 -22q0 -27 39 -34l138 -26q73 -14 109 -50t36 -87q0 -49 -24 -87.5t-64 -62t-88.5 -35.5t-101.5 -12q-125 0 -191.5 31t-66.5 80q0 74 133 101q-78 27 -78 90q0 44 40.5 76t116.5 40q-125 28 -125 140q0 83 69.5 134t173.5 51
q86 0 149 -34q10 -6 13 -6t10 6l141 131h2l-33 -168h-92q13 -10 24 -33t11 -49q0 -86 -72.5 -133.5t-173.5 -47.5zM124 -36l-32 9q-32 -36 -32 -86q0 -42 45.5 -73t105.5 -31q55 0 88 24t33 63q0 45 -71 62zM299 488q-36 0 -62 -77.5t-26 -150.5q0 -68 27 -68q37 0 64.5 76
t27.5 149q0 37 -6.5 54t-24.5 17zM332 625q125 0 151 94h2q-1 -89 -48 -134.5t-113 -45.5q-51 0 -87 27.5t-36 79.5q0 32 16 73h2q-7 -46 23 -70t90 -24z" />
    <glyph glyph-name="Gdotaccent" unicode="&#x120;" horiz-adv-x="687" 
d="M291 -10q-111 0 -184 76.5t-73 200.5q0 198 117.5 322t314.5 124q141 0 241 -23l-53 -264h-2l-132 254q-5 9 -8.5 11t-15.5 2h-8q-84 0 -156 -137.5t-72 -374.5q0 -88 20 -125.5t59 -37.5q21 0 41 10l36 179q3 17 -2 31l-28 72v2h311v-2l-58 -73q-11 -15 -14 -30
l-44 -217l-165 30q-67 -30 -125 -30zM492 914q36 0 59 -19t23 -53q0 -39 -26.5 -61.5t-65.5 -22.5q-35 0 -60 18.5t-25 52.5q0 39 28.5 62t66.5 23z" />
    <glyph glyph-name="gdotaccent" unicode="&#x121;" horiz-adv-x="532" 
d="M259 173q-49 0 -85 7q-10 -8 -10 -22q0 -27 39 -34l138 -26q73 -14 109 -50t36 -87q0 -49 -24 -87.5t-64 -62t-88.5 -35.5t-101.5 -12q-125 0 -191.5 31t-66.5 80q0 74 133 101q-78 27 -78 90q0 44 40.5 76t116.5 40q-125 28 -125 140q0 83 69.5 134t173.5 51
q86 0 149 -34q10 -6 13 -6t10 6l141 131h2l-33 -168h-92q13 -10 24 -33t11 -49q0 -86 -72.5 -133.5t-173.5 -47.5zM124 -36l-32 9q-32 -36 -32 -86q0 -42 45.5 -73t105.5 -31q55 0 88 24t33 63q0 45 -71 62zM299 488q-36 0 -62 -77.5t-26 -150.5q0 -68 27 -68q37 0 64.5 76
t27.5 149q0 37 -6.5 54t-24.5 17zM346 710q36 0 59 -19t23 -53q0 -39 -26.5 -61.5t-65.5 -22.5q-35 0 -60 18.5t-25 52.5q0 39 28.5 62t66.5 23z" />
    <glyph glyph-name="Gcommaaccent" unicode="&#x122;" horiz-adv-x="687" 
d="M291 -10q-111 0 -184 76.5t-73 200.5q0 198 117.5 322t314.5 124q141 0 241 -23l-53 -264h-2l-132 254q-5 9 -8.5 11t-15.5 2h-8q-84 0 -156 -137.5t-72 -374.5q0 -88 20 -125.5t59 -37.5q21 0 41 10l36 179q3 17 -2 31l-28 72v2h311v-2l-58 -73q-11 -15 -14 -30
l-44 -217l-165 30q-67 -30 -125 -30zM395 -100q0 -48 -35 -89.5t-88 -65.5q-29 -12 -42 -13l-1 1q34 19 51 41q21 26 24 51q1 9 -7 9q-19 0 -33.5 13t-14.5 41q0 33 23 55t55 22q29 0 48.5 -18t19.5 -47z" />
    <glyph glyph-name="gcommaaccent" unicode="&#x123;" horiz-adv-x="532" 
d="M259 173q-49 0 -85 7q-10 -8 -10 -22q0 -27 39 -34l138 -26q73 -14 109 -50t36 -87q0 -49 -24 -87.5t-64 -62t-88.5 -35.5t-101.5 -12q-125 0 -191.5 31t-66.5 80q0 74 133 101q-78 27 -78 90q0 44 40.5 76t116.5 40q-125 28 -125 140q0 83 69.5 134t173.5 51
q86 0 149 -34q10 -6 13 -6t10 6l141 131h2l-33 -168h-92q13 -10 24 -33t11 -49q0 -86 -72.5 -133.5t-173.5 -47.5zM124 -36l-32 9q-32 -36 -32 -86q0 -42 45.5 -73t105.5 -31q55 0 88 24t33 63q0 45 -71 62zM299 488q-36 0 -62 -77.5t-26 -150.5q0 -68 27 -68q37 0 64.5 76
t27.5 149q0 37 -6.5 54t-24.5 17zM410 642q0 -32 -23.5 -54.5t-55.5 -22.5q-29 0 -48 18t-19 47q0 48 35 89.5t88 65.5q29 12 42 13l1 -1q-34 -19 -51 -41q-21 -26 -24 -51q-1 -9 7 -9q19 0 33.5 -13t14.5 -41z" />
    <glyph glyph-name="Hcircumflex" unicode="&#x124;" horiz-adv-x="764" 
d="M506 371l46 227q4 20 -2 31l-41 72v2h335v-2l-69 -72q-11 -12 -14 -31l-100 -493q-4 -20 2 -31l40 -72v-2h-335v2l70 72q11 12 14 31l49 245h-193l-49 -245q-4 -20 2 -31l40 -72v-2h-335v2l70 72q11 12 14 31l100 493q4 20 -2 31l-41 72v2h335v-2l-69 -72
q-11 -12 -14 -31l-46 -227h193zM518 914l140 -175l-1 -1l-159 62l-191 -62l-1 1l210 175h2z" />
    <glyph glyph-name="hcircumflex" unicode="&#x125;" horiz-adv-x="596" 
d="M400 -8q-51 0 -78.5 28t-27.5 68q0 39 24 115l43 130q14 39 14 58q0 18 -16 18q-36 0 -75 -64q-22 -36 -42.5 -102.5t-61.5 -242.5h-182l135 648q2 15 0 19t-10 9l-44 25v2l258 30l-90 -425h2q40 93 98 146t117 53q44 0 70 -27.5t26 -71.5q0 -38 -22 -113l-36 -118
q-13 -44 -13 -67q0 -22 18 -22q15 0 30 15q23 22 39 57l2 -1q-16 -76 -65 -121.5t-113 -45.5zM271 914l140 -175l-1 -1l-159 62l-191 -62l-1 1l210 175h2z" />
    <glyph glyph-name="Hbar" unicode="&#x126;" horiz-adv-x="764" 
d="M44 455v20h81l25 123q4 20 -2 31l-41 72v2h335v-2l-69 -72q-11 -12 -14 -31l-26 -123h193l26 123q4 20 -2 31l-41 72v2h335v-2l-69 -72q-11 -12 -14 -31l-25 -123h75v-20h-79l-71 -350q-4 -20 2 -31l40 -72v-2h-335v2l70 72q11 12 14 31l32 166h-193l-32 -166
q-4 -20 2 -31l40 -72v-2h-335v2l70 72q11 12 14 31l71 350h-77zM489 292l33 163h-193l-33 -163h193z" />
    <glyph glyph-name="hbar" unicode="&#x127;" horiz-adv-x="596" 
d="M400 -8q-51 0 -78.5 28t-27.5 68q0 39 24 115l43 130q14 39 14 58q0 18 -16 18q-36 0 -75 -64q-22 -36 -42.5 -102.5t-61.5 -242.5h-182l118 570h-60v20h64l13 58q2 15 0 19t-10 9l-44 25v2l258 30l-31 -143h114v-20h-118l-55 -262h2q40 93 98 146t117 53q44 0 70 -27.5
t26 -71.5q0 -52 -22 -113l-36 -118q-13 -44 -13 -67q0 -22 18 -22q15 0 30 15q23 22 39 57l2 -1q-16 -76 -65 -121.5t-113 -45.5z" />
    <glyph glyph-name="Itilde" unicode="&#x128;" horiz-adv-x="363" 
d="M301 0h-335v2l70 72q11 12 14 31l100 493q4 20 -2 31l-41 72v2h335v-2l-69 -72q-11 -12 -14 -31l-100 -493q-4 -20 2 -31l40 -72v-2zM357 767q-29 0 -71.5 25t-64.5 25q-51 0 -77 -51h-2q7 61 40 98t78 37q29 0 71.5 -25t64.5 -25q52 0 77 51h2q-7 -61 -40 -98t-78 -37z
" />
    <glyph glyph-name="itilde" unicode="&#x129;" horiz-adv-x="312" 
d="M119 -8q-50 0 -73 30.5t-23 71.5q0 28 9 71l64 262q6 24 -7 32l-46 30v2l259 16l-85 -351q-7 -29 -7 -46q0 -22 18 -22q16 0 31 15q23 22 39 57l2 -1q-16 -75 -66.5 -121t-114.5 -46zM260 563q-29 0 -71.5 25t-64.5 25q-52 0 -77 -51h-2q7 61 40 98t78 37q29 0 71.5 -25
t64.5 -25q51 0 77 51h2q-7 -61 -40 -98t-78 -37z" />
    <glyph glyph-name="Imacron" unicode="&#x12a;" horiz-adv-x="363" 
d="M301 0h-335v2l70 72q11 12 14 31l100 493q4 20 -2 31l-41 72v2h335v-2l-69 -72q-11 -12 -14 -31l-100 -493q-4 -20 2 -31l40 -72v-2zM453 797h-300v20h300v-20z" />
    <glyph glyph-name="imacron" unicode="&#x12b;" horiz-adv-x="312" 
d="M119 -8q-50 0 -73 30.5t-23 71.5q0 28 9 71l64 262q6 24 -7 32l-46 30v2l259 16l-85 -351q-7 -29 -7 -46q0 -22 18 -22q16 0 31 15q23 22 39 57l2 -1q-16 -75 -66.5 -121t-114.5 -46zM356 593h-300v20h300v-20z" />
    <glyph glyph-name="Ibreve" unicode="&#x12c;" horiz-adv-x="363" 
d="M301 0h-335v2l70 72q11 12 14 31l100 493q4 20 -2 31l-41 72v2h335v-2l-69 -72q-11 -12 -14 -31l-100 -493q-4 -20 2 -31l40 -72v-2zM306 829q125 0 151 94h2q-1 -89 -48 -134.5t-113 -45.5q-51 0 -87 27.5t-36 79.5q0 32 16 73h2q-7 -46 23 -70t90 -24z" />
    <glyph glyph-name="ibreve" unicode="&#x12d;" horiz-adv-x="312" 
d="M119 -8q-50 0 -73 30.5t-23 71.5q0 28 9 71l64 262q6 24 -7 32l-46 30v2l259 16l-85 -351q-7 -29 -7 -46q0 -22 18 -22q16 0 31 15q23 22 39 57l2 -1q-16 -75 -66.5 -121t-114.5 -46zM209 625q125 0 151 94h2q-1 -89 -48 -134.5t-113 -45.5q-51 0 -87 27.5t-36 79.5
q0 32 16 73h2q-7 -46 23 -70t90 -24z" />
    <glyph glyph-name="Iogonek" unicode="&#x12e;" horiz-adv-x="363" 
d="M84 -236q-43 0 -69 21t-26 60q0 59 53 100t120 55h-196v2l70 72q11 12 14 31l100 493q4 20 -2 31l-41 72v2h335v-2l-69 -72q-11 -12 -14 -31l-100 -493q-4 -20 2 -31l40 -72v-2h-121q-41 -14 -66.5 -47t-25.5 -74q0 -27 15.5 -41.5t43.5 -14.5q51 0 95 51l1 -1
q-22 -47 -63 -78t-96 -31z" />
    <glyph glyph-name="iogonek" unicode="&#x12f;" horiz-adv-x="312" 
d="M57 -236q-43 0 -69 21t-26 60q0 55 45 92.5t107 54.5q-47 2 -69 32t-22 70q0 28 9 71l64 262q6 24 -7 32l-46 30v2l259 16l-85 -351q-7 -29 -7 -46q0 -22 18 -22q16 0 31 15q23 22 39 57l2 -1q-16 -71 -61 -116t-104 -50q-34 -16 -54 -46.5t-20 -67.5q0 -27 15.5 -41.5
t43.5 -14.5q51 0 95 51l1 -1q-22 -47 -63 -78t-96 -31zM240 710q38 0 63 -20.5t25 -56.5q0 -42 -28.5 -66t-70.5 -24q-38 0 -64.5 20t-26.5 56q0 42 30 66.5t72 24.5z" />
    <glyph glyph-name="Idotaccent" unicode="&#x130;" horiz-adv-x="363" 
d="M301 0h-335v2l70 72q11 12 14 31l100 493q4 20 -2 31l-41 72v2h335v-2l-69 -72q-11 -12 -14 -31l-100 -493q-4 -20 2 -31l40 -72v-2zM320 914q36 0 59 -19t23 -53q0 -39 -26.5 -61.5t-65.5 -22.5q-35 0 -60 18.5t-25 52.5q0 39 28.5 62t66.5 23z" />
    <glyph glyph-name="dotlessi" unicode="&#x131;" horiz-adv-x="312" 
d="M119 -8q-50 0 -73 30.5t-23 71.5q0 28 9 71l64 262q6 24 -7 32l-46 30v2l259 16l-85 -351q-7 -29 -7 -46q0 -22 18 -22q16 0 31 15q23 22 39 57l2 -1q-16 -75 -66.5 -121t-114.5 -46z" />
    <glyph glyph-name="IJ" unicode="&#x132;" horiz-adv-x="707" 
d="M301 0h-335v2l70 72q11 12 14 31l100 493q4 20 -2 31l-41 72v2h335v-2l-69 -72q-11 -12 -14 -31l-100 -493q-4 -20 2 -31l40 -72v-2zM716 598l-96 -467q-36 -174 -137.5 -258t-281.5 -84l-1 2q159 78 202 287l105 520q4 21 -2 31l-41 72l1 2h335v-2l-70 -72
q-11 -12 -14 -31z" />
    <glyph glyph-name="ij" unicode="&#x133;" horiz-adv-x="607" 
d="M119 -8q-50 0 -73 30.5t-23 71.5q0 28 9 71l64 262q6 24 -7 32l-46 30v2l259 16l-85 -351q-7 -29 -7 -46q0 -22 18 -22q16 0 31 15q23 22 39 57l2 -1q-16 -75 -66.5 -121t-114.5 -46zM240 710q38 0 63 -20.5t25 -56.5q0 -42 -28.5 -66t-70.5 -24q-38 0 -64.5 20t-26.5 56
q0 42 30 66.5t72 24.5zM327 22l82 407q2 15 0 20.5t-11 11.5l-43 28v2l257 16l-75 -332q-16 -70 -31.5 -121.5t-44 -109.5t-63.5 -94.5t-89 -61t-121 -24.5q-66 0 -119 28l78 161h2l66 -161q3 -7 10 -7q18 0 35 26q31 47 67 211zM450 619q0 42 30 66.5t72 24.5
q38 0 63 -20.5t25 -56.5q0 -42 -28.5 -66t-70.5 -24q-38 0 -64.5 20t-26.5 56z" />
    <glyph glyph-name="Jcircumflex" unicode="&#x134;" horiz-adv-x="339" 
d="M348 598l-96 -467q-36 -174 -137.5 -258t-281.5 -84l-1 2q159 78 202 287l105 520q4 21 -2 31l-41 72l1 2h335v-2l-70 -72q-11 -12 -14 -31zM302 914l140 -175l-1 -1l-159 62l-191 -62l-1 1l210 175h2z" />
    <glyph glyph-name="jcircumflex" unicode="&#x135;" horiz-adv-x="295" 
d="M-124 -236q-66 0 -119 28l78 161h2l66 -161q3 -7 10 -7q9 0 17 6q44 31 85 231l82 407q2 15 0 20.5t-11 11.5l-43 28v2l257 16l-75 -332q-16 -70 -31.5 -121.5t-44 -109.5t-63.5 -94.5t-89 -61t-121 -24.5zM238 710l140 -175l-1 -1l-159 62l-191 -62l-1 1l210 175h2z" />
    <glyph glyph-name="Kcommaaccent" unicode="&#x136;" horiz-adv-x="715" 
d="M359 598l-100 -493q-4 -20 2 -31l40 -72v-2h-335v2l70 72q11 12 14 31l100 493q4 20 -2 31l-41 72l1 2h335l-1 -2l-69 -72q-11 -12 -14 -31zM422 0l-109 337l219 202q13 12 14 20.5t-5 22.5l-41 119v2h336v-2l-222 -128q-47 -27 -66 -46l-67 -62l131 -367q5 -16 20 -40
l40 -56v-2h-250zM381 -100q0 -48 -35 -89.5t-88 -65.5q-29 -12 -42 -13l-1 1q34 19 51 41q21 26 24 51q1 9 -7 9q-19 0 -33.5 13t-14.5 41q0 33 23 55t55 22q29 0 48.5 -18t19.5 -47z" />
    <glyph glyph-name="kcommaaccent" unicode="&#x137;" horiz-adv-x="560" 
d="M333 733l-93 -454l136 90q19 12 19 22q0 6 -10 29l-30 69v2h267v-2l-170 -93q-34 -20 -42 -25l-12 -8l47 -195q12 -48 19 -64t22 -16q16 0 31 15q18 17 36 57l2 -1q-17 -76 -64 -121.5t-110 -45.5q-43 0 -69.5 24t-37.5 78l-36 176l-55 -270h-183l129 648q2 15 0 19
t-10 9l-44 25v2zM296 -100q0 -48 -35 -89.5t-88 -65.5q-29 -12 -42 -13l-1 1q34 19 51 41q21 26 24 51q1 9 -7 9q-19 0 -33.5 13t-14.5 41q0 33 23 55t55 22q29 0 48.5 -18t19.5 -47z" />
    <glyph glyph-name="kgreenlandic" unicode="&#x138;" horiz-adv-x="560" 
d="M381 -8q-43 0 -69.5 24t-37.5 78l-36 172l-55 -266h-183l84 424q4 20 2 25t-13 13l-42 27v2l258 16l-48 -227l135 89q19 12 19 23q0 6 -10 29l-30 70v2h267v-2l-170 -94q-23 -13 -42 -26l-12 -8l47 -195q12 -48 19 -64t22 -16q16 0 31 15q18 17 36 57l2 -1
q-17 -76 -64 -121.5t-110 -45.5z" />
    <glyph glyph-name="Lacute" unicode="&#x139;" horiz-adv-x="580" 
d="M270 21h44q13 0 19 3t19 18l204 238h2l-56 -280h-536v2l69 73q12 13 15 30l100 493q4 20 -2 31l-41 72v2h335v-2l-69 -72q-11 -12 -14 -31l-111 -554q-3 -16 0 -19.5t22 -3.5zM295 907h186v-2l-289 -168l-1 2z" />
    <glyph glyph-name="lacute" unicode="&#x13a;" horiz-adv-x="302" 
d="M335 733l-129 -577q-5 -21 -5 -41q0 -27 22 -27q16 0 31 15q23 22 39 57l2 -1q-20 -91 -85 -137q-42 -30 -95 -30q-49 0 -74.5 31t-25.5 77q0 30 8 68l108 480q2 15 0 19t-10 9l-44 25v2zM245 907h186v-2l-289 -168l-1 2z" />
    <glyph glyph-name="Lcommaaccent" unicode="&#x13b;" horiz-adv-x="580" 
d="M270 21h44q13 0 19 3t19 18l204 238h2l-56 -280h-536v2l69 73q12 13 15 30l100 493q4 20 -2 31l-41 72v2h335v-2l-69 -72q-11 -12 -14 -31l-111 -554q-3 -16 0 -19.5t22 -3.5zM324 -100q0 -48 -35 -89.5t-88 -65.5q-29 -12 -42 -13l-1 1q34 19 51 41q21 26 24 51
q1 9 -7 9q-19 0 -33.5 13t-14.5 41q0 33 23 55t55 22q29 0 48.5 -18t19.5 -47z" />
    <glyph glyph-name="lcommaaccent" unicode="&#x13c;" horiz-adv-x="302" 
d="M335 733l-129 -577q-5 -21 -5 -41q0 -27 22 -27q16 0 31 15q23 22 39 57l2 -1q-20 -91 -85 -137q-42 -30 -95 -30q-49 0 -74.5 31t-25.5 77q0 30 8 68l108 480q2 15 0 19t-10 9l-44 25v2zM166 -100q0 -48 -35 -89.5t-88 -65.5q-29 -12 -42 -13l-1 1q34 19 51 41
q21 26 24 51q1 9 -7 9q-19 0 -33.5 13t-14.5 41q0 33 23 55t55 22q29 0 48.5 -18t19.5 -47z" />
    <glyph glyph-name="Lcaron" unicode="&#x13d;" horiz-adv-x="580" 
d="M270 21h44q13 0 19 3t19 18l204 238h2l-56 -280h-536v2l69 73q12 13 15 30l100 493q4 20 -2 31l-41 72v2h335v-2l-69 -72q-11 -12 -14 -31l-111 -554q-3 -16 0 -19.5t22 -3.5zM523 703h131l-172 -197h-2z" />
    <glyph glyph-name="lcaron" unicode="&#x13e;" horiz-adv-x="312" 
d="M335 733l-129 -577q-5 -21 -5 -41q0 -27 22 -27q16 0 31 15q23 22 39 57l2 -1q-20 -91 -85 -137q-42 -30 -95 -30q-49 0 -74.5 31t-25.5 77q0 30 8 68l108 480q2 15 0 19t-10 9l-44 25v2zM362 703h131l-172 -197h-2z" />
    <glyph glyph-name="Ldot" unicode="&#x13f;" horiz-adv-x="580" 
d="M270 21h44q13 0 19 3t19 18l204 238h2l-56 -280h-536v2l69 73q12 13 15 30l100 493q4 20 -2 31l-41 72v2h335v-2l-69 -72q-11 -12 -14 -31l-111 -554q-3 -16 0 -19.5t22 -3.5zM486 481q36 0 59 -19t23 -53q0 -39 -26.5 -61.5t-65.5 -22.5q-35 0 -60 18.5t-25 52.5
q0 39 28.5 62t66.5 23z" />
    <glyph glyph-name="ldot" unicode="&#x140;" horiz-adv-x="432" 
d="M335 733l-129 -577q-5 -21 -5 -41q0 -27 22 -27q16 0 31 15q23 22 39 57l2 -1q-20 -91 -85 -137q-42 -30 -95 -30q-49 0 -74.5 31t-25.5 77q0 30 8 68l108 480q2 15 0 19t-10 9l-44 25v2zM386 481q36 0 59 -19t23 -53q0 -39 -26.5 -61.5t-65.5 -22.5q-35 0 -60 18.5
t-25 52.5q0 39 28.5 62t66.5 23z" />
    <glyph glyph-name="Lslash" unicode="&#x141;" horiz-adv-x="589" 
d="M567 280l-56 -280h-536v2l69 73q12 13 15 30l35 172l-66 -26l-7 19l78 31l60 297q4 20 -2 31l-41 72v2h335v-2l-69 -72q-11 -12 -14 -31l-42 -207l114 45l7 -19l-125 -50l-65 -323q-3 -16 0 -19.5t22 -3.5h44q13 0 19 3t19 18l204 238h2z" />
    <glyph glyph-name="lslash" unicode="&#x142;" horiz-adv-x="347" 
d="M143 -8q-49 0 -74.5 31t-25.5 77q0 30 8 68l25 110l-69 -27l-7 18l81 32l78 347q2 15 0 19t-10 9l-44 25v2l258 30l-79 -351l76 30l7 -18l-88 -35l-45 -203q-5 -21 -5 -41q0 -27 22 -27q16 0 31 15q23 22 39 57l2 -1q-20 -91 -85 -137q-42 -30 -95 -30z" />
    <glyph glyph-name="Nacute" unicode="&#x143;" horiz-adv-x="692" 
d="M548 0h-126l-233 496l-58 -290q-3 -17 4 -34l71 -170v-2h-254v2l139 170q14 17 17 34l62 305q4 20 -1 31l-77 159l1 2h232l239 -514l62 308q3 17 -4 34l-72 170l1 2h254l-1 -2l-138 -170q-15 -19 -18 -34zM465 907h186v-2l-289 -168l-1 2z" />
    <glyph glyph-name="nacute" unicode="&#x144;" horiz-adv-x="611" 
d="M419 -8q-51 0 -78.5 28t-27.5 68q0 45 24 115l43 130q14 44 14 59q0 17 -16 17q-26 0 -56 -35q-37 -44 -61.5 -116t-66.5 -258h-183l88 424q3 19 1.5 24.5t-12.5 13.5l-42 27v2l258 16l-37 -193h2q36 83 95.5 138t121.5 55q43 0 68 -27.5t25 -71.5q0 -38 -22 -113
l-36 -118q-13 -44 -13 -67q0 -22 17 -22q16 0 31 15q23 22 39 57h2q-16 -76 -65 -122t-113 -46zM379 703h186v-2l-289 -168l-1 2z" />
    <glyph glyph-name="Ncommaaccent" unicode="&#x145;" horiz-adv-x="692" 
d="M548 0h-126l-233 496l-58 -290q-3 -17 4 -34l71 -170v-2h-254v2l139 170q14 17 17 34l62 305q4 20 -1 31l-77 159l1 2h232l239 -514l62 308q3 17 -4 34l-72 170l1 2h254l-1 -2l-138 -170q-15 -19 -18 -34zM357 -100q0 -48 -35 -89.5t-88 -65.5q-29 -12 -42 -13l-1 1
q34 19 51 41q21 26 24 51q1 9 -7 9q-19 0 -33.5 13t-14.5 41q0 33 23 55t55 22q29 0 48.5 -18t19.5 -47z" />
    <glyph glyph-name="ncommaaccent" unicode="&#x146;" horiz-adv-x="611" 
d="M419 -8q-51 0 -78.5 28t-27.5 68q0 45 24 115l43 130q14 44 14 59q0 17 -16 17q-26 0 -56 -35q-37 -44 -61.5 -116t-66.5 -258h-183l88 424q3 19 1.5 24.5t-12.5 13.5l-42 27v2l258 16l-37 -193h2q36 83 95.5 138t121.5 55q43 0 68 -27.5t25 -71.5q0 -38 -22 -113
l-36 -118q-13 -44 -13 -67q0 -22 17 -22q16 0 31 15q23 22 39 57h2q-16 -76 -65 -122t-113 -46zM319 -100q0 -48 -35 -89.5t-88 -65.5q-29 -12 -42 -13l-1 1q34 19 51 41q21 26 24 51q1 9 -7 9q-19 0 -33.5 13t-14.5 41q0 33 23 55t55 22q29 0 48.5 -18t19.5 -47z" />
    <glyph glyph-name="Ncaron" unicode="&#x147;" horiz-adv-x="692" 
d="M548 0h-126l-233 496l-58 -290q-3 -17 4 -34l71 -170v-2h-254v2l139 170q14 17 17 34l62 305q4 20 -1 31l-77 159l1 2h232l239 -514l62 308q3 17 -4 34l-72 170l1 2h254l-1 -2l-138 -170q-15 -19 -18 -34zM472 852l191 62l1 -1l-210 -175h-2l-140 175l1 1z" />
    <glyph glyph-name="ncaron" unicode="&#x148;" horiz-adv-x="611" 
d="M419 -8q-51 0 -78.5 28t-27.5 68q0 45 24 115l43 130q14 44 14 59q0 17 -16 17q-26 0 -56 -35q-37 -44 -61.5 -116t-66.5 -258h-183l88 424q3 19 1.5 24.5t-12.5 13.5l-42 27v2l258 16l-37 -193h2q36 83 95.5 138t121.5 55q43 0 68 -27.5t25 -71.5q0 -38 -22 -113
l-36 -118q-13 -44 -13 -67q0 -22 17 -22q16 0 31 15q23 22 39 57h2q-16 -76 -65 -122t-113 -46zM386 648l191 62l1 -1l-210 -175h-2l-140 175l1 1z" />
    <glyph glyph-name="napostrophe" unicode="&#x149;" horiz-adv-x="698" 
d="M506 -8q-51 0 -78.5 28t-27.5 68q0 45 24 115l43 130q14 44 14 59q0 17 -16 17q-26 0 -56 -35q-37 -44 -61.5 -116t-66.5 -258h-183l88 424q3 19 1.5 24.5t-12.5 13.5l-42 27v2l258 16l-37 -193h2q36 83 95.5 138t121.5 55q43 0 68 -27.5t25 -71.5q0 -38 -22 -113
l-36 -118q-13 -44 -13 -67q0 -22 17 -22q16 0 31 15q23 22 39 57h2q-16 -76 -65 -122t-113 -46zM181 648q0 -48 -35 -89.5t-88 -65.5q-29 -12 -42 -13l-1 1q34 19 51 41q21 26 24 51q1 9 -7 9q-19 0 -33.5 13t-14.5 41q0 33 23 55t55 22q29 0 48.5 -18t19.5 -47z" />
    <glyph glyph-name="Eng" unicode="&#x14a;" horiz-adv-x="749" 
d="M737 496l-70 -365q-33 -173 -135.5 -257.5t-283.5 -84.5l-1 2q161 79 202 287l78 399q5 30 5 48q0 90 -81 90q-51 0 -96 -34l-96 -476q-4 -20 2 -31l40 -72v-2h-335v2l70 72q11 12 14 31l100 493q4 20 -2 31l-41 72v2h273l-21 -102q31 46 89.5 78t119.5 32q83 0 129 -41
t46 -118q0 -26 -6 -56z" />
    <glyph glyph-name="eng" unicode="&#x14b;" horiz-adv-x="611" 
d="M518 103q-37 -162 -131 -238t-272 -76l-1 2q157 57 210 287l59 254q11 48 11 60q0 17 -16 17q-26 0 -56 -35q-35 -42 -55 -96.5t-47 -167.5l-26 -110h-183l88 424q4 21 2.5 25.5t-13.5 12.5l-42 27v2l258 16l-37 -193h2q36 83 95.5 138t121.5 55q43 0 68 -27.5t25 -71.5
q0 -41 -17 -113z" />
    <glyph glyph-name="Omacron" unicode="&#x14c;" horiz-adv-x="733" 
d="M428 713q154 0 230.5 -76.5t76.5 -208.5q0 -190 -110 -314t-284 -124q-153 0 -230 77t-77 208q0 190 110 314t284 124zM321 11q43 0 81.5 65t61.5 155.5t36.5 177.5t13.5 141q0 80 -16 111t-50 31q-43 0 -81.5 -65t-61.5 -155.5t-36.5 -177.5t-13.5 -141q0 -80 16 -111
t50 -31zM623 797h-300v20h300v-20z" />
    <glyph glyph-name="omacron" unicode="&#x14d;" horiz-adv-x="561" 
d="M241 -8q-43 0 -81 10.5t-72.5 33.5t-54.5 67t-20 104q0 131 88.5 215.5t220.5 84.5q42 0 79 -10t71.5 -33t55 -67t20.5 -105q0 -133 -89 -216.5t-218 -83.5zM231 12q46 -1 85.5 137.5t39.5 278.5q0 59 -26 59q-46 1 -85.5 -137.5t-39.5 -278.5q0 -59 26 -59zM498 593
h-300v20h300v-20z" />
    <glyph glyph-name="Obreve" unicode="&#x14e;" horiz-adv-x="733" 
d="M428 713q154 0 230.5 -76.5t76.5 -208.5q0 -190 -110 -314t-284 -124q-153 0 -230 77t-77 208q0 190 110 314t284 124zM321 11q43 0 81.5 65t61.5 155.5t36.5 177.5t13.5 141q0 80 -16 111t-50 31q-43 0 -81.5 -65t-61.5 -155.5t-36.5 -177.5t-13.5 -141q0 -80 16 -111
t50 -31zM476 829q125 0 151 94h2q-1 -89 -48 -134.5t-113 -45.5q-51 0 -87 27.5t-36 79.5q0 32 16 73h2q-7 -46 23 -70t90 -24z" />
    <glyph glyph-name="obreve" unicode="&#x14f;" horiz-adv-x="561" 
d="M241 -8q-43 0 -81 10.5t-72.5 33.5t-54.5 67t-20 104q0 131 88.5 215.5t220.5 84.5q42 0 79 -10t71.5 -33t55 -67t20.5 -105q0 -133 -89 -216.5t-218 -83.5zM231 12q46 -1 85.5 137.5t39.5 278.5q0 59 -26 59q-46 1 -85.5 -137.5t-39.5 -278.5q0 -59 26 -59zM351 625
q125 0 151 94h2q-1 -89 -48 -134.5t-113 -45.5q-51 0 -87 27.5t-36 79.5q0 32 16 73h2q-7 -46 23 -70t90 -24z" />
    <glyph glyph-name="Ohungarumlaut" unicode="&#x150;" horiz-adv-x="733" 
d="M428 713q154 0 230.5 -76.5t76.5 -208.5q0 -190 -110 -314t-284 -124q-153 0 -230 77t-77 208q0 190 110 314t284 124zM321 11q43 0 81.5 65t61.5 155.5t36.5 177.5t13.5 141q0 80 -16 111t-50 31q-43 0 -81.5 -65t-61.5 -155.5t-36.5 -177.5t-13.5 -141q0 -80 16 -111
t50 -31zM425 907h145v-2l-230 -171h-2zM609 907h145v-2l-230 -171h-2z" />
    <glyph glyph-name="ohungarumlaut" unicode="&#x151;" horiz-adv-x="561" 
d="M241 -8q-43 0 -81 10.5t-72.5 33.5t-54.5 67t-20 104q0 131 88.5 215.5t220.5 84.5q42 0 79 -10t71.5 -33t55 -67t20.5 -105q0 -133 -89 -216.5t-218 -83.5zM231 12q46 -1 85.5 137.5t39.5 278.5q0 59 -26 59q-46 1 -85.5 -137.5t-39.5 -278.5q0 -59 26 -59zM300 703h145
v-2l-230 -171h-2zM484 703h145v-2l-230 -171h-2z" />
    <glyph glyph-name="OE" unicode="&#x152;" horiz-adv-x="990" 
d="M764 660l-61 -301h32q13 0 18.5 2t18.5 14l123 107h2l-54 -267h-2l-79 107q-5 8 -9.5 11.5t-8.5 4t-13 0.5h-32l-59 -294q-4 -16 -0.5 -19.5t22.5 -3.5h67q14 0 20.5 3t18.5 18l182 222h3l-51 -264h-457q-40 -10 -95 -10q-155 0 -235.5 77t-80.5 207q0 189 114.5 314
t288.5 125q47 0 134 -10h461l-52 -257h-2l-105 216q-7 15 -11 17.5t-18 2.5h-47q-20 0 -25 -3t-8 -19zM519 673q-16 19 -62 19q-43 0 -81.5 -65t-61.5 -155.5t-36.5 -177.5t-13.5 -141q0 -80 16 -111t50 -31q58 0 83 41q15 25 24 70l91 454q14 71 -9 97z" />
    <glyph glyph-name="oe" unicode="&#x153;" horiz-adv-x="813" 
d="M539 -8q-83 0 -131 55q-69 -55 -165 -55q-43 0 -80.5 10.5t-71.5 33.5t-54 67t-20 104q0 131 87.5 215.5t219.5 84.5q106 0 153 -59q62 59 173 59q75 0 120 -29.5t45 -85.5q0 -67 -68.5 -112t-206.5 -54v-6q0 -118 96 -118q85 0 149 92l2 -1q-28 -100 -95.5 -150.5
t-152.5 -50.5zM233 12q46 -1 85.5 137.5t39.5 278.5q0 59 -26 59q-46 1 -85.5 -137.5t-39.5 -278.5q0 -59 26 -59zM653 487q-34 0 -71 -81.5t-42 -165.5q73 15 104.5 68t31.5 124q0 55 -23 55z" />
    <glyph glyph-name="Racute" unicode="&#x154;" horiz-adv-x="694" 
d="M367 334h-62l-46 -229q-4 -20 2 -31l40 -72v-2h-335v2l70 72q11 12 14 31l100 493q4 20 -2 31l-41 72l1 2h417q77 0 129 -36.5t52 -108.5q0 -98 -72.5 -154.5t-200.5 -57.5v-2l154 -36l1 -1l13 -219q1 -18 16 -41l29 -45v-2h-253l-12 324q0 10 -14 10zM371 660l-62 -305
h54q54 0 91.5 68t37.5 152q0 107 -62 107h-25q-21 0 -26 -3.5t-8 -18.5zM447 907h186v-2l-289 -168l-1 2z" />
    <glyph glyph-name="racute" unicode="&#x155;" horiz-adv-x="441" 
d="M12 0l87 424q4 21 2.5 25.5t-13.5 12.5l-42 27v2l258 16l-37 -193h2q66 193 164 193q35 0 53 -16l-85 -242h-2l-67 118q-5 8 -9 8t-10 -6q-9 -9 -26 -45q-40 -85 -93 -324h-182zM318 703h186v-2l-289 -168l-1 2z" />
    <glyph glyph-name="Rcommaaccent" unicode="&#x156;" horiz-adv-x="694" 
d="M367 334h-62l-46 -229q-4 -20 2 -31l40 -72v-2h-335v2l70 72q11 12 14 31l100 493q4 20 -2 31l-41 72l1 2h417q77 0 129 -36.5t52 -108.5q0 -98 -72.5 -154.5t-200.5 -57.5v-2l154 -36l1 -1l13 -219q1 -18 16 -41l29 -45v-2h-253l-12 324q0 10 -14 10zM371 660l-62 -305
h54q54 0 91.5 68t37.5 152q0 107 -62 107h-25q-21 0 -26 -3.5t-8 -18.5zM392 -100q0 -48 -35 -89.5t-88 -65.5q-29 -12 -42 -13l-1 1q34 19 51 41q21 26 24 51q1 9 -7 9q-19 0 -33.5 13t-14.5 41q0 33 23 55t55 22q29 0 48.5 -18t19.5 -47z" />
    <glyph glyph-name="rcommaaccent" unicode="&#x157;" horiz-adv-x="441" 
d="M12 0l87 424q4 21 2.5 25.5t-13.5 12.5l-42 27v2l258 16l-37 -193h2q66 193 164 193q35 0 53 -16l-85 -242h-2l-67 118q-5 8 -9 8t-10 -6q-9 -9 -26 -45q-40 -85 -93 -324h-182zM158 -100q0 -48 -35 -89.5t-88 -65.5q-29 -12 -42 -13l-1 1q34 19 51 41q21 26 24 51
q1 9 -7 9q-19 0 -33.5 13t-14.5 41q0 33 23 55t55 22q29 0 48.5 -18t19.5 -47z" />
    <glyph glyph-name="Rcaron" unicode="&#x158;" horiz-adv-x="694" 
d="M367 334h-62l-46 -229q-4 -20 2 -31l40 -72v-2h-335v2l70 72q11 12 14 31l100 493q4 20 -2 31l-41 72l1 2h417q77 0 129 -36.5t52 -108.5q0 -98 -72.5 -154.5t-200.5 -57.5v-2l154 -36l1 -1l13 -219q1 -18 16 -41l29 -45v-2h-253l-12 324q0 10 -14 10zM371 660l-62 -305
h54q54 0 91.5 68t37.5 152q0 107 -62 107h-25q-21 0 -26 -3.5t-8 -18.5zM454 852l191 62l1 -1l-210 -175h-2l-140 175l1 1z" />
    <glyph glyph-name="rcaron" unicode="&#x159;" horiz-adv-x="441" 
d="M12 0l87 424q4 21 2.5 25.5t-13.5 12.5l-42 27v2l258 16l-37 -193h2q66 193 164 193q35 0 53 -16l-85 -242h-2l-67 118q-5 8 -9 8t-10 -6q-9 -9 -26 -45q-40 -85 -93 -324h-182zM325 648l191 62l1 -1l-210 -175h-2l-140 175l1 1z" />
    <glyph glyph-name="Sacute" unicode="&#x15a;" horiz-adv-x="573" 
d="M547 223q0 -97 -84.5 -164.5t-218.5 -68.5q-149 0 -252 25l75 258h2l86 -245q5 -13 22 -15q22 -2 37 -2q56 0 94.5 30t38.5 80q0 41 -29.5 75.5t-91.5 77.5l-12 9q-60 43 -95 91.5t-35 113.5q0 101 77.5 162.5t198.5 62.5q129 0 233 -27l-51 -238h-2l-114 231
q-5 11 -17 12q-10 1 -38 1q-44 0 -72.5 -24t-28.5 -71q0 -78 115 -159l11 -8q38 -27 60 -45t45.5 -44t34.5 -55t11 -63zM392 907h186v-2l-289 -168l-1 2z" />
    <glyph glyph-name="sacute" unicode="&#x15b;" horiz-adv-x="424" 
d="M388 165q0 -71 -58 -122t-163 -51q-98 0 -175 30l55 179h2l99 -179q7 -11 20 -11h1q31 0 51 17t20 44q0 9 -3 16.5t-12.5 17.5t-17 16.5t-27.5 23.5t-34 29q-52 44 -72.5 82t-20.5 82q0 69 51 118.5t144 49.5q75 0 170 -20l-56 -176h-2l-97 171q-4 6 -12 6h-1
q-23 -1 -38 -17t-15 -44q0 -22 20.5 -47.5t74.5 -69.5q55 -46 75.5 -75t20.5 -70zM273 703h186v-2l-289 -168l-1 2z" />
    <glyph glyph-name="Scircumflex" unicode="&#x15c;" horiz-adv-x="573" 
d="M547 223q0 -97 -84.5 -164.5t-218.5 -68.5q-149 0 -252 25l75 258h2l86 -245q5 -13 22 -15q22 -2 37 -2q56 0 94.5 30t38.5 80q0 41 -29.5 75.5t-91.5 77.5l-12 9q-60 43 -95 91.5t-35 113.5q0 101 77.5 162.5t198.5 62.5q129 0 233 -27l-51 -238h-2l-114 231
q-5 11 -17 12q-10 1 -38 1q-44 0 -72.5 -24t-28.5 -71q0 -78 115 -159l11 -8q38 -27 60 -45t45.5 -44t34.5 -55t11 -63zM412 914l140 -175l-1 -1l-159 62l-191 -62l-1 1l210 175h2z" />
    <glyph glyph-name="scircumflex" unicode="&#x15d;" horiz-adv-x="424" 
d="M388 165q0 -71 -58 -122t-163 -51q-98 0 -175 30l55 179h2l99 -179q7 -11 20 -11h1q31 0 51 17t20 44q0 9 -3 16.5t-12.5 17.5t-17 16.5t-27.5 23.5t-34 29q-52 44 -72.5 82t-20.5 82q0 69 51 118.5t144 49.5q75 0 170 -20l-56 -176h-2l-97 171q-4 6 -12 6h-1
q-23 -1 -38 -17t-15 -44q0 -22 20.5 -47.5t74.5 -69.5q55 -46 75.5 -75t20.5 -70zM293 710l140 -175l-1 -1l-159 62l-191 -62l-1 1l210 175h2z" />
    <glyph glyph-name="Scedilla" unicode="&#x15e;" horiz-adv-x="573" 
d="M354 -124q0 -51 -41.5 -81.5t-99.5 -30.5q-53 0 -89 26.5t-28 73.5l3 1q3 -32 26.5 -45t49.5 -13q30 0 52 18.5t22 48.5q0 19 -16 29.5t-39 10.5t-39 -7l-1 2l89 81q-148 0 -251 25l75 258h2l86 -245q5 -13 22 -15q22 -2 37 -2q56 0 94.5 30t38.5 80q0 41 -29.5 75.5
t-91.5 77.5l-12 9q-60 43 -95 91.5t-35 113.5q0 101 77.5 162.5t198.5 62.5q129 0 233 -27l-51 -238h-2l-114 231q-5 11 -17 12q-10 1 -38 1q-44 0 -72.5 -24t-28.5 -71q0 -78 115 -159l11 -8q38 -27 60 -45t45.5 -44t34.5 -55t11 -63q0 -96 -83 -163.5t-215 -69.5l-15 -49
q18 3 33 3q40 0 63.5 -19t23.5 -49z" />
    <glyph glyph-name="scedilla" unicode="&#x15f;" horiz-adv-x="424" 
d="M280 -124q0 -51 -41.5 -81.5t-99.5 -30.5q-53 0 -89 26.5t-28 73.5l3 1q3 -32 26.5 -45t49.5 -13q30 0 52 18.5t22 48.5q0 19 -16 29.5t-39 10.5t-39 -7l-1 2l91 83h-4q-98 0 -175 30l55 179h2l99 -179q7 -11 20 -11h1q31 0 51 17t20 44q0 9 -3 16.5t-12.5 17.5t-17 16.5
t-27.5 23.5t-34 29q-52 44 -72.5 82t-20.5 82q0 69 51 118.5t144 49.5q75 0 170 -20l-56 -176h-2l-97 171q-4 6 -12 6h-1q-23 -1 -38 -17t-15 -44q0 -22 20.5 -47.5t74.5 -69.5q55 -46 75.5 -75t20.5 -70q0 -69 -55.5 -119.5t-156.5 -53.5l-16 -51q18 3 33 3q40 0 63.5 -19
t23.5 -49z" />
    <glyph glyph-name="Scaron" unicode="&#x160;" horiz-adv-x="573" 
d="M547 223q0 -97 -84.5 -164.5t-218.5 -68.5q-149 0 -252 25l75 258h2l86 -245q5 -13 22 -15q22 -2 37 -2q56 0 94.5 30t38.5 80q0 41 -29.5 75.5t-91.5 77.5l-12 9q-60 43 -95 91.5t-35 113.5q0 101 77.5 162.5t198.5 62.5q129 0 233 -27l-51 -238h-2l-114 231
q-5 11 -17 12q-10 1 -38 1q-44 0 -72.5 -24t-28.5 -71q0 -78 115 -159l11 -8q38 -27 60 -45t45.5 -44t34.5 -55t11 -63zM399 852l191 62l1 -1l-210 -175h-2l-140 175l1 1z" />
    <glyph glyph-name="scaron" unicode="&#x161;" horiz-adv-x="424" 
d="M388 165q0 -71 -58 -122t-163 -51q-98 0 -175 30l55 179h2l99 -179q7 -11 20 -11h1q31 0 51 17t20 44q0 9 -3 16.5t-12.5 17.5t-17 16.5t-27.5 23.5t-34 29q-52 44 -72.5 82t-20.5 82q0 69 51 118.5t144 49.5q75 0 170 -20l-56 -176h-2l-97 171q-4 6 -12 6h-1
q-23 -1 -38 -17t-15 -44q0 -22 20.5 -47.5t74.5 -69.5q55 -46 75.5 -75t20.5 -70zM280 648l191 62l1 -1l-210 -175h-2l-140 175l1 1z" />
    <glyph glyph-name="Tcommaaccent" unicode="&#x162;" horiz-adv-x="630" 
d="M394 117q-4 -21 3 -35l47 -80v-2h-355v2l79 80q13 15 17 35l114 565h-20q-13 0 -19 -2.5t-17 -15.5l-191 -255h-2l59 294h597l-59 -294h-2l-89 255q-6 13 -11 15.5t-17 2.5h-20zM319 -100q0 -48 -35 -89.5t-88 -65.5q-29 -12 -42 -13l-1 1q34 19 51 41q21 26 24 51
q1 9 -7 9q-19 0 -33.5 13t-14.5 41q0 33 23 55t55 22q29 0 48.5 -18t19.5 -47z" />
    <glyph glyph-name="tcommaaccent" unicode="&#x163;" horiz-adv-x="325" 
d="M124 -8q-50 0 -74 31t-24 71q0 31 8 71l69 306h-62v20h52q20 0 35 12l196 186h2l-41 -198h88v-20h-92l-64 -315q-5 -26 -5 -45q0 -23 19 -23q16 0 31 15q23 22 39 57l2 -1q-18 -85 -78 -132q-44 -35 -101 -35zM174 -100q0 -48 -35 -89.5t-88 -65.5q-29 -12 -42 -13l-1 1
q34 19 51 41q21 26 24 51q1 9 -7 9q-19 0 -33.5 13t-14.5 41q0 33 23 55t55 22q29 0 48.5 -18t19.5 -47z" />
    <glyph glyph-name="Tcaron" unicode="&#x164;" horiz-adv-x="630" 
d="M394 117q-4 -21 3 -35l47 -80v-2h-355v2l79 80q13 15 17 35l114 565h-20q-13 0 -19 -2.5t-17 -15.5l-191 -255h-2l59 294h597l-59 -294h-2l-89 255q-6 13 -11 15.5t-17 2.5h-20zM435 852l191 62l1 -1l-210 -175h-2l-140 175l1 1z" />
    <glyph glyph-name="tcaron" unicode="&#x165;" horiz-adv-x="325" 
d="M124 -8q-50 0 -74 31t-24 71q0 31 8 71l69 306h-62v20h52q20 0 35 12l196 186h2l-41 -198h88v-20h-92l-64 -315q-5 -26 -5 -45q0 -23 19 -23q16 0 31 15q23 22 39 57l2 -1q-18 -85 -78 -132q-44 -35 -101 -35zM400 703h131l-172 -197h-2z" />
    <glyph glyph-name="Tbar" unicode="&#x166;" horiz-adv-x="630" 
d="M706 703l-59 -294h-2l-89 255q-6 13 -11 15.5t-17 2.5h-20l-69 -339h122v-20h-126l-41 -206q-4 -21 3 -35l47 -80v-2h-355v2l79 80q13 15 17 35l41 206h-119v20h123l69 339h-20q-13 0 -19 -2.5t-17 -15.5l-191 -255h-2l59 294h597z" />
    <glyph glyph-name="tbar" unicode="&#x167;" horiz-adv-x="341" 
d="M132 -8q-50 0 -74 31t-24 71q0 31 8 71l37 166h-59v20h64l27 120h-62v20h52q20 0 35 12l196 186h2l-41 -198h88v-20h-92l-25 -120h85v-20h-89l-35 -175q-5 -26 -5 -45q0 -23 19 -23q16 0 31 15q23 22 39 57l2 -1q-18 -85 -78 -132q-44 -35 -101 -35z" />
    <glyph glyph-name="Utilde" unicode="&#x168;" horiz-adv-x="664" 
d="M289 -10q-230 0 -230 187q0 37 9 81l69 340q4 22 -2 32l-41 71v2h335v-2l-68 -71q-11 -13 -16 -32l-67 -335q-11 -52 -11 -97q0 -133 112 -133q64 0 114 56t73 169l44 219q5 31 3 42.5t-14 42.5l-54 139v2h238v-2l-110 -144q-22 -29 -28.5 -41t-12.5 -39l-44 -217
q-27 -136 -97 -203t-202 -67zM559 767q-29 0 -71.5 25t-64.5 25q-51 0 -77 -51h-2q7 61 40 98t78 37q29 0 71.5 -25t64.5 -25q52 0 77 51h2q-7 -61 -40 -98t-78 -37z" />
    <glyph glyph-name="utilde" unicode="&#x169;" horiz-adv-x="616" 
d="M426 -8q-51 0 -76.5 26t-25.5 70q0 43 17 97h-2q-35 -82 -95.5 -137.5t-116.5 -55.5q-44 0 -69.5 27.5t-25.5 71.5q0 38 22 113l36 118q13 44 13 67q0 22 -17 22q-14 0 -31 -15q-23 -22 -39 -47l-2 1q26 72 71.5 114.5t106.5 42.5q51 0 78.5 -28t27.5 -68q0 -45 -24 -115
l-43 -130q-14 -44 -14 -59q0 -17 16 -17q23 0 53 35q31 38 51 94t61 205q10 39 16 60l187 23l-79 -331q-9 -41 -9 -64q0 -24 19 -24q16 0 31 15q23 22 39 57l2 -1q-22 -85 -75 -129q-46 -38 -103 -38zM418 563q-29 0 -71.5 25t-64.5 25q-52 0 -77 -51h-2q7 61 40 98t78 37
q29 0 71.5 -25t64.5 -25q51 0 77 51h2q-7 -61 -40 -98t-78 -37z" />
    <glyph glyph-name="Umacron" unicode="&#x16a;" horiz-adv-x="664" 
d="M289 -10q-230 0 -230 187q0 37 9 81l69 340q4 22 -2 32l-41 71v2h335v-2l-68 -71q-11 -13 -16 -32l-67 -335q-11 -52 -11 -97q0 -133 112 -133q64 0 114 56t73 169l44 219q5 31 3 42.5t-14 42.5l-54 139v2h238v-2l-110 -144q-22 -29 -28.5 -41t-12.5 -39l-44 -217
q-27 -136 -97 -203t-202 -67zM655 797h-300v20h300v-20z" />
    <glyph glyph-name="umacron" unicode="&#x16b;" horiz-adv-x="616" 
d="M426 -8q-51 0 -76.5 26t-25.5 70q0 43 17 97h-2q-35 -82 -95.5 -137.5t-116.5 -55.5q-44 0 -69.5 27.5t-25.5 71.5q0 38 22 113l36 118q13 44 13 67q0 22 -17 22q-14 0 -31 -15q-23 -22 -39 -47l-2 1q26 72 71.5 114.5t106.5 42.5q51 0 78.5 -28t27.5 -68q0 -45 -24 -115
l-43 -130q-14 -44 -14 -59q0 -17 16 -17q23 0 53 35q31 38 51 94t61 205q10 39 16 60l187 23l-79 -331q-9 -41 -9 -64q0 -24 19 -24q16 0 31 15q23 22 39 57l2 -1q-22 -85 -75 -129q-46 -38 -103 -38zM514 593h-300v20h300v-20z" />
    <glyph glyph-name="Ubreve" unicode="&#x16c;" horiz-adv-x="664" 
d="M289 -10q-230 0 -230 187q0 37 9 81l69 340q4 22 -2 32l-41 71v2h335v-2l-68 -71q-11 -13 -16 -32l-67 -335q-11 -52 -11 -97q0 -133 112 -133q64 0 114 56t73 169l44 219q5 31 3 42.5t-14 42.5l-54 139v2h238v-2l-110 -144q-22 -29 -28.5 -41t-12.5 -39l-44 -217
q-27 -136 -97 -203t-202 -67zM508 829q125 0 151 94h2q-1 -89 -48 -134.5t-113 -45.5q-51 0 -87 27.5t-36 79.5q0 32 16 73h2q-7 -46 23 -70t90 -24z" />
    <glyph glyph-name="ubreve" unicode="&#x16d;" horiz-adv-x="616" 
d="M426 -8q-51 0 -76.5 26t-25.5 70q0 43 17 97h-2q-35 -82 -95.5 -137.5t-116.5 -55.5q-44 0 -69.5 27.5t-25.5 71.5q0 38 22 113l36 118q13 44 13 67q0 22 -17 22q-14 0 -31 -15q-23 -22 -39 -47l-2 1q26 72 71.5 114.5t106.5 42.5q51 0 78.5 -28t27.5 -68q0 -45 -24 -115
l-43 -130q-14 -44 -14 -59q0 -17 16 -17q23 0 53 35q31 38 51 94t61 205q10 39 16 60l187 23l-79 -331q-9 -41 -9 -64q0 -24 19 -24q16 0 31 15q23 22 39 57l2 -1q-22 -85 -75 -129q-46 -38 -103 -38zM367 625q125 0 151 94h2q-1 -89 -48 -134.5t-113 -45.5q-51 0 -87 27.5
t-36 79.5q0 32 16 73h2q-7 -46 23 -70t90 -24z" />
    <glyph glyph-name="Uring" unicode="&#x16e;" horiz-adv-x="664" 
d="M289 -10q-230 0 -230 187q0 37 9 81l69 340q4 22 -2 32l-41 71v2h335v-2l-68 -71q-11 -13 -16 -32l-67 -335q-11 -52 -11 -97q0 -133 112 -133q64 0 114 56t73 169l44 219q5 31 3 42.5t-14 42.5l-54 139v2h238v-2l-110 -144q-22 -29 -28.5 -41t-12.5 -39l-44 -217
q-27 -136 -97 -203t-202 -67zM503 742q-36 0 -62 23.5t-26 62.5q0 46 32 80t82 34q36 0 62 -23.5t26 -62.5q0 -46 -32 -80t-82 -34zM528 921q-37 0 -63.5 -27t-26.5 -65q0 -30 19 -48t47 -18q37 0 63.5 27t26.5 65q0 30 -19 48t-47 18z" />
    <glyph glyph-name="uring" unicode="&#x16f;" horiz-adv-x="616" 
d="M426 -8q-51 0 -76.5 26t-25.5 70q0 43 17 97h-2q-35 -82 -95.5 -137.5t-116.5 -55.5q-44 0 -69.5 27.5t-25.5 71.5q0 38 22 113l36 118q13 44 13 67q0 22 -17 22q-14 0 -31 -15q-23 -22 -39 -47l-2 1q26 72 71.5 114.5t106.5 42.5q51 0 78.5 -28t27.5 -68q0 -45 -24 -115
l-43 -130q-14 -44 -14 -59q0 -17 16 -17q23 0 53 35q31 38 51 94t61 205q10 39 16 60l187 23l-79 -331q-9 -41 -9 -64q0 -24 19 -24q16 0 31 15q23 22 39 57l2 -1q-22 -85 -75 -129q-46 -38 -103 -38zM362 538q-36 0 -62 23.5t-26 62.5q0 46 32 80t82 34q36 0 62 -23.5
t26 -62.5q0 -46 -32 -80t-82 -34zM387 717q-37 0 -63.5 -27t-26.5 -65q0 -30 19 -48t47 -18q37 0 63.5 27t26.5 65q0 30 -19 48t-47 18z" />
    <glyph glyph-name="Uhungarumlaut" unicode="&#x170;" horiz-adv-x="664" 
d="M289 -10q-230 0 -230 187q0 37 9 81l69 340q4 22 -2 32l-41 71v2h335v-2l-68 -71q-11 -13 -16 -32l-67 -335q-11 -52 -11 -97q0 -133 112 -133q64 0 114 56t73 169l44 219q5 31 3 42.5t-14 42.5l-54 139v2h238v-2l-110 -144q-22 -29 -28.5 -41t-12.5 -39l-44 -217
q-27 -136 -97 -203t-202 -67zM457 907h145v-2l-230 -171h-2zM641 907h145v-2l-230 -171h-2z" />
    <glyph glyph-name="uhungarumlaut" unicode="&#x171;" horiz-adv-x="616" 
d="M426 -8q-51 0 -76.5 26t-25.5 70q0 43 17 97h-2q-35 -82 -95.5 -137.5t-116.5 -55.5q-44 0 -69.5 27.5t-25.5 71.5q0 38 22 113l36 118q13 44 13 67q0 22 -17 22q-14 0 -31 -15q-23 -22 -39 -47l-2 1q26 72 71.5 114.5t106.5 42.5q51 0 78.5 -28t27.5 -68q0 -45 -24 -115
l-43 -130q-14 -44 -14 -59q0 -17 16 -17q23 0 53 35q31 38 51 94t61 205q10 39 16 60l187 23l-79 -331q-9 -41 -9 -64q0 -24 19 -24q16 0 31 15q23 22 39 57l2 -1q-22 -85 -75 -129q-46 -38 -103 -38zM316 703h145v-2l-230 -171h-2zM500 703h145v-2l-230 -171h-2z" />
    <glyph glyph-name="Uogonek" unicode="&#x172;" horiz-adv-x="664" 
d="M263 -236q-43 0 -69 21t-26 60q0 59 50.5 96.5t116.5 52.5q-30 -4 -46 -4q-230 0 -230 187q0 37 9 81l69 340q4 22 -2 32l-41 71v2h335v-2l-68 -71q-11 -13 -16 -32l-67 -335q-11 -52 -11 -97q0 -133 112 -133q64 0 114 56t73 169l44 219q5 31 3 42.5t-14 42.5l-54 139v2
h238v-2l-110 -144q-22 -29 -28.5 -41t-12.5 -39l-44 -217q-24 -118 -78.5 -183.5t-152.5 -80.5q-41 -15 -65.5 -45.5t-24.5 -71.5q0 -27 15.5 -41.5t43.5 -14.5q51 0 95 51l1 -1q-22 -47 -63 -78t-96 -31z" />
    <glyph glyph-name="uogonek" unicode="&#x173;" horiz-adv-x="616" 
d="M374 -236q-43 0 -69 21t-26 60q0 55 45 92.5t107 54.5h-5q-51 0 -76.5 26t-25.5 70q0 43 17 97h-2q-35 -82 -95.5 -137.5t-116.5 -55.5q-44 0 -69.5 27.5t-25.5 71.5q0 38 22 113l36 118q13 44 13 67q0 22 -17 22q-14 0 -31 -15q-23 -22 -39 -47l-2 1q26 72 71.5 114.5
t106.5 42.5q51 0 78.5 -28t27.5 -68q0 -45 -24 -115l-43 -130q-14 -38 -14 -59q0 -17 16 -17q23 0 53 35q31 38 51 94t61 205q10 39 16 60l187 23l-79 -331q-9 -41 -9 -64q0 -24 19 -24q16 0 31 15q23 22 39 57l2 -1q-22 -85 -75 -129q-32 -27 -73 -35q-35 -16 -56.5 -47
t-21.5 -69q0 -27 15.5 -41.5t43.5 -14.5q51 0 95 51l1 -1q-22 -47 -63 -78t-96 -31z" />
    <glyph glyph-name="Wcircumflex" unicode="&#x174;" horiz-adv-x="983" 
d="M698 0h-156l-34 358l-183 -358h-158l-55 577q-1 15 -9 43l-25 81v2h301v-2l-50 -75q-9 -14 -8 -27l44 -476l140 273l-17 181q-1 20 -6 39l-23 85v2h294v-2l-50 -75q-9 -14 -8 -27l43 -472l190 376q9 17 2 36l-58 162v2h243v-2l-138 -162q-18 -21 -30 -45zM657 914
l140 -175l-1 -1l-159 62l-191 -62l-1 1l210 175h2z" />
    <glyph glyph-name="wcircumflex" unicode="&#x175;" horiz-adv-x="765" 
d="M155 -8q-55 0 -83 30t-28 75q0 33 15 98l30 127q13 57 13 66q0 23 -20 23q-26 0 -75 -60l-2 1q63 155 181 155q103 0 103 -113q0 -46 -20 -117l-30 -105q-10 -33 -10 -55q0 -39 31 -39q48 0 79 104q32 106 44 303l185 22q-13 -129 -54 -319q-9 -43 -9 -62q0 -48 39 -48
q46 0 80.5 60.5t34.5 147.5q0 68 -20 118q-13 32 -30 56v2l171 45q-11 -130 -61.5 -249.5t-124.5 -192.5t-149 -73q-49 0 -75 31t-26 88q0 9 2 31h-2q-22 -63 -72 -106.5t-117 -43.5zM506 710l140 -175l-1 -1l-159 62l-191 -62l-1 1l210 175h2z" />
    <glyph glyph-name="Ycircumflex" unicode="&#x176;" horiz-adv-x="641" 
d="M429 255l-29 -144q-3 -19 3 -29l48 -80v-2h-355v2l80 80q12 12 15 29l25 125q3 13 0 22l-95 315q-5 16 -18 49l-33 79v2h351v-2l-73 -79q-12 -12 -8 -27l79 -304l150 228q8 12 8.5 17t-4.5 18l-56 147v2h263v-2l-158 -151q-19 -18 -30 -35l-147 -220q-11 -17 -16 -40z
M510 914l140 -175l-1 -1l-159 62l-191 -62l-1 1l210 175h2z" />
    <glyph glyph-name="ycircumflex" unicode="&#x177;" horiz-adv-x="518" 
d="M304 -35q-76 -85 -179.5 -143t-170.5 -58q-25 0 -38 7l61 182h2l130 -105q7 -6 16 -2q6 2 28 17q8 5 8 20v9q-1 126 -20.5 251t-45.5 206q-12 34 -28 34q-24 0 -51 -58h-2q6 75 50.5 128.5t105.5 53.5q24 0 43.5 -10t30.5 -22t21.5 -36.5t15 -39.5t12.5 -45
q38 -150 32 -329l2 -1q29 41 57 125q20 61 20 144q0 101 -50 167v2l178 45q-10 -147 -72 -292t-156 -250zM351 710l140 -175l-1 -1l-159 62l-191 -62l-1 1l210 175h2z" />
    <glyph glyph-name="Ydieresis" unicode="&#x178;" horiz-adv-x="641" 
d="M429 255l-29 -144q-3 -19 3 -29l48 -80v-2h-355v2l80 80q12 12 15 29l25 125q3 13 0 22l-95 315q-5 16 -18 49l-33 79v2h351v-2l-73 -79q-12 -12 -8 -27l79 -304l150 228q8 12 8.5 17t-4.5 18l-56 147v2h263v-2l-158 -151q-19 -18 -30 -35l-147 -220q-11 -17 -16 -40z
M392 901q33 0 54 -18t21 -50q0 -36 -24.5 -57.5t-59.5 -21.5q-32 0 -54.5 18t-22.5 49q0 36 26 58t60 22zM609 901q33 0 54 -18t21 -50q0 -36 -24.5 -57.5t-59.5 -21.5q-32 0 -54.5 18t-22.5 49q0 36 26 58t60 22z" />
    <glyph glyph-name="Zacute" unicode="&#x179;" horiz-adv-x="650" 
d="M559 0h-599v2l527 680h-156q-17 0 -27 -12l-219 -256h-3l59 289h595l-1 -2l-525 -680h159q17 0 27 12l219 256h2zM435 907h186v-2l-289 -168l-1 2z" />
    <glyph glyph-name="zacute" unicode="&#x17a;" horiz-adv-x="421" 
d="M246 -15q-16 0 -34.5 4.5t-46.5 13t-51 13.5q-50 12 -71 12q-50 0 -69 -39h-2q3 28 13 50q18 41 56 74l236 205q-29 0 -67 10q-106 24 -120 24q-52 0 -75 -57h-2q13 68 32 114.5t42.5 68.5t45 30.5t48.5 8.5q16 0 34.5 -4.5t46.5 -13t51 -13.5q50 -12 71 -12q49 0 70 43
h2q-6 -72 -70 -128l-236 -205q29 -1 97 -17.5t90 -16.5q45 0 75 58h2q-16 -107 -57 -165q-43 -58 -111 -58zM299 703h186v-2l-289 -168l-1 2z" />
    <glyph glyph-name="Zdotaccent" unicode="&#x17b;" horiz-adv-x="650" 
d="M559 0h-599v2l527 680h-156q-17 0 -27 -12l-219 -256h-3l59 289h595l-1 -2l-525 -680h159q17 0 27 12l219 256h2zM451 914q36 0 59 -19t23 -53q0 -39 -26.5 -61.5t-65.5 -22.5q-35 0 -60 18.5t-25 52.5q0 39 28.5 62t66.5 23z" />
    <glyph glyph-name="zdotaccent" unicode="&#x17c;" horiz-adv-x="421" 
d="M246 -15q-16 0 -34.5 4.5t-46.5 13t-51 13.5q-50 12 -71 12q-50 0 -69 -39h-2q3 28 13 50q18 41 56 74l236 205q-29 0 -67 10q-106 24 -120 24q-52 0 -75 -57h-2q13 68 32 114.5t42.5 68.5t45 30.5t48.5 8.5q16 0 34.5 -4.5t46.5 -13t51 -13.5q50 -12 71 -12q49 0 70 43
h2q-6 -72 -70 -128l-236 -205q29 -1 97 -17.5t90 -16.5q45 0 75 58h2q-16 -107 -57 -165q-43 -58 -111 -58zM315 710q36 0 59 -19t23 -53q0 -39 -26.5 -61.5t-65.5 -22.5q-35 0 -60 18.5t-25 52.5q0 39 28.5 62t66.5 23z" />
    <glyph glyph-name="Zcaron" unicode="&#x17d;" horiz-adv-x="650" 
d="M559 0h-599v2l527 680h-156q-17 0 -27 -12l-219 -256h-3l59 289h595l-1 -2l-525 -680h159q17 0 27 12l219 256h2zM442 852l191 62l1 -1l-210 -175h-2l-140 175l1 1z" />
    <glyph glyph-name="zcaron" unicode="&#x17e;" horiz-adv-x="421" 
d="M246 -15q-16 0 -34.5 4.5t-46.5 13t-51 13.5q-50 12 -71 12q-50 0 -69 -39h-2q3 28 13 50q18 41 56 74l236 205q-29 0 -67 10q-106 24 -120 24q-52 0 -75 -57h-2q13 68 32 114.5t42.5 68.5t45 30.5t48.5 8.5q16 0 34.5 -4.5t46.5 -13t51 -13.5q50 -12 71 -12q49 0 70 43
h2q-6 -72 -70 -128l-236 -205q29 -1 97 -17.5t90 -16.5q45 0 75 58h2q-16 -107 -57 -165q-43 -58 -111 -58zM306 648l191 62l1 -1l-210 -175h-2l-140 175l1 1z" />
    <glyph glyph-name="florin" unicode="&#x192;" horiz-adv-x="468" 
d="M99 20l42 271h-103v20h106l9 54q9 57 20 101.5t33 93t51.5 80t76.5 52.5t107 21q69 0 122 -23l-79 -163h-2l-59 156q-6 10 -12 10q-18 0 -28 -38t-27 -147q-3 -23 -5 -35l-26 -162h109v-20h-112l-20 -129q-12 -74 -32.5 -138.5t-55 -126t-90 -97.5t-125.5 -36
q-66 0 -119 28l78 162h2l66 -162q4 -7 10 -7q10 0 18 11q6 9 10.5 23.5t9 38.5t7.5 43.5t8.5 57.5t9.5 61z" />
    <glyph glyph-name="uni01B5" unicode="&#x1b5;" horiz-adv-x="650" 
d="M592 345h-132l-250 -324h159q17 0 27 12l219 256h2l-58 -289h-599v2l266 343h-133v20h148l246 317h-156q-17 0 -27 -12l-219 -256h-3l59 289h595l-1 -2l-260 -336h117v-20z" />
    <glyph glyph-name="uni01B6" unicode="&#x1b6;" horiz-adv-x="419" 
d="M394 267v-19h-168l-73 -64q29 -1 97 -17.5t90 -16.5q45 0 75 58h2q-16 -107 -57 -165q-43 -58 -111 -58q-16 0 -34.5 4.5t-46.5 13t-51 13.5q-50 12 -71 12q-50 0 -69 -39h-2q3 28 13 50q18 41 56 74l155 135h-164v19h186l59 51q-29 0 -67 10q-106 24 -120 24
q-52 0 -75 -57h-2q13 68 32 114.5t42.5 68.5t45 30.5t48.5 8.5q16 0 34.5 -4.5t46.5 -13t51 -13.5q50 -12 71 -12q49 0 70 43h2q-6 -72 -70 -128l-141 -122h146z" />
    <glyph glyph-name="Aringacute" unicode="&#x1fa;" horiz-adv-x="644" 
d="M407 1007h159v-2l-167 -92q-48 -26 -65 -47q29 25 71 25q46 0 75.5 -21t29.5 -57q0 -33 -29 -54t-74 -21q-40 0 -71.5 22t-31.5 53q0 21 17 50zM326 814q0 -25 24 -40.5t57 -15.5q36 0 58.5 15t22.5 41q0 27 -22.5 42t-59.5 15q-35 0 -57.5 -15.5t-22.5 -41.5zM363 104
l-14 141h-208l-23 -45q-9 -17 -2 -36l58 -162v-2h-243v2l138 162q18 21 30 45l200 385q7 14 7.5 19t-5.5 15l-46 73v2h258l58 -577q2 -14 10 -43l24 -81v-2h-300v2l50 75q9 14 8 27zM316 582l-164 -316h195z" />
    <glyph glyph-name="aringacute" unicode="&#x1fb;" 
d="M382 797h159v-2l-167 -92q-48 -26 -65 -47q29 25 71 25q46 0 75.5 -21t29.5 -57q0 -33 -29 -54t-74 -21q-40 0 -71.5 22t-31.5 53q0 21 17 50zM301 604q0 -25 24 -40.5t57 -15.5q36 0 58.5 15t22.5 41q0 27 -22.5 42t-59.5 15q-35 0 -57.5 -15.5t-22.5 -41.5zM405 -8
q-43 0 -70 26t-28 71q0 32 10 75h-2q-56 -172 -172 -172q-50 0 -88 43.5t-38 120.5q0 142 77.5 246.5t182.5 104.5q67 0 112 -39l189 39q-16 -67 -33 -142.5t-27 -118.5t-16 -66q-10 -39 -10 -65q0 -27 17 -27q16 0 31 15q23 22 39 57l2 -1q-18 -77 -65 -122t-111 -45z
M381 456q-11 6 -22 6q-55 0 -94 -83q-23 -49 -38 -118.5t-15 -128.5q0 -44 25 -44q28 0 54 54q42 87 90 314z" />
    <glyph glyph-name="AEacute" unicode="&#x1fc;" horiz-adv-x="946" 
d="M178 0h-258v2l170 153q28 25 50 51l323 392q9 12 3 22l-56 81v2h578l-53 -257h-2l-107 221q-6 15 -24 15h-61q-11 0 -14.5 -2.5t-5.5 -15.5l-62 -305h36q14 0 27 11l129 112h2l-54 -267h-2l-83 112q-9 11 -23 11h-36l-61 -299q-2 -12 0 -15t14 -3h80q16 0 30 15l186 228
h4l-51 -264h-543v2l70 72q10 11 13 26l29 145h-228l-36 -44q-13 -15 -15 -22.5t2 -24.5l29 -152v-2zM497 598q2 10 2 12l-284 -345h215zM737 907h186v-2l-289 -168l-1 2z" />
    <glyph glyph-name="aeacute" unicode="&#x1fd;" horiz-adv-x="789" 
d="M515 -8q-84 0 -136.5 46.5t-63.5 126.5l-3 -9q-23 -71 -65 -117.5t-104 -46.5q-50 0 -88 43.5t-38 120.5q0 142 78 246.5t184 104.5q102 0 140 -74q87 74 207 74q75 0 120 -29.5t45 -85.5q0 -67 -68.5 -112t-206.5 -54v-6q0 -118 96 -118q85 0 149 92l2 -1
q-28 -100 -95.5 -150.5t-152.5 -50.5zM239 88q16 0 38 29.5t36 71.5v13q0 131 95 221q-21 38 -56 38q-48 0 -87 -82q-23 -49 -38 -118.5t-15 -130.5q0 -42 27 -42zM629 487q-34 0 -71 -81.5t-42 -165.5q73 15 104.5 68t31.5 124q0 55 -23 55zM496 703h186v-2l-289 -168l-1 2
z" />
    <glyph glyph-name="Oslashacute" unicode="&#x1fe;" horiz-adv-x="733" 
d="M428 713q44 0 86 -8l33 74l19 -7l-32 -71q101 -25 151 -96.5t50 -176.5q0 -190 -110 -314t-284 -124q-60 0 -114 13l-38 -85l-20 7l37 85q-86 29 -129 98t-43 167q0 190 110 314t284 124zM321 11q43 0 81.5 65t61.5 155.5t36.5 177.5t13.5 141q0 52 -8 86l-246 -557
q6 -37 21 -52.5t40 -15.5zM255 153v-32l241 543q-15 28 -48 28q-43 0 -81.5 -65t-61.5 -155.5t-36.5 -177.5t-13.5 -141zM469 907h186l-1 -2l-288 -168l-1 2z" />
    <glyph glyph-name="oslashacute" unicode="&#x1ff;" horiz-adv-x="561" 
d="M241 -8q-34 0 -65 6l-35 -79l-19 8l33 76q-142 42 -142 204q0 131 88.5 215.5t220.5 84.5q24 0 54 -5l37 85l18 -8l-35 -81q67 -16 109.5 -66t42.5 -140q0 -133 -89 -216.5t-218 -83.5zM231 12q44 -1 82.5 128t42.5 267l-151 -343q0 -52 26 -52zM330 487
q-42 1 -79.5 -116.5t-44.5 -252.5l149 336q-4 33 -25 33zM358 703h186l-1 -2l-288 -168l-1 2z" />
    <glyph glyph-name="Scommaaccent" unicode="&#x218;" horiz-adv-x="573" 
d="M547 223q0 -97 -84.5 -164.5t-218.5 -68.5q-149 0 -252 25l75 258h2l86 -245q5 -13 22 -15q22 -2 37 -2q56 0 94.5 30t38.5 80q0 41 -29.5 75.5t-91.5 77.5l-12 9q-60 43 -95 91.5t-35 113.5q0 101 77.5 162.5t198.5 62.5q129 0 233 -27l-51 -238h-2l-114 231
q-5 11 -17 12q-10 1 -38 1q-44 0 -72.5 -24t-28.5 -71q0 -78 115 -159l11 -8q38 -27 60 -45t45.5 -44t34.5 -55t11 -63zM300 -100q0 -48 -35 -89.5t-88 -65.5q-29 -12 -42 -13l-1 1q34 19 51 41q21 26 24 51q1 9 -7 9q-19 0 -33.5 13t-14.5 41q0 33 23 55t55 22
q29 0 48.5 -18t19.5 -47z" />
    <glyph glyph-name="scommaaccent" unicode="&#x219;" horiz-adv-x="424" 
d="M388 165q0 -71 -58 -122t-163 -51q-98 0 -175 30l55 179h2l99 -179q7 -11 20 -11h1q31 0 51 17t20 44q0 9 -3 16.5t-12.5 17.5t-17 16.5t-27.5 23.5t-34 29q-52 44 -72.5 82t-20.5 82q0 69 51 118.5t144 49.5q75 0 170 -20l-56 -176h-2l-97 171q-4 6 -12 6h-1
q-23 -1 -38 -17t-15 -44q0 -22 20.5 -47.5t74.5 -69.5q55 -46 75.5 -75t20.5 -70zM226 -100q0 -48 -35 -89.5t-88 -65.5q-29 -12 -42 -13l-1 1q34 19 51 41q21 26 24 51q1 9 -7 9q-19 0 -33.5 13t-14.5 41q0 33 23 55t55 22q29 0 48.5 -18t19.5 -47z" />
    <glyph glyph-name="uni021A" unicode="&#x21a;" horiz-adv-x="630" 
d="M394 117q-4 -21 3 -35l47 -80v-2h-355v2l79 80q13 15 17 35l114 565h-20q-13 0 -19 -2.5t-17 -15.5l-191 -255h-2l59 294h597l-59 -294h-2l-89 255q-6 13 -11 15.5t-17 2.5h-20zM319 -100q0 -48 -35 -89.5t-88 -65.5q-29 -12 -42 -13l-1 1q34 19 51 41q21 26 24 51
q1 9 -7 9q-19 0 -33.5 13t-14.5 41q0 33 23 55t55 22q29 0 48.5 -18t19.5 -47z" />
    <glyph glyph-name="uni021B" unicode="&#x21b;" horiz-adv-x="325" 
d="M124 -8q-50 0 -74 31t-24 71q0 31 8 71l69 306h-62v20h52q20 0 35 12l196 186h2l-41 -198h88v-20h-92l-64 -315q-5 -26 -5 -45q0 -23 19 -23q16 0 31 15q23 22 39 57l2 -1q-18 -85 -78 -132q-44 -35 -101 -35zM174 -100q0 -48 -35 -89.5t-88 -65.5q-29 -12 -42 -13l-1 1
q34 19 51 41q21 26 24 51q1 9 -7 9q-19 0 -33.5 13t-14.5 41q0 33 23 55t55 22q29 0 48.5 -18t19.5 -47z" />
    <glyph glyph-name="dotlessj" unicode="&#x237;" horiz-adv-x="295" 
d="M-124 -236q-66 0 -119 28l78 161h2l66 -161q3 -7 10 -7q9 0 17 6q44 31 85 231l82 407q2 15 0 20.5t-11 11.5l-43 28v2l257 16l-75 -332q-16 -70 -31.5 -121.5t-44 -109.5t-63.5 -94.5t-89 -61t-121 -24.5z" />
    <glyph glyph-name="circumflex" unicode="&#x2c6;" horiz-adv-x="452" 
d="M262 710l140 -175l-1 -1l-159 62l-191 -62l-1 1l210 175h2z" />
    <glyph glyph-name="caron" unicode="&#x2c7;" horiz-adv-x="452" 
d="M210 648l191 62l1 -1l-210 -175h-2l-140 175l1 1z" />
    <glyph glyph-name="uni02C9" unicode="&#x2c9;" horiz-adv-x="405" 
d="M410 593h-300v20h300v-20z" />
    <glyph glyph-name="breve" unicode="&#x2d8;" horiz-adv-x="384" 
d="M181 625q125 0 151 94h2q-1 -89 -48 -134.5t-113 -45.5q-51 0 -87 27.5t-36 79.5q0 32 16 73h2q-7 -46 23 -70t90 -24z" />
    <glyph glyph-name="dotaccent" unicode="&#x2d9;" horiz-adv-x="277" 
d="M145 710q36 0 59 -19t23 -53q0 -39 -26.5 -61.5t-65.5 -22.5q-35 0 -60 18.5t-25 52.5q0 39 28.5 62t66.5 23z" />
    <glyph glyph-name="ring" unicode="&#x2da;" horiz-adv-x="305" 
d="M139 538q-36 0 -62 23.5t-26 62.5q0 46 32 80t82 34q36 0 62 -23.5t26 -62.5q0 -46 -32 -80t-82 -34zM164 717q-37 0 -63.5 -27t-26.5 -65q0 -30 19 -48t47 -18q37 0 63.5 27t26.5 65q0 30 -19 48t-47 18z" />
    <glyph glyph-name="ogonek" unicode="&#x2db;" horiz-adv-x="354" 
d="M303 -126l1 -1q-22 -47 -63 -78t-96 -31q-43 0 -69 21t-26 60q0 43 32.5 79t74 54.5t84.5 24.5v-3q-41 -14 -66.5 -47t-25.5 -74q0 -27 15.5 -41.5t43.5 -14.5q51 0 95 51z" />
    <glyph glyph-name="tilde" unicode="&#x2dc;" horiz-adv-x="433" 
d="M265 563q-29 0 -71.5 25t-64.5 25q-51 0 -77 -51h-2q7 61 40 98t78 37q29 0 71.5 -25t64.5 -25q52 0 77 51h2q-7 -61 -40 -98t-78 -37z" />
    <glyph glyph-name="hungarumlaut" unicode="&#x2dd;" horiz-adv-x="516" 
d="M137 703h145v-2l-230 -171h-2zM321 703h145v-2l-230 -171h-2z" />
    <glyph glyph-name="uni0394" unicode="&#x394;" horiz-adv-x="613" 
d="M554 0h-593v2l308 592q7 14 7.5 19t-5.5 15l-46 73v2h258zM286 582l-291 -561h346z" />
    <glyph glyph-name="uni03A9" unicode="&#x3a9;" horiz-adv-x="796" 
d="M479 692q-43 0 -84 -69.5t-66.5 -176.5t-25.5 -214q0 -99 41 -124l-21 -108h-318l19 250h2l118 -209q12 -21 40 -21h122l14 72q-120 13 -184 86t-64 177q0 155 112.5 256.5t284.5 101.5q134 0 219 -77t85 -198q0 -137 -93 -230.5t-262 -115.5l-14 -72h122q28 0 48 21
l200 209h2l-78 -250h-319l21 108q36 8 65.5 67t46 136.5t25 147.5t8.5 114q0 119 -66 119z" />
    <glyph glyph-name="uni03BC" unicode="&#x3bc;" horiz-adv-x="626" 
d="M523 115q0 -27 21 -27q16 0 36 21.5t32 50.5l2 -1q-14 -60 -48 -101q-54 -66 -136 -66q-46 0 -71 26.5t-25 73.5q0 32 17 93h-2q-51 -114 -133 -166l-14 -9l-36 -169q-2 -10 -0.5 -14t11.5 -9l81 -44v-2h-336v2l47 42q11 10 16 28l115 478q13 52 13 67q0 22 -17 22
q-15 0 -33 -16q-9 -8 -37 -46l-2 1q26 72 71 114.5t106 42.5q52 0 79.5 -28t27.5 -68q0 -39 -24 -115l-43 -130q-14 -44 -14 -59q0 -17 16 -17q32 0 71 60q29 43 52 125l57 209l186 23l2 -1l-79 -329q-9 -36 -9 -62z" />
    <glyph glyph-name="pi" unicode="&#x3c0;" horiz-adv-x="661" 
d="M629 422l-67 -346q-3 -14 3 -25l28 -49v-2h-295v2l49 49q9 9 13 25l78 402h-127l-78 -402q-3 -14 3 -25l29 -49v-2h-294v2l47 49q9 9 13 25l67 346q3 14 -3 25l-28 50l6 2h617v-2l-48 -50q-9 -9 -13 -25z" />
    <glyph glyph-name="Wgrave" unicode="&#x1e80;" horiz-adv-x="983" 
d="M698 0h-156l-34 358l-183 -358h-158l-55 577q-1 15 -9 43l-25 81v2h301v-2l-50 -75q-9 -14 -8 -27l44 -476l140 273l-17 181q-1 20 -6 39l-23 85v2h294v-2l-50 -75q-9 -14 -8 -27l43 -472l190 376q9 17 2 36l-58 162v2h243v-2l-138 -162q-18 -21 -30 -45zM420 907h186
l104 -168l-1 -2l-289 168v2z" />
    <glyph glyph-name="wgrave" unicode="&#x1e81;" horiz-adv-x="765" 
d="M155 -8q-55 0 -83 30t-28 75q0 33 15 98l30 127q13 57 13 66q0 23 -20 23q-26 0 -75 -60l-2 1q63 155 181 155q103 0 103 -113q0 -46 -20 -117l-30 -105q-10 -33 -10 -55q0 -39 31 -39q48 0 79 104q32 106 44 303l185 22q-13 -129 -54 -319q-9 -43 -9 -62q0 -48 39 -48
q46 0 80.5 60.5t34.5 147.5q0 68 -20 118q-13 32 -30 56v2l171 45q-11 -130 -61.5 -249.5t-124.5 -192.5t-149 -73q-49 0 -75 31t-26 88q0 9 2 31h-2q-22 -63 -72 -106.5t-117 -43.5zM269 703h186l104 -168l-1 -2l-289 168v2z" />
    <glyph glyph-name="Wacute" unicode="&#x1e82;" horiz-adv-x="983" 
d="M698 0h-156l-34 358l-183 -358h-158l-55 577q-1 15 -9 43l-25 81v2h301v-2l-50 -75q-9 -14 -8 -27l44 -476l140 273l-17 181q-1 20 -6 39l-23 85v2h294v-2l-50 -75q-9 -14 -8 -27l43 -472l190 376q9 17 2 36l-58 162v2h243v-2l-138 -162q-18 -21 -30 -45zM637 907h186v-2
l-289 -168l-1 2z" />
    <glyph glyph-name="wacute" unicode="&#x1e83;" horiz-adv-x="765" 
d="M155 -8q-55 0 -83 30t-28 75q0 33 15 98l30 127q13 57 13 66q0 23 -20 23q-26 0 -75 -60l-2 1q63 155 181 155q103 0 103 -113q0 -46 -20 -117l-30 -105q-10 -33 -10 -55q0 -39 31 -39q48 0 79 104q32 106 44 303l185 22q-13 -129 -54 -319q-9 -43 -9 -62q0 -48 39 -48
q46 0 80.5 60.5t34.5 147.5q0 68 -20 118q-13 32 -30 56v2l171 45q-11 -130 -61.5 -249.5t-124.5 -192.5t-149 -73q-49 0 -75 31t-26 88q0 9 2 31h-2q-22 -63 -72 -106.5t-117 -43.5zM486 703h186v-2l-289 -168l-1 2z" />
    <glyph glyph-name="Wdieresis" unicode="&#x1e84;" horiz-adv-x="983" 
d="M698 0h-156l-34 358l-183 -358h-158l-55 577q-1 15 -9 43l-25 81v2h301v-2l-50 -75q-9 -14 -8 -27l44 -476l140 273l-17 181q-1 20 -6 39l-23 85v2h294v-2l-50 -75q-9 -14 -8 -27l43 -472l190 376q9 17 2 36l-58 162v2h243v-2l-138 -162q-18 -21 -30 -45zM539 901
q33 0 54 -18t21 -50q0 -36 -24.5 -57.5t-59.5 -21.5q-32 0 -54.5 18t-22.5 49q0 36 26 58t60 22zM756 901q33 0 54 -18t21 -50q0 -36 -24.5 -57.5t-59.5 -21.5q-32 0 -54.5 18t-22.5 49q0 36 26 58t60 22z" />
    <glyph glyph-name="wdieresis" unicode="&#x1e85;" horiz-adv-x="765" 
d="M155 -8q-55 0 -83 30t-28 75q0 33 15 98l30 127q13 57 13 66q0 23 -20 23q-26 0 -75 -60l-2 1q63 155 181 155q103 0 103 -113q0 -46 -20 -117l-30 -105q-10 -33 -10 -55q0 -39 31 -39q48 0 79 104q32 106 44 303l185 22q-13 -129 -54 -319q-9 -43 -9 -62q0 -48 39 -48
q46 0 80.5 60.5t34.5 147.5q0 68 -20 118q-13 32 -30 56v2l171 45q-11 -130 -61.5 -249.5t-124.5 -192.5t-149 -73q-49 0 -75 31t-26 88q0 9 2 31h-2q-22 -63 -72 -106.5t-117 -43.5zM388 697q33 0 54 -18t21 -50q0 -36 -24.5 -57.5t-59.5 -21.5q-32 0 -54.5 18t-22.5 49
q0 36 26 58t60 22zM605 697q33 0 54 -18t21 -50q0 -36 -24.5 -57.5t-59.5 -21.5q-32 0 -54.5 18t-22.5 49q0 36 26 58t60 22z" />
    <glyph glyph-name="uni1E8A" unicode="&#x1e8a;" horiz-adv-x="694" 
d="M521 497l-69 -68l134 -300q10 -21 20 -38l53 -89v-2h-348v2l56 73q9 12 3 25l-71 159l-80 -77q-12 -12 -14 -17.5t1 -16.5l31 -146v-2h-292v2l196 140q34 24 75 64l74 72l-131 296q-6 14 -21 38l-53 89v2h348v-2l-55 -73q-9 -12 -3 -25l68 -154l75 72q12 12 14 17.5
t-1 16.5l-32 146l1 2h292v-2l-196 -140q-34 -24 -75 -64zM477 914q36 0 59 -19t23 -53q0 -39 -26.5 -61.5t-65.5 -22.5q-35 0 -60 18.5t-25 52.5q0 39 28.5 62t66.5 23z" />
    <glyph glyph-name="uni1E8B" unicode="&#x1e8b;" horiz-adv-x="514" 
d="M209 507q97 0 120 -114l8 -43l21 44q32 62 57.5 87.5t60.5 25.5q42 0 70 -34l-80 -187h-2l-42 48q-20 22 -42 22q-10 0 -21 -5q-2 -1 -6 -2.5t-7.5 -3.5t-6.5 -4l36 -182q13 -66 48 -66q37 0 65 67l2 -1q-18 -80 -68 -123.5t-110 -43.5q-96 0 -120 114l-9 41
q-5 -10 -13.5 -27.5t-10.5 -22.5q-30 -58 -55 -81.5t-59 -23.5q-42 0 -70 34l80 187h2l39 -46q20 -24 44 -24q15 0 28 7l13 8l-35 182q-13 66 -48 66q-37 0 -65 -67l-2 1q18 80 68 123.5t110 43.5zM347 710q36 0 59 -19t23 -53q0 -39 -26.5 -61.5t-65.5 -22.5
q-35 0 -60 18.5t-25 52.5q0 39 28.5 62t66.5 23z" />
    <glyph glyph-name="Ygrave" unicode="&#x1ef2;" horiz-adv-x="641" 
d="M429 255l-29 -144q-3 -19 3 -29l48 -80v-2h-355v2l80 80q12 12 15 29l25 125q3 13 0 22l-95 315q-5 16 -18 49l-33 79v2h351v-2l-73 -79q-12 -12 -8 -27l79 -304l150 228q8 12 8.5 17t-4.5 18l-56 147v2h263v-2l-158 -151q-19 -18 -30 -35l-147 -220q-11 -17 -16 -40z
M273 907h186l104 -168l-1 -2l-289 168v2z" />
    <glyph glyph-name="ygrave" unicode="&#x1ef3;" horiz-adv-x="518" 
d="M304 -35q-76 -85 -179.5 -143t-170.5 -58q-25 0 -38 7l61 182h2l130 -105q7 -6 16 -2q6 2 28 17q8 5 8 20v9q-1 126 -20.5 251t-45.5 206q-12 34 -28 34q-24 0 -51 -58h-2q6 75 50.5 128.5t105.5 53.5q24 0 43.5 -10t30.5 -22t21.5 -36.5t15 -39.5t12.5 -45
q38 -150 32 -329l2 -1q29 41 57 125q20 61 20 144q0 101 -50 167v2l178 45q-10 -147 -72 -292t-156 -250zM114 703h186l104 -168l-1 -2l-289 168v2z" />
    <glyph glyph-name="endash" unicode="&#x2013;" horiz-adv-x="500" 
d="M495 239h-490v20h490v-20z" />
    <glyph glyph-name="emdash" unicode="&#x2014;" horiz-adv-x="1000" 
d="M995 239h-990v20h990v-20z" />
    <glyph glyph-name="quoteleft" unicode="&#x2018;" horiz-adv-x="214" 
d="M194 589q22 -4 36.5 -21.5t14.5 -42.5q0 -34 -25 -58t-60 -24t-56 22.5t-21 57.5q0 62 45.5 111.5t104.5 74.5q31 12 45 14v-1q-29 -16 -45 -31q-45 -43 -52 -86q-1 -8 1.5 -11t11.5 -5z" />
    <glyph glyph-name="quoteright" unicode="&#x2019;" horiz-adv-x="214" 
d="M262 633q0 -62 -45.5 -111.5t-104.5 -74.5q-31 -12 -45 -14v1q29 16 45 31q45 43 52 86q1 8 -1.5 11t-11.5 5q-22 4 -36.5 21.5t-14.5 42.5q0 34 25 58t60 24t56 -22.5t21 -57.5z" />
    <glyph glyph-name="quotesinglbase" unicode="&#x201a;" horiz-adv-x="214" 
d="M149 63q0 -62 -45.5 -111.5t-104.5 -74.5q-31 -12 -45 -14v1q29 16 45 31q45 43 52 86q1 8 -1.5 11t-11.5 5q-22 4 -36.5 21.5t-14.5 42.5q0 34 25 58t60 24t56 -22.5t21 -57.5z" />
    <glyph glyph-name="quotedblleft" unicode="&#x201c;" horiz-adv-x="414" 
d="M394 589q22 -4 36.5 -21.5t14.5 -42.5q0 -34 -25 -58t-60 -24t-56 22.5t-21 57.5q0 62 45.5 111.5t104.5 74.5q31 12 45 14v-1q-29 -16 -45 -31q-45 -43 -52 -86q-1 -8 1.5 -11t11.5 -5zM194 589q22 -4 36.5 -21.5t14.5 -42.5q0 -34 -25 -58t-60 -24t-56 22.5t-21 57.5
q0 62 45.5 111.5t104.5 74.5q31 12 45 14v-1q-29 -16 -45 -31q-45 -43 -52 -86q-1 -8 1.5 -11t11.5 -5z" />
    <glyph glyph-name="quotedblright" unicode="&#x201d;" horiz-adv-x="414" 
d="M164 551q1 8 -1.5 11t-11.5 5q-22 4 -36.5 21.5t-14.5 42.5q0 34 25 58t60 24t56 -22.5t21 -57.5q0 -62 -45.5 -111.5t-104.5 -74.5q-31 -12 -45 -14v1q29 16 45 31q45 43 52 86zM364 551q1 8 -1.5 11t-11.5 5q-22 4 -36.5 21.5t-14.5 42.5q0 34 25 58t60 24t56 -22.5
t21 -57.5q0 -62 -45.5 -111.5t-104.5 -74.5q-31 -12 -45 -14v1q29 16 45 31q45 43 52 86z" />
    <glyph glyph-name="quotedblbase" unicode="&#x201e;" horiz-adv-x="415" 
d="M51 -19q1 8 -1.5 11t-11.5 5q-22 4 -36.5 21.5t-14.5 42.5q0 34 25 58t60 24t56 -22.5t21 -57.5q0 -62 -45.5 -111.5t-104.5 -74.5q-31 -12 -45 -14v1q29 16 45 31q45 43 52 86zM252 -19q1 8 -1.5 11t-11.5 5q-22 4 -36.5 21.5t-14.5 42.5q0 34 25 58t60 24t56 -22.5
t21 -57.5q0 -62 -45.5 -111.5t-104.5 -74.5q-31 -12 -45 -14v1q29 16 45 31q45 43 52 86z" />
    <glyph glyph-name="dagger" unicode="&#x2020;" horiz-adv-x="429" 
d="M111 513v20h152l35 173l20 -3l-34 -170h148v-20h-152l-77 -383l-20 3l76 380h-148z" />
    <glyph glyph-name="daggerdbl" unicode="&#x2021;" horiz-adv-x="429" 
d="M111 513v20h152l35 173l20 -3l-34 -170h148v-20h-152l-39 -193h148v-20h-152l-34 -170l-20 3l33 167h-148v20h152l39 193h-148z" />
    <glyph glyph-name="bullet" unicode="&#x2022;" horiz-adv-x="341" 
d="M187 252q-47 0 -79 29.5t-32 75.5q0 49 35.5 83t84.5 34q47 0 78.5 -30.5t31.5 -76.5q0 -51 -34.5 -83t-84.5 -32z" />
    <glyph glyph-name="ellipsis" unicode="&#x2026;" horiz-adv-x="787" 
d="M92 -8q-35 0 -59.5 22t-24.5 56q0 41 27.5 67.5t65.5 26.5q37 0 62 -21t25 -56q0 -40 -28.5 -67.5t-67.5 -27.5zM354 -8q-35 0 -59.5 22t-24.5 56q0 41 27.5 67.5t65.5 26.5q37 0 62 -21t25 -56q0 -40 -28.5 -67.5t-67.5 -27.5zM617 -8q-35 0 -59.5 22t-24.5 56
q0 41 27.5 67.5t65.5 26.5q37 0 62 -21t25 -56q0 -40 -28.5 -67.5t-67.5 -27.5z" />
    <glyph glyph-name="perthousand" unicode="&#x2030;" horiz-adv-x="1030" 
d="M294 698q-30 0 -52.5 -87t-22.5 -138q0 -25 5 -35t18 -10q30 0 52.5 87t22.5 138q0 25 -5 35t-18 10zM298 713q55 0 90.5 -32.5t35.5 -80.5q0 -88 -49.5 -137.5t-136.5 -49.5q-55 0 -90.5 32.5t-35.5 80.5q0 88 49.5 137.5t136.5 49.5zM507 276q-30 0 -52.5 -87
t-22.5 -138q0 -25 5 -35t18 -10q30 0 52.5 87t22.5 138q0 25 -5 35t-18 10zM511 291q55 0 90.5 -32.5t35.5 -80.5q0 -88 -49.5 -137.5t-136.5 -49.5q-55 0 -90.5 32.5t-35.5 80.5q0 88 49.5 137.5t136.5 49.5zM703 701l-640 -711l-15 15l640 710zM866 276q-30 0 -52.5 -87
t-22.5 -138q0 -25 5 -35t18 -10q30 0 52.5 87t22.5 138q0 25 -5 35t-18 10zM870 291q55 0 90.5 -32.5t35.5 -80.5q0 -88 -49.5 -137.5t-136.5 -49.5q-55 0 -90.5 32.5t-35.5 80.5q0 88 49.5 137.5t136.5 49.5z" />
    <glyph glyph-name="guilsinglleft" unicode="&#x2039;" horiz-adv-x="287" 
d="M27 253l287 247l2 -1l-143 -248l40 -246l-2 -1l-184 247v2z" />
    <glyph glyph-name="guilsinglright" unicode="&#x203a;" horiz-adv-x="287" 
d="M265 251l-287 -247l-2 1l143 248l-40 246l2 1l184 -247v-2z" />
    <glyph glyph-name="fraction" unicode="&#x2044;" horiz-adv-x="48" 
d="M360 701l-640 -711l-15 15l640 710z" />
    <glyph glyph-name="Euro" unicode="&#x20ac;" horiz-adv-x="688" 
d="M484 285h-169q-5 -57 -5 -108q0 -78 20.5 -122.5t59.5 -44.5h5q19 0 31 12l228 255h2l-54 -269q-107 -18 -236 -18q-133 0 -207.5 74.5t-74.5 202.5v18h-88v20h89q3 49 15 94h-81v20h86q41 135 148 214.5t259 79.5q128 0 228 -18l-53 -265h-2l-125 251q-5 8 -8.5 10
t-13.5 2h-9q-51 0 -107 -73t-86 -201h171v-20h-175q-12 -56 -15 -94h167v-20z" />
    <glyph glyph-name="trademark" unicode="&#x2122;" horiz-adv-x="929" 
d="M532 477q0 -10 0.5 -15t2.5 -10.5t3.5 -8t7.5 -11.5l45 -67v-2h-135v2l45 67q11 17 11 45v156q0 6 -6 18l-30 50v2h128l91 -185l77 185h122v-2l-27 -41q-3 -5 -3 -15v-233q0 -7 4 -14l26 -33v-2h-169v2l26 34q4 5 4 13v173q0 18 1 27l-105 -254h-1l-105 218l-13 27v-126z
M333 420q0 -12 5 -17l30 -38v-2h-179v2l31 38q4 5 4 17v265h-9q-10 0 -16 -9l-77 -114h-2l10 141h297l10 -141h-2l-77 114q-6 9 -16 9h-9v-265z" />
    <glyph glyph-name="Omega" unicode="&#x2126;" horiz-adv-x="796" 
d="M773 438q0 -137 -93 -230.5t-262 -115.5l-14 -72h122q28 0 48 21l200 209h2l-78 -250h-319l21 108q36 8 65.5 67t46 136.5t25 147.5t8.5 114q0 119 -66 119q-43 0 -84 -69.5t-66.5 -176.5t-25.5 -214q0 -99 41 -124l-21 -108h-318l19 250h2l118 -209q12 -21 40 -21h122
l14 72q-120 13 -184 86t-64 177q0 155 112.5 256.5t284.5 101.5q134 0 219 -77t85 -198z" />
    <glyph glyph-name="estimated" unicode="&#x212e;" horiz-adv-x="664" 
d="M609 239h-507q3 -103 72 -166t170 -63q81 0 144 42.5t87 115.5l21 -7q-26 -79 -94.5 -125t-157.5 -46q-112 0 -188 71t-76 187q0 117 76 188t188 71q113 0 189 -71.5t76 -187.5v-9zM344 487q-100 0 -169 -63t-73 -165h485q-4 102 -73.5 165t-169.5 63z" />
    <glyph glyph-name="uni2153" unicode="&#x2153;" horiz-adv-x="556" 
d="M518 361v-20h-436v20h436zM369 449l55 -29v-2h-252v2l67 29q7 3 9 11l35 178q1 8 -4 9l-63 14v2l202 56l-52 -259q-2 -8 3 -11zM387 90q0 -48 -50 -71.5t-121 -23.5q-78 0 -127 20l80 101h2l24 -98q2 -6 12 -6h2q27 0 46 24.5t19 58.5q0 21 -15.5 36t-40.5 19v2
q33 2 54.5 29t21.5 67q0 15 -7 23t-17 8h-3q-7 0 -12 -6l-71 -97h-2l-38 91q68 28 144 28q59 0 90 -17.5t31 -48.5q0 -33 -30 -52t-79 -23v-2q40 -2 63.5 -19t23.5 -43z" />
    <glyph glyph-name="uni2154" unicode="&#x2154;" horiz-adv-x="556" 
d="M518 341h-436v20h436v-20zM387 90q0 -48 -50 -71.5t-121 -23.5q-78 0 -127 20l80 101h2l24 -98q2 -6 12 -6h2q27 0 46 24.5t19 58.5q0 21 -15.5 36t-40.5 19v2q33 2 54.5 29t21.5 67q0 15 -7 23t-17 8h-3q-7 0 -12 -6l-71 -97h-2l-38 91q68 28 144 28q59 0 90 -17.5
t31 -48.5q0 -33 -30 -52t-79 -23v-2q40 -2 63.5 -19t23.5 -43zM379 713q52 0 82 -19t30 -51q0 -50 -59 -87.5t-154 -55.5v-2h117q28 0 42 10l34 23h2l-45 -113h-260v2l87 76q73 63 94 92q29 39 29 77q0 32 -23 32h-4q-7 0 -12 -6l-73 -104h-2l-36 98q67 28 151 28z" />
    <glyph glyph-name="uni2155" unicode="&#x2155;" horiz-adv-x="556" 
d="M518 361v-20h-436v20h436zM418 719l-52 -259q-2 -8 3 -11l55 -29v-2h-252v2l67 29q7 3 9 11l35 178q1 8 -4 9l-63 14v2zM396 259q-10 -25 -20 -33.5t-33 -11.5q-22 -3 -77 -3t-85 6l-18 -64q52 30 113 30q49 0 76.5 -23.5t27.5 -59.5q0 -52 -46 -79.5t-126 -27.5
q-82 0 -122 21l80 96h2l25 -96q1 -5 11 -5h1q27 0 43.5 24.5t16.5 58.5q0 25 -18 40t-52 15q-19 0 -51 -15l-2 1l42 154q63 -5 107 -5q32 0 66 2q26 3 42 17l10 9h3q-16 -50 -16 -51z" />
    <glyph glyph-name="uni2156" unicode="&#x2156;" horiz-adv-x="556" 
d="M518 361v-20h-436v20h436zM380 100q0 -52 -46 -79.5t-126 -27.5q-82 0 -122 21l80 96h2l25 -96q1 -5 11 -5h1q27 0 43.5 24.5t16.5 58.5q0 25 -18 40t-52 15q-19 0 -51 -15l-2 1l42 154q63 -5 107 -5q32 0 66 2q28 3 43 17l10 9h2q-16 -50 -16 -51q-10 -25 -20 -33.5
t-33 -11.5q-22 -3 -77 -3t-85 6l-18 -64q52 30 113 30q49 0 76.5 -23.5t27.5 -59.5zM379 713q52 0 82 -19t30 -51q0 -50 -59 -87.5t-154 -55.5v-2h117q28 0 42 10l34 23h2l-45 -113h-260v2l87 76q73 63 94 92q29 39 29 77q0 32 -23 32h-4q-7 0 -12 -6l-73 -104h-2l-36 98
q67 28 151 28z" />
    <glyph glyph-name="uni2157" unicode="&#x2157;" horiz-adv-x="556" 
d="M518 361v-20h-436v20h436zM469 508q0 -48 -50 -71.5t-121 -23.5q-78 0 -127 20l80 101h2l24 -98q2 -6 12 -6h2q27 0 46 24.5t19 58.5q0 21 -15.5 36t-40.5 19v2q33 2 54.5 29t21.5 67q0 15 -7 23t-17 8h-3q-7 0 -12 -6l-71 -97h-2l-38 91q68 28 144 28q59 0 90 -17.5
t31 -48.5q0 -33 -30 -52t-79 -23v-2q40 -2 63.5 -19t23.5 -43zM181 217l-18 -64q52 30 113 30q49 0 76.5 -23.5t27.5 -59.5q0 -52 -46 -79.5t-126 -27.5q-82 0 -122 21l80 96h2l25 -96q1 -5 11 -5h1q27 0 43.5 24.5t16.5 58.5q0 25 -18 40t-52 15q-19 0 -51 -15l-2 1l42 154
q63 -5 107 -5q32 0 66 2q28 3 43 17l10 9h2q-16 -50 -16 -51q-10 -25 -20 -33.5t-33 -11.5q-22 -3 -77 -3t-85 6z" />
    <glyph glyph-name="uni2158" unicode="&#x2158;" horiz-adv-x="556" 
d="M518 361v-20h-436v20h436zM447 708l-41 -204h8q10 0 16 7l63 80h2l-27 -103h-65l-7 -34q-1 -5 4 -10l30 -24v-2h-186v2l42 24q6 4 7 11l6 33h-140v2l209 218h79zM192 504h110l29 143zM396 259q-10 -25 -20 -33.5t-33 -11.5q-22 -3 -77 -3t-85 6l-18 -64q52 30 113 30
q49 0 76.5 -23.5t27.5 -59.5q0 -52 -46 -79.5t-126 -27.5q-82 0 -122 21l80 96h2l25 -96q1 -5 11 -5h1q27 0 43.5 24.5t16.5 58.5q0 25 -18 40t-52 15q-19 0 -51 -15l-2 1l42 154q63 -5 107 -5q32 0 66 2q28 3 43 17l10 9h2q-16 -50 -16 -51z" />
    <glyph glyph-name="uni2159" unicode="&#x2159;" horiz-adv-x="556" 
d="M518 361v-20h-436v20h436zM216 663l202 56l-52 -259q-2 -8 3 -11l55 -29v-2h-252v2l67 29q7 3 9 11l35 178q1 8 -4 9l-63 14v2zM241 -5q-65 0 -100.5 32t-35.5 80q0 85 54.5 136.5t142.5 51.5q76 0 124 -15l-68 -85h-2l-41 79q-3 5 -12 5h-2q-47 0 -73 -116q38 18 82 18
q36 0 63 -19.5t27 -50.5q0 -49 -39.5 -82.5t-119.5 -33.5zM253 156q-14 0 -28 -7q-10 -53 -10 -95q0 -26 6 -34.5t20 -8.5q22 0 38.5 30t16.5 65q0 50 -43 50z" />
    <glyph glyph-name="uni215A" unicode="&#x215a;" horiz-adv-x="556" 
d="M82 341v20h436v-20h-436zM478 679q-10 -25 -20 -33.5t-33 -11.5t-77 -3q-55 0 -85 6l-18 -64q52 30 113 30q49 0 76.5 -23.5t27.5 -59.5q0 -52 -46 -79.5t-126 -27.5q-82 0 -122 21l80 96h2l25 -96q1 -5 11 -5h1q27 0 43.5 24.5t16.5 58.5q0 25 -18 40t-52 15
q-19 0 -51 -15l-2 1l42 154q63 -5 107 -5q32 0 66 2q28 3 43 17l10 9h2q-16 -50 -16 -51zM241 -5q-65 0 -100.5 32t-35.5 80q0 85 54.5 136.5t142.5 51.5q76 0 124 -15l-68 -85h-2l-41 79q-3 5 -12 5h-2q-47 0 -73 -116q38 18 82 18q36 0 63 -19.5t27 -50.5
q0 -49 -39.5 -82.5t-119.5 -33.5zM253 156q-14 0 -28 -7q-10 -53 -10 -95q0 -26 6 -34.5t20 -8.5q22 0 38.5 30t16.5 65q0 50 -43 50z" />
    <glyph glyph-name="uni215B" unicode="&#x215b;" horiz-adv-x="556" 
d="M82 341v20h436v-20h-436zM418 719l-52 -259q-2 -8 3 -11l55 -29v-2h-252v2l67 29q7 3 9 11l35 178q1 8 -4 9l-63 14v2zM228 -5q-52 0 -86 18.5t-34 45.5q0 53 86 58q-53 27 -53 75t41 75.5t106 27.5q42 0 76.5 -15.5t34.5 -43.5q0 -49 -81 -55l12 -5q61 -26 61 -73
q0 -53 -47.5 -80.5t-115.5 -27.5zM245 94l-43 19q-24 -23 -24 -50q0 -22 18 -37.5t43 -15.5q21 0 39 9.5t18 29.5q0 14 -12.5 23.5t-38.5 21.5zM227 244q0 -23 47 -43l38 -17q19 23 19 52q0 20 -14 32t-35 12q-24 0 -39.5 -10t-15.5 -26z" />
    <glyph glyph-name="uni215C" unicode="&#x215c;" horiz-adv-x="556" 
d="M518 361v-20h-436v20h436zM469 508q0 -48 -50 -71.5t-121 -23.5q-78 0 -127 20l80 101h2l24 -98q2 -6 12 -6h2q27 0 46 24.5t19 58.5q0 21 -15.5 36t-40.5 19v2q33 2 54.5 29t21.5 67q0 15 -7 23t-17 8h-3q-7 0 -12 -6l-71 -97h-2l-38 91q68 28 144 28q59 0 90 -17.5
t31 -48.5q0 -33 -30 -52t-79 -23v-2q40 -2 63.5 -19t23.5 -43zM228 -5q-52 0 -86 18.5t-34 45.5q0 53 86 58q-53 27 -53 75t41 75.5t106 27.5q42 0 76.5 -15.5t34.5 -43.5q0 -49 -81 -55l12 -5q61 -26 61 -73q0 -53 -47.5 -80.5t-115.5 -27.5zM245 94l-43 19
q-24 -23 -24 -50q0 -22 18 -37.5t43 -15.5q21 0 39 9.5t18 29.5q0 14 -12.5 23.5t-38.5 21.5zM227 244q0 -23 47 -43l38 -17q19 23 19 52q0 20 -14 32t-35 12q-24 0 -39.5 -10t-15.5 -26z" />
    <glyph glyph-name="uni215D" unicode="&#x215d;" horiz-adv-x="556" 
d="M82 341v20h436v-20h-436zM462 520q0 -52 -46 -79.5t-126 -27.5q-82 0 -122 21l80 96h2l25 -96q1 -5 11 -5h1q27 0 43.5 24.5t16.5 58.5q0 25 -18 40t-52 15q-19 0 -51 -15l-2 1l42 154q63 -5 107 -5q32 0 66 2q28 3 43 17l10 9h2q-16 -50 -16 -51q-10 -25 -20 -33.5
t-33 -11.5t-77 -3q-55 0 -85 6l-18 -64q52 30 113 30q49 0 76.5 -23.5t27.5 -59.5zM228 -5q-52 0 -86 18.5t-34 45.5q0 53 86 58q-53 27 -53 75t41 75.5t106 27.5q42 0 76.5 -15.5t34.5 -43.5q0 -49 -81 -55l12 -5q61 -26 61 -73q0 -53 -47.5 -80.5t-115.5 -27.5zM245 94
l-43 19q-24 -23 -24 -50q0 -22 18 -37.5t43 -15.5q21 0 39 9.5t18 29.5q0 14 -12.5 23.5t-38.5 21.5zM227 244q0 -23 47 -43l38 -17q19 23 19 52q0 20 -14 32t-35 12q-24 0 -39.5 -10t-15.5 -26z" />
    <glyph glyph-name="uni215E" unicode="&#x215e;" horiz-adv-x="556" 
d="M82 341v20h436v-20h-436zM228 -5q-52 0 -86 18.5t-34 45.5q0 53 86 58q-53 27 -53 75t41 75.5t106 27.5q42 0 76.5 -15.5t34.5 -43.5q0 -49 -81 -55l12 -5q61 -26 61 -73q0 -53 -47.5 -80.5t-115.5 -27.5zM245 94l-43 19q-24 -23 -24 -50q0 -22 18 -37.5t43 -15.5
q21 0 39 9.5t18 29.5q0 14 -12.5 23.5t-38.5 21.5zM227 244q0 -23 47 -43l38 -17q19 23 19 52q0 20 -14 32t-35 12q-24 0 -39.5 -10t-15.5 -26zM368 418h-150v2q57 67 228 211v2h-147q-27 0 -44 -11l-29 -21h-2l39 107h270v-2l-56 -62q-8 -8 -17 -24q-46 -84 -92 -202z" />
    <glyph glyph-name="uni2190" unicode="&#x2190;" horiz-adv-x="706" 
d="M651 239h-556l226 -226l-15 -15l-251 251l251 251l16 -14l-227 -226h556v-21z" />
    <glyph glyph-name="uni2191" unicode="&#x2191;" horiz-adv-x="612" 
d="M316 -49h-21v556l-226 -227l-14 16l251 251l251 -251l-15 -15l-226 226v-556z" />
    <glyph glyph-name="uni2192" unicode="&#x2192;" horiz-adv-x="706" 
d="M55 260h556l-227 226l16 14l251 -251l-251 -251l-15 15l226 226h-556v21z" />
    <glyph glyph-name="uni2193" unicode="&#x2193;" horiz-adv-x="612" 
d="M295 530h21v-556l226 226l15 -15l-251 -251l-251 251l14 16l226 -227v556z" />
    <glyph glyph-name="uni2196" unicode="&#x2196;" horiz-adv-x="539" 
d="M469 31l-393 393v-319h-21v355h355v-21h-319l393 -394z" />
    <glyph glyph-name="uni2197" unicode="&#x2197;" horiz-adv-x="539" 
d="M484 105h-21v318l-393 -392l-15 14l394 394h-320v21h355v-355z" />
    <glyph glyph-name="uni2198" unicode="&#x2198;" horiz-adv-x="539" 
d="M55 446l15 14l393 -393v319h21v-355h-355v21h319z" />
    <glyph glyph-name="uni2199" unicode="&#x2199;" horiz-adv-x="539" 
d="M410 52v-21h-355v355h21v-320l393 394l15 -14l-392 -394h318z" />
    <glyph glyph-name="partialdiff" unicode="&#x2202;" horiz-adv-x="576" 
d="M235 -8q-103 0 -162.5 57t-59.5 154q0 125 72.5 210.5t162.5 85.5q81 0 111 -59q-1 122 -43 190.5t-134 80.5v2h27q180 0 267 -88t87 -239q0 -82 -19 -151t-57 -124.5t-102.5 -87t-149.5 -31.5zM235 13q40 0 80.5 151t43.5 265q-13 10 -30 10q-41 0 -71.5 -65.5t-43 -144
t-12.5 -146.5q0 -36 7 -53t26 -17z" />
    <glyph glyph-name="Delta" unicode="&#x2206;" horiz-adv-x="613" 
d="M554 0h-593v2l308 592q7 14 7.5 19t-5.5 15l-46 73v2h258zM286 582l-291 -561h346z" />
    <glyph glyph-name="product" unicode="&#x220f;" horiz-adv-x="764" 
d="M452 105l117 577h-193l-117 -577q-4 -18 2 -31l40 -72v-2h-335v2l70 72q9 10 14 31l100 493q4 18 -2 31l-41 72v2h737v-2l-69 -72q-9 -10 -14 -31l-100 -493q-4 -18 2 -31l40 -72v-2h-335v2l70 72q9 10 14 31z" />
    <glyph glyph-name="summation" unicode="&#x2211;" horiz-adv-x="590" 
d="M509 0h-574v2l339 251l-156 362q-6 15 -20 39l-29 46v3h570l-52 -257h-2l-105 216q-7 15 -11.5 17.5t-18.5 2.5h-122l138 -314l-477 -347h347q14 0 21 3.5t19 18.5l182 221h2z" />
    <glyph glyph-name="minus" unicode="&#x2212;" horiz-adv-x="540" 
d="M70 314v20h440v-20h-440z" />
    <glyph glyph-name="uni2215" unicode="&#x2215;" horiz-adv-x="48" 
d="M360 701l-640 -711l-15 15l640 710z" />
    <glyph glyph-name="uni2219" unicode="&#x2219;" horiz-adv-x="262" 
d="M163 504q37 0 62 -21t25 -56q0 -40 -28.5 -67.5t-67.5 -27.5q-35 0 -59.5 22t-24.5 56q0 41 27.5 67.5t65.5 26.5z" />
    <glyph glyph-name="radical" unicode="&#x221a;" horiz-adv-x="540" 
d="M523 750l-262 -750h-2l-159 445l19 5l141 -390l244 695z" />
    <glyph glyph-name="infinity" unicode="&#x221e;" horiz-adv-x="772" 
d="M75 325q0 55 37.5 98t94.5 43q19 0 38.5 -6t33 -12.5t34 -22.5t30 -25t32.5 -31.5t31 -30.5q9 9 31.5 31t32.5 31t29.5 25t33.5 22.5t33 12.5t39 6q57 0 94.5 -43t37.5 -98t-37.5 -98t-94.5 -43q-20 0 -39.5 6t-33 12.5t-33.5 22.5t-29.5 24.5t-32.5 31t-31 30.5
q-5 -5 -36 -35t-41 -38t-34.5 -25.5t-44.5 -23t-43 -5.5q-57 0 -94.5 43t-37.5 98zM605 204q49 0 80 36.5t31 84.5t-31 84.5t-80 36.5q-22 0 -40.5 -5.5t-38.5 -20t-32.5 -25t-37 -35t-36.5 -35.5q11 -10 36.5 -35.5t37 -35.5t32 -24.5t39 -20t40.5 -5.5zM96 325
q0 -48 31 -84.5t80 -36.5q21 0 39.5 5t39.5 20.5t31.5 24.5t37.5 35.5t36 35.5q-11 10 -36 35t-37 35.5t-32 25t-39 20t-40 5.5q-49 0 -80 -36.5t-31 -84.5z" />
    <glyph glyph-name="integral" unicode="&#x222b;" horiz-adv-x="468" 
d="M99 20l54 345q9 57 20 101.5t33 93t51.5 80t76.5 52.5t107 21q69 0 122 -23l-79 -163h-2l-59 156q-6 10 -12 10q-18 0 -28 -38t-27 -147q-3 -23 -5 -35l-49 -311q-12 -74 -32.5 -138.5t-55 -126t-90 -97.5t-125.5 -36q-66 0 -119 28l78 162h2l66 -162q4 -7 10 -7
q10 0 17 10q6 8 11 22.5t9.5 39t7.5 44t8.5 58t9.5 61.5z" />
    <glyph glyph-name="approxequal" unicode="&#x2248;" horiz-adv-x="540" 
d="M403 368q-46 0 -116.5 33t-110.5 33q-60 0 -96 -58l-17 11q40 67 113 67q46 0 116.5 -33t110.5 -33q60 0 96 58l17 -11q-40 -67 -113 -67zM403 190q-46 0 -116.5 33t-110.5 33q-60 0 -96 -58l-17 11q40 67 113 67q46 0 116.5 -33t110.5 -33q60 0 96 58l17 -11
q-40 -67 -113 -67z" />
    <glyph glyph-name="notequal" unicode="&#x2260;" horiz-adv-x="540" 
d="M70 404v20h263l56 100l18 -10l-50 -90h153v-20h-164l-89 -160h253v-20h-264l-59 -106l-18 10l53 96h-152v20h163l89 160h-252z" />
    <glyph glyph-name="lessequal" unicode="&#x2264;" horiz-adv-x="540" 
d="M91 374l390 129l6 -20l-336 -110l336 -110l-6 -20l-390 129v2zM70 100v20h440v-20h-440z" />
    <glyph glyph-name="greaterequal" unicode="&#x2265;" horiz-adv-x="540" 
d="M99 503l390 -129v-2l-390 -129l-6 20l336 110l-336 110zM510 120v-20h-440v20h440z" />
    <glyph glyph-name="lozenge" unicode="&#x25ca;" horiz-adv-x="540" 
d="M291 -81h-2l-219 405l219 405h2l219 -405zM290 686l-196 -362l196 -362l196 362z" />
    <glyph glyph-name="commaaccent" unicode="&#xf6c3;" horiz-adv-x="266" 
d="M216 -100q0 -48 -35 -89.5t-88 -65.5q-29 -12 -42 -13l-1 1q34 19 51 41q21 26 24 51q1 9 -7 9q-19 0 -33.5 13t-14.5 41q0 33 23 55t55 22q29 0 48.5 -18t19.5 -47z" />
    <glyph glyph-name="apple" unicode="&#xf8ff;" horiz-adv-x="1254" 
d="M666 340q-11 0 -41 1.5t-39 1.5q-53 0 -82.5 -24t-52.5 -75q-26 -57 -64 -89t-102 -32q-13 0 -42.5 2t-40.5 2q-57 0 -92 -30t-35 -75q0 -16 1 -22h-20q-1 7 -1 22q0 54 41.5 89.5t106.5 35.5q12 0 42.5 -2t40.5 -2q102 0 147 109q46 111 153 111q11 0 41 -1.5t39 -1.5
q52 0 82.5 25t53.5 76q25 57 63 88t102 31q13 0 42.5 -2t40.5 -2q56 0 92.5 31t36.5 74q0 16 -1 22h20q1 -7 1 -22q0 -53 -42.5 -89t-107.5 -36q-12 0 -42.5 2t-40.5 2q-55 0 -89 -27t-57 -80q-47 -113 -154 -113z" />
    <glyph glyph-name="Iacute_Jacute" horiz-adv-x="740" 
d="M308 0h-335v2l70 72q11 12 14 31l100 493q4 20 -2 31l-41 72v2h335v-2l-69 -72q-11 -12 -14 -31l-100 -493q-4 -20 2 -31l40 -72v-2zM736 598l-96 -467q-36 -174 -137.5 -258t-281.5 -84l-1 2q159 78 202 287l105 520q4 21 -2 31l-41 72l1 2h335v-2l-70 -72
q-11 -12 -14 -31zM354 911h186v-2l-289 -168l-1 2zM707 911h186v-2l-289 -168l-1 2z" />
    <glyph glyph-name="Jacute" horiz-adv-x="339" 
d="M348 598l-96 -467q-36 -174 -137.5 -258t-281.5 -84l-1 2q159 78 202 287l105 520q4 21 -2 31l-41 72l1 2h335v-2l-70 -72q-11 -12 -14 -31zM332 919h186v-2l-289 -168l-1 2z" />
    <glyph glyph-name="caronslovak" horiz-adv-x="274" 
d="M93 703h131l-172 -197h-2z" />
    <glyph glyph-name="commatop" horiz-adv-x="266" 
d="M196 642q0 -32 -23.5 -54.5t-55.5 -22.5q-29 0 -48 18t-19 47q0 48 35 89.5t88 65.5q29 12 42 13l1 -1q-34 -19 -51 -41q-21 -26 -24 -51q-1 -9 7 -9q19 0 33.5 -13t14.5 -41z" />
    <glyph glyph-name="jacute" horiz-adv-x="295" 
d="M-124 -236q-66 0 -119 28l78 161h2l66 -161q3 -7 10 -7q9 0 17 6q44 31 85 231l82 407q2 15 0 20.5t-11 11.5l-43 28v2l257 16l-75 -332q-16 -70 -31.5 -121.5t-44 -109.5t-63.5 -94.5t-89 -61t-121 -24.5zM218 703h186v-2l-289 -168l-1 2z" />
    <glyph glyph-name="smiley" horiz-adv-x="794" 
d="M392 -4q-155 0 -249 89t-94 229q0 163 115.5 278t276.5 115q149 0 244.5 -88.5t95.5 -230.5q0 -164 -111.5 -278t-277.5 -114zM392 16q157 0 262.5 107.5t105.5 263.5q0 134 -88.5 217t-229.5 83q-152 0 -262 -107.5t-110 -263.5q0 -133 87.5 -216.5t234.5 -83.5zM398 83
q-100 0 -165.5 54t-66.5 135h-2q-33 0 -35 36l2 1q11 -16 33 -16q41 0 59 30h2q-6 -38 -39 -48q2 -77 60 -124.5t154 -47.5q88 0 147 46.5t74 123.5q-30 4 -30 32q0 7 3 18h2q3 -30 45 -30q25 0 41 16v-1q-14 -32 -40 -36q-16 -85 -83.5 -137t-160.5 -52zM489 456
q15 73 31.5 116.5t27.5 43.5q10 0 10 -31q0 -42 -18 -129q-32 -154 -58 -154q-9 0 -9 32q0 43 16 122zM326 456q15 74 31.5 117t28.5 43q9 0 9 -31q0 -42 -18 -129q-14 -70 -30.5 -112t-26.5 -42t-10 33q0 44 16 121z" />
    <glyph glyph-name="backslash.case" horiz-adv-x="380" 
d="M252 -94l-119 885l19 4l120 -885z" />
    <glyph glyph-name="bar.case" horiz-adv-x="221" 
d="M31 -198l-19 4l199 996l20 -4z" />
    <glyph glyph-name="braceleft.case" horiz-adv-x="354" 
d="M213 -90q-77 0 -122 45t-24 128l49 189q7 26 -11.5 46.5t-48.5 25.5v1q32 5 58.5 25t30.5 47l28 189q8 53 29 89t52.5 53t63 24t70.5 7q27 0 60 -7v-2q-62 -1 -97.5 -42t-43.5 -94l-26 -176q-7 -46 -42.5 -76t-96.5 -37v-1q57 -10 80.5 -39t12.5 -74l-45 -176
q-14 -55 5 -95t81 -41v-2q-37 -7 -63 -7z" />
    <glyph glyph-name="braceright.case" horiz-adv-x="354" 
d="M325 606l-49 -189q-7 -26 11.5 -46.5t48.5 -25.5v-1q-32 -5 -57.5 -25t-31.5 -47l-28 -189q-8 -53 -29 -89t-52.5 -53t-63 -24t-70.5 -7q-27 0 -60 7v2q62 1 97.5 42t43.5 94l26 176q7 47 43 77.5t96 35.5v1q-57 10 -80.5 39t-12.5 74l45 176q14 55 -5 95t-81 41v2
q37 7 63 7q77 0 122 -45t24 -128z" />
    <glyph glyph-name="bracketleft.case" horiz-adv-x="378" 
d="M287 687l-138 -685q-4 -14 8 -18l141 -58v-2l-280 -10l173 861l276 -10v-2l-165 -58q-9 -3 -11 -6t-4 -12z" />
    <glyph glyph-name="bracketright.case" horiz-adv-x="378" 
d="M400 775l-173 -861l-276 10v2l165 58q9 3 11 6t4 12l138 685q4 14 -8 18l-141 58v2z" />
    <glyph glyph-name="emdash.case" horiz-adv-x="1000" 
d="M1015 329h-990v20h990v-20z" />
    <glyph glyph-name="endash.case" horiz-adv-x="500" 
d="M515 329h-490v20h490v-20z" />
    <glyph glyph-name="exclamdown.case" horiz-adv-x="348" 
d="M224 481l53 -481h-295l240 481h2zM245 539q-37 0 -62 21t-25 56q0 40 28.5 67.5t67.5 27.5q35 0 59.5 -22t24.5 -56q0 -41 -27.5 -67.5t-65.5 -26.5z" />
    <glyph glyph-name="guillemotleft.case" horiz-adv-x="484" 
d="M45 343l287 247l2 -1l-143 -248l40 -246l-2 -1l-184 247v2zM242 343l287 247l2 -1l-143 -248l40 -246l-2 -1l-184 247v2z" />
    <glyph glyph-name="guillemotright.case" horiz-adv-x="484" 
d="M282 341l-287 -247l-2 1l143 248l-40 246l2 1l184 -247v-2zM477 341l-287 -247l-2 1l143 248l-40 246l2 1l184 -247v-2z" />
    <glyph glyph-name="guilsinglleft.case" horiz-adv-x="287" 
d="M45 343l287 247l2 -1l-143 -248l40 -246l-2 -1l-184 247v2z" />
    <glyph glyph-name="guilsinglright.case" horiz-adv-x="287" 
d="M282 341l-287 -247l-2 1l143 248l-40 246l2 1l184 -247v-2z" />
    <glyph glyph-name="hyphen.case" horiz-adv-x="351" 
d="M66 329v21h260v-21h-260z" />
    <glyph glyph-name="parenleft.case" horiz-adv-x="353" 
d="M272 -101l-2 -2q-203 92 -203 342q0 306 205 471q36 28 86.5 50t91.5 28l1 -2q-64 -44 -117 -124q-68 -101 -104 -236t-36 -260q0 -187 78 -267z" />
    <glyph glyph-name="parenright.case" horiz-adv-x="353" 
d="M326 457q0 -306 -205 -471q-36 -28 -86.5 -50t-91.5 -28l-1 2q84 60 147 174q54 98 82 217t28 229q0 187 -78 267l2 2q203 -92 203 -342z" />
    <glyph glyph-name="questiondown.case" horiz-adv-x="518" 
d="M320 461q31 0 59 -28t28 -62q0 -31 -20 -59.5t-48.5 -51t-57 -45.5t-48.5 -54t-20 -66t15 -60t43 -25h2q21 0 29 13l139 221h2l55 -197q-134 -57 -244 -57q-109 0 -170.5 40t-61.5 117q0 36 13.5 67t33.5 51.5t49.5 41t53.5 32t55 26t45 22.5q25 14 35 29q11 15 11 43z
M370 539q-37 0 -62 21t-25 56q0 40 28.5 67.5t67.5 27.5q35 0 59.5 -22t24.5 -56q0 -41 -27.5 -67.5t-65.5 -26.5z" />
    <glyph glyph-name="slash.case" horiz-adv-x="380" 
d="M450 786l-466 -881l-18 12l466 879z" />
    <glyph glyph-name="braceleft.salt" horiz-adv-x="245" 
d="M24 -58q0 -31 22 -47t60 -16q20 0 53 7v-20q-33 -7 -55 -7q-101 0 -101 80q0 40 26 92l73 149q17 34 17 54q0 24 -17.5 36t-60.5 12l3 21q57 1 80.5 23.5t23.5 62.5q0 8 -1 16l-15 149q-2 18 -2 34q0 66 39.5 102t105.5 36q21 0 51 -7l-6 -19q-26 6 -51 6
q-51 0 -84.5 -30.5t-33.5 -85.5q0 -8 2 -30l15 -155q1 -10 1 -17q0 -41 -21 -66t-54 -29v-1q46 -10 46 -54q0 -24 -16 -58l-76 -155q-24 -50 -24 -83z" />
    <glyph glyph-name="braceright.salt" horiz-adv-x="245" 
d="M131 -2q0 -66 -39.5 -102t-105.5 -36q-21 0 -51 7l6 19q26 -6 51 -6q51 0 84.5 30.5t33.5 85.5q0 8 -2 30l-15 155q-1 10 -1 17q0 41 21 66t54 29v1q-46 10 -46 54q0 24 16 58l76 155q24 50 24 83q0 31 -22 47t-60 16q-20 0 -53 -7v20q33 7 55 7q101 0 101 -80
q0 -40 -26 -92l-73 -149q-17 -34 -17 -54q0 -24 17.5 -36t60.5 -12l-3 -21q-57 -1 -80.5 -23.5t-23.5 -62.5q0 -8 1 -16l15 -149q2 -18 2 -34z" />
    <glyph glyph-name="bracketleft.salt" horiz-adv-x="257" 
d="M167 -116v-20h-165l173 859h163v-20h-146l-165 -819h140z" />
    <glyph glyph-name="bracketright.salt" horiz-adv-x="257" 
d="M-67 -136v20h149l165 819h-146v20h171l-173 -859h-166z" />
    <glyph glyph-name="guillemotleft.salt" horiz-adv-x="421" 
d="M28 252l244 248l14 -15l-232 -236l138 -233l-17 -12zM188 252l244 248l14 -15l-232 -236l138 -233l-17 -12z" />
    <glyph glyph-name="guillemotright.salt" horiz-adv-x="421" 
d="M397 252l-244 -248l-14 15l232 236l-138 233l17 12zM237 252l-244 -248l-14 15l232 236l-138 233l17 12z" />
    <glyph glyph-name="guilsinglleft.salt" horiz-adv-x="261" 
d="M28 254l244 248l14 -15l-232 -236l138 -233l-17 -12z" />
    <glyph glyph-name="guilsinglright.salt" horiz-adv-x="261" 
d="M237 250l-244 -248l-14 15l232 236l-138 233l17 12z" />
    <glyph glyph-name="parenleft.salt" horiz-adv-x="279" 
d="M62 321q22 127 97.5 244.5t183.5 169.5l7 -17q-105 -55 -176 -166t-92 -235q-8 -47 -8 -108q0 -96 30.5 -187.5t94.5 -157.5l-14 -15q-66 68 -99 164t-33 200q0 55 9 108z" />
    <glyph glyph-name="parenright.salt" horiz-adv-x="279" 
d="M231 264q-22 -127 -97.5 -244.5t-183.5 -169.5l-7 17q105 55 176 166t92 235q8 47 8 108q0 96 -30.5 187.5t-94.5 157.5l14 15q66 -68 99 -164t33 -200q0 -56 -9 -108z" />
    <glyph glyph-name="braceleft.salt.case" horiz-adv-x="245" 
d="M47 334l3 21q57 1 80.5 23.5t23.5 62.5q0 8 -1 16l-15 149q-2 18 -2 34q0 66 39.5 102t105.5 36q21 0 51 -7l-6 -19q-25 6 -51 6q-51 0 -84.5 -30.5t-33.5 -85.5q0 -8 2 -30l15 -155q1 -10 1 -17q0 -41 -21 -66t-54 -29v-1q46 -10 46 -54q0 -24 -16 -58l-76 -155
q-24 -50 -24 -83q0 -31 22 -47t60 -16q20 0 53 7v-20q-33 -7 -55 -7q-101 0 -101 80q0 40 26 92l73 149q17 34 17 54q0 24 -17.5 36t-60.5 12z" />
    <glyph glyph-name="braceright.salt.case" horiz-adv-x="245" 
d="M226 356l-3 -21q-57 -1 -80.5 -23.5t-23.5 -62.5q0 -8 1 -16l15 -149q2 -18 2 -34q0 -66 -39.5 -102t-105.5 -36q-21 0 -51 7l6 19q26 -6 51 -6q51 0 84.5 30.5t33.5 85.5q0 8 -2 30l-15 155q-1 10 -1 17q0 41 21 66t54 29v1q-46 10 -46 54q0 24 16 58l76 155
q24 50 24 83q0 31 -22 47t-60 16q-20 0 -53 -7v20q33 7 55 7q101 0 101 -80q0 -40 -26 -92l-73 -149q-17 -34 -17 -54q0 -24 17.5 -36t60.5 -12z" />
    <glyph glyph-name="bracketleft.salt.case" horiz-adv-x="257" 
d="M172 -67v-20h-165l173 859h163v-20h-146l-165 -819h140z" />
    <glyph glyph-name="bracketright.salt.case" horiz-adv-x="257" 
d="M112 752v20h165l-173 -859h-163v20h146l165 819h-140z" />
    <glyph glyph-name="guillemotleft.salt.case" horiz-adv-x="421" 
d="M45 342l244 248l14 -15l-232 -236l138 -233l-17 -12zM205 342l244 248l14 -15l-232 -236l138 -233l-17 -12z" />
    <glyph glyph-name="guillemotright.salt.case" horiz-adv-x="421" 
d="M415 342l-244 -248l-14 15l232 236l-138 233l17 12zM255 342l-244 -248l-14 15l232 236l-138 233l17 12z" />
    <glyph glyph-name="guilsinglleft.salt.case" horiz-adv-x="261" 
d="M45 342l244 248l14 -15l-232 -236l138 -233l-17 -12z" />
    <glyph glyph-name="guilsinglright.salt.case" horiz-adv-x="261" 
d="M255 342l-244 -248l-14 15l232 236l-138 233l17 12z" />
    <glyph glyph-name="parenleft.salt.case" horiz-adv-x="279" 
d="M68 371q22 127 97.5 244.5t183.5 169.5l7 -17q-105 -55 -176 -166t-92 -235q-8 -47 -8 -108q0 -96 30 -188t94 -157l-13 -15q-66 68 -99 164t-33 200q0 55 9 108z" />
    <glyph glyph-name="parenright.salt.case" horiz-adv-x="279" 
d="M236 316q-22 -127 -97.5 -244.5t-183.5 -169.5l-7 17q105 55 176 166t92 235q8 47 8 108q0 96 -30 188t-94 157l13 15q66 -68 99 -164t33 -200q0 -56 -9 -108z" />
    <glyph glyph-name="eight.subs" horiz-adv-x="330" 
d="M115 -5q-52 0 -86 18.5t-34 45.5q0 53 86 58q-53 27 -53 75t41 75.5t106 27.5q42 0 76.5 -15.5t34.5 -43.5q0 -49 -81 -55l12 -5q61 -26 61 -73q0 -53 -47.5 -80.5t-115.5 -27.5zM132 94l-43 19q-24 -23 -24 -50q0 -22 18 -37.5t43 -15.5q21 0 39 9.5t18 29.5
q0 23 -51 45zM114 244q0 -23 47 -43l38 -17q19 23 19 52q0 20 -14 32t-35 12q-24 0 -39.5 -10t-15.5 -26z" />
    <glyph glyph-name="five.subs" horiz-adv-x="330" 
d="M283 259q-10 -25 -20 -33.5t-33 -11.5t-77 -3q-55 0 -85 6l-18 -64q52 30 113 30q49 0 76.5 -23.5t27.5 -59.5q0 -52 -46 -79.5t-126 -27.5q-82 0 -122 21l80 96h2l25 -96q1 -5 11 -5h1q27 0 43.5 24.5t16.5 58.5q0 25 -18 40t-52 15q-19 0 -51 -15l-2 1l42 154
q63 -5 107 -5q49 0 66 2q29 3 45 19l7 7h3q-16 -50 -16 -51z" />
    <glyph glyph-name="four.subs" horiz-adv-x="330" 
d="M252 290l-41 -204h8q10 0 16 7l63 80h2l-27 -103h-65l-7 -34q-1 -5 4 -10l30 -24v-2h-186v2l42 24q6 3 7 11l6 33h-140v2l209 218h79zM-3 86h110l29 143z" />
    <glyph glyph-name="nine.subs" horiz-adv-x="330" 
d="M106 11q46 0 72 116q-38 -18 -81 -18q-36 0 -63 19.5t-27 50.5q0 49 39.5 82.5t119.5 33.5q65 0 100.5 -32t35.5 -80q0 -85 -54.5 -136.5t-142.5 -51.5q-76 0 -124 15l68 85h2l41 -79q3 -5 12 -5h2zM166 279q-22 0 -38.5 -30t-16.5 -65q0 -50 43 -50q14 0 27 6
q11 58 11 96q0 26 -6 34.5t-20 8.5z" />
    <glyph glyph-name="one.subs" horiz-adv-x="280" 
d="M222 301l-52 -259q-2 -8 3 -11l55 -29v-2h-252v2l67 29q7 3 9 11l35 178q1 8 -4 9l-63 14v2z" />
    <glyph glyph-name="parenleft.subs" horiz-adv-x="229" 
d="M110 56q0 -75 48 -123l-1 -2q-153 43 -153 159q0 18 5 43q29 152 227 202l1 -2q-91 -64 -118 -200q-9 -42 -9 -77z" />
    <glyph glyph-name="parenright.subs" horiz-adv-x="229" 
d="M96 208q0 77 -48 125l1 2q153 -42 153 -161q0 -22 -4 -41q-31 -152 -228 -202l-1 2q50 36 78 83.5t41 116.5q8 45 8 75z" />
    <glyph glyph-name="seven.subs" horiz-adv-x="330" 
d="M171 0h-150v2q57 67 228 211v2h-147q-28 0 -44 -11l-29 -21h-2l39 107h270v-2l-56 -62q-8 -8 -17 -24q-46 -84 -92 -202z" />
    <glyph glyph-name="six.subs" horiz-adv-x="330" 
d="M287 111q0 -49 -39.5 -82.5t-119.5 -33.5q-65 0 -100.5 32t-35.5 80q0 85 54.5 136.5t142.5 51.5q76 0 124 -15l-68 -85h-2l-41 79q-3 5 -12 5h-2q-47 0 -73 -116q37 18 82 18q36 0 63 -19.5t27 -50.5zM140 156q-14 0 -28 -7q-10 -53 -10 -95q0 -26 6 -34.5t20 -8.5
q22 0 38.5 30t16.5 65q0 50 -43 50z" />
    <glyph glyph-name="three.subs" horiz-adv-x="330" 
d="M296 229q0 -32 -29.5 -51t-79.5 -23v-2q40 -2 63.5 -19.5t23.5 -43.5q0 -48 -50 -71.5t-121 -23.5q-78 0 -127 20l80 101h2l24 -98q2 -6 12 -6h2q27 0 46 24.5t19 58.5q0 21 -15.5 36t-40.5 19v2q33 2 54.5 29t21.5 67q0 15 -7 23t-17 8h-3q-7 0 -12 -6l-71 -97h-2
l-38 91q68 28 144 28q59 0 90 -17.5t31 -48.5z" />
    <glyph glyph-name="two.subs" horiz-adv-x="330" 
d="M183 295q52 0 82 -19t30 -51q0 -50 -59 -87.5t-154 -55.5v-2h117q28 0 42 10l34 23h2l-45 -113h-260v2l87 76q73 63 94 92q29 39 29 77q0 32 -23 32h-4q-7 0 -12 -6l-73 -104h-2l-36 98q67 28 151 28z" />
    <glyph glyph-name="zero.subs" horiz-adv-x="330" 
d="M171 276q-30 0 -52.5 -87t-22.5 -138q0 -25 5 -35t18 -10q30 0 52.5 87t22.5 138q0 25 -5 35t-18 10zM175 291q55 0 90.5 -32.5t35.5 -80.5q0 -88 -49.5 -137.5t-136.5 -49.5q-55 0 -90.5 32.5t-35.5 80.5q0 88 49.5 137.5t136.5 49.5z" />
    <glyph glyph-name="eight.sups" horiz-adv-x="330" 
d="M199 413q-52 0 -86 18.5t-34 45.5q0 53 86 58q-53 27 -53 75t41 75.5t106 27.5q42 0 76.5 -15.5t34.5 -43.5q0 -49 -81 -55l12 -5q61 -26 61 -73q0 -53 -47.5 -80.5t-115.5 -27.5zM216 512l-43 19q-24 -23 -24 -50q0 -22 18 -37.5t43 -15.5q21 0 39 9.5t18 29.5
q0 23 -51 45zM198 662q0 -23 47 -43l38 -17q19 23 19 52q0 20 -14 32t-35 12q-24 0 -39.5 -10t-15.5 -26z" />
    <glyph glyph-name="five.sups" horiz-adv-x="330" 
d="M365 679q-10 -25 -20 -33.5t-33 -11.5q-22 -3 -77 -3t-85 6l-18 -64q52 30 113 30q49 0 76.5 -23.5t27.5 -59.5q0 -52 -46 -79.5t-126 -27.5q-82 0 -122 21l80 96h2l25 -96q1 -5 11 -5h1q27 0 43.5 24.5t16.5 58.5q0 25 -18 40t-52 15q-19 0 -51 -15l-2 1l42 154
q63 -5 107 -5q49 0 66 2q29 3 45 19l7 7h3q-16 -50 -16 -51z" />
    <glyph glyph-name="four.sups" horiz-adv-x="330" 
d="M334 708l-41 -204h8q10 0 16 7l63 80h2l-27 -103h-65l-7 -34q-1 -5 4 -10l30 -24v-2h-186v2l42 24q6 3 7 11l6 33h-140v2l209 218h79zM79 504h110l29 143z" />
    <glyph glyph-name="nine.sups" horiz-adv-x="330" 
d="M190 429q46 0 72 116q-38 -18 -81 -18q-36 0 -63 19.5t-27 50.5q0 49 39.5 82.5t119.5 33.5q65 0 100.5 -32t35.5 -80q0 -85 -54.5 -136.5t-142.5 -51.5q-76 0 -124 15l68 85h2l41 -79q3 -5 12 -5h2zM250 697q-22 0 -38.5 -30t-16.5 -65q0 -50 43 -50q14 0 27 6
q11 58 11 96q0 26 -6 34.5t-20 8.5z" />
    <glyph glyph-name="one.sups" horiz-adv-x="280" 
d="M305 719l-52 -259q-2 -8 3 -11l55 -29v-2h-252v2l67 29q7 3 9 11l35 178q1 8 -4 9l-63 14v2z" />
    <glyph glyph-name="parenleft.sups" horiz-adv-x="229" 
d="M190 484q0 -75 48 -123l-1 -2q-153 43 -153 159q0 18 5 43q29 152 227 202l1 -2q-50 -35 -76.5 -82.5t-41.5 -117.5q-9 -42 -9 -77z" />
    <glyph glyph-name="parenright.sups" horiz-adv-x="229" 
d="M176 636q0 77 -48 125l1 2q153 -42 153 -161q0 -22 -4 -41q-31 -152 -228 -202l-1 2q92 65 119 200q8 45 8 75z" />
    <glyph glyph-name="seven.sups" horiz-adv-x="330" 
d="M255 418h-150v2q57 67 228 211v2h-147q-28 0 -44 -11l-29 -21h-2l39 107h270v-2l-56 -62q-8 -8 -17 -24q-46 -84 -92 -202z" />
    <glyph glyph-name="six.sups" horiz-adv-x="330" 
d="M369 529q0 -49 -39.5 -82.5t-119.5 -33.5q-65 0 -100.5 32t-35.5 80q0 85 54.5 136.5t142.5 51.5q76 0 124 -15l-68 -85h-2l-41 79q-3 5 -12 5h-2q-47 0 -73 -116q37 18 82 18q36 0 63 -19.5t27 -50.5zM222 574q-14 0 -28 -7q-10 -53 -10 -95q0 -26 6 -34.5t20 -8.5
q22 0 38.5 30t16.5 65q0 50 -43 50z" />
    <glyph glyph-name="three.sups" horiz-adv-x="330" 
d="M378 647q0 -32 -29.5 -51t-79.5 -23v-2q40 -2 63.5 -19.5t23.5 -43.5q0 -48 -50 -71.5t-121 -23.5q-78 0 -127 20l80 101h2l24 -98q2 -6 12 -6h2q27 0 46 24.5t19 58.5q0 21 -15.5 36t-40.5 19v2q33 2 54.5 29t21.5 67q0 15 -7 23t-17 8h-3q-7 0 -12 -6l-71 -97h-2
l-38 91q68 28 144 28q59 0 90 -17.5t31 -48.5z" />
    <glyph glyph-name="two.sups" horiz-adv-x="330" 
d="M266 713q52 0 82 -19t30 -51q0 -50 -59 -87.5t-154 -55.5v-2h117q28 0 42 10l34 23h2l-45 -113h-260v2l87 76q73 63 94 92q29 39 29 77q0 32 -23 32h-4q-7 0 -12 -6l-73 -104h-2l-36 98q67 28 151 28z" />
    <glyph glyph-name="zero.sups" horiz-adv-x="330" 
d="M256 698q-30 0 -52.5 -87t-22.5 -138q0 -25 5 -35t18 -10q30 0 52.5 87t22.5 138q0 25 -5 35t-18 10zM260 713q55 0 90.5 -32.5t35.5 -80.5q0 -88 -49.5 -137.5t-136.5 -49.5q-55 0 -90.5 32.5t-35.5 80.5q0 88 49.5 137.5t136.5 49.5z" />
    <glyph glyph-name="i.trk" horiz-adv-x="314" 
d="M119 -8q-50 0 -73 30.5t-23 71.5q0 28 9 71l64 262q6 24 -7 32l-46 30v2l259 16l-85 -351q-7 -29 -7 -46q0 -22 18 -22q16 0 31 15q23 22 39 57l2 -1q-16 -75 -66.5 -121t-114.5 -46zM240 710q38 0 63 -20.5t25 -56.5q0 -42 -28.5 -66t-70.5 -24q-38 0 -64.5 20t-26.5 56
q0 42 30 66.5t72 24.5z" />
    </font>
</defs>
</svg>
