<?xml version="1.0" standalone="no"?>
<!DOCTYPE svg PUBLIC "-//W3C//DTD SVG 1.1//EN" "http://www.w3.org/Graphics/SVG/1.1/DTD/svg11.dtd" >
<svg xmlns="http://www.w3.org/2000/svg" xmlns:xlink="http://www.w3.org/1999/xlink" version="1.1">
<metadata>
Created by FontForge 20170731 at Tue Oct  8 02:00:45 2013
 By Aleksey,,,
Copyright (c) 2013 Schick Toikka. All rights reserved. Noe Display is a trademark of Schick Toikka. Unauthorised copying or modification of any of its data is illegal. | wf-rip by planemo
</metadata>
<defs>
<font id="NoeDisplay-MediumItalic" horiz-adv-x="295" >
  <font-face 
    font-family="Noe Display"
    font-weight="500"
    font-style="italic"
    font-stretch="normal"
    units-per-em="1000"
    panose-1="2 10 6 0 9 4 0 0 0 2"
    ascent="750"
    descent="-250"
    x-height="498"
    cap-height="703"
    bbox="-297 -253 1199 979"
    underline-thickness="18"
    underline-position="-136"
    slope="-12"
    unicode-range="U+0020-FB02"
  />
<missing-glyph horiz-adv-x="600" 
d="M549 -250h-487v1000h487v-1000zM297 250l-216 467v-932zM316 251l215 -463v926zM306 230l-214 -462h429zM92 732l214 -461l214 461h-428z" />
    <glyph glyph-name="fi" unicode="fi" horiz-adv-x="562" 
d="M50 114l49 264q12 66 18 86h-77v18h81q30 110 89 170.5t166 60.5q80 0 138 -24l-61 -146h-2l-62 136q-6 12 -9.5 15t-14.5 3q-29 0 -51.5 -16.5t-37.5 -49.5t-24.5 -66.5t-18.5 -82.5h156q13 0 35 2l105 14l-90 -338q-15 -58 -15 -73q0 -27 23 -27t44 29q30 40 45 113h2
q-8 -80 -53.5 -145t-106.5 -65q-33 0 -52 20.5t-19 55.5q0 36 12 80l80 295q6 21 -14 21h-155l-58 -300q-22 -113 -54.5 -197.5t-90 -143.5t-131.5 -59q-51 0 -83 22l62 158h2l43 -139q6 -18 16 -18q12 0 24 14q40 46 83 278q5 23 7 35z" />
    <glyph glyph-name="fl" unicode="fl" horiz-adv-x="549" 
d="M371 -8q-34 0 -53 21.5t-19 55.5q0 28 12 80l116 503q3 12 -7 21q-31 24 -65 24q-27 0 -47 -16t-34 -49.5t-23 -66t-19 -83.5h119v-18h-122l-57 -300q-16 -83 -38.5 -151t-55.5 -126t-79.5 -90.5t-102.5 -32.5q-51 0 -83 22l62 158h2l43 -139q6 -18 16 -18q12 0 25 16
q26 32 44 99.5t40 183.5q3 19 5 28l57 299q6 34 10 51h-77v18h82q28 109 81 170t143 61q42 0 90 -30l125 41l-131 -566q-12 -50 -12 -69q0 -29 23 -29t44 29q29 39 45 113h2q-11 -98 -62 -157q-46 -53 -99 -53z" />
    <glyph glyph-name="f_b" unicode="fb" horiz-adv-x="767" 
d="M172 164q-16 -83 -38.5 -151t-55.5 -126t-79.5 -90.5t-102.5 -32.5q-51 0 -83 22l62 158h2l43 -139q6 -18 16 -18q13 0 25 17q18 24 34.5 73t25 89.5t24.5 121.5q3 17 5 26l57 299q6 34 10 51h-77v18h82q28 109 81 170t143 61q42 0 90 -30l125 41l-94 -415h2
q62 189 167 189q47 0 77.5 -36.5t30.5 -117.5q0 -139 -82.5 -245.5t-175.5 -106.5q-63 0 -83 48l-118 -48l142 660q2 13 -7 21q-31 24 -65 24q-27 0 -47 -16t-34 -49.5t-23 -66t-19 -83.5h119v-18h-122zM505 364q-46 -85 -97 -318q12 -19 44 -19q77 0 126 124q43 107 43 199
q0 82 -41 82q-37 0 -75 -68z" />
    <glyph glyph-name="f_h" unicode="fh" horiz-adv-x="802" 
d="M172 164q-16 -83 -38.5 -151t-55.5 -126t-79.5 -90.5t-102.5 -32.5q-51 0 -83 22l62 158h2l43 -139q6 -18 16 -18q12 0 27 21q26 38 45 110.5t42 195.5l57 299q6 34 10 51h-77v18h82q60 231 225 231q44 0 92 -30l125 41l-99 -436h2q38 99 94 154.5t116 55.5
q39 0 61.5 -22.5t22.5 -60.5q0 -36 -25 -116l-45 -142q-15 -47 -15 -70q0 -27 23 -27q24 0 45 30q26 35 45 112h2q-12 -97 -59.5 -153.5t-105.5 -56.5q-34 0 -54 19.5t-20 54.5q0 34 24 108l49 150q17 53 17 78q0 30 -28 30q-57 0 -107 -85q-49 -87 -109 -347h-115l147 652
q3 12 -7 21q-31 24 -66 24q-27 0 -47.5 -16t-35 -49t-23.5 -66t-19 -84h119v-18h-122z" />
    <glyph glyph-name="f_j" unicode="fj" horiz-adv-x="542" 
d="M172 164q-22 -113 -54.5 -197.5t-90 -143.5t-131.5 -59q-51 0 -83 22l62 158h2l43 -139q6 -18 16 -18q13 0 30 27q40 62 84 300l52 279q10 53 15 71h-77v18h81q30 110 89 170.5t166 60.5q80 0 138 -24l-61 -146h-2l-62 136q-6 12 -9.5 15t-14.5 3q-29 0 -51.5 -16.5
t-37.5 -49.5t-24.5 -66.5t-18.5 -82.5h156l33 3l111 13l-85 -370q-83 -364 -284 -364q-46 0 -80 22l68 158h2l36 -143q4 -14 15 -14t25 17q54 67 102 299l69 339q3 22 -14 22h-157z" />
    <glyph glyph-name="f_k" unicode="fk" horiz-adv-x="769" 
d="M172 164q-16 -83 -38.5 -151t-55.5 -126t-79.5 -90.5t-102.5 -32.5q-51 0 -83 22l62 158h2l43 -139q6 -18 16 -18q12 0 25 18q26 38 45.5 110.5t43.5 198.5l57 299q6 34 10 51h-77v18h82q28 109 81 170t143 61q42 0 90 -30l125 41l-101 -453l164 121q19 14 19 20
q0 7 -14 21l-45 47v2h232v-2l-117 -61q-40 -22 -52 -31l-62 -46l36 -212q7 -39 16 -54.5t26 -15.5q24 0 47 34q24 37 41 108h2q-11 -98 -59 -154t-103 -56q-38 0 -54.5 21.5t-24.5 72.5l-21 142q-3 22 -11 32t-21 5l-60 -265h-115l145 651q2 13 -8 21q-30 25 -66 25
q-27 0 -47 -16t-34 -49.5t-23 -66t-19 -83.5h119v-18h-122z" />
    <glyph glyph-name="g_f" unicode="gf" horiz-adv-x="756" 
d="M165 -236q-90 0 -153 33.5t-63 92.5q0 45 40 75t102 42q-73 23 -73 77q0 37 33.5 64t96.5 36q-43 16 -68 49.5t-25 81.5q0 82 63.5 132.5t150.5 50.5q65 0 116 -36q13 -9 22 0l125 136h2l-34 -162h-90q30 -35 30 -83q0 -83 -64 -132.5t-150 -49.5q-38 0 -67 10
q-19 -5 -32 -16.5t-13 -23.5q0 -27 53 -38l119 -26q62 -13 94 -48.5t32 -83.5q0 -92 -97 -145q29 -20 61 -20q39 0 66 44q40 64 83 290l57 301q8 40 11 50h-70v19h74q29 109 83 169t144 60q64 0 115 -21l-62 -149h-2l-45 138q-4 11 -7 13.5t-14 2.5q-21 0 -37 -16.5t-28 -51
t-19 -65t-16 -80.5h118v-19h-122l-57 -301q-77 -400 -265 -400q-50 0 -85 28q-61 -28 -133 -28zM223 -24q-113 26 -125 29q-67 -39 -67 -107q0 -52 43 -85t101 -33q61 0 101 30.5t40 80.5q0 63 -93 85zM276 483q-48 0 -78 -68t-30 -142q0 -87 49 -87q33 0 59 34.5t38 81.5
t12 92q0 89 -50 89z" />
    <glyph glyph-name="q_f" unicode="qf" horiz-adv-x="771" 
d="M132 -8q-50 0 -79.5 40t-29.5 109q0 143 79 250t173 107q69 0 92 -52l118 52h2l-151 -660q-4 -15 -3.5 -21.5t6.5 -12.5q24 -22 55 -22q35 1 61 42q39 61 84 290l58 301q3 25 10 50h-76v19h80q29 109 83 169t144 60q65 0 116 -21l-62 -149h-2l-46 138q-4 11 -7 13.5
t-13 2.5q-21 0 -37.5 -16.5t-28.5 -51t-19 -65t-16 -80.5h118v-19h-122l-57 -301q-75 -397 -265 -397q-18 0 -38 5h-251v2l93 46q17 9 21 28l78 336h-2q-69 -192 -166 -192zM272 149q42 93 90 291q-12 23 -48 23q-64 0 -114 -96q-25 -50 -39.5 -114t-14.5 -118q0 -76 42 -76
q43 0 84 90z" />
    <glyph glyph-name="g_j" unicode="gj" horiz-adv-x="741" 
d="M370 -236q-46 0 -78 25q-59 -25 -127 -25q-90 0 -153 33.5t-63 92.5q0 45 40 75t102 42q-73 23 -73 77q0 37 33.5 64t96.5 36q-43 16 -68 49.5t-25 81.5q0 82 63.5 132.5t150.5 50.5q65 0 116 -36q13 -9 22 0l125 136h2l-34 -162h-90q30 -35 30 -83q0 -83 -64 -132.5
t-150 -49.5q-38 0 -67 10q-19 -5 -32 -16.5t-13 -23.5q0 -27 53 -38l119 -26q62 -13 94 -48.5t32 -83.5q0 -95 -102 -147q27 -18 59 -18q35 0 57 22q23 20 43.5 74.5t31.5 100t28 126.5l67 325q5 16 -11 23l-74 29v2l221 16l-86 -370q-19 -82 -41 -143t-54.5 -113.5t-78 -80
t-102.5 -27.5zM123 -1l-25 6q-67 -39 -67 -107q0 -52 43 -85t101 -33q61 0 101 30.5t40 80.5q0 64 -93 85q-11 3 -35.5 8.5t-42.5 9.5t-22 5zM276 483q-48 0 -78 -68t-30 -142q0 -87 49 -87q33 0 59 34.5t38 81.5t12 92q0 89 -50 89zM696 558q-28 0 -46 16.5t-18 43.5
q0 31 22.5 52.5t55.5 21.5q27 0 45 -17t18 -44q0 -31 -22 -52t-55 -21z" />
    <glyph glyph-name=".notdef" horiz-adv-x="600" 
d="M549 -250h-487v1000h487v-1000zM297 250l-216 467v-932zM316 251l215 -463v926zM306 230l-214 -462h429zM92 732l214 -461l214 461h-428z" />
    <glyph glyph-name=".null" horiz-adv-x="0" 
 />
    <glyph glyph-name="nonmarkingreturn" horiz-adv-x="333" 
 />
    <glyph glyph-name="space" unicode=" " horiz-adv-x="194" 
 />
    <glyph glyph-name="exclam" unicode="!" horiz-adv-x="272" 
d="M320 703l-189 -487h-2l14 487h177zM105 130q27 0 45.5 -17.5t18.5 -44.5q0 -31 -22.5 -53.5t-55.5 -22.5q-27 0 -45 17.5t-18 44.5q0 31 22 53.5t55 22.5z" />
    <glyph glyph-name="quotedbl" unicode="&#x22;" horiz-adv-x="355" 
d="M216 614l-76 -144h-2l-14 154v13q0 33 16 54.5t45 21.5q22 0 34.5 -13t12.5 -33q0 -21 -16 -53zM382 614l-76 -144h-2l-14 154v13q0 33 16 54.5t45 21.5q22 0 34.5 -13t12.5 -33q0 -21 -16 -53z" />
    <glyph glyph-name="numbersign" unicode="#" horiz-adv-x="588" 
d="M511 216h-137l-55 -190l-17 5l53 185h-154l-55 -190l-17 5l53 185h-127v18h132l58 203h-127v18h132l57 198l19 -5l-56 -193h153l57 198l19 -5l-56 -193h130v-18h-135l-59 -203h132v-18zM265 437l-59 -203h154l58 203h-153z" />
    <glyph glyph-name="dollar" unicode="$" horiz-adv-x="538" 
d="M492 207q0 -89 -75.5 -151.5t-186.5 -65.5l-18 -95l-17 2l18 93q-131 2 -205 33l57 216h2l63 -207q5 -16 20 -20q22 -5 55 -5h11l56 285l-62 46q-102 76 -102 176q0 86 66.5 142.5t167.5 56.5h12l15 76l17 -2l-14 -74q81 -3 174 -27l-46 -210h-2l-72 199q-5 14 -18 17
q-17 4 -40 4l-52 -266l70 -50q54 -38 80 -78t26 -95zM365 147q0 71 -78 133l-53 -271q56 7 93.5 42.5t37.5 95.5zM220 576q0 -67 81 -134l50 255q-57 -3 -94 -34.5t-37 -86.5z" />
    <glyph glyph-name="percent" unicode="%" horiz-adv-x="660" 
d="M286 699q-38 0 -63.5 -76.5t-25.5 -139.5q0 -53 34 -53q27 0 48.5 43t31 91.5t9.5 82.5q0 52 -34 52zM289 713q48 0 77.5 -31t29.5 -78q0 -81 -46 -134.5t-122 -53.5q-49 0 -77.5 31t-28.5 79q0 80 46 133.5t121 53.5zM472 274q-38 0 -63.5 -76.5t-25.5 -139.5
q0 -53 34 -53q27 0 48.5 43t31 91.5t9.5 82.5q0 52 -34 52zM475 288q48 0 77.5 -31t29.5 -78q0 -81 -46 -134.5t-122 -53.5q-49 0 -77.5 31t-28.5 79q0 80 46 133.5t121 53.5zM683 701l-649 -711l-13 14l648 710z" />
    <glyph glyph-name="ampersand" unicode="&#x26;" horiz-adv-x="673" 
d="M597 221q0 -99 -77.5 -165t-201.5 -66q-129 0 -206 62t-77 157q0 91 62 154.5t161 79.5v2q-62 10 -89 40.5t-27 69.5q0 67 60 112.5t154 45.5q80 0 139 -26l-67 -139h-2l-46 134q-3 9 -6.5 11.5t-13.5 2.5q-50 0 -82 -40.5t-33 -98.5q0 -70 59 -108v-2
q-76 -21 -122 -68.5t-46 -117.5q0 -75 53.5 -126.5t145.5 -51.5q103 0 161 48t58 114q0 44 -21.5 71t-64.5 27q-35 0 -58 -19.5t-23 -47.5q0 -19 14 -32.5t35 -13.5q10 0 21 3v-2q-26 -27 -73 -27q-38 0 -65 22.5t-27 56.5q0 54 83 105l207 127q30 18 30 42q0 13 -11.5 22
t-29.5 9q-11 0 -18 -2l-1 2q35 27 75 27q38 0 62 -19t24 -53q0 -48 -73 -91l-164 -95v-2q56 0 88.5 -39.5t32.5 -94.5z" />
    <glyph glyph-name="quotesingle" unicode="'" horiz-adv-x="189" 
d="M232 667q0 -21 -16 -53l-76 -144h-2l-14 154v13q0 33 16 54.5t45 21.5q22 0 34.5 -13t12.5 -33z" />
    <glyph glyph-name="parenleft" unicode="(" horiz-adv-x="328" 
d="M52 171q0 157 60 290t166 212q53 39 139 65l1 -2q-57 -41 -105 -96q-80 -93 -124.5 -239.5t-44.5 -274.5q0 -187 90 -278l-2 -2q-180 98 -180 325z" />
    <glyph glyph-name="parenright" unicode=")" horiz-adv-x="328" 
d="M292 413q0 -157 -59.5 -290.5t-165.5 -211.5q-52 -38 -139 -65l-1 2q59 42 114 110q75 92 117 234.5t42 265.5q0 186 -89 278l2 2q179 -99 179 -325z" />
    <glyph glyph-name="asterisk" unicode="*" horiz-adv-x="382" 
d="M410 545l-159 3l128 -91l-88 -64l-44 153l-48 -152l-88 64l132 90l-158 -3l34 104l126 -97l-51 151h108l-53 -151l127 95z" />
    <glyph glyph-name="plus" unicode="+" horiz-adv-x="540" 
d="M70 314v18h211v211h19v-211h210v-18h-210v-211h-19v211h-211z" />
    <glyph glyph-name="comma" unicode="," horiz-adv-x="234" 
d="M37 -93q-34 -21 -64 -30v2q28 15 49 39q30 33 39 73q3 12 -9 15q-18 4 -30 19.5t-12 36.5q0 31 22 52t52 21q28 0 46 -19t18 -48q0 -48 -32 -90t-79 -71z" />
    <glyph glyph-name="hyphen" unicode="-" horiz-adv-x="351" 
d="M47 235v19h260v-19h-260z" />
    <glyph glyph-name="period" unicode="." horiz-adv-x="234" 
d="M85 130q28 0 46.5 -17.5t18.5 -44.5q0 -31 -22.5 -53.5t-55.5 -22.5q-27 0 -45 17.5t-18 44.5q0 31 22 53.5t54 22.5z" />
    <glyph glyph-name="slash" unicode="/" horiz-adv-x="380" 
d="M445 731l-476 -884l-16 9l476 882z" />
    <glyph glyph-name="zero" unicode="0" horiz-adv-x="619" 
d="M258 6q57 0 111 82.5t86 204.5t32 238q0 82 -22.5 124t-62.5 42q-57 0 -111 -82.5t-86 -204t-32 -237.5q0 -82 23 -124.5t62 -42.5zM258 -10q-98 0 -156 68.5t-58 179.5q0 131 46 239.5t128.5 172t183.5 63.5q98 0 156 -68t58 -179q0 -201 -102 -338.5t-256 -137.5z" />
    <glyph glyph-name="one" unicode="1" horiz-adv-x="370" 
d="M224 84q-3 -15 7 -22l79 -60v-2h-330v2l105 60q14 8 16 22l104 496q3 17 -8 21l-97 30v2l254 83l2 -1z" />
    <glyph glyph-name="two" unicode="2" horiz-adv-x="518" 
d="M329 713q95 0 147.5 -43.5t52.5 -120.5q0 -43 -15.5 -84t-49.5 -81t-67.5 -72t-92.5 -73t-99 -67t-110 -69h239q21 0 28.5 3t20.5 15l85 83h2l-66 -204h-434v2q180 169 259 250q83 86 125.5 160.5t42.5 161.5q0 55 -21 88.5t-63 33.5q-18 0 -33 -3t-25 -18l-107 -173h-2
l-33 163q110 48 216 48z" />
    <glyph glyph-name="three" unicode="3" horiz-adv-x="512" 
d="M468 212q0 -92 -83 -157t-209 -65q-106 0 -197 37l98 183h2l31 -180q2 -10 6 -14t13 -5q17 -3 32 -3q75 0 121 56.5t46 144.5q0 62 -29.5 103.5t-93.5 49.5v2q92 14 139 72t47 138q0 53 -23 87.5t-63 34.5q-20 0 -32 -3q-16 -4 -25 -17l-108 -173h-2l-33 162
q111 48 214 48q95 0 148 -45.5t53 -112.5q0 -68 -57 -119.5t-140 -65.5v-2q69 -10 107 -52.5t38 -103.5z" />
    <glyph glyph-name="four" unicode="4" horiz-adv-x="564" 
d="M525 179h-142l-20 -95q-3 -13 8 -23l63 -59v-2h-302v2l91 59q16 11 18 23l19 95h-277v2l407 522h103l-106 -505h28q17 0 28 14l132 168h2zM21 198h243l89 426z" />
    <glyph glyph-name="five" unicode="5" horiz-adv-x="514" 
d="M483 242q0 -111 -85.5 -181.5t-216.5 -70.5q-106 0 -197 36l99 183h2l30 -178q2 -12 6.5 -15.5t17.5 -5.5q9 -2 32 -2q74 0 123 65t49 149q0 74 -32.5 114t-90.5 40q-62 0 -123 -36l-2 1l82 364q21 -7 194 -7h56q75 0 107 29l23 21h2l-26 -86q-13 -42 -36 -58t-69 -16
h-80q-68 0 -176 7l-51 -225q79 56 176 56q78 0 132 -52.5t54 -131.5z" />
    <glyph glyph-name="six" unicode="6" horiz-adv-x="570" 
d="M263 -9q-100 0 -159.5 70t-59.5 190q0 63 14.5 126.5t45 124t73.5 107.5t105 75.5t135 28.5q94 0 184 -32l-89 -178h-2l-46 176q-2 9 -5.5 11t-14.5 4q-9 1 -27 1q-75 0 -133 -93t-89 -228q63 62 156 62q75 0 129.5 -51t54.5 -134q0 -111 -74.5 -185.5t-197.5 -74.5z
M299 402q-61 0 -107 -42q-20 -90 -20 -179q0 -82 24.5 -127t67.5 -45q68 0 104.5 65.5t36.5 156.5q0 86 -24 128.5t-82 42.5z" />
    <glyph glyph-name="seven" unicode="7" horiz-adv-x="478" 
d="M200 0h-161v2q99 165 221 337t194 257v2h-285q-20 0 -37 -16l-71 -69h-2l60 190h452v-2l-80 -84q-17 -19 -28 -38q-90 -159 -263 -579z" />
    <glyph glyph-name="eight" unicode="8" horiz-adv-x="537" 
d="M501 201q0 -96 -80 -153.5t-185 -57.5q-96 0 -158 45.5t-62 121.5q0 75 58 123.5t141 64.5l-26 22q-75 62 -75 149q0 93 72.5 145t168.5 52q79 0 134 -42.5t55 -108.5q0 -69 -49 -112t-127 -59l31 -25q49 -39 75.5 -77t26.5 -88zM309 268l-87 72q-111 -66 -111 -179
q0 -66 34.5 -110t97.5 -44q55 0 93.5 40.5t38.5 101.5q0 63 -66 119zM230 581q0 -76 64 -130l66 -54q47 30 69.5 69.5t22.5 97.5q0 63 -28.5 98t-80.5 35q-49 0 -81 -33.5t-32 -82.5z" />
    <glyph glyph-name="nine" unicode="9" horiz-adv-x="572" 
d="M345 713q103 0 163 -70t60 -191q0 -63 -14.5 -126.5t-45 -124t-73.5 -107t-105 -75t-135 -28.5q-99 0 -185 32l90 177h2l45 -175q3 -14 20 -16q10 -1 28 -1q51 0 97 48t76 118.5t49 156.5q-62 -65 -151 -65q-81 0 -135 51t-54 135q0 111 74 186t194 75zM313 302
q61 0 107 43q20 97 20 178q0 82 -25 126.5t-70 44.5q-66 0 -102 -65.5t-36 -156.5q0 -82 27 -126t79 -44z" />
    <glyph glyph-name="colon" unicode=":" horiz-adv-x="234" 
d="M85 130q28 0 46.5 -17.5t18.5 -44.5q0 -31 -22.5 -53.5t-55.5 -22.5q-27 0 -45 17.5t-18 44.5q0 31 22 53.5t54 22.5zM153 460q28 0 46.5 -17.5t18.5 -45.5q0 -30 -22.5 -52.5t-55.5 -22.5q-27 0 -45 17.5t-18 44.5q0 31 22 53.5t54 22.5z" />
    <glyph glyph-name="semicolon" unicode=";" horiz-adv-x="234" 
d="M52 6q-18 4 -30 19.5t-12 36.5q0 31 22 52t52 21q28 0 46 -19t18 -48q0 -48 -32 -90t-79 -71q-34 -21 -64 -30v2q28 15 49 39q30 33 39 73q3 12 -9 15zM153 460q28 0 46.5 -17.5t18.5 -45.5q0 -30 -22.5 -52.5t-55.5 -22.5q-27 0 -45 17.5t-18 44.5q0 31 22 53.5t54 22.5
z" />
    <glyph glyph-name="less" unicode="&#x3c;" horiz-adv-x="540" 
d="M70 324l390 179l7 -17l-355 -163l355 -163l-7 -17l-390 179v2z" />
    <glyph glyph-name="equal" unicode="=" horiz-adv-x="540" 
d="M70 404v18h440v-18h-440zM70 225v18h440v-18h-440z" />
    <glyph glyph-name="greater" unicode="&#x3e;" horiz-adv-x="540" 
d="M510 322l-390 -179l-7 17l355 163l-355 163l7 17l390 -179v-2z" />
    <glyph glyph-name="question" unicode="?" horiz-adv-x="442" 
d="M202 220q-28 1 -47 23.5t-19 50.5q0 30 17 57t42.5 45.5t55.5 40.5t55.5 42.5t42.5 50.5t17 64q0 100 -81 100q-22 0 -32 -2q-19 -4 -27 -17l-111 -173h-2l-31 163q106 48 219 48q90 0 141.5 -38.5t51.5 -105.5q0 -39 -17.5 -72.5t-48 -59t-61.5 -45.5t-69.5 -43
t-59.5 -39q-41 -32 -41 -64q0 -13 6 -24zM154 130q28 0 46 -17t18 -45q0 -31 -22 -53.5t-55 -22.5q-27 0 -45.5 17.5t-18.5 44.5q0 31 22.5 53.5t54.5 22.5z" />
    <glyph glyph-name="at" unicode="@" horiz-adv-x="1006" 
d="M957 330q0 -145 -75 -241.5t-183 -96.5q-68 0 -110.5 35t-42.5 103q0 27 5 48l-3 1q-65 -187 -163 -187q-47 0 -77.5 38.5t-30.5 112.5q0 134 77 244.5t177 110.5q68 0 91 -51l124 52l2 -2l-76 -290q-15 -57 -15 -98q0 -93 70 -93q80 0 145.5 89t65.5 224q0 157 -108 257
t-281 100q-206 0 -342.5 -139.5t-136.5 -354.5q0 -189 122 -295.5t303 -106.5q120 0 250 77l8 -16q-125 -79 -259 -79q-89 0 -168 27t-141 77.5t-98 132t-36 183.5q0 223 142 367.5t357 144.5q181 0 294 -106t113 -268zM536 175q11 27 41.5 127.5t38.5 137.5q-12 23 -46 23
q-57 0 -101 -74q-30 -49 -50 -120t-20 -133q0 -77 42 -77q46 0 95 116z" />
    <glyph glyph-name="A" unicode="A" horiz-adv-x="621" 
d="M401 88l-19 158h-228l-62 -115q-6 -12 -5 -16.5t10 -17.5l66 -95v-2h-230v2l108 95q21 18 32 39l252 465q8 16 7.5 21t-7.5 15l-43 64v2h176l73 -608q2 -20 14 -40l31 -53v-2h-257v2l74 60q11 8 8 26zM342 593l-178 -328h216z" />
    <glyph glyph-name="B" unicode="B" horiz-adv-x="633" 
d="M113 703h309q99 0 152.5 -36t53.5 -106q0 -78 -60 -130.5t-155 -58.5l-1 -3q80 -4 125.5 -46t45.5 -109q0 -99 -82.5 -156.5t-212.5 -57.5h-321v2l88 54q13 8 17 23l113 545q4 15 -7 23l-65 54v2zM316 356h-58l-65 -313q-4 -16 1 -20t26 -4h26q95 0 147 61t52 154
q0 122 -129 122zM322 661l-60 -287h56q74 0 124 55t50 146q0 53 -28 81t-78 28h-40q-11 0 -16 -4.5t-8 -18.5z" />
    <glyph glyph-name="C" unicode="C" horiz-adv-x="590" 
d="M300 -10q-125 0 -193.5 76.5t-68.5 198.5q0 120 49 222t140 164t204 62q110 0 198 -23l-49 -229h-2l-79 214q-4 12 -8.5 15t-14.5 5q-14 2 -30 2q-78 0 -141 -75t-94.5 -184t-31.5 -223q0 -92 32.5 -150.5t99.5 -58.5q18 0 28 1q20 2 30 16l165 219h2l-46 -230
q-97 -22 -190 -22z" />
    <glyph glyph-name="D" unicode="D" horiz-adv-x="684" 
d="M114 703h293q121 0 198 -73.5t77 -195.5q0 -182 -122.5 -308t-300.5 -126h-292v2l89 54q13 9 17 23l113 545q4 15 -7 23l-65 54v2zM346 684q-11 0 -15.5 -3.5t-7.5 -16.5l-129 -621q-4 -17 -0.5 -20.5t22.5 -3.5h19q107 0 178.5 77.5t105.5 203.5q24 86 24 193
q0 91 -43 141t-113 50h-41z" />
    <glyph glyph-name="E" unicode="E" horiz-adv-x="591" 
d="M209 19h145q17 0 23.5 2.5t14.5 12.5l143 194h2l-46 -228h-524v2l89 54q13 9 17 23l113 545q4 15 -7 23l-66 54v2h513l-47 -228h-2l-64 191q-4 12 -9 15t-17 3h-140q-13 0 -17 -4t-7 -19l-62 -296h97q16 1 34 19l94 94h2l-51 -244h-2l-55 95q-7 12 -11.5 15t-14.5 3h-97
l-63 -305q-3 -15 -0.5 -19t15.5 -4z" />
    <glyph glyph-name="F" unicode="F" horiz-adv-x="562" 
d="M113 703h512l-47 -228h-2l-63 191q-4 12 -9 15t-18 3h-139q-13 0 -17 -4t-7 -18l-62 -297h96q16 1 34 19l94 94h2l-51 -244h-2l-54 95q-7 11 -12 14.5t-15 3.5h-96l-55 -263q-4 -15 8 -22l95 -60v-2h-338v2l88 54q13 9 17 23l113 545q3 14 -7 23l-65 54v2z" />
    <glyph glyph-name="G" unicode="G" horiz-adv-x="657" 
d="M179 212q0 -98 35 -150.5t102 -52.5q37 0 82 16l42 203q3 18 -5 26l-57 55v2h287v-2l-79 -55q-13 -8 -16 -26l-50 -238l-108 22q-61 -22 -113 -22q-123 0 -192 77t-69 203q0 123 50.5 223.5t146.5 160t218 59.5q111 0 202 -22l-46 -227h-2l-81 210q-5 11 -9 15t-15 5
q-12 2 -35 2q-59 0 -108 -30t-81.5 -79t-55.5 -113t-33 -130t-10 -132z" />
    <glyph glyph-name="H" unicode="H" horiz-adv-x="740" 
d="M532 370l53 254q3 16 -7 23l-66 54v2h306v-2l-88 -54q-14 -9 -16 -23l-113 -545q-4 -15 6 -23l65 -54v-2h-306v2l88 54q13 9 17 23l57 272h-269l-57 -272q-4 -15 6 -23l66 -54v-2h-307v2l89 54q13 9 17 23l113 545q4 15 -7 23l-66 54v2h307v-2l-88 -54q-14 -8 -16 -23
l-53 -254h269z" />
    <glyph glyph-name="I" unicode="I" horiz-adv-x="342" 
d="M316 624l-114 -545q-4 -15 6 -23l66 -54v-2h-307v2l89 54q13 9 17 23l113 545q4 15 -7 23l-66 54v2h307v-2l-88 -54q-14 -8 -16 -23z" />
    <glyph glyph-name="J" unicode="J" horiz-adv-x="316" 
d="M306 624l-118 -564q-51 -247 -311 -271v2q139 63 176 242l124 591q2 15 -7 23l-66 54v2h307v-2l-89 -54q-14 -9 -16 -23z" />
    <glyph glyph-name="K" unicode="K" horiz-adv-x="659" 
d="M316 624l-114 -545q-4 -15 6 -23l66 -54v-2h-307v2l89 54q13 9 17 23l113 545q4 15 -7 23l-66 54v2h307v-2l-88 -54q-14 -9 -16 -23zM530 92q10 -19 23 -34l53 -56v-2h-175l-164 348l286 246q18 14 4 31l-65 76v2h284v-2l-152 -80q-33 -17 -53 -34l-196 -168z" />
    <glyph glyph-name="L" unicode="L" horiz-adv-x="559" 
d="M316 624l-121 -582q-3 -15 -1 -19t15 -4h125q25 0 36 15l155 206h2l-49 -240h-511v2l89 55q14 9 17 22l113 545q4 15 -7 23l-66 54v2h307v-2l-88 -54q-14 -8 -16 -23z" />
    <glyph glyph-name="M" unicode="M" horiz-adv-x="864" 
d="M220 530q-7 34 -11 62l-96 -461q-3 -17 8 -31l76 -98v-2h-242v2l118 98q16 13 20 31l97 465q4 16 -5 27l-66 78v2h192l119 -527l319 527h191v-2l-89 -59q-14 -9 -16 -22l-113 -542q-4 -15 6 -22l66 -54v-2h-307v2l89 54q12 8 16 22l93 445q6 29 17 67l-360 -596h-2z" />
    <glyph glyph-name="N" unicode="N" horiz-adv-x="681" 
d="M292 703l242 -580l94 449q4 17 -8 31l-78 98v2h245v-2l-118 -98q-18 -14 -21 -31l-119 -572h-82l-239 570l-91 -439q-2 -12 -1 -17t9 -14l77 -98v-2h-244v2l118 98q18 14 21 31l94 449q5 20 -5 33l-73 88v2h179z" />
    <glyph glyph-name="O" unicode="O" horiz-adv-x="685" 
d="M412 713q129 0 201 -77.5t72 -203.5q0 -184 -108.5 -313t-264.5 -129q-130 0 -201.5 77.5t-71.5 203.5q0 184 108 313t265 129zM303 7q67 0 125 83.5t88 196t30 213.5q0 196 -125 196q-67 0 -125 -83.5t-88 -196t-30 -213.5q0 -196 125 -196z" />
    <glyph glyph-name="P" unicode="P" horiz-adv-x="622" 
d="M113 703h310q98 0 157 -44t59 -132q0 -118 -94 -188.5t-235 -70.5h-69l-37 -182q-4 -18 8 -25l95 -59v-2h-340v2l89 54q13 9 17 23l113 545q4 15 -7 23l-66 54v2zM323 663l-78 -376h51q87 0 146.5 73t59.5 191q0 65 -30.5 99t-80.5 34h-43q-20 0 -25 -21z" />
    <glyph glyph-name="Q" unicode="Q" horiz-adv-x="685" 
d="M411 713q129 0 201 -77.5t72 -203.5q0 -184 -108 -313t-265 -129q-59 0 -108 17l-71 -52l204 -70q65 -21 123 -21q59 0 118 36l45 27l2 -2l-63 -79q-64 -82 -164 -82q-57 0 -132 27l-182 69q-37 12 -61 12q-17 0 -31 -2l-1 2l195 142q-71 32 -109 99t-38 158
q0 184 108 313t265 129zM302 7q67 0 125 83.5t88 196t30 213.5q0 196 -125 196q-67 0 -125 -83.5t-88 -196t-30 -213.5q0 -196 125 -196z" />
    <glyph glyph-name="R" unicode="R" horiz-adv-x="639" 
d="M289 328h-43l-51 -243q-5 -22 5 -30l59 -53v-2h-292v2l86 57q3 2 5 4t3 5t1.5 5t1.5 7.5t2 8.5l111 529q5 22 -5 30l-59 53v2h324q89 0 143 -42.5t54 -113.5q0 -91 -69 -149.5t-171 -63.5l-1 -2l63 -35l73 -216q5 -14 29 -40l38 -39v-2h-176l-108 314q-5 14 -23 14z
M315 659l-65 -313h78q70 0 119 60.5t49 151.5q0 128 -103 128h-50q-14 0 -19.5 -6t-8.5 -21z" />
    <glyph glyph-name="S" unicode="S" horiz-adv-x="528" 
d="M489 207q0 -90 -78 -153.5t-192 -63.5q-135 0 -214 33l57 216h2l63 -207q5 -16 20 -20q23 -5 55 -5q65 0 112.5 36.5t47.5 103.5q0 43 -23.5 77t-72.5 70l-59 44q-102 74 -102 176q0 86 66.5 142.5t167.5 56.5q103 0 204 -27l-46 -210h-2l-72 199q-5 14 -18 17
q-25 5 -47 5q-60 0 -100.5 -31.5t-40.5 -89.5q0 -76 107 -153l59 -43q54 -38 80 -78t26 -95z" />
    <glyph glyph-name="T" unicode="T" horiz-adv-x="605" 
d="M333 83q-4 -16 7 -24l71 -57v-2h-319v2l94 57q13 8 17 24l126 601h-87q-13 0 -18 -2.5t-14 -16.5l-145 -209h-2l51 247h567l-51 -247h-2l-59 209q-4 13 -8 16t-16 3h-87z" />
    <glyph glyph-name="U" unicode="U" horiz-adv-x="651" 
d="M279 -10q-97 0 -149 48.5t-52 130.5q0 28 6 58l82 394q2 16 -7 24l-60 56v2h300v-2l-87 -56q-13 -8 -17 -24l-79 -384q-9 -45 -9 -81q0 -135 126 -135q158 0 206 229l67 319q4 15 2 24.5t-13 21.5l-73 86v2h241v-2l-110 -87q-22 -16 -27 -45l-67 -318q-27 -129 -90 -195
t-190 -66z" />
    <glyph glyph-name="V" unicode="V" horiz-adv-x="591" 
d="M582 567l-299 -567h-82l-77 608q-3 22 -13 40l-32 53v2h257v-2l-73 -60q-12 -9 -9 -26l64 -508l244 461q6 14 5 19.5t-9 16.5l-68 97v2h230v-2l-104 -93q-23 -20 -34 -41z" />
    <glyph glyph-name="W" unicode="W" horiz-adv-x="957" 
d="M948 567l-298 -567h-85l-48 443l-235 -443h-86l-72 608q-3 22 -13 40l-32 53v2h257v-2l-73 -60q-11 -10 -9 -25l60 -515l199 375l-14 132q-2 15 -13 39l-26 54v2h250v-2l-74 -60q-10 -8 -9 -24l55 -513l245 464q10 19 -3 36l-68 97v2h230v-2l-104 -93q-24 -22 -34 -41z
" />
    <glyph glyph-name="X" unicode="X" horiz-adv-x="656" 
d="M557 578l-153 -168l137 -319q7 -15 24 -34l49 -55v-2h-280v2l64 50q10 8 11 12.5t-3 13.5l-96 222l-166 -183q-10 -11 -11.5 -16t3.5 -12l68 -87v-2h-262v2l132 81q34 21 53 42l176 193l-126 294q-10 21 -23 34l-49 55v2h279v-2l-64 -50q-14 -10 -7 -26l84 -197l143 158
q10 11 11.5 16t-3.5 12l-68 87v2h262v-2l-131 -81q-38 -24 -54 -42z" />
    <glyph glyph-name="Y" unicode="Y" horiz-adv-x="601" 
d="M375 278l-41 -197q-2 -10 -1 -13.5t8 -8.5l72 -57v-2h-320v2l95 57q13 8 16 22l38 183q4 16 0 28l-107 317q-7 19 -19 37l-39 55v2h276v-2l-75 -59q-12 -9 -8 -21l98 -306l190 264q10 14 2 27l-65 95v2h237v-2l-118 -93q-27 -21 -39 -38l-185 -255q-10 -14 -15 -37z" />
    <glyph glyph-name="Z" unicode="Z" horiz-adv-x="580" 
d="M496 0h-530v2l539 682h-202q-23 0 -34 -13l-164 -217h-2l51 249h512v-2l-542 -682h221q24 0 33 13l167 214h2z" />
    <glyph glyph-name="bracketleft" unicode="[" horiz-adv-x="351" 
d="M252 648l-147 -711q-2 -8 -0.5 -11t8.5 -5l147 -47v-2l-258 -14l179 869l252 -14v-2l-166 -47q-9 -2 -11 -4.5t-4 -11.5z" />
    <glyph glyph-name="backslash" unicode="\" horiz-adv-x="380" 
d="M244 -152l-114 887l18 3l114 -888z" />
    <glyph glyph-name="bracketright" unicode="]" horiz-adv-x="351" 
d="M116 -63l147 711q2 8 0.5 10.5t-9.5 5.5l-146 47v2l258 14l-179 -869l-253 14v2l167 47q9 2 11 4.5t4 11.5z" />
    <glyph glyph-name="asciicircum" unicode="^" horiz-adv-x="540" 
d="M290 713l179 -390l-16 -8l-164 356l-163 -356l-17 8l179 390h2z" />
    <glyph glyph-name="underscore" unicode="_" horiz-adv-x="500" 
d="M445 -91h-490v18h490v-18z" />
    <glyph glyph-name="grave" unicode="`" horiz-adv-x="347" 
d="M45 703h142l114 -163l-1 -1l-255 162v2z" />
    <glyph glyph-name="a" unicode="a" horiz-adv-x="522" 
d="M467 100q22 37 40 102h2q-14 -90 -57 -150t-102 -60q-32 0 -51 20t-19 59q0 33 19 113h-2q-66 -192 -167 -192q-46 0 -76.5 39.5t-30.5 113.5q0 86 34.5 167.5t94 133.5t124.5 52q66 0 91 -51l125 51h2q-10 -43 -94 -356q-8 -35 -8 -53q0 -31 23 -31q27 0 52 42zM362 440
q-12 23 -47 23q-54 0 -100 -71q-30 -49 -49.5 -120t-19.5 -134q0 -79 41 -79t81 82q41 87 94 299z" />
    <glyph glyph-name="b" unicode="b" horiz-adv-x="485" 
d="M278 724l-93 -415h2q62 189 167 189q47 0 77.5 -36.5t30.5 -117.5q0 -139 -82.5 -245.5t-175.5 -106.5q-63 0 -83 48l-117 -48h-1l140 657q3 13 1.5 16.5t-10.5 6.5l-75 30v2zM223 364q-46 -85 -97 -318q12 -19 44 -19q77 0 126 124q43 107 43 199q0 82 -40 82
q-38 0 -76 -68z" />
    <glyph glyph-name="c" unicode="c" horiz-adv-x="419" 
d="M187 -8q-73 0 -119.5 50t-46.5 139q0 125 82 221t205 96q67 0 121 -22l-70 -178h-2l-41 168q-3 11 -5.5 13.5t-10.5 2.5q-42 0 -78 -49t-55 -114t-19 -123q0 -64 25.5 -95.5t65.5 -31.5q45 0 85 37t63 110h2q-19 -113 -73 -168.5t-129 -55.5z" />
    <glyph glyph-name="d" unicode="d" horiz-adv-x="522" 
d="M435 30q-36 -38 -81 -38q-73 0 -74 78q0 38 20 114h-2q-66 -192 -168 -192q-45 0 -76 41.5t-31 113.5q0 139 77.5 245t175.5 106q62 0 81 -47l45 198q3 13 1 16t-11 7l-75 30v2l220 20l-137 -587q-7 -28 -7 -46q0 -33 24 -33q53 0 89 144h2q-16 -115 -73 -172zM272 150
q39 89 83 290v3q-18 19 -45 19q-55 0 -97 -70q-32 -51 -49.5 -121.5t-17.5 -129.5q0 -82 41 -82q22 0 44.5 25.5t40.5 65.5z" />
    <glyph glyph-name="e" unicode="e" horiz-adv-x="445" 
d="M248 67q50 0 94.5 38.5t65.5 111.5h2q-10 -61 -33 -106.5t-53 -70.5t-62.5 -36.5t-67.5 -11.5q-76 0 -124.5 51.5t-48.5 141.5q0 121 83.5 217t200.5 96q59 0 96 -28t37 -73q0 -76 -89 -123.5t-198 -38.5q-3 -19 -3 -40q0 -61 25.5 -94.5t74.5 -33.5zM297 482
q-46 0 -89 -75t-56 -163q80 0 129.5 50t49.5 126q0 62 -34 62z" />
    <glyph glyph-name="f" unicode="f" horiz-adv-x="281" 
d="M352 465h-122l-58 -301q-16 -83 -38.5 -151t-55.5 -126t-79.5 -90.5t-102.5 -32.5q-51 0 -83 22l62 158h2l43 -139q6 -18 16 -18q14 0 25 15q19 26 36 79.5t26.5 98.5t26.5 134l57 301q6 34 10 50h-76v19h81q29 109 82 169t144 60q65 0 116 -21l-62 -149h-2l-45 138
q-4 11 -7 13.5t-14 2.5q-21 0 -37.5 -16.5t-28.5 -51.5t-19 -65t-16 -80h119v-19z" />
    <glyph glyph-name="g" unicode="g" horiz-adv-x="475" 
d="M500 436h-90q30 -35 30 -83q0 -83 -64 -132.5t-150 -49.5q-38 0 -67 10q-19 -5 -32 -16.5t-13 -23.5q0 -27 53 -38l119 -26q63 -14 94.5 -49t31.5 -83q0 -79 -73 -130t-174 -51q-90 0 -153 33.5t-63 92.5q0 45 40 75t102 42q-73 23 -73 77q0 37 33.5 64t96.5 36
q-43 16 -68 49.5t-25 81.5q0 82 63.5 132.5t150.5 50.5q65 0 116 -36q13 -9 22 0l125 136h2zM113 1q-3 0 -15 4q-67 -39 -67 -107q0 -52 43 -85t101 -33q61 0 101 30.5t40 80.5q0 64 -93 85zM276 483q-48 0 -78 -68t-30 -142q0 -87 49 -87q33 0 59 34.5t38 81.5t12 92
q0 89 -50 89z" />
    <glyph glyph-name="h" unicode="h" horiz-adv-x="520" 
d="M478 415q0 -36 -25 -116l-45 -142q-15 -47 -15 -70q0 -27 23 -27q24 0 45 30q26 35 45 112h2q-12 -97 -59.5 -153.5t-105.5 -56.5q-34 0 -54 19.5t-20 54.5q0 34 24 108l49 150q18 56 18 78q0 30 -29 30q-57 0 -107 -85q-49 -87 -109 -347h-115l151 649q3 13 1.5 16.5
t-10.5 6.5l-76 30v2l220 20l-103 -436h2q37 99 93 154.5t116 55.5q39 0 61.5 -22.5t22.5 -60.5z" />
    <glyph glyph-name="i" unicode="i" horiz-adv-x="285" 
d="M259 498l-90 -338q-15 -58 -15 -73q0 -27 22 -27q24 0 45 29q29 40 45 113h2q-9 -81 -54.5 -145.5t-106.5 -64.5q-33 0 -52 20.5t-19 55.5q0 30 12 80l74 279q5 18 -10 23l-75 30v2zM231 692q28 0 46 -17t18 -44q0 -31 -22.5 -52t-54.5 -21q-28 0 -46 16.5t-18 43.5
q0 31 22.5 52.5t54.5 21.5z" />
    <glyph glyph-name="j" unicode="j" horiz-adv-x="263" 
d="M51 103l67 325q4 18 -11 23l-74 29v2l221 16l-87 -370q-85 -364 -290 -364q-46 0 -80 22l64 158h2l43 -143q4 -14 15 -14q9 0 22 11q55 48 108 305zM154 618q0 31 22.5 52.5t54.5 21.5q28 0 46 -17t18 -44q0 -31 -22.5 -52t-54.5 -21q-28 0 -46 16.5t-18 43.5z" />
    <glyph glyph-name="k" unicode="k" horiz-adv-x="486" 
d="M339 130q7 -39 16 -54.5t26 -15.5q24 0 47 34q24 37 41 108h2q-11 -98 -59 -154t-103 -56q-38 0 -54.5 21.5t-24.5 72.5l-21 142q-3 22 -11 32t-21 5l-60 -265h-115l144 649q3 13 1 16t-11 7l-75 30v2l219 20l-102 -453l164 121q19 14 19 20q0 7 -14 21l-45 47v2h232v-2
l-117 -61q-40 -22 -52 -31l-62 -46z" />
    <glyph glyph-name="l" unicode="l" horiz-adv-x="262" 
d="M186 43q-46 -51 -96 -51q-34 0 -53 21.5t-19 55.5q0 28 12 80l115 500q3 12 1 16t-10 7l-75 30v2l219 20l-131 -566q-12 -50 -12 -69q0 -29 23 -29t44 29q29 39 45 113h2q-11 -99 -65 -159z" />
    <glyph glyph-name="m" unicode="m" horiz-adv-x="798" 
d="M620 -8q-34 0 -53.5 19.5t-19.5 55.5q0 35 24 107l48 150q18 56 18 79q0 29 -28 29q-38 0 -73 -42q-36 -43 -64 -119t-74 -271h-117l79 325q16 69 16 80q0 27 -25 27q-39 0 -79 -51q-32 -42 -63 -123t-70 -258h-116l99 424q2 10 2 14.5t-2 7t-9 5.5l-75 29v2l221 16
l-51 -207h2q34 90 90 148.5t110 58.5q36 0 60.5 -22t24.5 -65q0 -26 -27 -115h2q35 95 90.5 148.5t112.5 53.5q38 0 60.5 -23t22.5 -60q0 -33 -26 -116l-44 -142q-15 -47 -15 -70q0 -27 22 -27q24 0 45 30q30 43 45 112h2q-12 -97 -59.5 -153.5t-105.5 -56.5z" />
    <glyph glyph-name="n" unicode="n" horiz-adv-x="546" 
d="M369 -8q-34 0 -54 19.5t-20 54.5q0 34 24 108l48 150q18 56 18 79q0 29 -30 29q-52 0 -100 -76q-55 -86 -116 -356h-116l99 424q2 10 2 14.5t-2 7t-9 5.5l-75 29v2l221 16l-51 -208h2q36 96 92.5 152t117.5 56q39 0 61.5 -22.5t22.5 -60.5q0 -33 -26 -116l-44 -142
q-15 -47 -15 -70q0 -27 22 -27q24 0 45 30q30 43 45 112h2q-12 -96 -59 -153t-105 -57z" />
    <glyph glyph-name="o" unicode="o" horiz-adv-x="489" 
d="M193 -9q-74 0 -122.5 46t-48.5 142q0 127 80 223t193 96q74 0 123 -46.5t49 -141.5q0 -128 -80.5 -223.5t-193.5 -95.5zM196 6q38 0 73 62.5t54.5 148.5t19.5 163q0 103 -49 103q-38 0 -73 -62.5t-54.5 -148.5t-19.5 -163q0 -103 49 -103z" />
    <glyph glyph-name="p" unicode="p" horiz-adv-x="509" 
d="M228 -8q-57 0 -84 30l-43 -181q-3 -11 -1.5 -14.5t10.5 -7.5l108 -45v-2h-305v2l52 36q15 11 19 28l138 587q3 14 1.5 17.5t-10.5 7.5l-75 30v2l221 16l-51 -205h2q73 205 173 205q46 0 76 -37t30 -106q0 -153 -80.5 -258t-180.5 -105zM147 35l-1 -5q18 -10 40 -10
q65 0 116 87q62 107 64 255q0 70 -38 70q-39 0 -85 -90q-40 -76 -96 -307z" />
    <glyph glyph-name="q" unicode="q" horiz-adv-x="489" 
d="M132 -8q-50 0 -79.5 40t-29.5 109q0 143 79 250t173 107q71 0 92 -52l118 52h2l-150 -656q-4 -18 8 -26l57 -42v-2h-294v2l93 46q17 9 21 28l78 336h-2q-69 -192 -166 -192zM272 149q42 93 89 293q-13 21 -47 21q-64 0 -114 -96q-25 -50 -39.5 -114t-14.5 -118
q0 -76 42 -76q43 0 84 90z" />
    <glyph glyph-name="r" unicode="r" horiz-adv-x="388" 
d="M428 485l-71 -193h-2l-38 124q-3 9 -9 9q-9 0 -21 -12q-21 -21 -45 -70q-22 -43 -42 -109t-57 -234h-115l92 423q3 15 1.5 19t-12.5 9l-74 29v2l221 16l-47 -199h2q38 102 76.5 150.5t90.5 48.5q30 0 50 -13z" />
    <glyph glyph-name="s" unicode="s" horiz-adv-x="388" 
d="M343 149q0 -58 -50.5 -107.5t-143.5 -49.5q-83 0 -152 36l60 166h2l49 -171q3 -13 16 -15q9 -2 27 -2q45 0 69 25t24 62q0 27 -18.5 48.5t-70.5 64.5q-48 39 -70.5 71.5t-22.5 73.5q0 61 49 104t131 43q70 0 139 -25l-56 -162h-2l-51 160q-4 13 -16 13h-10
q-42 0 -65.5 -22t-23.5 -57q0 -28 22.5 -55.5t69.5 -63.5q48 -36 71 -66.5t23 -70.5z" />
    <glyph glyph-name="t" unicode="t" horiz-adv-x="297" 
d="M202 39q-45 -47 -94 -47q-33 0 -52.5 21t-19.5 52q0 27 13 83l75 316h-79v18h74q15 0 22 8l145 190h2l-46 -198h113v-18h-117l-70 -306q-13 -54 -13 -70q0 -28 23 -28q22 0 41 25q34 45 49 117h2q-12 -103 -68 -163z" />
    <glyph glyph-name="u" unicode="u" horiz-adv-x="551" 
d="M469 31q-39 -39 -86 -39q-34 0 -53 20t-19 58q0 54 23 131h-2q-36 -96 -91.5 -152.5t-112.5 -56.5q-38 0 -61 23t-23 60q0 36 26 116l44 142q15 47 15 70q0 28 -22 28q-23 0 -46 -30q-27 -38 -44 -110l-2 1q14 95 60.5 150.5t103.5 55.5q34 0 54 -19.5t20 -53.5t-24 -108
l-48 -151q-18 -56 -18 -79q0 -30 32 -30q41 0 92 78q26 41 51.5 116t64.5 235l117 7l-88 -357q-7 -27 -7 -50q0 -27 23 -27q26 0 47 32q26 36 44 111h2q-16 -115 -72 -171z" />
    <glyph glyph-name="v" unicode="v" horiz-adv-x="445" 
d="M370 306q0 74 -33 123l-18 25v2l133 42q0 -73 -23.5 -160.5t-62.5 -164.5t-97.5 -129t-120.5 -52q-49 0 -73.5 30t-24.5 75q0 40 22 116l33 114q15 51 15 74q0 28 -22 28q-23 0 -44 -27.5t-48 -86.5h-2q57 183 165 183q73 0 73 -80q0 -36 -27 -124l-32 -104
q-15 -45 -15 -76q0 -27 12.5 -45.5t38.5 -18.5q57 0 104 84t47 172z" />
    <glyph glyph-name="w" unicode="w" horiz-adv-x="683" 
d="M609 306q0 73 -30 120q-2 4 -9.5 15.5t-8.5 12.5v2l130 42q-2 -104 -41 -220t-109.5 -201t-147.5 -85q-37 0 -61 23.5t-24 72.5q0 32 12 76h-2q-55 -172 -169 -172q-50 0 -74.5 29.5t-24.5 74.5q0 39 22 115l33 116q15 51 15 74q0 28 -22 28q-41 0 -92 -114h-2
q57 183 165 183q73 0 73 -80q0 -38 -27 -124l-34 -109q-15 -49 -15 -79q0 -26 11.5 -40.5t30.5 -14.5q59 0 103 126q42 119 63 304l118 17q-6 -45 -15 -95t-15.5 -78t-20 -82.5t-16.5 -66.5q-10 -46 -10 -63q0 -62 48 -62q51 0 98.5 81.5t47.5 173.5z" />
    <glyph glyph-name="x" unicode="x" horiz-adv-x="483" 
d="M296 -8q-33 0 -52.5 21t-29.5 70l-18 89q-15 -33 -25 -52q-37 -70 -66.5 -99t-67.5 -29q-37 0 -60 23l67 172h2l28 -101q5 -17 19 -17q9 0 20 8q37 27 81 110l-35 181q-11 60 -40 60q-25 0 -49.5 -33.5t-40.5 -92.5h-2q13 88 61 142t99 54q34 0 53.5 -20.5t29.5 -68.5
l18 -93q4 7 13.5 27.5t12.5 25.5q36 70 66 99.5t69 29.5q38 0 60 -23l-67 -171h-2l-28 101q-4 16 -18 16q-9 0 -19 -7q-36 -24 -84 -111l34 -179q11 -61 40 -61q25 0 48.5 34.5t40.5 95.5h2q-14 -90 -61 -145.5t-99 -55.5z" />
    <glyph glyph-name="y" unicode="y" horiz-adv-x="453" 
d="M373 325q0 79 -48 129v2l135 42q-13 -138 -67.5 -273t-133.5 -239q-76 -100 -163.5 -161t-150.5 -61q-18 0 -28 5l52 152h2l81 -87q9 -11 23 -3q32 19 80 67q7 7 7 22v20q-1 127 -17.5 256t-36.5 187q-12 36 -31 36q-33 0 -71 -114h-2q17 84 52.5 138.5t85.5 54.5
q34 0 53.5 -24.5t32.5 -71.5q18 -63 29 -168t8 -210h2q41 62 68 129q38 96 38 172z" />
    <glyph glyph-name="z" unicode="z" horiz-adv-x="388" 
d="M116 395q-27 0 -47.5 -20.5t-37.5 -80.5h-2q36 207 140 207q30 0 100 -28q55 -22 72 -22q55 0 69 60h2q-4 -60 -58 -115l-246 -256q30 -3 85.5 -22.5t83.5 -19.5q29 0 54 23.5t46 94.5h2q-15 -97 -61 -164q-41 -62 -98 -62q-29 0 -90 22q-62 24 -80 24q-43 0 -55 -50h-2
q0 17 2 27q7 43 48 87l240 248q-31 4 -78 24q-54 23 -89 23z" />
    <glyph glyph-name="braceleft" unicode="{" horiz-adv-x="352" 
d="M201 178l-50 -166q-17 -55 8 -101.5t102 -42.5v-2q-34 -8 -65 -8q-71 0 -116.5 51.5t-21.5 127.5l51 167q11 35 -7 59.5t-58 28.5v2q42 5 70 27t31 53l18 172q7 65 42.5 108t78.5 58.5t92 15.5q32 0 62 -8v-2q-75 4 -120.5 -44.5t-51.5 -102.5l-19 -171q-4 -40 -35 -68.5
t-73 -37.5v-2q37 -9 55.5 -42t6.5 -72z" />
    <glyph glyph-name="bar" unicode="|" horiz-adv-x="219" 
d="M15 -250l-18 4l206 996l18 -4z" />
    <glyph glyph-name="braceright" unicode="}" horiz-adv-x="352" 
d="M324 294v-2q-41 -4 -68.5 -26.5t-31.5 -53.5l-19 -172q-10 -95 -72 -138.5t-140 -43.5q-31 0 -63 8v2q75 -4 121 44.5t51 102.5l19 171q4 40 35.5 68.5t73.5 37.5v2q-37 9 -55.5 41.5t-7.5 71.5l50 166q9 23 6.5 49.5t-12 48.5t-37 35.5t-67.5 11.5v2q35 8 65 8
q71 0 116.5 -51.5t21.5 -127.5l-51 -168q-11 -34 7 -58.5t58 -28.5z" />
    <glyph glyph-name="asciitilde" unicode="~" horiz-adv-x="502" 
d="M380 277q-46 0 -116.5 33t-110.5 33q-61 0 -97 -59l-16 10q40 67 113 67q46 0 116.5 -33t110.5 -33q61 0 97 58l16 -9q-40 -67 -113 -67z" />
    <glyph glyph-name="uni00A0" unicode="&#xa0;" horiz-adv-x="0" 
 />
    <glyph glyph-name="exclamdown" unicode="&#xa1;" horiz-adv-x="255" 
d="M131 273l-14 -487h-177l189 487h2zM155 359q-27 0 -45.5 17.5t-18.5 44.5q0 31 22.5 53.5t55.5 22.5q27 0 45 -17.5t18 -44.5q0 -31 -22 -53.5t-55 -22.5z" />
    <glyph glyph-name="cent" unicode="&#xa2;" horiz-adv-x="444" 
d="M187 -108l-17 3l19 97q-75 0 -121.5 50t-46.5 139q0 119 76 213t191 103l21 108l17 -3l-21 -104q70 0 124 -22l-70 -178h-2l-41 168q-5 16 -14 16l-80 -412q5 -1 16 -1q45 0 85.5 37t63.5 110h2q-18 -103 -67.5 -159t-114.5 -63zM148 196q0 -97 57 -121l80 406
q-56 -13 -96.5 -106t-40.5 -179z" />
    <glyph glyph-name="sterling" unicode="&#xa3;" horiz-adv-x="571" 
d="M439 296h-177q-2 -68 -38 -119.5t-99 -67.5v-2h245q27 0 36 3t23 17l82 81h2l-66 -208h-460v2l87 81q43 40 63.5 75t20.5 81q0 25 -8 57h-97v18h92q-2 8 -8.5 33t-9.5 38t-6 34t-3 39q0 113 75.5 184t201.5 71q89 0 185 -24l-51 -213h-2l-75 203q-5 13 -19 14
q-10 1 -33 1q-53 0 -89 -38t-49.5 -87t-13.5 -104q0 -30 6.5 -79.5t7.5 -71.5h177v-18z" />
    <glyph glyph-name="currency" unicode="&#xa4;" horiz-adv-x="733" 
d="M112 65l-12 12l112 112q-63 65 -63 163t63 163l-112 113l12 13l113 -113q67 57 161 57q95 0 161 -58l114 114l12 -13l-113 -113q64 -64 64 -163q0 -97 -64 -163l112 -111l-11 -13l-113 112q-66 -57 -162 -57t-161 57zM168 352q0 -97 62.5 -155.5t155.5 -58.5t156 58.5
t63 155.5q0 96 -63 155.5t-156 59.5t-155.5 -59.5t-62.5 -155.5z" />
    <glyph glyph-name="yen" unicode="&#xa5;" horiz-adv-x="589" 
d="M600 608q-25 -20 -39 -38l-185 -255q-10 -14 -14 -29h152v-19h-156l-17 -85h153v-19h-157l-17 -82q-2 -10 -1 -13.5t8 -8.5l72 -57v-2h-320v2l95 57q13 8 16 22l17 82h-149v19h153l18 85h-151v19h152l-109 323q-6 18 -19 37l-39 55v2h276v-2l-75 -59q-11 -10 -8 -21
l98 -306l190 264q10 14 2 27l-65 95v2h237v-2z" />
    <glyph glyph-name="brokenbar" unicode="&#xa6;" horiz-adv-x="219" 
d="M15 -250l-18 4l90 435l18 -4zM133 320l-18 4l88 426l18 -4z" />
    <glyph glyph-name="section" unicode="&#xa7;" horiz-adv-x="510" 
d="M165 -170q-86 0 -150 17l73 193h2l43 -180q3 -14 18 -16q7 -1 19 -1q44 0 78 32.5t34 78.5q0 54 -82 113l-40 30q-55 40 -79 73.5t-24 74.5q0 60 43 104t107 63q-57 52 -57 121q0 80 63.5 130t149.5 50q81 0 150 -17l-73 -193h-2l-43 180q-3 13 -17 15q-7 1 -21 1
q-44 0 -77.5 -32.5t-33.5 -78.5q0 -54 81 -113l40 -30q54 -39 78.5 -73t24.5 -72q0 -63 -43 -107t-108 -63q58 -52 58 -120q0 -79 -63.5 -129.5t-148.5 -50.5zM313 327q-96 75 -99 79q-25 -13 -42.5 -41t-17.5 -59q0 -44 60 -90q2 -1 22 -17t42.5 -34.5t33.5 -28.5
q25 12 43 41t18 60q0 41 -60 90z" />
    <glyph glyph-name="dieresis" unicode="&#xa8;" horiz-adv-x="401" 
d="M118 682q24 0 39.5 -14.5t15.5 -38.5q0 -27 -19.5 -45.5t-47.5 -18.5q-24 0 -39.5 14.5t-15.5 38.5q0 27 19.5 45.5t47.5 18.5zM296 682q24 0 39.5 -14.5t15.5 -38.5q0 -27 -19.5 -45.5t-47.5 -18.5q-23 0 -39 14.5t-16 38.5q0 27 19.5 45.5t47.5 18.5z" />
    <glyph glyph-name="copyright" unicode="&#xa9;" horiz-adv-x="813" 
d="M426 713q157 0 258 -100.5t101 -260.5q0 -155 -99.5 -258.5t-259.5 -103.5q-162 0 -260.5 103.5t-98.5 258.5q0 153 104.5 257t254.5 104zM426 695q-142 0 -241 -98.5t-99 -244.5q0 -147 93.5 -245.5t246.5 -98.5q151 0 245.5 98.5t94.5 245.5q0 152 -96 247.5t-244 95.5
zM348 352q0 -92 27 -142t73 -50h9q13 0 19 10l81 117h2v-133q-46 -10 -114 -10q-100 0 -153.5 56.5t-53.5 150.5q0 93 55 151t145 58q70 0 121 -12v-128h-2l-83 114q-8 11 -21 11h-10q-44 0 -69.5 -53t-25.5 -140z" />
    <glyph glyph-name="ordfeminine" unicode="&#xaa;" horiz-adv-x="364" 
d="M285 365q-22 0 -35.5 14t-13.5 40q0 19 13 71h-2q-45 -125 -113 -125q-32 0 -52.5 27t-20.5 78q0 92 52.5 167.5t120.5 75.5q48 0 63 -35l84 36l2 -1q-39 -158 -65 -243q-6 -22 -6 -36q0 -22 17 -22q34 0 63 95h2q-11 -54 -34 -91q-32 -51 -75 -51zM173 411q35 0 64 77
q15 38 55 182q-10 19 -31 19q-38 0 -69 -49q-47 -76 -47 -175q0 -54 28 -54z" />
    <glyph glyph-name="guillemotleft" unicode="&#xab;" horiz-adv-x="449" 
d="M31 252l256 213l2 -2l-142 -219l53 -206l-2 -1l-167 213v2zM209 252l256 213l2 -2l-142 -219l53 -206l-2 -1l-167 213v2z" />
    <glyph glyph-name="logicalnot" unicode="&#xac;" horiz-adv-x="540" 
d="M507 109h-19v207h-442v18h461v-225z" />
    <glyph glyph-name="uni00AD" unicode="&#xad;" horiz-adv-x="351" 
d="M306 235h-260v19h260v-19z" />
    <glyph glyph-name="registered" unicode="&#xae;" horiz-adv-x="813" 
d="M426 713q157 0 258 -100.5t101 -260.5q0 -155 -99.5 -258.5t-259.5 -103.5q-162 0 -260.5 103.5t-98.5 258.5q0 153 104.5 257t254.5 104zM426 695q-142 0 -241 -98.5t-99 -244.5q0 -147 93.5 -245.5t246.5 -98.5q151 0 245.5 98.5t94.5 245.5q0 152 -96 247.5t-244 95.5
zM251 163v2l43 28q7 5 7 13v297q0 9 -7 13l-43 28v2h208q56 0 91 -25t35 -76q0 -39 -27.5 -66t-76.5 -34v-2l43 -21l67 -114q9 -14 17 -20l28 -23v-2h-120l-89 166q-5 8 -15 8h-22v-131q0 -7 7 -13l42 -28v-2h-188zM390 518v-164h28q71 0 71 86q0 89 -65 89h-22
q-12 0 -12 -11z" />
    <glyph glyph-name="macron" unicode="&#xaf;" horiz-adv-x="365" 
d="M313 592h-262v18h262v-18z" />
    <glyph glyph-name="degree" unicode="&#xb0;" horiz-adv-x="324" 
d="M66 589q0 54 37 88t90 34t90 -34t37 -88q0 -53 -37 -86t-90 -33t-90 33t-37 86zM85 589q0 -44 32.5 -72.5t75.5 -28.5q44 0 76 28.5t32 72.5q0 45 -32 74.5t-76 29.5q-43 0 -75.5 -29.5t-32.5 -74.5z" />
    <glyph glyph-name="plusminus" unicode="&#xb1;" horiz-adv-x="540" 
d="M300 203h-19v162h-211v18h211v161h19v-161h210v-18h-210v-162zM510 105h-440v18h440v-18z" />
    <glyph glyph-name="twosuperior" unicode="&#xb2;" 
d="M235 713q109 0 109 -73q0 -85 -199 -158v-2h105q21 0 31 8l43 34h2l-35 -102h-239v2q32 24 114 90q46 37 73 71t27 73q0 42 -45 42q-7 0 -12 -1q-9 -1 -12 -7l-58 -92h-2l-20 93q63 22 118 22z" />
    <glyph glyph-name="threesuperior" unicode="&#xb3;" 
d="M325 512q0 -49 -47.5 -72.5t-115.5 -23.5q-57 0 -106 18l69 96h2l9 -88q1 -8 9 -10q7 -1 15 -1q36 0 61.5 24t25.5 62q0 51 -70 55v2q39 4 64.5 25t25.5 58q0 41 -41 41q-9 0 -14 -1q-8 -1 -13 -8l-58 -89h-2l-21 91q59 22 113 22q52 0 82 -18.5t30 -48.5t-24.5 -48
t-69.5 -22v-2q35 -3 55.5 -20t20.5 -42z" />
    <glyph glyph-name="acute" unicode="&#xb4;" horiz-adv-x="347" 
d="M180 703h143v-2l-257 -162l-1 1z" />
    <glyph glyph-name="mu" unicode="&#xb5;" horiz-adv-x="570" 
d="M385 -8q-33 0 -52.5 20t-19.5 59q0 46 24 130h-2q-33 -89 -81.5 -141.5t-99.5 -59.5q-10 -2 -14 -2l-40 -157q-3 -11 -1 -14.5t11 -7.5l108 -45v-2h-306v2l52 36q10 7 13.5 12t6.5 16l133 495q14 49 14 70q0 28 -22 28q-24 0 -45 -30q-27 -38 -44 -109h-2q13 94 59.5 150
t104.5 56q34 0 53.5 -19.5t19.5 -53.5q0 -31 -23 -108l-45 -151q-18 -62 -18 -79q0 -30 29 -30q44 0 97 85q31 48 64 161q31 110 47 183l117 7l-88 -357q-7 -25 -7 -49q0 -28 23 -28q26 0 50.5 38.5t40.5 104.5h2q-14 -100 -65 -162q-42 -48 -94 -48z" />
    <glyph glyph-name="paragraph" unicode="&#xb6;" horiz-adv-x="605" 
d="M486 0h-90l-48 -250l-20 3l48 247h-68q-100 0 -164.5 58.5t-64.5 182.5q0 53 10 106.5t29 105.5t50 97t70.5 79t92.5 54t114 20h175v-18h-90l-130 -667h86v-18zM309 18h71l130 667h-71z" />
    <glyph glyph-name="periodcentered" unicode="&#xb7;" horiz-adv-x="222" 
d="M145 492q28 0 46.5 -17.5t18.5 -44.5q0 -31 -22.5 -53.5t-55.5 -22.5q-27 0 -45 17.5t-18 44.5q0 31 22 53.5t54 22.5z" />
    <glyph glyph-name="cedilla" unicode="&#xb8;" horiz-adv-x="364" 
d="M286 -125q0 -47 -38.5 -79t-94.5 -32q-48 0 -75.5 25.5t-23.5 63.5h2q3 -27 23.5 -41t45.5 -14q31 0 54.5 20t23.5 51q0 21 -15 33t-39 12q-19 0 -39 -7l-1 2l88 90h2l-21 -61q15 3 28 3q36 0 58 -18.5t22 -47.5z" />
    <glyph glyph-name="onesuperior" unicode="&#xb9;" horiz-adv-x="252" 
d="M267 716l-54 -255q-1 -4 5 -8l59 -31v-2h-219v2l71 31q8 3 9 8l40 189q1 7 -5 9l-66 21v2z" />
    <glyph glyph-name="ordmasculine" unicode="&#xba;" horiz-adv-x="354" 
d="M185 365q-50 0 -83.5 32t-33.5 97q0 88 55 153.5t133 65.5q50 0 83 -31.5t33 -97.5q0 -88 -55 -153.5t-132 -65.5zM187 379q40 0 70.5 84.5t30.5 168.5q0 67 -34 67q-40 0 -70 -84t-30 -169q0 -67 33 -67z" />
    <glyph glyph-name="guillemotright" unicode="&#xbb;" horiz-adv-x="449" 
d="M243 250l-256 -213l-1 1l141 219l-53 207l2 1l167 -213v-2zM420 250l-256 -213l-1 1l141 219l-53 207l2 1l167 -213v-2z" />
    <glyph glyph-name="onequarter" unicode="&#xbc;" horiz-adv-x="485" 
d="M448 343h-365v18h365v-18zM267 38q-1 -6 4 -10l37 -26v-2h-172v2l50 26q8 4 9 11l7 33h-141v2l202 215h56l-42 -202h13q12 0 17 8l62 82h2l-29 -105h-68zM92 87h113l34 155zM313 453l59 -31v-2h-219v2l71 31q8 3 9 8l40 189q1 7 -5 9l-66 21v2l160 34l-54 -255
q-1 -4 5 -8z" />
    <glyph glyph-name="onehalf" unicode="&#xbd;" horiz-adv-x="485" 
d="M448 361v-18h-365v18h365zM362 716l-54 -255q-1 -4 5 -8l59 -31v-2h-219v2l71 31q8 3 9 8l40 189q1 7 -5 9l-66 21v2zM243 293q109 0 109 -73q0 -85 -199 -158v-2h105q21 0 31 8l43 34h2l-35 -102h-239v2q32 24 114 90q46 37 73 71t27 73q0 42 -45 42q-8 0 -13 -1
q-8 -1 -11 -7l-58 -92h-2l-20 93q63 22 118 22z" />
    <glyph glyph-name="threequarters" unicode="&#xbe;" horiz-adv-x="485" 
d="M445 343h-371v18h371v-18zM257 416q-57 0 -106 18l69 96h2l9 -88q1 -8 9 -10q7 -1 15 -1q36 0 61.5 24t25.5 62q0 51 -70 55v2q39 4 64.5 25t25.5 58q0 41 -41 41q-9 0 -14 -1q-8 -1 -13 -8l-58 -89h-2l-21 91q59 22 113 22q52 0 82 -18.5t30 -48.5t-24.5 -48t-69.5 -22
v-2q35 -3 55.5 -20t20.5 -42q0 -49 -47.5 -72.5t-115.5 -23.5zM136 2l50 26q8 4 9 11l7 33h-141v2l202 215h56l-42 -202h13q12 0 17 8l62 82h2l-29 -105h-68l-7 -34q-1 -6 4 -10l37 -26v-2h-172v2zM92 87h113l34 155z" />
    <glyph glyph-name="questiondown" unicode="&#xbf;" horiz-adv-x="434" 
d="M250 269q28 -1 47 -23.5t19 -50.5q0 -30 -17 -57t-42.5 -45.5t-55.5 -40.5t-55.5 -42.5t-42.5 -50.5t-17 -64q0 -100 81 -100q22 0 32 2q19 4 27 17l111 173h2l31 -163q-106 -48 -219 -48q-90 0 -141.5 38.5t-51.5 105.5q0 39 17.5 72.5t48 59t61.5 45.5t69.5 43t59.5 39
q41 32 41 64q0 13 -6 24zM298 359q-28 0 -46 17t-18 45q0 31 22 53.5t55 22.5q27 0 45.5 -17.5t18.5 -44.5q0 -31 -22.5 -53.5t-54.5 -22.5z" />
    <glyph glyph-name="Agrave" unicode="&#xc0;" horiz-adv-x="621" 
d="M401 88l-19 158h-228l-62 -115q-6 -12 -5 -16.5t10 -17.5l66 -95v-2h-230v2l108 95q21 18 32 39l252 465q8 16 7.5 21t-7.5 15l-43 64v2h176l73 -608q2 -20 14 -40l31 -53v-2h-257v2l74 60q11 8 8 26zM342 593l-178 -328h216zM224 915h142l114 -163l-1 -1l-255 162v2z
" />
    <glyph glyph-name="Aacute" unicode="&#xc1;" horiz-adv-x="621" 
d="M401 88l-19 158h-228l-62 -115q-6 -12 -5 -16.5t10 -17.5l66 -95v-2h-230v2l108 95q21 18 32 39l252 465q8 16 7.5 21t-7.5 15l-43 64v2h176l73 -608q2 -20 14 -40l31 -53v-2h-257v2l74 60q11 8 8 26zM342 593l-178 -328h216zM427 915h143v-2l-257 -162l-1 1z" />
    <glyph glyph-name="Acircumflex" unicode="&#xc2;" horiz-adv-x="621" 
d="M401 88l-19 158h-228l-62 -115q-6 -12 -5 -16.5t10 -17.5l66 -95v-2h-230v2l108 95q21 18 32 39l252 465q8 16 7.5 21t-7.5 15l-43 64v2h176l73 -608q2 -20 14 -40l31 -53v-2h-257v2l74 60q11 8 8 26zM342 593l-178 -328h216zM532 750l-2 -2l-132 77l-168 -77l-2 2
l187 173h2z" />
    <glyph glyph-name="Atilde" unicode="&#xc3;" horiz-adv-x="621" 
d="M401 88l-19 158h-228l-62 -115q-6 -12 -5 -16.5t10 -17.5l66 -95v-2h-230v2l108 95q21 18 32 39l252 465q8 16 7.5 21t-7.5 15l-43 64v2h176l73 -608q2 -20 14 -40l31 -53v-2h-257v2l74 60q11 8 8 26zM342 593l-178 -328h216zM549 892h2q-9 -52 -36.5 -85t-65.5 -33
q-24 0 -64.5 23.5t-61.5 23.5q-44 0 -72 -48h-2q9 52 36.5 85t65.5 33q25 0 65 -24t61 -24q45 0 72 49z" />
    <glyph glyph-name="Adieresis" unicode="&#xc4;" horiz-adv-x="621" 
d="M401 88l-19 158h-228l-62 -115q-6 -12 -5 -16.5t10 -17.5l66 -95v-2h-230v2l108 95q21 18 32 39l252 465q8 16 7.5 21t-7.5 15l-43 64v2h176l73 -608q2 -20 14 -40l31 -53v-2h-257v2l74 60q11 8 8 26zM342 593l-178 -328h216zM313 894q24 0 39.5 -14.5t15.5 -38.5
q0 -27 -19.5 -45.5t-47.5 -18.5q-24 0 -39.5 14.5t-15.5 38.5q0 27 19.5 45.5t47.5 18.5zM491 894q24 0 39.5 -14.5t15.5 -38.5q0 -27 -19.5 -45.5t-47.5 -18.5q-23 0 -39 14.5t-16 38.5q0 27 19.5 45.5t47.5 18.5z" />
    <glyph glyph-name="Aring" unicode="&#xc5;" horiz-adv-x="621" 
d="M401 88l-19 158h-228l-62 -115q-6 -12 -5 -16.5t10 -17.5l66 -95v-2h-230v2l108 95q21 18 32 39l252 465q8 16 7.5 21t-7.5 15l-43 64v2h176l73 -608q2 -20 14 -40l31 -53v-2h-257v2l74 60q11 8 8 26zM342 593l-178 -328h216zM389 753q-32 0 -53.5 20.5t-21.5 52.5
q0 41 29 70t71 29q32 0 53 -20.5t21 -52.5q0 -41 -29 -70t-70 -29zM412 906q-31 0 -54.5 -23t-23.5 -56q0 -24 15.5 -39.5t40.5 -15.5q32 0 55 23t23 56q0 24 -15.5 39.5t-40.5 15.5z" />
    <glyph glyph-name="AE" unicode="&#xc6;" horiz-adv-x="909" 
d="M673 347h-97l-63 -307q-3 -14 -1 -17.5t13 -3.5h150q24 0 34 13l145 196h2l-47 -228h-522v2l88 54q14 8 16 22l35 167h-234l-89 -109q-14 -17 -15.5 -23.5t6.5 -18.5l58 -92v-2h-235v2l111 86q32 23 47 42l386 472q11 14 12 19t-6 14l-51 66v2h529l-48 -228h-2l-64 192
q-4 11 -8.5 14t-16.5 3h-144q-10 0 -14 -4t-7 -17l-62 -298h99q14 0 31 17l96 96h2l-51 -244h-2l-56 97q-9 16 -25 16zM430 264l76 365l-299 -365h223z" />
    <glyph glyph-name="Ccedilla" unicode="&#xc7;" horiz-adv-x="590" 
d="M389 -125q0 -47 -38.5 -79t-94.5 -32q-48 0 -75.5 25.5t-23.5 63.5h2q3 -27 23.5 -41t45.5 -14q31 0 54.5 20t23.5 51q0 21 -15 33t-39 12q-19 0 -39 -7l-1 2l79 81q-121 3 -187 79t-66 196t49 222t140 164t204 62q110 0 198 -23l-49 -229h-2l-79 214q-4 12 -8.5 15
t-14.5 5q-14 2 -30 2q-78 0 -141 -75t-94.5 -184t-31.5 -223q0 -92 32.5 -150.5t99.5 -58.5q18 0 28 1q20 2 30 16l165 219h2l-46 -230q-97 -22 -191 -22l-18 -52q15 3 28 3q36 0 58 -18.5t22 -47.5z" />
    <glyph glyph-name="Egrave" unicode="&#xc8;" horiz-adv-x="591" 
d="M209 19h145q17 0 23.5 2.5t14.5 12.5l143 194h2l-46 -228h-524v2l89 54q13 9 17 23l113 545q4 15 -7 23l-66 54v2h513l-47 -228h-2l-64 191q-4 12 -9 15t-17 3h-140q-13 0 -17 -4t-7 -19l-62 -296h97q16 1 34 19l94 94h2l-51 -244h-2l-55 95q-7 12 -11.5 15t-14.5 3h-97
l-63 -305q-3 -15 -0.5 -19t15.5 -4zM253 915h142l114 -163l-1 -1l-255 162v2z" />
    <glyph glyph-name="Eacute" unicode="&#xc9;" horiz-adv-x="591" 
d="M456 915h143v-2l-257 -162l-1 1zM209 19h145q17 0 23.5 2.5t14.5 12.5l143 194h2l-46 -228h-524v2l89 54q13 9 17 23l113 545q4 15 -7 23l-66 54v2h513l-47 -228h-2l-64 191q-4 12 -9 15t-17 3h-140q-13 0 -17 -4t-7 -19l-62 -296h97q16 1 34 19l94 94h2l-51 -244h-2
l-55 95q-7 12 -11.5 15t-14.5 3h-97l-63 -305q-3 -15 -0.5 -19t15.5 -4z" />
    <glyph glyph-name="Ecircumflex" unicode="&#xca;" horiz-adv-x="591" 
d="M560 750l-2 -2l-132 77l-168 -77l-2 2l187 173h2zM209 19h145q17 0 23.5 2.5t14.5 12.5l143 194h2l-46 -228h-524v2l89 54q13 9 17 23l113 545q4 15 -7 23l-66 54v2h513l-47 -228h-2l-64 191q-4 12 -9 15t-17 3h-140q-13 0 -17 -4t-7 -19l-62 -296h97q16 1 34 19l94 94h2
l-51 -244h-2l-55 95q-7 12 -11.5 15t-14.5 3h-97l-63 -305q-3 -15 -0.5 -19t15.5 -4z" />
    <glyph glyph-name="Edieresis" unicode="&#xcb;" horiz-adv-x="591" 
d="M342 894q24 0 39.5 -14.5t15.5 -38.5q0 -27 -19.5 -45.5t-47.5 -18.5q-24 0 -39.5 14.5t-15.5 38.5q0 27 19.5 45.5t47.5 18.5zM520 894q24 0 39.5 -14.5t15.5 -38.5q0 -27 -19.5 -45.5t-47.5 -18.5q-23 0 -39 14.5t-16 38.5q0 27 19.5 45.5t47.5 18.5zM209 19h145
q17 0 23.5 2.5t14.5 12.5l143 194h2l-46 -228h-524v2l89 54q13 9 17 23l113 545q4 15 -7 23l-66 54v2h513l-47 -228h-2l-64 191q-4 12 -9 15t-17 3h-140q-13 0 -17 -4t-7 -19l-62 -296h97q16 1 34 19l94 94h2l-51 -244h-2l-55 95q-7 12 -11.5 15t-14.5 3h-97l-63 -305
q-3 -15 -0.5 -19t15.5 -4z" />
    <glyph glyph-name="Igrave" unicode="&#xcc;" horiz-adv-x="342" 
d="M316 624l-114 -545q-4 -15 6 -23l66 -54v-2h-307v2l89 54q13 9 17 23l113 545q4 15 -7 23l-66 54v2h307v-2l-88 -54q-14 -8 -16 -23zM119 915h142l114 -163l-1 -1l-255 162v2z" />
    <glyph glyph-name="Iacute" unicode="&#xcd;" horiz-adv-x="342" 
d="M316 624l-114 -545q-4 -15 6 -23l66 -54v-2h-307v2l89 54q13 9 17 23l113 545q4 15 -7 23l-66 54v2h307v-2l-88 -54q-14 -8 -16 -23zM322 915h143v-2l-257 -162l-1 1z" />
    <glyph glyph-name="Icircumflex" unicode="&#xce;" horiz-adv-x="342" 
d="M316 624l-114 -545q-4 -15 6 -23l66 -54v-2h-307v2l89 54q13 9 17 23l113 545q4 15 -7 23l-66 54v2h307v-2l-88 -54q-14 -8 -16 -23zM426 750l-2 -2l-132 77l-168 -77l-2 2l187 173h2z" />
    <glyph glyph-name="Idieresis" unicode="&#xcf;" horiz-adv-x="342" 
d="M316 624l-114 -545q-4 -15 6 -23l66 -54v-2h-307v2l89 54q13 9 17 23l113 545q4 15 -7 23l-66 54v2h307v-2l-88 -54q-14 -8 -16 -23zM208 894q24 0 39.5 -14.5t15.5 -38.5q0 -27 -19.5 -45.5t-47.5 -18.5q-24 0 -39.5 14.5t-15.5 38.5q0 27 19.5 45.5t47.5 18.5zM386 894
q24 0 39.5 -14.5t15.5 -38.5q0 -27 -19.5 -45.5t-47.5 -18.5q-23 0 -39 14.5t-16 38.5q0 27 19.5 45.5t47.5 18.5z" />
    <glyph glyph-name="Eth" unicode="&#xd0;" horiz-adv-x="685" 
d="M38 348v19h97l54 259q3 14 -7 23l-67 52v2h290q127 0 202.5 -72.5t75.5 -194.5q0 -180 -119.5 -308t-290.5 -128h-303v2l87 52q14 9 17 23l57 271h-93zM350 684q-11 0 -15.5 -3.5t-6.5 -16.5l-62 -297h114v-19h-118l-63 -305q-4 -17 -0.5 -20.5t21.5 -3.5h18
q112 0 185 89.5t103 224.5q18 80 18 158q0 93 -40.5 143t-112.5 50h-41z" />
    <glyph glyph-name="Ntilde" unicode="&#xd1;" horiz-adv-x="681" 
d="M292 703l242 -580l94 449q4 17 -8 31l-78 98v2h245v-2l-118 -98q-18 -14 -21 -31l-119 -572h-82l-239 570l-91 -439q-2 -12 -1 -17t9 -14l77 -98v-2h-244v2l118 98q18 14 21 31l94 449q5 20 -5 33l-73 88v2h179zM598 892h2q-9 -52 -36.5 -85t-65.5 -33q-24 0 -64.5 23.5
t-61.5 23.5q-44 0 -72 -48h-2q9 52 36.5 85t65.5 33q25 0 65 -24t61 -24q45 0 72 49z" />
    <glyph glyph-name="Ograve" unicode="&#xd2;" horiz-adv-x="685" 
d="M412 713q129 0 201 -77.5t72 -203.5q0 -184 -108.5 -313t-264.5 -129q-130 0 -201.5 77.5t-71.5 203.5q0 184 108 313t265 129zM303 7q67 0 125 83.5t88 196t30 213.5q0 196 -125 196q-67 0 -125 -83.5t-88 -196t-30 -213.5q0 -196 125 -196zM288 915h142l114 -163l-1 -1
l-255 162v2z" />
    <glyph glyph-name="Oacute" unicode="&#xd3;" horiz-adv-x="685" 
d="M490 915h143v-2l-257 -162l-1 1zM412 713q129 0 201 -77.5t72 -203.5q0 -184 -108.5 -313t-264.5 -129q-130 0 -201.5 77.5t-71.5 203.5q0 184 108 313t265 129zM303 7q67 0 125 83.5t88 196t30 213.5q0 196 -125 196q-67 0 -125 -83.5t-88 -196t-30 -213.5
q0 -196 125 -196z" />
    <glyph glyph-name="Ocircumflex" unicode="&#xd4;" horiz-adv-x="685" 
d="M595 750l-2 -2l-132 77l-168 -77l-2 2l187 173h2zM412 713q129 0 201 -77.5t72 -203.5q0 -184 -108.5 -313t-264.5 -129q-130 0 -201.5 77.5t-71.5 203.5q0 184 108 313t265 129zM303 7q67 0 125 83.5t88 196t30 213.5q0 196 -125 196q-67 0 -125 -83.5t-88 -196
t-30 -213.5q0 -196 125 -196z" />
    <glyph glyph-name="Otilde" unicode="&#xd5;" horiz-adv-x="685" 
d="M412 713q129 0 201 -77.5t72 -203.5q0 -184 -108.5 -313t-264.5 -129q-130 0 -201.5 77.5t-71.5 203.5q0 184 108 313t265 129zM303 7q67 0 125 83.5t88 196t30 213.5q0 196 -125 196q-67 0 -125 -83.5t-88 -196t-30 -213.5q0 -196 125 -196zM612 892h2q-9 -52 -36.5 -85
t-65.5 -33q-24 0 -64.5 23.5t-61.5 23.5q-44 0 -72 -48h-2q9 52 36.5 85t65.5 33q25 0 65 -24t61 -24q45 0 72 49z" />
    <glyph glyph-name="Odieresis" unicode="&#xd6;" horiz-adv-x="685" 
d="M377 894q24 0 39.5 -14.5t15.5 -38.5q0 -27 -19.5 -45.5t-47.5 -18.5q-24 0 -39.5 14.5t-15.5 38.5q0 27 19.5 45.5t47.5 18.5zM555 894q24 0 39.5 -14.5t15.5 -38.5q0 -27 -19.5 -45.5t-47.5 -18.5q-23 0 -39 14.5t-16 38.5q0 27 19.5 45.5t47.5 18.5zM412 713
q129 0 201 -77.5t72 -203.5q0 -184 -108.5 -313t-264.5 -129q-130 0 -201.5 77.5t-71.5 203.5q0 184 108 313t265 129zM303 7q67 0 125 83.5t88 196t30 213.5q0 196 -125 196q-67 0 -125 -83.5t-88 -196t-30 -213.5q0 -196 125 -196z" />
    <glyph glyph-name="multiply" unicode="&#xd7;" horiz-adv-x="540" 
d="M141 161l-13 13l149 149l-149 149l13 13l149 -149l149 149l13 -13l-149 -149l149 -149l-13 -13l-149 149z" />
    <glyph glyph-name="Oslash" unicode="&#xd8;" horiz-adv-x="685" 
d="M412 713q50 0 90 -12l35 78l17 -7l-34 -77q79 -28 122 -97.5t43 -165.5q0 -184 -108.5 -313t-264.5 -129q-50 0 -97 13l-38 -85l-18 7l37 85q-76 30 -116.5 98.5t-40.5 162.5q0 184 108 313t265 129zM303 7q67 0 125 83.5t88 196t30 213.5q0 113 -41 160l-277 -627
q27 -26 75 -26zM178 203q0 -106 35 -155l277 626q-28 22 -69 22q-67 0 -125 -83.5t-88 -196t-30 -213.5z" />
    <glyph glyph-name="Ugrave" unicode="&#xd9;" horiz-adv-x="651" 
d="M279 -10q-97 0 -149 48.5t-52 130.5q0 28 6 58l82 394q2 16 -7 24l-60 56v2h300v-2l-87 -56q-13 -8 -17 -24l-79 -384q-9 -45 -9 -81q0 -135 126 -135q158 0 206 229l67 319q4 15 2 24.5t-13 21.5l-73 86v2h241v-2l-110 -87q-22 -16 -27 -45l-67 -318q-27 -129 -90 -195
t-190 -66zM312 915h142l114 -163l-1 -1l-255 162v2z" />
    <glyph glyph-name="Uacute" unicode="&#xda;" horiz-adv-x="651" 
d="M514 915h143v-2l-257 -162l-1 1zM279 -10q-97 0 -149 48.5t-52 130.5q0 28 6 58l82 394q2 16 -7 24l-60 56v2h300v-2l-87 -56q-13 -8 -17 -24l-79 -384q-9 -45 -9 -81q0 -135 126 -135q158 0 206 229l67 319q4 15 2 24.5t-13 21.5l-73 86v2h241v-2l-110 -87
q-22 -16 -27 -45l-67 -318q-27 -129 -90 -195t-190 -66z" />
    <glyph glyph-name="Ucircumflex" unicode="&#xdb;" horiz-adv-x="651" 
d="M619 750l-2 -2l-132 77l-168 -77l-2 2l187 173h2zM279 -10q-97 0 -149 48.5t-52 130.5q0 28 6 58l82 394q2 16 -7 24l-60 56v2h300v-2l-87 -56q-13 -8 -17 -24l-79 -384q-9 -45 -9 -81q0 -135 126 -135q158 0 206 229l67 319q4 15 2 24.5t-13 21.5l-73 86v2h241v-2
l-110 -87q-22 -16 -27 -45l-67 -318q-27 -129 -90 -195t-190 -66z" />
    <glyph glyph-name="Udieresis" unicode="&#xdc;" horiz-adv-x="651" 
d="M401 894q24 0 39.5 -14.5t15.5 -38.5q0 -27 -19.5 -45.5t-47.5 -18.5q-24 0 -39.5 14.5t-15.5 38.5q0 27 19.5 45.5t47.5 18.5zM579 894q24 0 39.5 -14.5t15.5 -38.5q0 -27 -19.5 -45.5t-47.5 -18.5q-23 0 -39 14.5t-16 38.5q0 27 19.5 45.5t47.5 18.5zM279 -10
q-97 0 -149 48.5t-52 130.5q0 28 6 58l82 394q2 16 -7 24l-60 56v2h300v-2l-87 -56q-13 -8 -17 -24l-79 -384q-9 -45 -9 -81q0 -135 126 -135q158 0 206 229l67 319q4 15 2 24.5t-13 21.5l-73 86v2h241v-2l-110 -87q-22 -16 -27 -45l-67 -318q-27 -129 -90 -195t-190 -66z
" />
    <glyph glyph-name="Yacute" unicode="&#xdd;" horiz-adv-x="601" 
d="M375 278l-41 -197q-2 -10 -1 -13.5t8 -8.5l72 -57v-2h-320v2l95 57q13 8 16 22l38 183q4 16 0 28l-107 317q-7 19 -19 37l-39 55v2h276v-2l-75 -59q-12 -9 -8 -21l98 -306l190 264q10 14 2 27l-65 95v2h237v-2l-118 -93q-27 -21 -39 -38l-185 -255q-10 -14 -15 -37z
M477 915h143v-2l-257 -162l-1 1z" />
    <glyph glyph-name="Thorn" unicode="&#xde;" horiz-adv-x="613" 
d="M284 134h-71l-11 -55q-3 -16 6 -23l66 -54v-2h-307v2l89 54q13 9 17 23l113 545q4 15 -7 23l-66 54v2h307v-2l-88 -54q-12 -7 -16 -23l-12 -55h93q97 0 156.5 -44t59.5 -132q0 -118 -94 -188.5t-235 -70.5zM217 153h50q88 0 148.5 73t60.5 191q0 66 -31.5 99.5
t-85.5 33.5h-59z" />
    <glyph glyph-name="germandbls" unicode="&#xdf;" horiz-adv-x="545" 
d="M521 141q0 -62 -54.5 -105.5t-142.5 -43.5q-89 0 -158 34l81 140h2l32 -143q2 -10 15 -12q15 -3 34 -3q42 0 67 22.5t25 57.5q0 44 -61 99l-35 32q-24 22 -37.5 37t-27 38.5t-13.5 44.5q0 57 62 98l56 37q74 48 74 145q0 34 -19 56t-54 22q-91 0 -122 -158l-80 -403
q-30 -153 -89 -253q-71 -119 -180 -119q-50 0 -84 22l63 157h2l42 -136q6 -20 16 -20q18 0 33 23.5t29 72t24 95t24 117.5q1 4 1 6l73 364h-78v19h82q26 119 86 174t160 55q72 0 115 -28t43 -75q0 -61 -90 -114l-61 -37q-40 -25 -40 -60q0 -34 69 -93l46 -39
q37 -32 53.5 -59.5t16.5 -66.5z" />
    <glyph glyph-name="agrave" unicode="&#xe0;" horiz-adv-x="522" 
d="M467 100q22 37 40 102h2q-14 -90 -57 -150t-102 -60q-32 0 -51 20t-19 59q0 33 19 113h-2q-66 -192 -167 -192q-46 0 -76.5 39.5t-30.5 113.5q0 86 34.5 167.5t94 133.5t124.5 52q66 0 91 -51l125 51h2q-10 -43 -94 -356q-8 -35 -8 -53q0 -31 23 -31q27 0 52 42zM362 440
q-12 23 -47 23q-54 0 -100 -71q-30 -49 -49.5 -120t-19.5 -134q0 -79 41 -79t81 82q41 87 94 299zM181 703h142l114 -163l-1 -1l-255 162v2z" />
    <glyph glyph-name="aacute" unicode="&#xe1;" horiz-adv-x="522" 
d="M467 100q22 37 40 102h2q-14 -90 -57 -150t-102 -60q-32 0 -51 20t-19 59q0 33 19 113h-2q-66 -192 -167 -192q-46 0 -76.5 39.5t-30.5 113.5q0 86 34.5 167.5t94 133.5t124.5 52q66 0 91 -51l125 51h2q-10 -43 -94 -356q-8 -35 -8 -53q0 -31 23 -31q27 0 52 42zM362 440
q-12 23 -47 23q-54 0 -100 -71q-30 -49 -49.5 -120t-19.5 -134q0 -79 41 -79t81 82q41 87 94 299zM383 703h143v-2l-257 -162l-1 1z" />
    <glyph glyph-name="acircumflex" unicode="&#xe2;" horiz-adv-x="522" 
d="M467 100q22 37 40 102h2q-14 -90 -57 -150t-102 -60q-32 0 -51 20t-19 59q0 33 19 113h-2q-66 -192 -167 -192q-46 0 -76.5 39.5t-30.5 113.5q0 86 34.5 167.5t94 133.5t124.5 52q66 0 91 -51l125 51h2q-10 -43 -94 -356q-8 -35 -8 -53q0 -31 23 -31q27 0 52 42zM362 440
q-12 23 -47 23q-54 0 -100 -71q-30 -49 -49.5 -120t-19.5 -134q0 -79 41 -79t81 82q41 87 94 299zM488 538l-2 -2l-132 77l-168 -77l-2 2l187 173h2z" />
    <glyph glyph-name="atilde" unicode="&#xe3;" horiz-adv-x="522" 
d="M467 100q22 37 40 102h2q-14 -90 -57 -150t-102 -60q-32 0 -51 20t-19 59q0 33 19 113h-2q-66 -192 -167 -192q-46 0 -76.5 39.5t-30.5 113.5q0 86 34.5 167.5t94 133.5t124.5 52q66 0 91 -51l125 51h2q-10 -43 -94 -356q-8 -35 -8 -53q0 -31 23 -31q27 0 52 42zM362 440
q-12 23 -47 23q-54 0 -100 -71q-30 -49 -49.5 -120t-19.5 -134q0 -79 41 -79t81 82q41 87 94 299zM505 680h2q-9 -52 -36.5 -85t-65.5 -33q-24 0 -64.5 23.5t-61.5 23.5q-44 0 -72 -48h-2q9 52 36.5 85t65.5 33q25 0 65 -24t61 -24q45 0 72 49z" />
    <glyph glyph-name="adieresis" unicode="&#xe4;" horiz-adv-x="522" 
d="M467 100q22 37 40 102h2q-14 -90 -57 -150t-102 -60q-32 0 -51 20t-19 59q0 33 19 113h-2q-66 -192 -167 -192q-46 0 -76.5 39.5t-30.5 113.5q0 86 34.5 167.5t94 133.5t124.5 52q66 0 91 -51l125 51h2q-10 -43 -94 -356q-8 -35 -8 -53q0 -31 23 -31q27 0 52 42zM362 440
q-12 23 -47 23q-54 0 -100 -71q-30 -49 -49.5 -120t-19.5 -134q0 -79 41 -79t81 82q41 87 94 299zM270 682q24 0 39.5 -14.5t15.5 -38.5q0 -27 -19.5 -45.5t-47.5 -18.5q-24 0 -39.5 14.5t-15.5 38.5q0 27 19.5 45.5t47.5 18.5zM448 682q24 0 39.5 -14.5t15.5 -38.5
q0 -27 -19.5 -45.5t-47.5 -18.5q-23 0 -39 14.5t-16 38.5q0 27 19.5 45.5t47.5 18.5z" />
    <glyph glyph-name="aring" unicode="&#xe5;" horiz-adv-x="522" 
d="M467 100q22 37 40 102h2q-14 -90 -57 -150t-102 -60q-32 0 -51 20t-19 59q0 33 19 113h-2q-66 -192 -167 -192q-46 0 -76.5 39.5t-30.5 113.5q0 86 34.5 167.5t94 133.5t124.5 52q66 0 91 -51l125 51h2q-10 -43 -94 -356q-8 -35 -8 -53q0 -31 23 -31q27 0 52 42zM362 440
q-12 23 -47 23q-54 0 -100 -71q-30 -49 -49.5 -120t-19.5 -134q0 -79 41 -79t81 82q41 87 94 299zM345 541q-32 0 -53.5 20.5t-21.5 52.5q0 41 29 70t71 29q32 0 53 -20.5t21 -52.5q0 -41 -29 -70t-70 -29zM368 694q-31 0 -54.5 -23t-23.5 -56q0 -24 15.5 -39.5t40.5 -15.5
q32 0 55 23t23 56q0 24 -15.5 39.5t-40.5 15.5z" />
    <glyph glyph-name="ae" unicode="&#xe6;" horiz-adv-x="714" 
d="M708 397q0 -76 -89.5 -123.5t-199.5 -38.5q-2 -28 -2 -40q0 -61 25.5 -94.5t75.5 -33.5q54 0 96 37.5t64 112.5h2q-16 -117 -78 -171t-139 -54q-71 0 -119.5 46.5t-53.5 128.5l-2 -6q-54 -169 -158 -169q-46 0 -76.5 39.5t-30.5 113.5q0 133 77 243t177 110q87 0 112 -80
q82 80 185 80q60 0 97 -28t37 -73zM188 59q27 0 54.5 37t47.5 95q2 124 90 219q-22 53 -67 53q-52 0 -98 -71q-30 -49 -49.5 -120.5t-19.5 -134.5q0 -78 42 -78zM567 482q-46 0 -89.5 -75t-56.5 -163q80 0 130 50t50 126q0 62 -34 62z" />
    <glyph glyph-name="ccedilla" unicode="&#xe7;" horiz-adv-x="419" 
d="M279 -125q0 -47 -38.5 -79t-94.5 -32q-48 0 -75.5 25.5t-23.5 63.5h2q3 -27 23.5 -41t45.5 -14q31 0 54.5 20t23.5 51q0 21 -15 33t-39 12q-19 0 -39 -7l-1 2l81 83q-72 2 -117 51.5t-45 137.5q0 125 82 221t205 96q67 0 121 -22l-70 -178h-2l-41 168q-3 11 -5.5 13.5
t-10.5 2.5q-42 0 -78 -49t-55 -114t-19 -123q0 -64 25.5 -95.5t65.5 -31.5q45 0 85 37t63 110h2q-19 -113 -72.5 -168t-127.5 -56l-18 -54q15 3 28 3q36 0 58 -18.5t22 -47.5z" />
    <glyph glyph-name="egrave" unicode="&#xe8;" horiz-adv-x="445" 
d="M248 67q50 0 94.5 38.5t65.5 111.5h2q-10 -61 -33 -106.5t-53 -70.5t-62.5 -36.5t-67.5 -11.5q-76 0 -124.5 51.5t-48.5 141.5q0 121 83.5 217t200.5 96q59 0 96 -28t37 -73q0 -76 -89 -123.5t-198 -38.5q-3 -19 -3 -40q0 -61 25.5 -94.5t74.5 -33.5zM297 482
q-46 0 -89 -75t-56 -163q80 0 129.5 50t49.5 126q0 62 -34 62zM158 703h142l114 -163l-1 -1l-255 162v2z" />
    <glyph glyph-name="eacute" unicode="&#xe9;" horiz-adv-x="445" 
d="M360 703h143v-2l-257 -162l-1 1zM248 67q50 0 94.5 38.5t65.5 111.5h2q-10 -61 -33 -106.5t-53 -70.5t-62.5 -36.5t-67.5 -11.5q-76 0 -124.5 51.5t-48.5 141.5q0 121 83.5 217t200.5 96q59 0 96 -28t37 -73q0 -76 -89 -123.5t-198 -38.5q-3 -19 -3 -40q0 -61 25.5 -94.5
t74.5 -33.5zM297 482q-46 0 -89 -75t-56 -163q80 0 129.5 50t49.5 126q0 62 -34 62z" />
    <glyph glyph-name="ecircumflex" unicode="&#xea;" horiz-adv-x="445" 
d="M465 538l-2 -2l-132 77l-168 -77l-2 2l187 173h2zM248 67q50 0 94.5 38.5t65.5 111.5h2q-10 -61 -33 -106.5t-53 -70.5t-62.5 -36.5t-67.5 -11.5q-76 0 -124.5 51.5t-48.5 141.5q0 121 83.5 217t200.5 96q59 0 96 -28t37 -73q0 -76 -89 -123.5t-198 -38.5q-3 -19 -3 -40
q0 -61 25.5 -94.5t74.5 -33.5zM297 482q-46 0 -89 -75t-56 -163q80 0 129.5 50t49.5 126q0 62 -34 62z" />
    <glyph glyph-name="edieresis" unicode="&#xeb;" horiz-adv-x="445" 
d="M247 682q24 0 39.5 -14.5t15.5 -38.5q0 -27 -19.5 -45.5t-47.5 -18.5q-24 0 -39.5 14.5t-15.5 38.5q0 27 19.5 45.5t47.5 18.5zM425 682q24 0 39.5 -14.5t15.5 -38.5q0 -27 -19.5 -45.5t-47.5 -18.5q-23 0 -39 14.5t-16 38.5q0 27 19.5 45.5t47.5 18.5zM248 67
q50 0 94.5 38.5t65.5 111.5h2q-10 -61 -33 -106.5t-53 -70.5t-62.5 -36.5t-67.5 -11.5q-76 0 -124.5 51.5t-48.5 141.5q0 121 83.5 217t200.5 96q59 0 96 -28t37 -73q0 -76 -89 -123.5t-198 -38.5q-3 -19 -3 -40q0 -61 25.5 -94.5t74.5 -33.5zM297 482q-46 0 -89 -75
t-56 -163q80 0 129.5 50t49.5 126q0 62 -34 62z" />
    <glyph glyph-name="igrave" unicode="&#xec;" horiz-adv-x="284" 
d="M107 -8q-33 0 -52 20.5t-19 55.5q0 30 12 80l74 279q5 18 -10 23l-75 30v2l222 16l-90 -338q-15 -58 -15 -73q0 -27 22 -27q24 0 45 29q29 40 45 113h2q-9 -81 -54.5 -145.5t-106.5 -64.5zM35 703h142l114 -163l-1 -1l-255 162v2z" />
    <glyph glyph-name="iacute" unicode="&#xed;" horiz-adv-x="284" 
d="M237 703h143v-2l-257 -162l-1 1zM107 -8q-33 0 -52 20.5t-19 55.5q0 30 12 80l74 279q5 18 -10 23l-75 30v2l222 16l-90 -338q-15 -58 -15 -73q0 -27 22 -27q24 0 45 29q29 40 45 113h2q-9 -81 -54.5 -145.5t-106.5 -64.5z" />
    <glyph glyph-name="icircumflex" unicode="&#xee;" horiz-adv-x="280" 
d="M325 538l-2 -2l-132 77l-168 -77l-2 2l187 173h2zM98 -8q-33 0 -52 20.5t-19 55.5q0 30 12 80l74 279q5 18 -10 23l-75 30v2l222 16l-90 -338q-15 -58 -15 -73q0 -27 22 -27q24 0 45 29q29 40 45 113h2q-9 -81 -54.5 -145.5t-106.5 -64.5z" />
    <glyph glyph-name="idieresis" unicode="&#xef;" horiz-adv-x="280" 
d="M115 682q24 0 39.5 -14.5t15.5 -38.5q0 -27 -19.5 -45.5t-47.5 -18.5q-24 0 -39.5 14.5t-15.5 38.5q0 27 19.5 45.5t47.5 18.5zM293 682q24 0 39.5 -14.5t15.5 -38.5q0 -27 -19.5 -45.5t-47.5 -18.5q-23 0 -39 14.5t-16 38.5q0 27 19.5 45.5t47.5 18.5zM99 -8
q-33 0 -52 20.5t-19 55.5q0 30 12 80l74 279q5 18 -10 23l-75 30v2l222 16l-90 -338q-15 -58 -15 -73q0 -27 22 -27q24 0 45 29q29 40 45 113h2q-9 -81 -54.5 -145.5t-106.5 -64.5z" />
    <glyph glyph-name="eth" unicode="&#xf0;" horiz-adv-x="504" 
d="M181 536l-7 16l147 72q-33 62 -101 87l1 2l27 -5q73 -14 129 -56l127 62l6 -15l-119 -59q91 -84 91 -265q0 -156 -81 -270t-208 -114q-82 0 -126.5 53t-44.5 141q0 113 73 209t162 96q68 0 98 -51q-2 112 -27 170zM196 7q40 0 78 69.5t59.5 167t21.5 184.5q-20 24 -53 24
q-45 0 -82 -56t-55 -130.5t-18 -143.5q0 -115 49 -115z" />
    <glyph glyph-name="ntilde" unicode="&#xf1;" horiz-adv-x="546" 
d="M369 -8q-34 0 -54 19.5t-20 54.5q0 34 24 108l48 150q18 56 18 79q0 29 -30 29q-52 0 -100 -76q-55 -86 -116 -356h-116l99 424q2 10 2 14.5t-2 7t-9 5.5l-75 29v2l221 16l-51 -208h2q36 96 92.5 152t117.5 56q39 0 61.5 -22.5t22.5 -60.5q0 -33 -26 -116l-44 -142
q-15 -47 -15 -70q0 -27 22 -27q24 0 45 30q30 43 45 112h2q-12 -96 -59 -153t-105 -57zM504 680h2q-9 -52 -36.5 -85t-65.5 -33q-24 0 -64.5 23.5t-61.5 23.5q-44 0 -72 -48h-2q9 52 36.5 85t65.5 33q25 0 65 -24t61 -24q45 0 72 49z" />
    <glyph glyph-name="ograve" unicode="&#xf2;" horiz-adv-x="489" 
d="M193 -9q-74 0 -122.5 46t-48.5 142q0 127 80 223t193 96q74 0 123 -46.5t49 -141.5q0 -128 -80.5 -223.5t-193.5 -95.5zM196 6q38 0 73 62.5t54.5 148.5t19.5 163q0 103 -49 103q-38 0 -73 -62.5t-54.5 -148.5t-19.5 -163q0 -103 49 -103zM153 703h142l114 -163l-1 -1
l-255 162v2z" />
    <glyph glyph-name="oacute" unicode="&#xf3;" horiz-adv-x="489" 
d="M356 703h143v-2l-257 -162l-1 1zM193 -9q-74 0 -122.5 46t-48.5 142q0 127 80 223t193 96q74 0 123 -46.5t49 -141.5q0 -128 -80.5 -223.5t-193.5 -95.5zM196 6q38 0 73 62.5t54.5 148.5t19.5 163q0 103 -49 103q-38 0 -73 -62.5t-54.5 -148.5t-19.5 -163q0 -103 49 -103
z" />
    <glyph glyph-name="ocircumflex" unicode="&#xf4;" horiz-adv-x="489" 
d="M461 538l-2 -2l-132 77l-168 -77l-2 2l187 173h2zM193 -9q-74 0 -122.5 46t-48.5 142q0 127 80 223t193 96q74 0 123 -46.5t49 -141.5q0 -128 -80.5 -223.5t-193.5 -95.5zM196 6q38 0 73 62.5t54.5 148.5t19.5 163q0 103 -49 103q-38 0 -73 -62.5t-54.5 -148.5
t-19.5 -163q0 -103 49 -103z" />
    <glyph glyph-name="otilde" unicode="&#xf5;" horiz-adv-x="489" 
d="M193 -9q-74 0 -122.5 46t-48.5 142q0 127 80 223t193 96q74 0 123 -46.5t49 -141.5q0 -128 -80.5 -223.5t-193.5 -95.5zM196 6q38 0 73 62.5t54.5 148.5t19.5 163q0 103 -49 103q-38 0 -73 -62.5t-54.5 -148.5t-19.5 -163q0 -103 49 -103zM478 680h2q-9 -52 -36.5 -85
t-65.5 -33q-24 0 -64.5 23.5t-61.5 23.5q-44 0 -72 -48h-2q9 52 36.5 85t65.5 33q25 0 65 -24t61 -24q45 0 72 49z" />
    <glyph glyph-name="odieresis" unicode="&#xf6;" horiz-adv-x="489" 
d="M242 682q24 0 39.5 -14.5t15.5 -38.5q0 -27 -19.5 -45.5t-47.5 -18.5q-24 0 -39.5 14.5t-15.5 38.5q0 27 19.5 45.5t47.5 18.5zM420 682q24 0 39.5 -14.5t15.5 -38.5q0 -27 -19.5 -45.5t-47.5 -18.5q-23 0 -39 14.5t-16 38.5q0 27 19.5 45.5t47.5 18.5zM193 -9
q-74 0 -122.5 46t-48.5 142q0 127 80 223t193 96q74 0 123 -46.5t49 -141.5q0 -128 -80.5 -223.5t-193.5 -95.5zM196 6q38 0 73 62.5t54.5 148.5t19.5 163q0 103 -49 103q-38 0 -73 -62.5t-54.5 -148.5t-19.5 -163q0 -103 49 -103z" />
    <glyph glyph-name="divide" unicode="&#xf7;" horiz-adv-x="540" 
d="M50 307v18h440v-18h-440zM277 539q27 0 44 -16t17 -43q0 -30 -21.5 -50.5t-53.5 -20.5q-26 0 -44 16t-18 43q0 30 22 50.5t54 20.5zM277 219q27 0 44 -16t17 -43q0 -30 -21.5 -50.5t-53.5 -20.5q-26 0 -44 16t-18 43q0 30 22 50.5t54 20.5z" />
    <glyph glyph-name="oslash" unicode="&#xf8;" horiz-adv-x="489" 
d="M193 -9q-27 0 -51 6l-34 -78l-19 7l34 77q-101 38 -101 176q0 127 80 223t193 96q20 0 45 -5l30 68l18 -6l-30 -67q109 -37 109 -178q0 -128 -80.5 -223.5t-193.5 -95.5zM196 6q38 0 73 62.5t54.5 148.5t19.5 163q0 32 -6 59l-179 -406q14 -27 38 -27zM147 109
q0 -31 3 -45l177 400q-14 19 -33 19q-38 0 -73 -62.5t-54.5 -148.5t-19.5 -163z" />
    <glyph glyph-name="ugrave" unicode="&#xf9;" horiz-adv-x="551" 
d="M469 31q-39 -39 -86 -39q-34 0 -53 20t-19 58q0 54 23 131h-2q-36 -96 -91.5 -152.5t-112.5 -56.5q-38 0 -61 23t-23 60q0 36 26 116l44 142q15 47 15 70q0 28 -22 28q-23 0 -46 -30q-27 -38 -44 -110l-2 1q14 95 60.5 150.5t103.5 55.5q34 0 54 -19.5t20 -53.5t-24 -108
l-48 -151q-18 -56 -18 -79q0 -30 32 -30q41 0 92 78q26 41 51.5 116t64.5 235l117 7l-88 -357q-7 -27 -7 -50q0 -27 23 -27q26 0 47 32q26 36 44 111h2q-16 -115 -72 -171zM182 703h142l114 -163l-1 -1l-255 162v2z" />
    <glyph glyph-name="uacute" unicode="&#xfa;" horiz-adv-x="551" 
d="M384 703h143v-2l-257 -162l-1 1zM469 31q-39 -39 -86 -39q-34 0 -53 20t-19 58q0 54 23 131h-2q-36 -96 -91.5 -152.5t-112.5 -56.5q-38 0 -61 23t-23 60q0 36 26 116l44 142q15 47 15 70q0 28 -22 28q-23 0 -46 -30q-27 -38 -44 -110l-2 1q14 95 60.5 150.5t103.5 55.5
q34 0 54 -19.5t20 -53.5t-24 -108l-48 -151q-18 -56 -18 -79q0 -30 32 -30q41 0 92 78q26 41 51.5 116t64.5 235l117 7l-88 -357q-7 -27 -7 -50q0 -27 23 -27q26 0 47 32q26 36 44 111h2q-16 -115 -72 -171z" />
    <glyph glyph-name="ucircumflex" unicode="&#xfb;" horiz-adv-x="551" 
d="M489 538l-2 -2l-132 77l-168 -77l-2 2l187 173h2zM469 31q-39 -39 -86 -39q-34 0 -53 20t-19 58q0 54 23 131h-2q-36 -96 -91.5 -152.5t-112.5 -56.5q-38 0 -61 23t-23 60q0 36 26 116l44 142q15 47 15 70q0 28 -22 28q-23 0 -46 -30q-27 -38 -44 -110l-2 1
q14 95 60.5 150.5t103.5 55.5q34 0 54 -19.5t20 -53.5t-24 -108l-48 -151q-18 -56 -18 -79q0 -30 32 -30q41 0 92 78q26 41 51.5 116t64.5 235l117 7l-88 -357q-7 -27 -7 -50q0 -27 23 -27q26 0 47 32q26 36 44 111h2q-16 -115 -72 -171z" />
    <glyph glyph-name="udieresis" unicode="&#xfc;" horiz-adv-x="551" 
d="M271 682q24 0 39.5 -14.5t15.5 -38.5q0 -27 -19.5 -45.5t-47.5 -18.5q-24 0 -39.5 14.5t-15.5 38.5q0 27 19.5 45.5t47.5 18.5zM449 682q24 0 39.5 -14.5t15.5 -38.5q0 -27 -19.5 -45.5t-47.5 -18.5q-23 0 -39 14.5t-16 38.5q0 27 19.5 45.5t47.5 18.5zM469 31
q-39 -39 -86 -39q-34 0 -53 20t-19 58q0 54 23 131h-2q-36 -96 -91.5 -152.5t-112.5 -56.5q-38 0 -61 23t-23 60q0 36 26 116l44 142q15 47 15 70q0 28 -22 28q-23 0 -46 -30q-27 -38 -44 -110l-2 1q14 95 60.5 150.5t103.5 55.5q34 0 54 -19.5t20 -53.5t-24 -108l-48 -151
q-18 -56 -18 -79q0 -30 32 -30q41 0 92 78q26 41 51.5 116t64.5 235l117 7l-88 -357q-7 -27 -7 -50q0 -27 23 -27q26 0 47 32q26 36 44 111h2q-16 -115 -72 -171z" />
    <glyph glyph-name="yacute" unicode="&#xfd;" horiz-adv-x="452" 
d="M373 325q0 79 -48 129v2l135 42q-13 -138 -67.5 -273t-133.5 -239q-76 -100 -163.5 -161t-150.5 -61q-18 0 -28 5l52 152h2l81 -87q9 -11 23 -3q32 19 80 67q7 7 7 22v20q-1 127 -17.5 256t-36.5 187q-12 36 -31 36q-33 0 -71 -114h-2q17 84 52.5 138.5t85.5 54.5
q34 0 53.5 -24.5t32.5 -71.5q18 -63 29 -168t8 -210h2q41 62 68 129q38 96 38 172zM331 703h143v-2l-257 -162l-1 1z" />
    <glyph glyph-name="thorn" unicode="&#xfe;" horiz-adv-x="486" 
d="M278 724l-93 -415h2q29 88 72 138.5t96 50.5q48 0 78 -38.5t30 -110.5q0 -143 -80.5 -250t-178.5 -107q-58 0 -84 29l-37 -180q-2 -11 -0.5 -14.5t10.5 -7.5l107 -45v-2h-303v2l52 36q16 11 19 28l175 809q2 9 2 13.5t-2 7t-9 5.5l-75 29v2zM210 335q-40 -86 -87 -306
q16 -10 40 -10q64 0 114 86q63 106 63 256q0 34 -10.5 52.5t-28.5 18.5q-45 0 -91 -97z" />
    <glyph glyph-name="ydieresis" unicode="&#xff;" horiz-adv-x="452" 
d="M373 325q0 79 -48 129v2l135 42q-13 -138 -67.5 -273t-133.5 -239q-76 -100 -163.5 -161t-150.5 -61q-18 0 -28 5l52 152h2l81 -87q9 -11 23 -3q32 19 80 67q7 7 7 22v20q-1 127 -17.5 256t-36.5 187q-12 36 -31 36q-33 0 -71 -114h-2q17 84 52.5 138.5t85.5 54.5
q34 0 53.5 -24.5t32.5 -71.5q18 -63 29 -168t8 -210h2q41 62 68 129q38 96 38 172zM217 682q24 0 39.5 -14.5t15.5 -38.5q0 -27 -19.5 -45.5t-47.5 -18.5q-24 0 -39.5 14.5t-15.5 38.5q0 27 19.5 45.5t47.5 18.5zM395 682q24 0 39.5 -14.5t15.5 -38.5q0 -27 -19.5 -45.5
t-47.5 -18.5q-23 0 -39 14.5t-16 38.5q0 27 19.5 45.5t47.5 18.5z" />
    <glyph glyph-name="Amacron" unicode="&#x100;" horiz-adv-x="621" 
d="M401 88l-19 158h-228l-62 -115q-6 -12 -5 -16.5t10 -17.5l66 -95v-2h-230v2l108 95q21 18 32 39l252 465q8 16 7.5 21t-7.5 15l-43 64v2h176l73 -608q2 -20 14 -40l31 -53v-2h-257v2l74 60q11 8 8 26zM342 593l-178 -328h216zM524 804h-262v18h262v-18z" />
    <glyph glyph-name="amacron" unicode="&#x101;" horiz-adv-x="522" 
d="M467 100q22 37 40 102h2q-14 -90 -57 -150t-102 -60q-32 0 -51 20t-19 59q0 33 19 113h-2q-66 -192 -167 -192q-46 0 -76.5 39.5t-30.5 113.5q0 86 34.5 167.5t94 133.5t124.5 52q66 0 91 -51l125 51h2q-10 -43 -94 -356q-8 -35 -8 -53q0 -31 23 -31q27 0 52 42zM362 440
q-12 23 -47 23q-54 0 -100 -71q-30 -49 -49.5 -120t-19.5 -134q0 -79 41 -79t81 82q41 87 94 299zM481 592h-262v18h262v-18z" />
    <glyph glyph-name="Abreve" unicode="&#x102;" horiz-adv-x="621" 
d="M401 88l-19 158h-228l-62 -115q-6 -12 -5 -16.5t10 -17.5l66 -95v-2h-230v2l108 95q21 18 32 39l252 465q8 16 7.5 21t-7.5 15l-43 64v2h176l73 -608q2 -20 14 -40l31 -53v-2h-257v2l74 60q11 8 8 26zM342 593l-178 -328h216zM392 821q51 0 88.5 25.5t49.5 71.5h2
q-3 -83 -44.5 -124t-100.5 -41q-46 0 -78 24.5t-32 72.5q0 29 15 68h2q-8 -45 19.5 -71t78.5 -26z" />
    <glyph glyph-name="abreve" unicode="&#x103;" horiz-adv-x="522" 
d="M467 100q22 37 40 102h2q-14 -90 -57 -150t-102 -60q-32 0 -51 20t-19 59q0 33 19 113h-2q-66 -192 -167 -192q-46 0 -76.5 39.5t-30.5 113.5q0 86 34.5 167.5t94 133.5t124.5 52q66 0 91 -51l125 51h2q-10 -43 -94 -356q-8 -35 -8 -53q0 -31 23 -31q27 0 52 42zM362 440
q-12 23 -47 23q-54 0 -100 -71q-30 -49 -49.5 -120t-19.5 -134q0 -79 41 -79t81 82q41 87 94 299zM348 609q51 0 88.5 25.5t49.5 71.5h2q-3 -83 -44.5 -124t-100.5 -41q-46 0 -78 24.5t-32 72.5q0 29 15 68h2q-8 -45 19.5 -71t78.5 -26z" />
    <glyph glyph-name="Aogonek" unicode="&#x104;" horiz-adv-x="621" 
d="M249 -236q-36 0 -60.5 21t-24.5 58q0 56 47 99t110 62l72 58q11 8 8 26l-19 158h-228l-62 -115q-6 -12 -5 -16.5t10 -17.5l66 -95v-2h-230v2l108 95q21 18 32 39l252 465q8 16 7.5 21t-7.5 15l-43 64v2h176l73 -608q2 -20 14 -40l31 -53v-2h-243q-39 -12 -66.5 -48.5
t-27.5 -78.5q0 -26 17 -41t44 -15q47 0 83 40l2 -1q-53 -92 -136 -92zM342 593l-178 -328h216z" />
    <glyph glyph-name="aogonek" unicode="&#x105;" horiz-adv-x="522" 
d="M289 -236q-36 0 -60.5 21t-24.5 58q0 53 43.5 91.5t104.5 57.5q-33 0 -52.5 20t-19.5 59q0 33 19 113h-2q-66 -192 -167 -192q-46 0 -76.5 39.5t-30.5 113.5q0 86 34.5 167.5t94 133.5t124.5 52q66 0 91 -51l125 51h2q-6 -22 -28.5 -106.5t-44 -166.5t-21.5 -83
q-8 -32 -8 -53q0 -31 23 -31q27 0 52 42q22 37 40 102h2q-12 -78 -47.5 -135t-83.5 -71q-42 -16 -70.5 -49t-28.5 -74q0 -26 17 -41t44 -15q47 0 83 40l2 -1q-53 -92 -136 -92zM362 440q-12 23 -47 23q-54 0 -100 -71q-30 -49 -49.5 -120t-19.5 -134q0 -79 41 -79t81 82
q41 87 94 299z" />
    <glyph glyph-name="Cacute" unicode="&#x106;" horiz-adv-x="590" 
d="M502 915h143v-2l-257 -162l-1 1zM300 -10q-125 0 -193.5 76.5t-68.5 198.5q0 120 49 222t140 164t204 62q110 0 198 -23l-49 -229h-2l-79 214q-4 12 -8.5 15t-14.5 5q-14 2 -30 2q-78 0 -141 -75t-94.5 -184t-31.5 -223q0 -92 32.5 -150.5t99.5 -58.5q18 0 28 1
q20 2 30 16l165 219h2l-46 -230q-97 -22 -190 -22z" />
    <glyph glyph-name="cacute" unicode="&#x107;" horiz-adv-x="419" 
d="M359 703h143v-2l-257 -162l-1 1zM187 -8q-73 0 -119.5 50t-46.5 139q0 125 82 221t205 96q67 0 121 -22l-70 -178h-2l-41 168q-3 11 -5.5 13.5t-10.5 2.5q-42 0 -78 -49t-55 -114t-19 -123q0 -64 25.5 -95.5t65.5 -31.5q45 0 85 37t63 110h2q-19 -113 -73 -168.5
t-129 -55.5z" />
    <glyph glyph-name="Ccircumflex" unicode="&#x108;" horiz-adv-x="590" 
d="M607 750l-2 -2l-132 77l-168 -77l-2 2l187 173h2zM300 -10q-125 0 -193.5 76.5t-68.5 198.5q0 120 49 222t140 164t204 62q110 0 198 -23l-49 -229h-2l-79 214q-4 12 -8.5 15t-14.5 5q-14 2 -30 2q-78 0 -141 -75t-94.5 -184t-31.5 -223q0 -92 32.5 -150.5t99.5 -58.5
q18 0 28 1q20 2 30 16l165 219h2l-46 -230q-97 -22 -190 -22z" />
    <glyph glyph-name="ccircumflex" unicode="&#x109;" horiz-adv-x="419" 
d="M464 538l-2 -2l-132 77l-168 -77l-2 2l187 173h2zM187 -8q-73 0 -119.5 50t-46.5 139q0 125 82 221t205 96q67 0 121 -22l-70 -178h-2l-41 168q-3 11 -5.5 13.5t-10.5 2.5q-42 0 -78 -49t-55 -114t-19 -123q0 -64 25.5 -95.5t65.5 -31.5q45 0 85 37t63 110h2
q-19 -113 -73 -168.5t-129 -55.5z" />
    <glyph glyph-name="Cdotaccent" unicode="&#x10a;" horiz-adv-x="590" 
d="M300 -10q-125 0 -193.5 76.5t-68.5 198.5q0 120 49 222t140 164t204 62q110 0 198 -23l-49 -229h-2l-79 214q-4 12 -8.5 15t-14.5 5q-14 2 -30 2q-78 0 -141 -75t-94.5 -184t-31.5 -223q0 -92 32.5 -150.5t99.5 -58.5q18 0 28 1q20 2 30 16l165 219h2l-46 -230
q-97 -22 -190 -22zM481 897q27 0 44 -16t17 -43q0 -30 -21.5 -50.5t-53.5 -20.5q-26 0 -44 16t-18 43q0 30 22 50.5t54 20.5z" />
    <glyph glyph-name="cdotaccent" unicode="&#x10b;" horiz-adv-x="419" 
d="M187 -8q-73 0 -119.5 50t-46.5 139q0 125 82 221t205 96q67 0 121 -22l-70 -178h-2l-41 168q-3 11 -5.5 13.5t-10.5 2.5q-42 0 -78 -49t-55 -114t-19 -123q0 -64 25.5 -95.5t65.5 -31.5q45 0 85 37t63 110h2q-19 -113 -73 -168.5t-129 -55.5zM337 685q27 0 44 -16t17 -43
q0 -30 -21.5 -50.5t-53.5 -20.5q-26 0 -44 16t-18 43q0 30 22 50.5t54 20.5z" />
    <glyph glyph-name="Ccaron" unicode="&#x10c;" horiz-adv-x="590" 
d="M475 847l168 71l1 -2l-187 -174h-2l-115 174l2 2zM300 -10q-125 0 -193.5 76.5t-68.5 198.5q0 120 49 222t140 164t204 62q110 0 198 -23l-49 -229h-2l-79 214q-4 12 -8.5 15t-14.5 5q-14 2 -30 2q-78 0 -141 -75t-94.5 -184t-31.5 -223q0 -92 32.5 -150.5t99.5 -58.5
q18 0 28 1q20 2 30 16l165 219h2l-46 -230q-97 -22 -190 -22z" />
    <glyph glyph-name="ccaron" unicode="&#x10d;" horiz-adv-x="419" 
d="M332 635l168 71l1 -2l-187 -174h-2l-115 174l2 2zM187 -8q-73 0 -119.5 50t-46.5 139q0 125 82 221t205 96q67 0 121 -22l-70 -178h-2l-41 168q-3 11 -5.5 13.5t-10.5 2.5q-42 0 -78 -49t-55 -114t-19 -123q0 -64 25.5 -95.5t65.5 -31.5q45 0 85 37t63 110h2
q-19 -113 -73 -168.5t-129 -55.5z" />
    <glyph glyph-name="Dcaron" unicode="&#x10e;" horiz-adv-x="674" 
d="M414 847l168 71l1 -2l-187 -174h-2l-115 174l2 2zM105 703h293q121 0 198 -73.5t77 -195.5q0 -182 -122.5 -308t-300.5 -126h-292v2l89 54q13 9 17 23l113 545q4 15 -7 23l-65 54v2zM337 684q-11 0 -15.5 -3.5t-7.5 -16.5l-129 -621q-4 -17 -0.5 -20.5t22.5 -3.5h19
q107 0 178.5 77.5t105.5 203.5q24 86 24 193q0 91 -43 141t-113 50h-41z" />
    <glyph glyph-name="dcaron" unicode="&#x10f;" horiz-adv-x="513" 
d="M701 703l-149 -193h-1l44 193h106zM435 30q-36 -38 -81 -38q-73 0 -74 78q0 38 20 114h-2q-66 -192 -168 -192q-45 0 -76 41.5t-31 113.5q0 139 77.5 245t175.5 106q62 0 81 -47l45 198q3 13 1 16t-11 7l-75 30v2l220 20l-137 -587q-7 -28 -7 -46q0 -33 24 -33
q53 0 89 144h2q-16 -115 -73 -172zM272 150q39 89 83 290v3q-18 19 -45 19q-55 0 -97 -70q-32 -51 -49.5 -121.5t-17.5 -129.5q0 -82 41 -82q22 0 44.5 25.5t40.5 65.5z" />
    <glyph glyph-name="Dcroat" unicode="&#x110;" horiz-adv-x="690" 
d="M38 348v19h97l54 259q3 14 -7 23l-67 52v2h290q127 0 202.5 -72.5t75.5 -194.5q0 -180 -119.5 -308t-290.5 -128h-303v2l87 52q14 9 17 23l57 271h-93zM350 684q-11 0 -15.5 -3.5t-6.5 -16.5l-62 -297h114v-19h-118l-63 -305q-4 -17 -0.5 -20.5t21.5 -3.5h18
q112 0 185 89.5t103 224.5q18 80 18 158q0 93 -40.5 143t-112.5 50h-41z" />
    <glyph glyph-name="dcroat" unicode="&#x111;" horiz-adv-x="515" 
d="M130 -8q-45 0 -76 41.5t-31 113.5q0 139 77.5 245t175.5 106q62 0 81 -47l25 113h-124v18h129l15 67q3 13 1 16t-11 7l-75 30v2l220 20l-34 -142h70v-18h-74l-99 -427q-7 -28 -7 -46q0 -33 24 -33q53 0 89 144h2q-16 -115 -73 -172q-36 -38 -81 -38q-73 0 -74 78
q0 38 20 114h-2q-66 -192 -168 -192zM272 150q39 89 83 290v3q-18 19 -45 19q-55 0 -97 -70q-32 -51 -49.5 -121.5t-17.5 -129.5q0 -82 41 -82q22 0 44.5 25.5t40.5 65.5z" />
    <glyph glyph-name="Emacron" unicode="&#x112;" horiz-adv-x="591" 
d="M209 19h145q17 0 23.5 2.5t14.5 12.5l143 194h2l-46 -228h-524v2l89 54q13 9 17 23l113 545q4 15 -7 23l-66 54v2h513l-47 -228h-2l-64 191q-4 12 -9 15t-17 3h-140q-13 0 -17 -4t-7 -19l-62 -296h97q16 1 34 19l94 94h2l-51 -244h-2l-55 95q-7 12 -11.5 15t-14.5 3h-97
l-63 -305q-3 -15 -0.5 -19t15.5 -4zM553 804h-262v18h262v-18z" />
    <glyph glyph-name="emacron" unicode="&#x113;" horiz-adv-x="445" 
d="M248 67q50 0 94.5 38.5t65.5 111.5h2q-10 -61 -33 -106.5t-53 -70.5t-62.5 -36.5t-67.5 -11.5q-76 0 -124.5 51.5t-48.5 141.5q0 121 83.5 217t200.5 96q59 0 96 -28t37 -73q0 -76 -89 -123.5t-198 -38.5q-3 -19 -3 -40q0 -61 25.5 -94.5t74.5 -33.5zM297 482
q-46 0 -89 -75t-56 -163q80 0 129.5 50t49.5 126q0 62 -34 62zM458 592h-262v18h262v-18z" />
    <glyph glyph-name="Ebreve" unicode="&#x114;" horiz-adv-x="591" 
d="M209 19h145q17 0 23.5 2.5t14.5 12.5l143 194h2l-46 -228h-524v2l89 54q13 9 17 23l113 545q4 15 -7 23l-66 54v2h513l-47 -228h-2l-64 191q-4 12 -9 15t-17 3h-140q-13 0 -17 -4t-7 -19l-62 -296h97q16 1 34 19l94 94h2l-51 -244h-2l-55 95q-7 12 -11.5 15t-14.5 3h-97
l-63 -305q-3 -15 -0.5 -19t15.5 -4zM421 821q51 0 88.5 25.5t49.5 71.5h2q-3 -83 -44.5 -124t-100.5 -41q-46 0 -78 24.5t-32 72.5q0 29 15 68h2q-8 -45 19.5 -71t78.5 -26z" />
    <glyph glyph-name="ebreve" unicode="&#x115;" horiz-adv-x="445" 
d="M248 67q50 0 94.5 38.5t65.5 111.5h2q-10 -61 -33 -106.5t-53 -70.5t-62.5 -36.5t-67.5 -11.5q-76 0 -124.5 51.5t-48.5 141.5q0 121 83.5 217t200.5 96q59 0 96 -28t37 -73q0 -76 -89 -123.5t-198 -38.5q-3 -19 -3 -40q0 -61 25.5 -94.5t74.5 -33.5zM297 482
q-46 0 -89 -75t-56 -163q80 0 129.5 50t49.5 126q0 62 -34 62zM325 609q51 0 88.5 25.5t49.5 71.5h2q-3 -83 -44.5 -124t-100.5 -41q-46 0 -78 24.5t-32 72.5q0 29 15 68h2q-8 -45 19.5 -71t78.5 -26z" />
    <glyph glyph-name="Edotaccent" unicode="&#x116;" horiz-adv-x="591" 
d="M209 19h145q17 0 23.5 2.5t14.5 12.5l143 194h2l-46 -228h-524v2l89 54q13 9 17 23l113 545q4 15 -7 23l-66 54v2h513l-47 -228h-2l-64 191q-4 12 -9 15t-17 3h-140q-13 0 -17 -4t-7 -19l-62 -296h97q16 1 34 19l94 94h2l-51 -244h-2l-55 95q-7 12 -11.5 15t-14.5 3h-97
l-63 -305q-3 -15 -0.5 -19t15.5 -4zM434 897q27 0 44 -16t17 -43q0 -30 -21.5 -50.5t-53.5 -20.5q-26 0 -44 16t-18 43q0 30 22 50.5t54 20.5z" />
    <glyph glyph-name="edotaccent" unicode="&#x117;" horiz-adv-x="445" 
d="M248 67q50 0 94.5 38.5t65.5 111.5h2q-10 -61 -33 -106.5t-53 -70.5t-62.5 -36.5t-67.5 -11.5q-76 0 -124.5 51.5t-48.5 141.5q0 121 83.5 217t200.5 96q59 0 96 -28t37 -73q0 -76 -89 -123.5t-198 -38.5q-3 -19 -3 -40q0 -61 25.5 -94.5t74.5 -33.5zM297 482
q-46 0 -89 -75t-56 -163q80 0 129.5 50t49.5 126q0 62 -34 62zM338 685q27 0 44 -16t17 -43q0 -30 -21.5 -50.5t-53.5 -20.5q-26 0 -44 16t-18 43q0 30 22 50.5t54 20.5z" />
    <glyph glyph-name="Eogonek" unicode="&#x118;" horiz-adv-x="591" 
d="M311 -236q-35 0 -60 21t-25 58q0 56 47.5 98t111.5 59h-418v2l89 54q13 9 17 23l113 545q4 15 -7 23l-66 54v2h513l-47 -228h-2l-64 191q-4 12 -9 15t-17 3h-140q-13 0 -17 -4t-7 -19l-62 -296h97q16 1 34 19l94 94h2l-51 -244h-2l-55 95q-7 12 -11.5 15t-14.5 3h-97
l-63 -305q-3 -15 -0.5 -19t15.5 -4h145q16 0 22.5 2.5t15.5 12.5l143 194h2l-46 -228h-93q-41 -18 -68.5 -52t-27.5 -75q0 -26 16.5 -41t43.5 -15q47 0 84 40l2 -1q-55 -92 -137 -92z" />
    <glyph glyph-name="eogonek" unicode="&#x119;" horiz-adv-x="445" 
d="M194 -8q-76 0 -124.5 51.5t-48.5 141.5q0 121 83.5 217t200.5 96q59 0 96 -28t37 -73q0 -76 -89 -123.5t-198 -38.5q-3 -19 -3 -40q0 -61 25.5 -94.5t74.5 -33.5q50 0 94.5 38.5t65.5 111.5h2q-19 -111 -74.5 -165t-126.5 -59q-36 -19 -59 -51t-23 -69q0 -26 17 -41
t44 -15q47 0 83 40l2 -1q-53 -92 -136 -92q-36 0 -60.5 21t-24.5 58q0 53 42.5 91.5t99.5 57.5zM297 482q-46 0 -89 -75t-56 -163q80 0 129.5 50t49.5 126q0 62 -34 62z" />
    <glyph glyph-name="Ecaron" unicode="&#x11a;" horiz-adv-x="591" 
d="M429 847l168 71l1 -2l-187 -174h-2l-115 174l2 2zM209 19h145q17 0 23.5 2.5t14.5 12.5l143 194h2l-46 -228h-524v2l89 54q13 9 17 23l113 545q4 15 -7 23l-66 54v2h513l-47 -228h-2l-64 191q-4 12 -9 15t-17 3h-140q-13 0 -17 -4t-7 -19l-62 -296h97q16 1 34 19l94 94h2
l-51 -244h-2l-55 95q-7 12 -11.5 15t-14.5 3h-97l-63 -305q-3 -15 -0.5 -19t15.5 -4z" />
    <glyph glyph-name="ecaron" unicode="&#x11b;" horiz-adv-x="445" 
d="M333 635l168 71l1 -2l-187 -174h-2l-115 174l2 2zM248 67q50 0 94.5 38.5t65.5 111.5h2q-10 -61 -33 -106.5t-53 -70.5t-62.5 -36.5t-67.5 -11.5q-76 0 -124.5 51.5t-48.5 141.5q0 121 83.5 217t200.5 96q59 0 96 -28t37 -73q0 -76 -89 -123.5t-198 -38.5q-3 -19 -3 -40
q0 -61 25.5 -94.5t74.5 -33.5zM297 482q-46 0 -89 -75t-56 -163q80 0 129.5 50t49.5 126q0 62 -34 62z" />
    <glyph glyph-name="Gcircumflex" unicode="&#x11c;" horiz-adv-x="655" 
d="M602 750l-2 -2l-132 77l-168 -77l-2 2l187 173h2zM179 212q0 -98 35 -150.5t102 -52.5q37 0 82 16l42 203q3 18 -5 26l-57 55v2h287v-2l-79 -55q-13 -8 -16 -26l-50 -238l-108 22q-61 -22 -113 -22q-123 0 -192 77t-69 203q0 123 50.5 223.5t146.5 160t218 59.5
q111 0 202 -22l-46 -227h-2l-81 210q-5 11 -9 15t-15 5q-12 2 -35 2q-59 0 -108 -30t-81.5 -79t-55.5 -113t-33 -130t-10 -132z" />
    <glyph glyph-name="gcircumflex" unicode="&#x11d;" horiz-adv-x="475" 
d="M439 538l-2 -2l-132 77l-168 -77l-2 2l187 173h2zM500 436h-90q30 -35 30 -83q0 -83 -64 -132.5t-150 -49.5q-38 0 -67 10q-19 -5 -32 -16.5t-13 -23.5q0 -27 53 -38l119 -26q63 -14 94.5 -49t31.5 -83q0 -79 -73 -130t-174 -51q-90 0 -153 33.5t-63 92.5q0 45 40 75
t102 42q-73 23 -73 77q0 37 33.5 64t96.5 36q-43 16 -68 49.5t-25 81.5q0 82 63.5 132.5t150.5 50.5q65 0 116 -36q13 -9 22 0l125 136h2zM113 1q-3 0 -15 4q-67 -39 -67 -107q0 -52 43 -85t101 -33q61 0 101 30.5t40 80.5q0 64 -93 85zM276 483q-48 0 -78 -68t-30 -142
q0 -87 49 -87q33 0 59 34.5t38 81.5t12 92q0 89 -50 89z" />
    <glyph glyph-name="Gbreve" unicode="&#x11e;" horiz-adv-x="655" 
d="M179 212q0 -98 35 -150.5t102 -52.5q37 0 82 16l42 203q3 18 -5 26l-57 55v2h287v-2l-79 -55q-13 -8 -16 -26l-50 -238l-108 22q-61 -22 -113 -22q-123 0 -192 77t-69 203q0 123 50.5 223.5t146.5 160t218 59.5q111 0 202 -22l-46 -227h-2l-81 210q-5 11 -9 15t-15 5
q-12 2 -35 2q-59 0 -108 -30t-81.5 -79t-55.5 -113t-33 -130t-10 -132zM463 821q51 0 88.5 25.5t49.5 71.5h2q-3 -83 -44.5 -124t-100.5 -41q-46 0 -78 24.5t-32 72.5q0 29 15 68h2q-8 -45 19.5 -71t78.5 -26z" />
    <glyph glyph-name="gbreve" unicode="&#x11f;" horiz-adv-x="475" 
d="M500 436h-90q30 -35 30 -83q0 -83 -64 -132.5t-150 -49.5q-38 0 -67 10q-19 -5 -32 -16.5t-13 -23.5q0 -27 53 -38l119 -26q63 -14 94.5 -49t31.5 -83q0 -79 -73 -130t-174 -51q-90 0 -153 33.5t-63 92.5q0 45 40 75t102 42q-73 23 -73 77q0 37 33.5 64t96.5 36
q-43 16 -68 49.5t-25 81.5q0 82 63.5 132.5t150.5 50.5q65 0 116 -36q13 -9 22 0l125 136h2zM113 1q-3 0 -15 4q-67 -39 -67 -107q0 -52 43 -85t101 -33q61 0 101 30.5t40 80.5q0 64 -93 85zM276 483q-48 0 -78 -68t-30 -142q0 -87 49 -87q33 0 59 34.5t38 81.5t12 92
q0 89 -50 89zM299 609q51 0 88.5 25.5t49.5 71.5h2q-3 -83 -44.5 -124t-100.5 -41q-46 0 -78 24.5t-32 72.5q0 29 15 68h2q-8 -45 19.5 -71t78.5 -26z" />
    <glyph glyph-name="Gdotaccent" unicode="&#x120;" horiz-adv-x="655" 
d="M179 212q0 -98 35 -150.5t102 -52.5q37 0 82 16l42 203q3 18 -5 26l-57 55v2h287v-2l-79 -55q-13 -8 -16 -26l-50 -238l-108 22q-61 -22 -113 -22q-123 0 -192 77t-69 203q0 123 50.5 223.5t146.5 160t218 59.5q111 0 202 -22l-46 -227h-2l-81 210q-5 11 -9 15t-15 5
q-12 2 -35 2q-59 0 -108 -30t-81.5 -79t-55.5 -113t-33 -130t-10 -132zM476 897q27 0 44 -16t17 -43q0 -30 -21.5 -50.5t-53.5 -20.5q-26 0 -44 16t-18 43q0 30 22 50.5t54 20.5z" />
    <glyph glyph-name="gdotaccent" unicode="&#x121;" horiz-adv-x="475" 
d="M500 436h-90q30 -35 30 -83q0 -83 -64 -132.5t-150 -49.5q-38 0 -67 10q-19 -5 -32 -16.5t-13 -23.5q0 -27 53 -38l119 -26q63 -14 94.5 -49t31.5 -83q0 -79 -73 -130t-174 -51q-90 0 -153 33.5t-63 92.5q0 45 40 75t102 42q-73 23 -73 77q0 37 33.5 64t96.5 36
q-43 16 -68 49.5t-25 81.5q0 82 63.5 132.5t150.5 50.5q65 0 116 -36q13 -9 22 0l125 136h2zM113 1q-3 0 -15 4q-67 -39 -67 -107q0 -52 43 -85t101 -33q61 0 101 30.5t40 80.5q0 64 -93 85zM276 483q-48 0 -78 -68t-30 -142q0 -87 49 -87q33 0 59 34.5t38 81.5t12 92
q0 89 -50 89zM312 685q27 0 44 -16t17 -43q0 -30 -21.5 -50.5t-53.5 -20.5q-26 0 -44 16t-18 43q0 30 22 50.5t54 20.5z" />
    <glyph glyph-name="Gcommaaccent" unicode="&#x122;" horiz-adv-x="655" 
d="M252 -153q-38 6 -38 45q0 28 20 47.5t47 19.5q24 0 39 -16t15 -41q0 -41 -29 -77t-72 -59q-25 -13 -46 -19v2q26 12 40 31q23 30 30 55q3 11 -6 12zM179 212q0 -98 35 -150.5t102 -52.5q37 0 82 16l42 203q3 18 -5 26l-57 55v2h287v-2l-79 -55q-13 -8 -16 -26l-50 -238
l-108 22q-61 -22 -113 -22q-123 0 -192 77t-69 203q0 123 50.5 223.5t146.5 160t218 59.5q111 0 202 -22l-46 -227h-2l-81 210q-5 11 -9 15t-15 5q-12 2 -35 2q-59 0 -108 -30t-81.5 -79t-55.5 -113t-33 -130t-10 -132z" />
    <glyph glyph-name="gcommaaccent" unicode="&#x123;" horiz-adv-x="475" 
d="M500 436h-90q30 -35 30 -83q0 -83 -64 -132.5t-150 -49.5q-38 0 -67 10q-19 -5 -32 -16.5t-13 -23.5q0 -27 53 -38l119 -26q63 -14 94.5 -49t31.5 -83q0 -79 -73 -130t-174 -51q-90 0 -153 33.5t-63 92.5q0 45 40 75t102 42q-73 23 -73 77q0 37 33.5 64t96.5 36
q-43 16 -68 49.5t-25 81.5q0 82 63.5 132.5t150.5 50.5q65 0 116 -36q13 -9 22 0l125 136h2zM113 1q-3 0 -15 4q-67 -39 -67 -107q0 -52 43 -85t101 -33q61 0 101 30.5t40 80.5q0 64 -93 85zM276 483q-48 0 -78 -68t-30 -142q0 -87 49 -87q33 0 59 34.5t38 81.5t12 92
q0 89 -50 89zM323 673q-4 -11 6 -12q38 -6 38 -45q0 -28 -20 -47.5t-47 -19.5q-25 0 -39.5 15.5t-14.5 41.5q0 72 88 128q28 19 59 27v-2q-30 -15 -47 -38q-13 -16 -23 -48z" />
    <glyph glyph-name="Hcircumflex" unicode="&#x124;" horiz-adv-x="740" 
d="M630 750l-2 -2l-132 77l-168 -77l-2 2l187 173h2zM532 370l53 254q3 16 -7 23l-66 54v2h306v-2l-88 -54q-14 -9 -16 -23l-113 -545q-4 -15 6 -23l65 -54v-2h-306v2l88 54q13 9 17 23l57 272h-269l-57 -272q-4 -15 6 -23l66 -54v-2h-307v2l89 54q13 9 17 23l113 545
q4 15 -7 23l-66 54v2h307v-2l-88 -54q-14 -8 -16 -23l-53 -254h269z" />
    <glyph glyph-name="hcircumflex" unicode="&#x125;" horiz-adv-x="521" 
d="M370 750l-2 -2l-132 77l-168 -77l-2 2l187 173h2zM479 415q0 -36 -25 -116l-45 -142q-15 -47 -15 -70q0 -27 23 -27q24 0 45 30q26 35 45 112h2q-12 -97 -59.5 -153.5t-105.5 -56.5q-34 0 -54 19.5t-20 54.5q0 34 24 108l49 150q18 56 18 78q0 30 -29 30q-57 0 -107 -85
q-49 -87 -109 -347h-115l151 649q3 13 1.5 16.5t-10.5 6.5l-76 30v2l220 20l-103 -436h2q37 99 93 154.5t116 55.5q39 0 61.5 -22.5t22.5 -60.5z" />
    <glyph glyph-name="Hbar" unicode="&#x126;" horiz-adv-x="740" 
d="M685 484h75v-18h-79l-80 -387q-4 -15 6 -23l65 -54v-2h-306v2l88 54q13 9 17 23l45 214h-269l-45 -214q-4 -15 6 -23l66 -54v-2h-307v2l89 54q13 9 17 23l80 387h-78v18h82l29 140q4 15 -7 23l-66 54v2h307v-2l-88 -54q-14 -8 -16 -23l-29 -140h269l29 140q3 16 -7 23
l-66 54v2h306v-2l-88 -54q-14 -9 -16 -23zM552 466h-269l-32 -154h269z" />
    <glyph glyph-name="hbar" unicode="&#x127;" horiz-adv-x="521" 
d="M410 157q-15 -47 -15 -70q0 -27 23 -27q24 0 45 30q26 35 45 112h2q-12 -97 -59.5 -153.5t-105.5 -56.5q-34 0 -54 19.5t-20 54.5q0 34 24 108l49 150q18 56 18 78q0 30 -29 30q-57 0 -107 -85q-49 -87 -109 -347h-115l131 564h-73v17h77l16 68q3 13 1.5 16.5t-10.5 6.5
l-76 30v2l220 20l-34 -143h138v-17h-142l-65 -276h2q37 99 93 154.5t116 55.5q39 0 61.5 -22.5t22.5 -60.5q0 -36 -25 -116z" />
    <glyph glyph-name="Itilde" unicode="&#x128;" horiz-adv-x="342" 
d="M316 624l-114 -545q-4 -15 6 -23l66 -54v-2h-307v2l89 54q13 9 17 23l113 545q4 15 -7 23l-66 54v2h307v-2l-88 -54q-14 -8 -16 -23zM444 892h2q-9 -52 -36.5 -85t-65.5 -33q-24 0 -64.5 23.5t-61.5 23.5q-44 0 -72 -48h-2q9 52 36.5 85t65.5 33q25 0 65 -24t61 -24
q45 0 72 49z" />
    <glyph glyph-name="itilde" unicode="&#x129;" horiz-adv-x="284" 
d="M99 -8q-33 0 -52 20.5t-19 55.5q0 30 12 80l74 279q5 18 -10 23l-75 30v2l222 16l-90 -338q-15 -58 -15 -73q0 -27 22 -27q24 0 45 29q29 40 45 113h2q-9 -81 -54.5 -145.5t-106.5 -64.5zM351 680h2q-9 -52 -36.5 -85t-65.5 -33q-24 0 -64.5 23.5t-61.5 23.5
q-44 0 -72 -48h-2q9 52 36.5 85t65.5 33q25 0 65 -24t61 -24q45 0 72 49z" />
    <glyph glyph-name="Imacron" unicode="&#x12a;" horiz-adv-x="342" 
d="M316 624l-114 -545q-4 -15 6 -23l66 -54v-2h-307v2l89 54q13 9 17 23l113 545q4 15 -7 23l-66 54v2h307v-2l-88 -54q-14 -8 -16 -23zM419 804h-262v18h262v-18z" />
    <glyph glyph-name="imacron" unicode="&#x12b;" horiz-adv-x="284" 
d="M107 -8q-33 0 -52 20.5t-19 55.5q0 30 12 80l74 279q5 18 -10 23l-75 30v2l222 16l-90 -338q-15 -58 -15 -73q0 -27 22 -27q24 0 45 29q29 40 45 113h2q-9 -81 -54.5 -145.5t-106.5 -64.5zM334 592h-262v18h262v-18z" />
    <glyph glyph-name="Ibreve" unicode="&#x12c;" horiz-adv-x="342" 
d="M316 624l-114 -545q-4 -15 6 -23l66 -54v-2h-307v2l89 54q13 9 17 23l113 545q4 15 -7 23l-66 54v2h307v-2l-88 -54q-14 -8 -16 -23zM287 821q51 0 88.5 25.5t49.5 71.5h2q-3 -83 -44.5 -124t-100.5 -41q-46 0 -78 24.5t-32 72.5q0 29 15 68h2q-8 -45 19.5 -71t78.5 -26z
" />
    <glyph glyph-name="ibreve" unicode="&#x12d;" horiz-adv-x="284" 
d="M107 -8q-33 0 -52 20.5t-19 55.5q0 30 12 80l74 279q5 18 -10 23l-75 30v2l222 16l-90 -338q-15 -58 -15 -73q0 -27 22 -27q24 0 45 29q29 40 45 113h2q-9 -81 -54.5 -145.5t-106.5 -64.5zM202 609q51 0 88.5 25.5t49.5 71.5h2q-3 -83 -44.5 -124t-100.5 -41
q-46 0 -78 24.5t-32 72.5q0 29 15 68h2q-8 -45 19.5 -71t78.5 -26z" />
    <glyph glyph-name="Iogonek" unicode="&#x12e;" horiz-adv-x="342" 
d="M202 79q-4 -15 6 -23l66 -54v-2h-121q-41 -18 -68.5 -52t-27.5 -75q0 -26 16.5 -41t43.5 -15q48 0 84 40l2 -1q-55 -92 -137 -92q-35 0 -60 21t-25 58q0 56 47.5 98t111.5 59h-173v2l89 54q13 9 17 23l113 545q4 15 -7 23l-66 54v2h307v-2l-88 -54q-15 -9 -16 -23z" />
    <glyph glyph-name="iogonek" unicode="&#x12f;" horiz-adv-x="284" 
d="M170 160q-15 -58 -15 -73q0 -27 22 -27q24 0 45 29q29 40 45 113h2q-8 -74 -48 -136t-95 -72q-36 -19 -59.5 -51t-23.5 -70q0 -26 16.5 -41t43.5 -15q47 0 84 40l2 -1q-55 -92 -137 -92q-35 0 -60 21t-25 58q0 52 41 90t100 59q-33 0 -52 20.5t-19 55.5q0 30 12 80
l74 279q5 18 -10 23l-75 30v2l222 16zM232 692q28 0 46 -17t18 -44q0 -31 -22.5 -52t-54.5 -21q-28 0 -46 16.5t-18 43.5q0 31 22.5 52.5t54.5 21.5z" />
    <glyph glyph-name="Idotaccent" unicode="&#x130;" horiz-adv-x="342" 
d="M316 624l-114 -545q-4 -15 6 -23l66 -54v-2h-307v2l89 54q13 9 17 23l113 545q4 15 -7 23l-66 54v2h307v-2l-88 -54q-14 -8 -16 -23zM300 897q27 0 44 -16t17 -43q0 -30 -21.5 -50.5t-53.5 -20.5q-26 0 -44 16t-18 43q0 30 22 50.5t54 20.5z" />
    <glyph glyph-name="dotlessi" unicode="&#x131;" horiz-adv-x="284" 
d="M107 -8q-33 0 -52 20.5t-19 55.5q0 30 12 80l74 279q5 18 -10 23l-75 30v2l222 16l-90 -338q-15 -58 -15 -73q0 -27 22 -27q24 0 45 29q29 40 45 113h2q-9 -81 -54.5 -145.5t-106.5 -64.5z" />
    <glyph glyph-name="IJ" unicode="&#x132;" horiz-adv-x="652" 
d="M316 624l-114 -545q-4 -15 6 -23l66 -54v-2h-307v2l89 54q13 9 17 23l113 545q4 15 -7 23l-66 54v2h307v-2l-88 -54q-14 -8 -16 -23zM642 624l-118 -564q-51 -247 -311 -271v2q139 63 176 242l124 591q2 15 -7 23l-66 54v2h307v-2l-89 -54q-14 -9 -16 -23z" />
    <glyph glyph-name="ij" unicode="&#x133;" horiz-adv-x="547" 
d="M259 498l-90 -338q-15 -58 -15 -73q0 -27 22 -27q24 0 45 29q29 40 45 113h2q-9 -81 -54.5 -145.5t-106.5 -64.5q-33 0 -52 20.5t-19 55.5q0 30 12 80l74 279q5 18 -10 23l-75 30v2zM231 692q28 0 46 -17t18 -44q0 -31 -22.5 -52t-54.5 -21q-28 0 -46 16.5t-18 43.5
q0 31 22.5 52.5t54.5 21.5zM334 103l67 325q4 18 -11 23l-74 29v2l221 16l-87 -370q-85 -364 -290 -364q-46 0 -80 22l64 158h2l43 -143q4 -14 15 -14q9 0 22 11q55 48 108 305zM437 618q0 31 22.5 52.5t54.5 21.5q28 0 46 -17t18 -44q0 -31 -22.5 -52t-54.5 -21
q-28 0 -46 16.5t-18 43.5z" />
    <glyph glyph-name="Jcircumflex" unicode="&#x134;" horiz-adv-x="316" 
d="M416 750l-2 -2l-132 77l-168 -77l-2 2l187 173h2zM306 624l-118 -564q-51 -247 -311 -271v2q139 63 176 242l124 591q2 15 -7 23l-66 54v2h307v-2l-89 -54q-14 -9 -16 -23z" />
    <glyph glyph-name="jcircumflex" unicode="&#x135;" horiz-adv-x="263" 
d="M167 128q-83 -364 -290 -364q-46 0 -80 22l64 158h2l43 -143q4 -14 15 -14q63 0 130 316l67 325q4 17 -11 23l-74 29v2l221 16zM335 538l-2 -2l-132 77l-168 -77l-2 2l187 173h2z" />
    <glyph glyph-name="Kcommaaccent" unicode="&#x136;" horiz-adv-x="659" 
d="M282 -153q-38 6 -38 45q0 28 20 47.5t47 19.5q24 0 39 -16t15 -41q0 -41 -29 -77t-72 -59q-25 -13 -46 -19v2q26 12 40 31q23 30 30 55q3 11 -6 12zM316 624l-114 -545q-4 -15 6 -23l66 -54v-2h-307v2l89 54q13 9 17 23l113 545q4 15 -7 23l-66 54v2h307v-2l-88 -54
q-14 -9 -16 -23zM530 92q10 -19 23 -34l53 -56v-2h-175l-164 348l286 246q18 14 4 31l-65 76v2h284v-2l-152 -80q-33 -17 -53 -34l-196 -168z" />
    <glyph glyph-name="kcommaaccent" unicode="&#x137;" horiz-adv-x="488" 
d="M148 -153q-38 6 -38 45q0 28 20 47.5t47 19.5q24 0 39 -16t15 -41q0 -41 -29 -77t-72 -59q-25 -13 -46 -19v2q26 12 40 31q23 30 30 55q3 11 -6 12zM340 130q7 -39 16 -54.5t26 -15.5q24 0 47 34q24 37 41 108h2q-11 -98 -59 -154t-103 -56q-38 0 -54.5 21.5t-24.5 72.5
l-21 142q-3 22 -11 32t-21 5l-60 -265h-115l144 649q3 13 1 16t-11 7l-75 30v2l219 20l-102 -453l164 121q19 14 19 20q0 7 -14 21l-45 47v2h232v-2l-117 -61q-40 -22 -52 -31l-62 -46z" />
    <glyph glyph-name="kgreenlandic" unicode="&#x138;" horiz-adv-x="506" 
d="M358 130q7 -38 16.5 -54t25.5 -16q29 0 55 47q18 32 33 95h2q-11 -98 -58.5 -154t-103.5 -56q-37 0 -53.5 21.5t-24.5 72.5l-22 145q-3 21 -11 30.5t-20 5.5l-61 -267h-115l95 425q2 10 2 14.5t-2 7t-9 5.5l-78 29v2l221 15l-52 -226l164 120q18 13 18 21q0 7 -13 20
l-45 48v2h231v-2l-117 -62q-37 -20 -52 -31l-62 -46z" />
    <glyph glyph-name="Lacute" unicode="&#x139;" horiz-adv-x="559" 
d="M323 915h143v-2l-257 -162l-1 1zM316 624l-121 -582q-3 -15 -1 -19t15 -4h125q25 0 36 15l155 206h2l-49 -240h-511v2l89 55q14 9 17 22l113 545q4 15 -7 23l-66 54v2h307v-2l-88 -54q-14 -8 -16 -23z" />
    <glyph glyph-name="lacute" unicode="&#x13a;" horiz-adv-x="268" 
d="M262 915h143v-2l-257 -162l-1 1zM186 43q-46 -51 -96 -51q-34 0 -53 21.5t-19 55.5q0 28 12 80l115 500q3 12 1 16t-10 7l-75 30v2l219 20l-131 -566q-12 -50 -12 -69q0 -29 23 -29t44 29q29 39 45 113h2q-11 -99 -65 -159z" />
    <glyph glyph-name="Lcommaaccent" unicode="&#x13b;" horiz-adv-x="559" 
d="M217 -153q-38 6 -38 45q0 28 20 47.5t47 19.5q24 0 39 -16t15 -41q0 -41 -29 -77t-72 -59q-25 -13 -46 -19v2q26 12 40 31q23 30 30 55q3 11 -6 12zM316 624l-121 -582q-3 -15 -1 -19t15 -4h125q25 0 36 15l155 206h2l-49 -240h-511v2l89 55q14 9 17 22l113 545
q4 15 -7 23l-66 54v2h307v-2l-88 -54q-14 -8 -16 -23z" />
    <glyph glyph-name="lcommaaccent" unicode="&#x13c;" horiz-adv-x="268" 
d="M44 -153q-38 6 -38 45q0 28 20 47.5t47 19.5q24 0 39 -16t15 -41q0 -41 -29 -77t-72 -59q-25 -13 -46 -19v2q26 12 40 31q23 30 30 55q3 11 -6 12zM186 43q-46 -51 -96 -51q-34 0 -53 21.5t-19 55.5q0 28 12 80l115 500q3 12 1 16t-10 7l-75 30v2l219 20l-131 -566
q-12 -50 -12 -69q0 -29 23 -29t44 29q29 39 45 113h2q-11 -99 -65 -159z" />
    <glyph glyph-name="Lcaron" unicode="&#x13d;" horiz-adv-x="559" 
d="M600 703l-149 -193h-1l44 193h106zM316 624l-121 -582q-3 -15 -1 -19t15 -4h125q25 0 36 15l155 206h2l-49 -240h-511v2l89 55q14 9 17 22l113 545q4 15 -7 23l-66 54v2h307v-2l-88 -54q-14 -8 -16 -23z" />
    <glyph glyph-name="lcaron" unicode="&#x13e;" horiz-adv-x="271" 
d="M437 703l-149 -193h-1l44 193h106zM186 43q-46 -51 -96 -51q-34 0 -53 21.5t-19 55.5q0 28 12 80l115 500q3 12 1 16t-10 7l-75 30v2l219 20l-131 -566q-12 -50 -12 -69q0 -29 23 -29t44 29q29 39 45 113h2q-11 -99 -65 -159z" />
    <glyph glyph-name="Ldot" unicode="&#x13f;" horiz-adv-x="559" 
d="M316 624l-121 -582q-3 -15 -1 -19t15 -4h125q25 0 36 15l155 206h2l-49 -240h-511v2l89 55q14 9 17 22l113 545q4 15 -7 23l-66 54v2h307v-2l-88 -54q-14 -8 -16 -23zM461 455q27 0 44 -16t17 -43q0 -30 -21.5 -50.5t-53.5 -20.5q-26 0 -44 16t-18 43q0 30 22 50.5
t54 20.5z" />
    <glyph glyph-name="ldot" unicode="&#x140;" horiz-adv-x="373" 
d="M186 43q-46 -51 -96 -51q-34 0 -53 21.5t-19 55.5q0 28 12 80l115 500q3 12 1 16t-10 7l-75 30v2l219 20l-131 -566q-12 -50 -12 -69q0 -29 23 -29t44 29q29 39 45 113h2q-11 -99 -65 -159zM329 432q27 0 44 -16t17 -43q0 -30 -21.5 -50.5t-53.5 -20.5q-26 0 -44 16
t-18 43q0 30 22 50.5t54 20.5z" />
    <glyph glyph-name="Lslash" unicode="&#x141;" horiz-adv-x="546" 
d="M368 425l7 -17l-122 -51l-65 -315q-3 -15 -1 -19t15 -4h125q25 0 36 15l155 206h2l-49 -240h-511v2l89 55q15 9 17 22l45 219l-88 -36l-6 17l99 41l63 304q4 15 -7 23l-66 54v2h307v-2l-88 -54q-13 -8 -16 -23l-51 -245z" />
    <glyph glyph-name="lslash" unicode="&#x142;" horiz-adv-x="299" 
d="M307 724l-81 -349l103 43l7 -16l-115 -48l-45 -196q-12 -50 -12 -69q0 -29 23 -29t44 29q29 39 45 113h2q-11 -99 -65 -159q-46 -51 -96 -51q-34 0 -53 21.5t-19 55.5q0 28 12 80l34 151l-90 -38l-6 16l101 42l76 329q3 12 1 16t-10 7l-75 30v2z" />
    <glyph glyph-name="Nacute" unicode="&#x143;" horiz-adv-x="681" 
d="M476 915h143v-2l-257 -162l-1 1zM292 703l242 -580l94 449q4 17 -8 31l-78 98v2h245v-2l-118 -98q-18 -14 -21 -31l-119 -572h-82l-239 570l-91 -439q-2 -12 -1 -17t9 -14l77 -98v-2h-244v2l118 98q18 14 21 31l94 449q5 20 -5 33l-73 88v2h179z" />
    <glyph glyph-name="nacute" unicode="&#x144;" horiz-adv-x="546" 
d="M382 703h143v-2l-257 -162l-1 1zM369 -8q-34 0 -54 19.5t-20 54.5q0 34 24 108l48 150q18 56 18 79q0 29 -30 29q-52 0 -100 -76q-55 -86 -116 -356h-116l99 424q2 10 2 14.5t-2 7t-9 5.5l-75 29v2l221 16l-51 -208h2q36 96 92.5 152t117.5 56q39 0 61.5 -22.5
t22.5 -60.5q0 -33 -26 -116l-44 -142q-15 -47 -15 -70q0 -27 22 -27q24 0 45 30q30 43 45 112h2q-12 -96 -59 -153t-105 -57z" />
    <glyph glyph-name="Ncommaaccent" unicode="&#x145;" horiz-adv-x="681" 
d="M249 -153q-38 6 -38 45q0 28 20 47.5t47 19.5q24 0 39 -16t15 -41q0 -41 -29 -77t-72 -59q-25 -13 -46 -19v2q26 12 40 31q23 30 30 55q3 11 -6 12zM292 703l242 -580l94 449q4 17 -8 31l-78 98v2h245v-2l-118 -98q-18 -14 -21 -31l-119 -572h-82l-239 570l-91 -439
q-2 -12 -1 -17t9 -14l77 -98v-2h-244v2l118 98q18 14 21 31l94 449q5 20 -5 33l-73 88v2h179z" />
    <glyph glyph-name="ncommaaccent" unicode="&#x146;" horiz-adv-x="546" 
d="M186 -153q-38 6 -38 45q0 28 20 47.5t47 19.5q24 0 39 -16t15 -41q0 -41 -29 -77t-72 -59q-25 -13 -46 -19v2q26 12 40 31q23 30 30 55q3 11 -6 12zM369 -8q-34 0 -54 19.5t-20 54.5q0 34 24 108l48 150q18 56 18 79q0 29 -30 29q-52 0 -100 -76q-55 -86 -116 -356h-116
l99 424q2 10 2 14.5t-2 7t-9 5.5l-75 29v2l221 16l-51 -208h2q36 96 92.5 152t117.5 56q39 0 61.5 -22.5t22.5 -60.5q0 -33 -26 -116l-44 -142q-15 -47 -15 -70q0 -27 22 -27q24 0 45 30q30 43 45 112h2q-12 -96 -59 -153t-105 -57z" />
    <glyph glyph-name="Ncaron" unicode="&#x147;" horiz-adv-x="681" 
d="M448 847l168 71l1 -2l-187 -174h-2l-115 174l2 2zM292 703l242 -580l94 449q4 17 -8 31l-78 98v2h245v-2l-118 -98q-18 -14 -21 -31l-119 -572h-82l-239 570l-91 -439q-2 -12 -1 -17t9 -14l77 -98v-2h-244v2l118 98q18 14 21 31l94 449q5 20 -5 33l-73 88v2h179z" />
    <glyph glyph-name="ncaron" unicode="&#x148;" horiz-adv-x="546" 
d="M355 635l168 71l1 -2l-187 -174h-2l-115 174l2 2zM369 -8q-34 0 -54 19.5t-20 54.5q0 34 24 108l48 150q18 56 18 79q0 29 -30 29q-52 0 -100 -76q-55 -86 -116 -356h-116l99 424q2 10 2 14.5t-2 7t-9 5.5l-75 29v2l221 16l-51 -208h2q36 96 92.5 152t117.5 56
q39 0 61.5 -22.5t22.5 -60.5q0 -33 -26 -116l-44 -142q-15 -47 -15 -70q0 -27 22 -27q24 0 45 30q30 43 45 112h2q-12 -96 -59 -153t-105 -57z" />
    <glyph glyph-name="napostrophe" unicode="&#x149;" horiz-adv-x="590" 
d="M69 601q-38 6 -38 45q0 28 20 47.5t47 19.5q24 0 39 -16t15 -41q0 -41 -29 -77t-72 -59q-25 -13 -46 -19v2q26 12 40 31q23 30 30 55q3 11 -6 12zM414 -8q-34 0 -54 19.5t-20 54.5q0 34 24 108l48 150q18 56 18 79q0 29 -30 29q-52 0 -100 -76q-55 -86 -116 -356h-116
l99 424q2 10 2 14.5t-2 7t-9 5.5l-75 29v2l221 16l-51 -208h2q36 96 92.5 152t117.5 56q39 0 61.5 -22.5t22.5 -60.5q0 -33 -26 -116l-44 -142q-15 -47 -15 -70q0 -27 22 -27q24 0 45 30q30 43 45 112h2q-12 -96 -59 -153t-105 -57z" />
    <glyph glyph-name="Eng" unicode="&#x14a;" horiz-adv-x="697" 
d="M659 507l-90 -438q-27 -133 -109 -206t-208 -73v2q139 41 176 220l98 474q6 32 6 55q0 102 -104 102q-38 0 -84.5 -23.5t-70.5 -52.5l-101 -488q-4 -15 7 -23l65 -54v-2h-306v2l88 54q15 9 17 23l113 545q4 15 -7 23l-65 54v2h218l-27 -128q30 59 97.5 98t128.5 39
q72 0 118 -39t46 -113q0 -24 -6 -53z" />
    <glyph glyph-name="eng" unicode="&#x14b;" horiz-adv-x="526" 
d="M485 299l-61 -238q-30 -120 -104.5 -185t-200.5 -77l-1 2q131 53 180 241l61 241q26 102 26 120q0 29 -30 29q-52 0 -100 -76q-38 -58 -77 -201q-18 -60 -39 -155h-116l99 424q4 14 2.5 18t-11.5 9l-75 29v2l221 16l-51 -208h2q36 96 92.5 152t117.5 56q39 0 61.5 -22.5
t22.5 -60.5q0 -42 -19 -116z" />
    <glyph glyph-name="Omacron" unicode="&#x14c;" horiz-adv-x="685" 
d="M588 804h-262v18h262v-18zM412 713q129 0 201 -77.5t72 -203.5q0 -184 -108.5 -313t-264.5 -129q-130 0 -201.5 77.5t-71.5 203.5q0 184 108 313t265 129zM303 7q67 0 125 83.5t88 196t30 213.5q0 196 -125 196q-67 0 -125 -83.5t-88 -196t-30 -213.5q0 -196 125 -196z
" />
    <glyph glyph-name="omacron" unicode="&#x14d;" horiz-adv-x="489" 
d="M453 592h-262v18h262v-18zM193 -9q-74 0 -122.5 46t-48.5 142q0 127 80 223t193 96q74 0 123 -46.5t49 -141.5q0 -128 -80.5 -223.5t-193.5 -95.5zM196 6q38 0 73 62.5t54.5 148.5t19.5 163q0 103 -49 103q-38 0 -73 -62.5t-54.5 -148.5t-19.5 -163q0 -103 49 -103z" />
    <glyph glyph-name="Obreve" unicode="&#x14e;" horiz-adv-x="685" 
d="M412 713q129 0 201 -77.5t72 -203.5q0 -184 -108.5 -313t-264.5 -129q-130 0 -201.5 77.5t-71.5 203.5q0 184 108 313t265 129zM303 7q67 0 125 83.5t88 196t30 213.5q0 196 -125 196q-67 0 -125 -83.5t-88 -196t-30 -213.5q0 -196 125 -196zM455 821q51 0 88.5 25.5
t49.5 71.5h2q-3 -83 -44.5 -124t-100.5 -41q-46 0 -78 24.5t-32 72.5q0 29 15 68h2q-8 -45 19.5 -71t78.5 -26z" />
    <glyph glyph-name="obreve" unicode="&#x14f;" horiz-adv-x="489" 
d="M193 -9q-74 0 -122.5 46t-48.5 142q0 127 80 223t193 96q74 0 123 -46.5t49 -141.5q0 -128 -80.5 -223.5t-193.5 -95.5zM196 6q38 0 73 62.5t54.5 148.5t19.5 163q0 103 -49 103q-38 0 -73 -62.5t-54.5 -148.5t-19.5 -163q0 -103 49 -103zM321 609q51 0 88.5 25.5
t49.5 71.5h2q-3 -83 -44.5 -124t-100.5 -41q-46 0 -78 24.5t-32 72.5q0 29 15 68h2q-8 -45 19.5 -71t78.5 -26z" />
    <glyph glyph-name="Ohungarumlaut" unicode="&#x150;" horiz-adv-x="685" 
d="M437 915h115v-2l-209 -170l-1 1zM588 915h114v-2l-208 -170l-1 1zM412 713q129 0 201 -77.5t72 -203.5q0 -184 -108.5 -313t-264.5 -129q-130 0 -201.5 77.5t-71.5 203.5q0 184 108 313t265 129zM303 7q67 0 125 83.5t88 196t30 213.5q0 196 -125 196q-67 0 -125 -83.5
t-88 -196t-30 -213.5q0 -196 125 -196z" />
    <glyph glyph-name="ohungarumlaut" unicode="&#x151;" horiz-adv-x="489" 
d="M303 703h115v-2l-209 -170l-1 1zM454 703h114v-2l-208 -170l-1 1zM193 -9q-74 0 -122.5 46t-48.5 142q0 127 80 223t193 96q74 0 123 -46.5t49 -141.5q0 -128 -80.5 -223.5t-193.5 -95.5zM196 6q38 0 73 62.5t54.5 148.5t19.5 163q0 103 -49 103q-38 0 -73 -62.5
t-54.5 -148.5t-19.5 -163q0 -103 49 -103z" />
    <glyph glyph-name="OE" unicode="&#x152;" horiz-adv-x="955" 
d="M855 0h-439q-52 -10 -104 -10q-132 0 -202.5 77t-70.5 200q0 119 49 221t138 163.5t199 61.5q66 0 138 -10h428l-47 -228h-2l-64 191q-4 12 -9 15t-17 3h-140q-13 0 -17 -4t-7 -19l-62 -296h97q16 1 33 19l94 94h2l-50 -244h-2l-55 95q-6 11 -11 14.5t-16 3.5h-96
l-63 -305q-3 -15 -0.5 -19t14.5 -4h146q16 0 23 2.5t15 12.5l143 194h2zM537 660q-40 36 -96 36q-61 0 -113 -52.5t-82.5 -131t-47 -159t-16.5 -145.5q0 -93 31 -147.5t96 -54.5q35 0 58 10.5t49 33.5q16 16 20 38l110 526q7 32 -9 46z" />
    <glyph glyph-name="oe" unicode="&#x153;" horiz-adv-x="748" 
d="M741 397q0 -76 -89.5 -124t-198.5 -40q-2 -12 -2 -38q0 -61 25.5 -94.5t74.5 -33.5q54 0 96.5 37.5t63.5 112.5h2q-16 -117 -78 -171t-139 -54q-92 0 -136 77q-72 -78 -166 -78q-74 0 -122.5 46t-48.5 142q0 127 80 223t193 96q94 0 135 -78q75 78 176 78q60 0 97 -28
t37 -73zM197 6q38 0 73 62.5t54.5 148.5t19.5 163q0 103 -50 103q-38 0 -73 -62.5t-54.5 -148.5t-19.5 -163q0 -103 50 -103zM600 482q-45 0 -88.5 -75t-56.5 -162q80 0 129.5 50t49.5 125q0 62 -34 62z" />
    <glyph glyph-name="Racute" unicode="&#x154;" horiz-adv-x="639" 
d="M451 915h143v-2l-257 -162l-1 1zM289 328h-43l-51 -243q-5 -22 5 -30l59 -53v-2h-292v2l86 57q3 2 5 4t3 5t1.5 5t1.5 7.5t2 8.5l111 529q5 22 -5 30l-59 53v2h324q89 0 143 -42.5t54 -113.5q0 -91 -69 -149.5t-171 -63.5l-1 -2l63 -35l73 -216q5 -14 29 -40l38 -39v-2
h-176l-108 314q-5 14 -23 14zM315 659l-65 -313h78q70 0 119 60.5t49 151.5q0 128 -103 128h-50q-14 0 -19.5 -6t-8.5 -21z" />
    <glyph glyph-name="racute" unicode="&#x155;" horiz-adv-x="391" 
d="M318 703h143v-2l-257 -162l-1 1zM428 485l-71 -193h-2l-38 124q-3 9 -9 9q-9 0 -21 -12q-21 -21 -45 -70q-22 -43 -42 -109t-57 -234h-115l92 423q3 15 1.5 19t-12.5 9l-74 29v2l221 16l-47 -199h2q38 102 76.5 150.5t90.5 48.5q30 0 50 -13z" />
    <glyph glyph-name="Rcommaaccent" unicode="&#x156;" horiz-adv-x="639" 
d="M277 -153q-38 6 -38 45q0 28 20 47.5t47 19.5q24 0 39 -16t15 -41q0 -41 -29 -77t-72 -59q-25 -13 -46 -19v2q26 12 40 31q23 30 30 55q3 11 -6 12zM289 328h-43l-51 -243q-5 -22 5 -30l59 -53v-2h-292v2l86 57q3 2 5 4t3 5t1.5 5t1.5 7.5t2 8.5l111 529q5 22 -5 30
l-59 53v2h324q89 0 143 -42.5t54 -113.5q0 -91 -69 -149.5t-171 -63.5l-1 -2l63 -35l73 -216q5 -14 29 -40l38 -39v-2h-176l-108 314q-5 14 -23 14zM315 659l-65 -313h78q70 0 119 60.5t49 151.5q0 128 -103 128h-50q-14 0 -19.5 -6t-8.5 -21z" />
    <glyph glyph-name="rcommaaccent" unicode="&#x157;" horiz-adv-x="391" 
d="M43 -153q-38 6 -38 45q0 28 20 47.5t47 19.5q24 0 39 -16t15 -41q0 -41 -29 -77t-72 -59q-25 -13 -46 -19v2q26 12 40 31q23 30 30 55q3 11 -6 12zM428 485l-71 -193h-2l-38 124q-3 9 -9 9q-9 0 -21 -12q-21 -21 -45 -70q-22 -43 -42 -109t-57 -234h-115l92 423
q3 15 1.5 19t-12.5 9l-74 29v2l221 16l-47 -199h2q38 102 76.5 150.5t90.5 48.5q30 0 50 -13z" />
    <glyph glyph-name="Rcaron" unicode="&#x158;" horiz-adv-x="639" 
d="M424 847l168 71l1 -2l-187 -174h-2l-115 174l2 2zM289 328h-43l-51 -243q-5 -22 5 -30l59 -53v-2h-292v2l86 57q3 2 5 4t3 5t1.5 5t1.5 7.5t2 8.5l111 529q5 22 -5 30l-59 53v2h324q89 0 143 -42.5t54 -113.5q0 -91 -69 -149.5t-171 -63.5l-1 -2l63 -35l73 -216
q5 -14 29 -40l38 -39v-2h-176l-108 314q-5 14 -23 14zM315 659l-65 -313h78q70 0 119 60.5t49 151.5q0 128 -103 128h-50q-14 0 -19.5 -6t-8.5 -21z" />
    <glyph glyph-name="rcaron" unicode="&#x159;" horiz-adv-x="391" 
d="M291 635l168 71l1 -2l-187 -174h-2l-115 174l2 2zM428 485l-71 -193h-2l-38 124q-3 9 -9 9q-9 0 -21 -12q-21 -21 -45 -70q-22 -43 -42 -109t-57 -234h-115l92 423q3 15 1.5 19t-12.5 9l-74 29v2l221 16l-47 -199h2q38 102 76.5 150.5t90.5 48.5q30 0 50 -13z" />
    <glyph glyph-name="Sacute" unicode="&#x15a;" horiz-adv-x="528" 
d="M412 915h143v-2l-257 -162l-1 1zM489 207q0 -90 -78 -153.5t-192 -63.5q-135 0 -214 33l57 216h2l63 -207q5 -16 20 -20q23 -5 55 -5q65 0 112.5 36.5t47.5 103.5q0 43 -23.5 77t-72.5 70l-59 44q-102 74 -102 176q0 86 66.5 142.5t167.5 56.5q103 0 204 -27l-46 -210h-2
l-72 199q-5 14 -18 17q-25 5 -47 5q-60 0 -100.5 -31.5t-40.5 -89.5q0 -76 107 -153l59 -43q54 -38 80 -78t26 -95z" />
    <glyph glyph-name="sacute" unicode="&#x15b;" horiz-adv-x="388" 
d="M293 703h143v-2l-257 -162l-1 1zM343 149q0 -58 -50.5 -107.5t-143.5 -49.5q-83 0 -152 36l60 166h2l49 -171q3 -13 16 -15q9 -2 27 -2q45 0 69 25t24 62q0 27 -18.5 48.5t-70.5 64.5q-48 39 -70.5 71.5t-22.5 73.5q0 61 49 104t131 43q70 0 139 -25l-56 -162h-2l-51 160
q-4 13 -16 13h-10q-42 0 -65.5 -22t-23.5 -57q0 -28 22.5 -55.5t69.5 -63.5q48 -36 71 -66.5t23 -70.5z" />
    <glyph glyph-name="Scircumflex" unicode="&#x15c;" horiz-adv-x="528" 
d="M517 750l-2 -2l-132 77l-168 -77l-2 2l187 173h2zM489 207q0 -90 -78 -153.5t-192 -63.5q-135 0 -214 33l57 216h2l63 -207q5 -16 20 -20q23 -5 55 -5q65 0 112.5 36.5t47.5 103.5q0 43 -23.5 77t-72.5 70l-59 44q-102 74 -102 176q0 86 66.5 142.5t167.5 56.5
q103 0 204 -27l-46 -210h-2l-72 199q-5 14 -18 17q-25 5 -47 5q-60 0 -100.5 -31.5t-40.5 -89.5q0 -76 107 -153l59 -43q54 -38 80 -78t26 -95z" />
    <glyph glyph-name="scircumflex" unicode="&#x15d;" horiz-adv-x="388" 
d="M398 538l-2 -2l-132 77l-168 -77l-2 2l187 173h2zM343 149q0 -58 -50.5 -107.5t-143.5 -49.5q-83 0 -152 36l60 166h2l49 -171q3 -13 16 -15q9 -2 27 -2q45 0 69 25t24 62q0 27 -18.5 48.5t-70.5 64.5q-48 39 -70.5 71.5t-22.5 73.5q0 61 49 104t131 43q70 0 139 -25
l-56 -162h-2l-51 160q-4 13 -16 13h-10q-42 0 -65.5 -22t-23.5 -57q0 -28 22.5 -55.5t69.5 -63.5q48 -36 71 -66.5t23 -70.5z" />
    <glyph glyph-name="Scedilla" unicode="&#x15e;" horiz-adv-x="528" 
d="M315 -125q0 -47 -38.5 -79t-94.5 -32q-48 0 -75.5 25.5t-23.5 63.5h2q3 -27 23.5 -41t45.5 -14q31 0 54.5 20t23.5 51q0 21 -15 33t-39 12q-19 0 -39 -7l-1 2l79 81q-134 0 -212 33l57 216h2l63 -207q5 -16 20 -20q23 -5 55 -5q65 0 112.5 36.5t47.5 103.5q0 43 -23.5 77
t-72.5 70l-59 44q-102 74 -102 176q0 86 66.5 142.5t167.5 56.5q103 0 204 -27l-46 -210h-2l-72 199q-5 14 -18 17q-25 5 -47 5q-60 0 -100.5 -31.5t-40.5 -89.5q0 -76 107 -153l59 -43q54 -38 80 -78t26 -95q0 -89 -76 -152t-188 -65l-18 -52q15 3 28 3q36 0 58 -18.5
t22 -47.5z" />
    <glyph glyph-name="scedilla" unicode="&#x15f;" horiz-adv-x="388" 
d="M239 -125q0 -47 -38.5 -79t-94.5 -32q-48 0 -75.5 25.5t-23.5 63.5h2q3 -27 23.5 -41t45.5 -14q31 0 54.5 20t23.5 51q0 21 -15 33t-39 12q-19 0 -39 -7l-1 2l81 83q-81 2 -146 36l60 166h2l49 -171q2 -9 4.5 -11t10.5 -4q18 -2 28 -2q45 0 69 25t24 62q0 27 -18.5 48.5
t-70.5 64.5q-48 39 -70.5 71.5t-22.5 73.5q0 61 49 104t131 43q70 0 139 -25l-56 -162h-2l-51 160q-4 13 -16 13h-10q-42 0 -65.5 -22t-23.5 -57q0 -28 22.5 -55.5t69.5 -63.5q48 -36 71 -66.5t23 -70.5q0 -58 -50.5 -107.5t-143.5 -49.5l-18 -54q15 3 28 3q36 0 58 -18.5
t22 -47.5z" />
    <glyph glyph-name="Scaron" unicode="&#x160;" horiz-adv-x="528" 
d="M385 847l168 71l1 -2l-187 -174h-2l-115 174l2 2zM489 207q0 -90 -78 -153.5t-192 -63.5q-135 0 -214 33l57 216h2l63 -207q5 -16 20 -20q23 -5 55 -5q65 0 112.5 36.5t47.5 103.5q0 43 -23.5 77t-72.5 70l-59 44q-102 74 -102 176q0 86 66.5 142.5t167.5 56.5
q103 0 204 -27l-46 -210h-2l-72 199q-5 14 -18 17q-25 5 -47 5q-60 0 -100.5 -31.5t-40.5 -89.5q0 -76 107 -153l59 -43q54 -38 80 -78t26 -95z" />
    <glyph glyph-name="scaron" unicode="&#x161;" horiz-adv-x="388" 
d="M266 635l168 71l1 -2l-187 -174h-2l-115 174l2 2zM343 149q0 -58 -50.5 -107.5t-143.5 -49.5q-83 0 -152 36l60 166h2l49 -171q3 -13 16 -15q9 -2 27 -2q45 0 69 25t24 62q0 27 -18.5 48.5t-70.5 64.5q-48 39 -70.5 71.5t-22.5 73.5q0 61 49 104t131 43q70 0 139 -25
l-56 -162h-2l-51 160q-4 13 -16 13h-10q-42 0 -65.5 -22t-23.5 -57q0 -28 22.5 -55.5t69.5 -63.5q48 -36 71 -66.5t23 -70.5z" />
    <glyph glyph-name="Tcommaaccent" unicode="&#x162;" horiz-adv-x="605" 
d="M206 -153q-38 6 -38 45q0 28 20 47.5t47 19.5q24 0 39 -16t15 -41q0 -41 -29 -77t-72 -59q-25 -13 -46 -19v2q26 12 40 31q23 30 30 55q3 11 -6 12zM333 83q-4 -16 7 -24l71 -57v-2h-319v2l94 57q13 8 17 24l126 601h-87q-13 0 -18 -2.5t-14 -16.5l-145 -209h-2l51 247
h567l-51 -247h-2l-59 209q-4 13 -8 16t-16 3h-87z" />
    <glyph glyph-name="tcommaaccent" unicode="&#x163;" horiz-adv-x="297" 
d="M60 -153q-38 6 -38 45q0 28 20 47.5t47 19.5q24 0 39 -16t15 -41q0 -41 -29 -77t-72 -59q-25 -13 -46 -19v2q26 12 40 31q23 30 30 55q3 11 -6 12zM202 39q-45 -47 -94 -47q-33 0 -52.5 21t-19.5 52q0 27 13 83l75 316h-79v18h74q15 0 22 8l145 190h2l-46 -198h113v-18
h-117l-70 -306q-13 -54 -13 -70q0 -28 23 -28q22 0 41 25q34 45 49 117h2q-12 -103 -68 -163z" />
    <glyph glyph-name="Tcaron" unicode="&#x164;" horiz-adv-x="605" 
d="M426 847l168 71l1 -2l-187 -174h-2l-115 174l2 2zM333 83q-4 -16 7 -24l71 -57v-2h-319v2l94 57q13 8 17 24l126 601h-87q-13 0 -18 -2.5t-14 -16.5l-145 -209h-2l51 247h567l-51 -247h-2l-59 209q-4 13 -8 16t-16 3h-87z" />
    <glyph glyph-name="tcaron" unicode="&#x165;" horiz-adv-x="297" 
d="M476 703l-149 -193h-1l44 193h106zM202 39q-45 -47 -94 -47q-33 0 -52.5 21t-19.5 52q0 27 13 83l75 316h-79v18h74q15 0 22 8l145 190h2l-46 -198h113v-18h-117l-70 -306q-13 -54 -13 -70q0 -28 23 -28q22 0 41 25q34 45 49 117h2q-12 -103 -68 -163z" />
    <glyph glyph-name="Tbar" unicode="&#x166;" horiz-adv-x="605" 
d="M333 83q-4 -16 7 -24l71 -57v-2h-319v2l94 57q13 8 17 24l54 260h-127v18h131l68 323h-87q-12 0 -17 -3t-15 -16l-145 -209h-2l51 247h567l-51 -247h-2l-59 209q-4 13 -8 16t-16 3h-87l-68 -323h130v-18h-133z" />
    <glyph glyph-name="tbar" unicode="&#x167;" horiz-adv-x="312" 
d="M175 159q-13 -54 -13 -71q0 -28 23 -28q22 0 41 25q34 45 49 117h2q-12 -103 -68 -163q-45 -47 -94 -47q-33 0 -52.5 21t-19.5 52q0 27 13 83l43 184h-83v18h88l27 114h-79v18h74q15 0 22 8l145 190h2l-46 -198h113v-18h-117l-26 -114h108v-18h-112z" />
    <glyph glyph-name="Utilde" unicode="&#x168;" horiz-adv-x="651" 
d="M279 -10q-97 0 -149 48.5t-52 130.5q0 28 6 58l82 394q2 16 -7 24l-60 56v2h300v-2l-87 -56q-13 -8 -17 -24l-79 -384q-9 -45 -9 -81q0 -135 126 -135q158 0 206 229l67 319q4 15 2 24.5t-13 21.5l-73 86v2h241v-2l-110 -87q-22 -16 -27 -45l-67 -318q-27 -129 -90 -195
t-190 -66zM636 892h2q-9 -52 -36.5 -85t-65.5 -33q-24 0 -64.5 23.5t-61.5 23.5q-44 0 -72 -48h-2q9 52 36.5 85t65.5 33q25 0 65 -24t61 -24q45 0 72 49z" />
    <glyph glyph-name="utilde" unicode="&#x169;" horiz-adv-x="551" 
d="M469 31q-39 -39 -86 -39q-34 0 -53 20t-19 58q0 54 23 131h-2q-36 -96 -91.5 -152.5t-112.5 -56.5q-38 0 -61 23t-23 60q0 36 26 116l44 142q15 47 15 70q0 28 -22 28q-23 0 -46 -30q-27 -38 -44 -110l-2 1q14 95 60.5 150.5t103.5 55.5q34 0 54 -19.5t20 -53.5t-24 -108
l-48 -151q-18 -56 -18 -79q0 -30 32 -30q41 0 92 78q26 41 51.5 116t64.5 235l117 7l-88 -357q-7 -27 -7 -50q0 -27 23 -27q26 0 47 32q26 36 44 111h2q-16 -115 -72 -171zM506 680h2q-9 -52 -36.5 -85t-65.5 -33q-24 0 -64.5 23.5t-61.5 23.5q-44 0 -72 -48h-2
q9 52 36.5 85t65.5 33q25 0 65 -24t61 -24q45 0 72 49z" />
    <glyph glyph-name="Umacron" unicode="&#x16a;" horiz-adv-x="651" 
d="M279 -10q-97 0 -149 48.5t-52 130.5q0 28 6 58l82 394q2 16 -7 24l-60 56v2h300v-2l-87 -56q-13 -8 -17 -24l-79 -384q-9 -45 -9 -81q0 -135 126 -135q158 0 206 229l67 319q4 15 2 24.5t-13 21.5l-73 86v2h241v-2l-110 -87q-22 -16 -27 -45l-67 -318q-27 -129 -90 -195
t-190 -66zM612 804h-262v18h262v-18z" />
    <glyph glyph-name="umacron" unicode="&#x16b;" horiz-adv-x="551" 
d="M469 31q-39 -39 -86 -39q-34 0 -53 20t-19 58q0 54 23 131h-2q-36 -96 -91.5 -152.5t-112.5 -56.5q-38 0 -61 23t-23 60q0 36 26 116l44 142q15 47 15 70q0 28 -22 28q-23 0 -46 -30q-27 -38 -44 -110l-2 1q14 95 60.5 150.5t103.5 55.5q34 0 54 -19.5t20 -53.5t-24 -108
l-48 -151q-18 -56 -18 -79q0 -30 32 -30q41 0 92 78q26 41 51.5 116t64.5 235l117 7l-88 -357q-7 -27 -7 -50q0 -27 23 -27q26 0 47 32q26 36 44 111h2q-16 -115 -72 -171zM481 592h-262v18h262v-18z" />
    <glyph glyph-name="Ubreve" unicode="&#x16c;" horiz-adv-x="651" 
d="M279 -10q-97 0 -149 48.5t-52 130.5q0 28 6 58l82 394q2 16 -7 24l-60 56v2h300v-2l-87 -56q-13 -8 -17 -24l-79 -384q-9 -45 -9 -81q0 -135 126 -135q158 0 206 229l67 319q4 15 2 24.5t-13 21.5l-73 86v2h241v-2l-110 -87q-22 -16 -27 -45l-67 -318q-27 -129 -90 -195
t-190 -66zM479 821q51 0 88.5 25.5t49.5 71.5h2q-3 -83 -44.5 -124t-100.5 -41q-46 0 -78 24.5t-32 72.5q0 29 15 68h2q-8 -45 19.5 -71t78.5 -26z" />
    <glyph glyph-name="ubreve" unicode="&#x16d;" horiz-adv-x="551" 
d="M469 31q-39 -39 -86 -39q-34 0 -53 20t-19 58q0 54 23 131h-2q-36 -96 -91.5 -152.5t-112.5 -56.5q-38 0 -61 23t-23 60q0 36 26 116l44 142q15 47 15 70q0 28 -22 28q-23 0 -46 -30q-27 -38 -44 -110l-2 1q14 95 60.5 150.5t103.5 55.5q34 0 54 -19.5t20 -53.5t-24 -108
l-48 -151q-18 -56 -18 -79q0 -30 32 -30q41 0 92 78q26 41 51.5 116t64.5 235l117 7l-88 -357q-7 -27 -7 -50q0 -27 23 -27q26 0 47 32q26 36 44 111h2q-16 -115 -72 -171zM349 609q51 0 88.5 25.5t49.5 71.5h2q-3 -83 -44.5 -124t-100.5 -41q-46 0 -78 24.5t-32 72.5
q0 29 15 68h2q-8 -45 19.5 -71t78.5 -26z" />
    <glyph glyph-name="Uring" unicode="&#x16e;" horiz-adv-x="651" 
d="M476 753q-32 0 -53.5 20.5t-21.5 52.5q0 41 29 70t71 29q32 0 53 -20.5t21 -52.5q0 -41 -29 -70t-70 -29zM499 906q-31 0 -54.5 -23t-23.5 -56q0 -24 15.5 -39.5t40.5 -15.5q32 0 55 23t23 56q0 24 -15.5 39.5t-40.5 15.5zM279 -10q-97 0 -149 48.5t-52 130.5q0 28 6 58
l82 394q2 16 -7 24l-60 56v2h300v-2l-87 -56q-13 -8 -17 -24l-79 -384q-9 -45 -9 -81q0 -135 126 -135q158 0 206 229l67 319q4 15 2 24.5t-13 21.5l-73 86v2h241v-2l-110 -87q-22 -16 -27 -45l-67 -318q-27 -129 -90 -195t-190 -66z" />
    <glyph glyph-name="uring" unicode="&#x16f;" horiz-adv-x="551" 
d="M346 541q-32 0 -53.5 20.5t-21.5 52.5q0 41 29 70t71 29q32 0 53 -20.5t21 -52.5q0 -41 -29 -70t-70 -29zM369 694q-31 0 -54.5 -23t-23.5 -56q0 -24 15.5 -39.5t40.5 -15.5q32 0 55 23t23 56q0 24 -15.5 39.5t-40.5 15.5zM469 31q-39 -39 -86 -39q-34 0 -53 20t-19 58
q0 54 23 131h-2q-36 -96 -91.5 -152.5t-112.5 -56.5q-38 0 -61 23t-23 60q0 36 26 116l44 142q15 47 15 70q0 28 -22 28q-23 0 -46 -30q-27 -38 -44 -110l-2 1q14 95 60.5 150.5t103.5 55.5q34 0 54 -19.5t20 -53.5t-24 -108l-48 -151q-18 -56 -18 -79q0 -30 32 -30
q41 0 92 78q26 41 51.5 116t64.5 235l117 7l-88 -357q-7 -27 -7 -50q0 -27 23 -27q26 0 47 32q26 36 44 111h2q-16 -115 -72 -171z" />
    <glyph glyph-name="Uhungarumlaut" unicode="&#x170;" horiz-adv-x="651" 
d="M279 -10q-97 0 -149 48.5t-52 130.5q0 28 6 58l82 394q2 16 -7 24l-60 56v2h300v-2l-87 -56q-13 -8 -17 -24l-79 -384q-9 -45 -9 -81q0 -135 126 -135q158 0 206 229l67 319q4 15 2 24.5t-13 21.5l-73 86v2h241v-2l-110 -87q-22 -16 -27 -45l-67 -318q-27 -129 -90 -195
t-190 -66zM461 915h115v-2l-209 -170l-1 1zM612 915h114v-2l-208 -170l-1 1z" />
    <glyph glyph-name="uhungarumlaut" unicode="&#x171;" horiz-adv-x="551" 
d="M469 31q-39 -39 -86 -39q-34 0 -53 20t-19 58q0 54 23 131h-2q-36 -96 -91.5 -152.5t-112.5 -56.5q-38 0 -61 23t-23 60q0 36 26 116l44 142q15 47 15 70q0 28 -22 28q-23 0 -46 -30q-27 -38 -44 -110l-2 1q14 95 60.5 150.5t103.5 55.5q34 0 54 -19.5t20 -53.5t-24 -108
l-48 -151q-18 -56 -18 -79q0 -30 32 -30q41 0 92 78q26 41 51.5 116t64.5 235l117 7l-88 -357q-7 -27 -7 -50q0 -27 23 -27q26 0 47 32q26 36 44 111h2q-16 -115 -72 -171zM331 703h115v-2l-209 -170l-1 1zM482 703h114v-2l-208 -170l-1 1z" />
    <glyph glyph-name="Uogonek" unicode="&#x172;" horiz-adv-x="651" 
d="M233 -236q-35 0 -60 21t-25 58q0 51 40 88.5t98 58.5h-7q-97 0 -149 48.5t-52 130.5q0 28 6 58l82 394q3 15 -7 24l-60 56v2h300v-2l-87 -56q-13 -8 -17 -24l-79 -384q-9 -45 -9 -81q0 -135 126 -135q158 0 206 229l67 319q4 15 2 24.5t-13 21.5l-73 86v2h241v-2
l-110 -87q-22 -16 -27 -45l-67 -318q-26 -123 -84 -188.5t-172 -71.5q-79 -45 -79 -118q0 -26 16.5 -41t43.5 -15q47 0 84 40l1 -1q-53 -92 -136 -92z" />
    <glyph glyph-name="uogonek" unicode="&#x173;" horiz-adv-x="551" 
d="M331 -236q-36 0 -60.5 21t-24.5 58q0 52 40.5 90.5t99.5 58.5h-3q-34 0 -53 20t-19 58q0 54 23 131h-2q-36 -96 -91.5 -152.5t-112.5 -56.5q-38 0 -61 23t-23 60q0 36 26 116l44 142q15 47 15 70q0 28 -22 28q-23 0 -46 -30q-27 -38 -44 -110l-2 1q14 95 60.5 150.5
t103.5 55.5q34 0 54 -19.5t20 -53.5t-24 -108l-48 -151q-18 -56 -18 -79q0 -30 32 -30q41 0 92 78q26 41 51.5 116t64.5 235l117 7l-88 -357q-7 -27 -7 -50q0 -27 23 -27q26 0 47 32q26 36 44 111h2q-16 -115 -72 -171q-28 -28 -64 -36q-37 -19 -60.5 -51.5t-23.5 -70.5
q0 -26 17 -41t44 -15q47 0 83 40l2 -1q-53 -92 -136 -92z" />
    <glyph glyph-name="Wcircumflex" unicode="&#x174;" horiz-adv-x="957" 
d="M737 750l-2 -2l-132 77l-168 -77l-2 2l187 173h2zM948 567l-298 -567h-85l-48 443l-235 -443h-86l-72 608q-3 22 -13 40l-32 53v2h257v-2l-73 -60q-11 -10 -9 -25l60 -515l199 375l-14 132q-2 15 -13 39l-26 54v2h250v-2l-74 -60q-10 -8 -9 -24l55 -513l245 464
q10 19 -3 36l-68 97v2h230v-2l-104 -93q-24 -22 -34 -41z" />
    <glyph glyph-name="wcircumflex" unicode="&#x175;" horiz-adv-x="683" 
d="M588 538l-2 -2l-132 77l-168 -77l-2 2l187 173h2zM609 306q0 73 -30 120q-2 4 -9.5 15.5t-8.5 12.5v2l130 42q-2 -104 -41 -220t-109.5 -201t-147.5 -85q-37 0 -61 23.5t-24 72.5q0 32 12 76h-2q-55 -172 -169 -172q-50 0 -74.5 29.5t-24.5 74.5q0 39 22 115l33 116
q15 51 15 74q0 28 -22 28q-41 0 -92 -114h-2q57 183 165 183q73 0 73 -80q0 -38 -27 -124l-34 -109q-15 -49 -15 -79q0 -26 11.5 -40.5t30.5 -14.5q59 0 103 126q42 119 63 304l118 17q-6 -45 -15 -95t-15.5 -78t-20 -82.5t-16.5 -66.5q-10 -46 -10 -63q0 -62 48 -62
q51 0 98.5 81.5t47.5 173.5z" />
    <glyph glyph-name="Ycircumflex" unicode="&#x176;" horiz-adv-x="601" 
d="M375 278l-41 -197q-2 -10 -1 -13.5t8 -8.5l72 -57v-2h-320v2l95 57q13 8 16 22l38 183q4 16 0 28l-107 317q-7 19 -19 37l-39 55v2h276v-2l-75 -59q-12 -9 -8 -21l98 -306l190 264q10 14 2 27l-65 95v2h237v-2l-118 -93q-27 -21 -39 -38l-185 -255q-10 -14 -15 -37z
M582 750l-2 -2l-132 77l-168 -77l-2 2l187 173h2z" />
    <glyph glyph-name="ycircumflex" unicode="&#x177;" horiz-adv-x="452" 
d="M373 325q0 79 -48 129v2l135 42q-13 -138 -67.5 -273t-133.5 -239q-76 -100 -163.5 -161t-150.5 -61q-18 0 -28 5l52 152h2l81 -87q9 -11 23 -3q32 19 80 67q7 7 7 22v20q-1 127 -17.5 256t-36.5 187q-12 36 -31 36q-33 0 -71 -114h-2q17 84 52.5 138.5t85.5 54.5
q34 0 53.5 -24.5t32.5 -71.5q18 -63 29 -168t8 -210h2q41 62 68 129q38 96 38 172zM435 538l-2 -2l-132 77l-168 -77l-2 2l187 173h2z" />
    <glyph glyph-name="Ydieresis" unicode="&#x178;" horiz-adv-x="601" 
d="M375 278l-41 -197q-2 -10 -1 -13.5t8 -8.5l72 -57v-2h-320v2l95 57q13 8 16 22l38 183q4 16 0 28l-107 317q-7 19 -19 37l-39 55v2h276v-2l-75 -59q-12 -9 -8 -21l98 -306l190 264q10 14 2 27l-65 95v2h237v-2l-118 -93q-27 -21 -39 -38l-185 -255q-10 -14 -15 -37z
M364 894q24 0 39.5 -14.5t15.5 -38.5q0 -27 -19.5 -45.5t-47.5 -18.5q-24 0 -39.5 14.5t-15.5 38.5q0 27 19.5 45.5t47.5 18.5zM542 894q24 0 39.5 -14.5t15.5 -38.5q0 -27 -19.5 -45.5t-47.5 -18.5q-23 0 -39 14.5t-16 38.5q0 27 19.5 45.5t47.5 18.5z" />
    <glyph glyph-name="Zacute" unicode="&#x179;" horiz-adv-x="580" 
d="M459 915h143v-2l-257 -162l-1 1zM496 0h-530v2l539 682h-202q-23 0 -34 -13l-164 -217h-2l51 249h512v-2l-542 -682h221q24 0 33 13l167 214h2z" />
    <glyph glyph-name="zacute" unicode="&#x17a;" horiz-adv-x="388" 
d="M307 703h143v-2l-257 -162l-1 1zM116 395q-27 0 -47.5 -20.5t-37.5 -80.5h-2q36 207 140 207q30 0 100 -28q55 -22 72 -22q55 0 69 60h2q-4 -60 -58 -115l-246 -256q30 -3 85.5 -22.5t83.5 -19.5q29 0 54 23.5t46 94.5h2q-15 -97 -61 -164q-41 -62 -98 -62q-29 0 -90 22
q-62 24 -80 24q-43 0 -55 -50h-2q0 17 2 27q7 43 48 87l240 248q-31 4 -78 24q-54 23 -89 23z" />
    <glyph glyph-name="Zdotaccent" unicode="&#x17b;" horiz-adv-x="580" 
d="M496 0h-530v2l539 682h-202q-23 0 -34 -13l-164 -217h-2l51 249h512v-2l-542 -682h221q24 0 33 13l167 214h2zM437 897q27 0 44 -16t17 -43q0 -30 -21.5 -50.5t-53.5 -20.5q-26 0 -44 16t-18 43q0 30 22 50.5t54 20.5z" />
    <glyph glyph-name="zdotaccent" unicode="&#x17c;" horiz-adv-x="388" 
d="M116 395q-27 0 -47.5 -20.5t-37.5 -80.5h-2q36 207 140 207q30 0 100 -28q55 -22 72 -22q55 0 69 60h2q-4 -60 -58 -115l-246 -256q30 -3 85.5 -22.5t83.5 -19.5q29 0 54 23.5t46 94.5h2q-15 -97 -61 -164q-41 -62 -98 -62q-29 0 -90 22q-62 24 -80 24q-43 0 -55 -50h-2
q0 17 2 27q7 43 48 87l240 248q-31 4 -78 24q-54 23 -89 23zM285 685q27 0 44 -16t17 -43q0 -30 -21.5 -50.5t-53.5 -20.5q-26 0 -44 16t-18 43q0 30 22 50.5t54 20.5z" />
    <glyph glyph-name="Zcaron" unicode="&#x17d;" horiz-adv-x="580" 
d="M432 847l168 71l1 -2l-187 -174h-2l-115 174l2 2zM496 0h-530v2l539 682h-202q-23 0 -34 -13l-164 -217h-2l51 249h512v-2l-542 -682h221q24 0 33 13l167 214h2z" />
    <glyph glyph-name="zcaron" unicode="&#x17e;" horiz-adv-x="388" 
d="M280 635l168 71l1 -2l-187 -174h-2l-115 174l2 2zM116 395q-27 0 -47.5 -20.5t-37.5 -80.5h-2q36 207 140 207q30 0 100 -28q55 -22 72 -22q55 0 69 60h2q-4 -60 -58 -115l-246 -256q30 -3 85.5 -22.5t83.5 -19.5q29 0 54 23.5t46 94.5h2q-15 -97 -61 -164
q-41 -62 -98 -62q-29 0 -90 22q-62 24 -80 24q-43 0 -55 -50h-2q0 17 2 27q7 43 48 87l240 248q-31 4 -78 24q-54 23 -89 23z" />
    <glyph glyph-name="florin" unicode="&#x192;" horiz-adv-x="418" 
d="M374 286h-119l-23 -122q-16 -83 -38.5 -151t-55.5 -126t-79.5 -90.5t-102.5 -32.5q-51 0 -83 22l62 158h2l43 -139q6 -18 16 -18q11 0 23 12q7 7 13 17.5t11.5 20.5t11 25.5t9 27.5t8.5 32.5t8 33t8 38t7 38t7.5 41t7.5 41.5l32 172h-98v19h102l21 110q27 141 82 219.5
t159 78.5q65 0 116 -21l-62 -149h-2l-46 138q-4 11 -7 13.5t-13 2.5q-22 0 -38.5 -18t-28.5 -55.5t-19 -68.5t-17 -84q-1 -4 -1 -6l-31 -160h115v-19z" />
    <glyph glyph-name="uni01B5" unicode="&#x1b5;" horiz-adv-x="597" 
d="M534 337h-158l-252 -318h221q24 0 33 13l167 214h2l-51 -246h-530v2l265 335h-147v18h161l260 329h-202q-23 0 -34 -13l-164 -217h-2l51 249h512v-2l-275 -346h143v-18z" />
    <glyph glyph-name="uni01B6" unicode="&#x1b6;" horiz-adv-x="388" 
d="M220 -10q-29 0 -90 22q-62 24 -80 24q-43 0 -55 -50h-2q0 17 2 27q7 43 48 87l135 140h-120v18h138l87 90q-31 4 -78 24q-54 23 -89 23q-27 0 -47.5 -20.5t-37.5 -80.5h-2q36 207 140 207q30 0 100 -28q55 -22 72 -22q55 0 69 60h2q-4 -60 -58 -115l-133 -138h114v-18
h-131l-96 -100q30 -3 85.5 -22.5t83.5 -19.5q29 0 54 23.5t46 94.5h2q-15 -97 -61 -164q-41 -62 -98 -62z" />
    <glyph glyph-name="Aringacute" unicode="&#x1fa;" horiz-adv-x="628" 
d="M389 979h132v-2l-152 -97q-37 -24 -44 -35q28 26 67 26q36 0 62 -18t26 -49q0 -30 -25.5 -47.5t-61.5 -17.5q-35 0 -61.5 18t-26.5 47q0 17 12 38zM325 805q0 -22 20.5 -35t47.5 -13q28 0 48 12.5t20 35.5t-20 35.5t-48 12.5t-48 -13t-20 -35zM401 88l-19 158h-228
l-62 -115q-6 -12 -5 -16.5t10 -17.5l66 -95v-2h-230v2l108 95q21 18 32 39l252 465q8 16 7.5 21t-7.5 15l-43 64v2h176l73 -608q2 -20 14 -40l31 -53v-2h-257v2l74 60q11 8 8 26zM342 593l-178 -328h216z" />
    <glyph glyph-name="aringacute" unicode="&#x1fb;" horiz-adv-x="522" 
d="M341 764h132v-2l-152 -97q-36 -22 -45 -35q28 26 68 26q36 0 61.5 -18t25.5 -48t-25.5 -48t-61.5 -18q-34 0 -60.5 18.5t-26.5 47.5q0 15 11 37zM276 590q0 -22 20.5 -35t47.5 -13q28 0 48 12.5t20 35.5t-20 35.5t-48 12.5t-48 -13t-20 -35zM350 -8q-32 0 -51 20t-19 59
q0 33 19 113h-2q-66 -192 -167 -192q-46 0 -76.5 39.5t-30.5 113.5q0 86 34.5 167.5t94 133.5t124.5 52q66 0 91 -51l125 51h2q-6 -22 -28.5 -106t-43.5 -167l-22 -83q-8 -35 -8 -53q0 -31 23 -31q27 0 52 42q22 37 40 102h2q-14 -90 -57 -150t-102 -60zM362 440
q-12 23 -47 23q-54 0 -100 -71q-30 -49 -49.5 -120t-19.5 -134q0 -79 41 -79t81 82q41 87 94 299z" />
    <glyph glyph-name="AEacute" unicode="&#x1fc;" horiz-adv-x="909" 
d="M716 917h143v-2l-257 -162l-1 1zM673 347h-97l-63 -307q-3 -14 -1 -17.5t13 -3.5h150q24 0 34 13l145 196h2l-47 -228h-522v2l88 54q14 8 16 22l35 167h-234l-89 -109q-14 -17 -15.5 -23.5t6.5 -18.5l58 -92v-2h-235v2l111 86q32 23 47 42l386 472q11 14 12 19t-6 14
l-51 66v2h529l-48 -228h-2l-64 192q-4 11 -8.5 14t-16.5 3h-144q-10 0 -14 -4t-7 -17l-62 -298h99q14 0 31 17l96 96h2l-51 -244h-2l-56 97q-9 16 -25 16zM430 264l76 365l-299 -365h223z" />
    <glyph glyph-name="aeacute" unicode="&#x1fd;" horiz-adv-x="714" 
d="M477 703h143v-2l-257 -162l-1 1zM708 397q0 -76 -89.5 -123.5t-199.5 -38.5q-2 -28 -2 -40q0 -61 25.5 -94.5t75.5 -33.5q54 0 96 37.5t64 112.5h2q-16 -117 -78 -171t-139 -54q-71 0 -119.5 46.5t-53.5 128.5l-2 -6q-54 -169 -158 -169q-46 0 -76.5 39.5t-30.5 113.5
q0 133 77 243t177 110q87 0 112 -80q82 80 185 80q60 0 97 -28t37 -73zM188 59q27 0 54.5 37t47.5 95q2 124 90 219q-22 53 -67 53q-52 0 -98 -71q-30 -49 -49.5 -120.5t-19.5 -134.5q0 -78 42 -78zM567 482q-46 0 -89.5 -75t-56.5 -163q80 0 130 50t50 126q0 62 -34 62z
" />
    <glyph glyph-name="Oslashacute" unicode="&#x1fe;" horiz-adv-x="685" 
d="M412 713q50 0 90 -12l35 78l17 -7l-34 -77q79 -28 122 -97.5t43 -165.5q0 -184 -108.5 -313t-264.5 -129q-50 0 -97 13l-38 -85l-18 7l37 85q-76 30 -116.5 98.5t-40.5 162.5q0 184 108 313t265 129zM303 7q67 0 125 83.5t88 196t30 213.5q0 113 -41 160l-277 -627
q27 -26 75 -26zM178 203q0 -106 35 -155l277 626q-28 22 -69 22q-67 0 -125 -83.5t-88 -196t-30 -213.5zM503 915h143v-2l-257 -162l-1 1z" />
    <glyph glyph-name="oslashacute" unicode="&#x1ff;" horiz-adv-x="489" 
d="M193 -9q-27 0 -51 6l-34 -78l-19 7l34 77q-101 38 -101 176q0 127 80 223t193 96q20 0 45 -5l30 68l18 -6l-30 -67q109 -37 109 -178q0 -128 -80.5 -223.5t-193.5 -95.5zM196 6q38 0 73 62.5t54.5 148.5t19.5 163q0 32 -6 59l-179 -406q14 -27 38 -27zM147 109
q0 -31 3 -45l177 400q-14 19 -33 19q-38 0 -73 -62.5t-54.5 -148.5t-19.5 -163zM377 703h143v-2l-257 -162l-1 1z" />
    <glyph glyph-name="Scommaaccent" unicode="&#x218;" horiz-adv-x="528" 
d="M178 -153q-38 6 -38 45q0 28 20 47.5t47 19.5q24 0 39 -16t15 -41q0 -41 -29 -77t-72 -59q-25 -13 -46 -19v2q26 12 40 31q23 30 30 55q3 11 -6 12zM489 207q0 -90 -78 -153.5t-192 -63.5q-135 0 -214 33l57 216h2l63 -207q5 -16 20 -20q23 -5 55 -5q65 0 112.5 36.5
t47.5 103.5q0 43 -23.5 77t-72.5 70l-59 44q-102 74 -102 176q0 86 66.5 142.5t167.5 56.5q103 0 204 -27l-46 -210h-2l-72 199q-5 14 -18 17q-25 5 -47 5q-60 0 -100.5 -31.5t-40.5 -89.5q0 -76 107 -153l59 -43q54 -38 80 -78t26 -95z" />
    <glyph glyph-name="scommaaccent" unicode="&#x219;" horiz-adv-x="388" 
d="M101 -153q-38 6 -38 45q0 28 20 47.5t47 19.5q24 0 39 -16t15 -41q0 -41 -29 -77t-72 -59q-25 -13 -46 -19v2q26 12 40 31q23 30 30 55q3 11 -6 12zM343 149q0 -58 -50.5 -107.5t-143.5 -49.5q-83 0 -152 36l60 166h2l49 -171q3 -13 16 -15q9 -2 27 -2q45 0 69 25t24 62
q0 27 -18.5 48.5t-70.5 64.5q-48 39 -70.5 71.5t-22.5 73.5q0 61 49 104t131 43q70 0 139 -25l-56 -162h-2l-51 160q-4 13 -16 13h-10q-42 0 -65.5 -22t-23.5 -57q0 -28 22.5 -55.5t69.5 -63.5q48 -36 71 -66.5t23 -70.5z" />
    <glyph glyph-name="uni021A" unicode="&#x21a;" horiz-adv-x="605" 
d="M206 -153q-38 6 -38 45q0 28 20 47.5t47 19.5q24 0 39 -16t15 -41q0 -41 -29 -77t-72 -59q-25 -13 -46 -19v2q26 12 40 31q23 30 30 55q3 11 -6 12zM333 83q-4 -16 7 -24l71 -57v-2h-319v2l94 57q13 8 17 24l126 601h-87q-13 0 -18 -2.5t-14 -16.5l-145 -209h-2l51 247
h567l-51 -247h-2l-59 209q-4 13 -8 16t-16 3h-87z" />
    <glyph glyph-name="uni021B" unicode="&#x21b;" horiz-adv-x="297" 
d="M60 -153q-38 6 -38 45q0 28 20 47.5t47 19.5q24 0 39 -16t15 -41q0 -41 -29 -77t-72 -59q-25 -13 -46 -19v2q26 12 40 31q23 30 30 55q3 11 -6 12zM202 39q-45 -47 -94 -47q-33 0 -52.5 21t-19.5 52q0 27 13 83l75 316h-79v18h74q15 0 22 8l145 190h2l-46 -198h113v-18
h-117l-70 -306q-13 -54 -13 -70q0 -28 23 -28q22 0 41 25q34 45 49 117h2q-12 -103 -68 -163z" />
    <glyph glyph-name="dotlessj" unicode="&#x237;" horiz-adv-x="263" 
d="M167 128q-83 -364 -290 -364q-46 0 -80 22l64 158h2l43 -143q4 -14 15 -14q63 0 130 316l67 325q4 17 -11 23l-74 29v2l221 16z" />
    <glyph glyph-name="circumflex" unicode="&#x2c6;" horiz-adv-x="404" 
d="M354 538l-2 -2l-132 77l-168 -77l-2 2l187 173h2z" />
    <glyph glyph-name="caron" unicode="&#x2c7;" horiz-adv-x="404" 
d="M184 635l168 71l1 -2l-187 -174h-2l-115 174l2 2z" />
    <glyph glyph-name="uni02C9" unicode="&#x2c9;" horiz-adv-x="365" 
d="M372 592h-262v18h262v-18z" />
    <glyph glyph-name="breve" unicode="&#x2d8;" horiz-adv-x="355" 
d="M165 609q51 0 88.5 25.5t49.5 71.5h2q-3 -83 -44.5 -124t-100.5 -41q-46 0 -78 24.5t-32 72.5q0 29 15 68h2q-8 -45 19.5 -71t78.5 -26z" />
    <glyph glyph-name="dotaccent" unicode="&#x2d9;" horiz-adv-x="237" 
d="M126 685q27 0 44 -16t17 -43q0 -30 -21.5 -50.5t-53.5 -20.5q-26 0 -44 16t-18 43q0 30 22 50.5t54 20.5z" />
    <glyph glyph-name="ring" unicode="&#x2da;" horiz-adv-x="276" 
d="M126 541q-32 0 -53.5 20.5t-21.5 52.5q0 41 29 70t71 29q32 0 53 -20.5t21 -52.5q0 -41 -29 -70t-70 -29zM149 694q-31 0 -54.5 -23t-23.5 -56q0 -24 15.5 -39.5t40.5 -15.5q32 0 55 23t23 56q0 24 -15.5 39.5t-40.5 15.5z" />
    <glyph glyph-name="ogonek" unicode="&#x2db;" horiz-adv-x="321" 
d="M270 -143l1 -1q-53 -92 -136 -92q-36 0 -60.5 21t-24.5 58q0 59 51.5 100t118.5 58l2 -1q-41 -18 -68.5 -52t-27.5 -75q0 -26 16.5 -41t43.5 -15q47 0 84 40z" />
    <glyph glyph-name="tilde" unicode="&#x2dc;" horiz-adv-x="402" 
d="M350 680h2q-9 -52 -36.5 -85t-65.5 -33q-24 0 -64.5 23.5t-61.5 23.5q-44 0 -72 -48h-2q9 52 36.5 85t65.5 33q25 0 65 -24t61 -24q45 0 72 49z" />
    <glyph glyph-name="hungarumlaut" unicode="&#x2dd;" horiz-adv-x="461" 
d="M145 703h115v-2l-209 -170l-1 1zM296 703h114v-2l-208 -170l-1 1z" />
    <glyph glyph-name="uni0394" unicode="&#x394;" horiz-adv-x="551" 
d="M499 0h-542v2l324 599q8 16 8 20.5t-7 15.5l-44 64v2h177zM298 593l-309 -574h377z" />
    <glyph glyph-name="uni03A9" unicode="&#x3a9;" horiz-adv-x="735" 
d="M719 451q0 -146 -92 -249t-241 -119l-13 -64h129q27 0 40 15l147 183h2l-53 -217h-288l20 97q60 11 109.5 83.5t74 164t24.5 173.5q0 179 -124 179q-62 0 -117.5 -64.5t-87 -162t-31.5 -196.5q0 -151 88 -175l-20 -99h-287l36 217h2l72 -183q6 -15 33 -15h129l14 67
q-99 17 -154 86t-55 165q0 155 109 265.5t266 110.5q122 0 195 -74.5t73 -187.5z" />
    <glyph glyph-name="uni03BC" unicode="&#x3bc;" horiz-adv-x="570" 
d="M428 87q0 -28 23 -28q26 0 50.5 38.5t40.5 104.5h2q-14 -100 -65 -162q-42 -48 -94 -48q-33 0 -52.5 20t-19.5 59q0 46 24 130h-2q-33 -88 -81 -140t-99 -61q-10 -2 -15 -2l-39 -157q-3 -11 -1.5 -14.5t10.5 -7.5l108 -45v-2h-305v2l52 36q15 11 19 28l133 495
q14 49 14 70q0 28 -22 28q-24 0 -45 -30q-27 -38 -44 -109h-2q13 94 59.5 150t104.5 56q34 0 53.5 -19.5t19.5 -53.5q0 -31 -23 -108l-45 -151q-18 -62 -18 -79q0 -30 29 -30q44 0 97 85q31 48 64 161q31 110 47 183l117 7l-88 -357q-7 -31 -7 -49z" />
    <glyph glyph-name="pi" unicode="&#x3c0;" horiz-adv-x="606" 
d="M549 415l-71 -348q-3 -15 5 -22l50 -43v-2h-266v2l69 43q13 8 15 22l83 405h-171l-83 -405q-3 -15 6 -22l51 -43v-2h-265v2l67 43q12 8 15 22l72 348q3 15 -5 23l-50 50v2h563v-2l-70 -50q-12 -8 -15 -23z" />
    <glyph glyph-name="Wgrave" unicode="&#x1e80;" horiz-adv-x="957" 
d="M948 567l-298 -567h-85l-48 443l-235 -443h-86l-72 608q-3 22 -13 40l-32 53v2h257v-2l-73 -60q-11 -10 -9 -25l60 -515l199 375l-14 132q-2 15 -13 39l-26 54v2h250v-2l-74 -60q-10 -8 -9 -24l55 -513l245 464q10 19 -3 36l-68 97v2h230v-2l-104 -93q-24 -22 -34 -41z
M430 915h142l114 -163l-1 -1l-255 162v2z" />
    <glyph glyph-name="wgrave" unicode="&#x1e81;" horiz-adv-x="683" 
d="M609 306q0 73 -30 120q-2 4 -9.5 15.5t-8.5 12.5v2l130 42q-2 -104 -41 -220t-109.5 -201t-147.5 -85q-37 0 -61 23.5t-24 72.5q0 32 12 76h-2q-55 -172 -169 -172q-50 0 -74.5 29.5t-24.5 74.5q0 39 22 115l33 116q15 51 15 74q0 28 -22 28q-41 0 -92 -114h-2
q57 183 165 183q73 0 73 -80q0 -38 -27 -124l-34 -109q-15 -49 -15 -79q0 -26 11.5 -40.5t30.5 -14.5q59 0 103 126q42 119 63 304l118 17q-6 -45 -15 -95t-15.5 -78t-20 -82.5t-16.5 -66.5q-10 -46 -10 -63q0 -62 48 -62q51 0 98.5 81.5t47.5 173.5zM281 703h142l114 -163
l-1 -1l-255 162v2z" />
    <glyph glyph-name="Wacute" unicode="&#x1e82;" horiz-adv-x="957" 
d="M633 915h143v-2l-257 -162l-1 1zM948 567l-298 -567h-85l-48 443l-235 -443h-86l-72 608q-3 22 -13 40l-32 53v2h257v-2l-73 -60q-11 -10 -9 -25l60 -515l199 375l-14 132q-2 15 -13 39l-26 54v2h250v-2l-74 -60q-10 -8 -9 -24l55 -513l245 464q10 19 -3 36l-68 97v2h230
v-2l-104 -93q-24 -22 -34 -41z" />
    <glyph glyph-name="wacute" unicode="&#x1e83;" horiz-adv-x="683" 
d="M484 703h143v-2l-257 -162l-1 1zM609 306q0 73 -30 120q-2 4 -9.5 15.5t-8.5 12.5v2l130 42q-2 -104 -41 -220t-109.5 -201t-147.5 -85q-37 0 -61 23.5t-24 72.5q0 32 12 76h-2q-55 -172 -169 -172q-50 0 -74.5 29.5t-24.5 74.5q0 39 22 115l33 116q15 51 15 74
q0 28 -22 28q-41 0 -92 -114h-2q57 183 165 183q73 0 73 -80q0 -38 -27 -124l-34 -109q-15 -49 -15 -79q0 -26 11.5 -40.5t30.5 -14.5q59 0 103 126q42 119 63 304l118 17q-6 -45 -15 -95t-15.5 -78t-20 -82.5t-16.5 -66.5q-10 -46 -10 -63q0 -62 48 -62q51 0 98.5 81.5
t47.5 173.5z" />
    <glyph glyph-name="Wdieresis" unicode="&#x1e84;" horiz-adv-x="957" 
d="M519 894q24 0 39.5 -14.5t15.5 -38.5q0 -27 -19.5 -45.5t-47.5 -18.5q-24 0 -39.5 14.5t-15.5 38.5q0 27 19.5 45.5t47.5 18.5zM697 894q24 0 39.5 -14.5t15.5 -38.5q0 -27 -19.5 -45.5t-47.5 -18.5q-23 0 -39 14.5t-16 38.5q0 27 19.5 45.5t47.5 18.5zM948 567
l-298 -567h-85l-48 443l-235 -443h-86l-72 608q-3 22 -13 40l-32 53v2h257v-2l-73 -60q-11 -10 -9 -25l60 -515l199 375l-14 132q-2 15 -13 39l-26 54v2h250v-2l-74 -60q-10 -8 -9 -24l55 -513l245 464q10 19 -3 36l-68 97v2h230v-2l-104 -93q-24 -22 -34 -41z" />
    <glyph glyph-name="wdieresis" unicode="&#x1e85;" horiz-adv-x="683" 
d="M370 682q24 0 39.5 -14.5t15.5 -38.5q0 -27 -19.5 -45.5t-47.5 -18.5q-24 0 -39.5 14.5t-15.5 38.5q0 27 19.5 45.5t47.5 18.5zM548 682q24 0 39.5 -14.5t15.5 -38.5q0 -27 -19.5 -45.5t-47.5 -18.5q-23 0 -39 14.5t-16 38.5q0 27 19.5 45.5t47.5 18.5zM609 306
q0 73 -30 120q-2 4 -9.5 15.5t-8.5 12.5v2l130 42q-2 -104 -41 -220t-109.5 -201t-147.5 -85q-37 0 -61 23.5t-24 72.5q0 32 12 76h-2q-55 -172 -169 -172q-50 0 -74.5 29.5t-24.5 74.5q0 39 22 115l33 116q15 51 15 74q0 28 -22 28q-41 0 -92 -114h-2q57 183 165 183
q73 0 73 -80q0 -38 -27 -124l-34 -109q-15 -49 -15 -79q0 -26 11.5 -40.5t30.5 -14.5q59 0 103 126q42 119 63 304l118 17q-6 -45 -15 -95t-15.5 -78t-20 -82.5t-16.5 -66.5q-10 -46 -10 -63q0 -62 48 -62q51 0 98.5 81.5t47.5 173.5z" />
    <glyph glyph-name="uni1E8A" unicode="&#x1e8a;" horiz-adv-x="656" 
d="M557 578l-153 -168l137 -319q7 -15 24 -34l49 -55v-2h-280v2l64 50q10 8 11 12.5t-3 13.5l-96 222l-166 -183q-10 -11 -11.5 -16t3.5 -12l68 -87v-2h-262v2l132 81q34 21 53 42l176 193l-126 294q-10 21 -23 34l-49 55v2h279v-2l-64 -50q-14 -10 -7 -26l84 -197l143 158
q10 11 11.5 16t-3.5 12l-68 87v2h262v-2l-131 -81q-38 -24 -54 -42zM458 897q27 0 44 -16t17 -43q0 -30 -21.5 -50.5t-53.5 -20.5q-26 0 -44 16t-18 43q0 30 22 50.5t54 20.5z" />
    <glyph glyph-name="uni1E8B" unicode="&#x1e8b;" horiz-adv-x="487" 
d="M296 -8q-33 0 -52.5 21t-29.5 70l-18 89q-15 -33 -25 -52q-37 -70 -66.5 -99t-67.5 -29q-37 0 -60 23l67 172h2l28 -101q5 -17 19 -17q9 0 20 8q37 27 81 110l-35 181q-11 60 -40 60q-25 0 -49.5 -33.5t-40.5 -92.5h-2q13 88 61 142t99 54q34 0 53.5 -20.5t29.5 -68.5
l18 -93q4 7 13.5 27.5t12.5 25.5q36 70 66 99.5t69 29.5q38 0 60 -23l-67 -171h-2l-28 101q-4 16 -18 16q-9 0 -19 -7q-36 -24 -84 -111l34 -179q11 -61 40 -61q25 0 48.5 34.5t40.5 95.5h2q-14 -90 -61 -145.5t-99 -55.5zM340 685q27 0 44 -16t17 -43q0 -30 -21.5 -50.5
t-53.5 -20.5q-26 0 -44 16t-18 43q0 30 22 50.5t54 20.5z" />
    <glyph glyph-name="Ygrave" unicode="&#x1ef2;" horiz-adv-x="601" 
d="M375 278l-41 -197q-2 -10 -1 -13.5t8 -8.5l72 -57v-2h-320v2l95 57q13 8 16 22l38 183q4 16 0 28l-107 317q-7 19 -19 37l-39 55v2h276v-2l-75 -59q-12 -9 -8 -21l98 -306l190 264q10 14 2 27l-65 95v2h237v-2l-118 -93q-27 -21 -39 -38l-185 -255q-10 -14 -15 -37z
M275 915h142l114 -163l-1 -1l-255 162v2z" />
    <glyph glyph-name="ygrave" unicode="&#x1ef3;" horiz-adv-x="452" 
d="M373 325q0 79 -48 129v2l135 42q-13 -138 -67.5 -273t-133.5 -239q-76 -100 -163.5 -161t-150.5 -61q-18 0 -28 5l52 152h2l81 -87q9 -11 23 -3q32 19 80 67q7 7 7 22v20q-1 127 -17.5 256t-36.5 187q-12 36 -31 36q-33 0 -71 -114h-2q17 84 52.5 138.5t85.5 54.5
q34 0 53.5 -24.5t32.5 -71.5q18 -63 29 -168t8 -210h2q41 62 68 129q38 96 38 172zM128 703h142l114 -163l-1 -1l-255 162v2z" />
    <glyph glyph-name="endash" unicode="&#x2013;" horiz-adv-x="500" 
d="M495 235h-490v18h490v-18z" />
    <glyph glyph-name="emdash" unicode="&#x2014;" horiz-adv-x="1000" 
d="M995 235h-990v18h990v-18z" />
    <glyph glyph-name="quoteleft" unicode="&#x2018;" horiz-adv-x="204" 
d="M184 605q17 -4 28.5 -19.5t11.5 -34.5q0 -29 -19.5 -48t-46.5 -19t-44.5 18t-17.5 47q0 43 30.5 81.5t74.5 63.5q29 17 54 24v-2q-28 -15 -46 -36q-23 -24 -33 -61q-4 -11 8 -14z" />
    <glyph glyph-name="quoteright" unicode="&#x2019;" horiz-adv-x="204" 
d="M243 649q0 -80 -96 -140q-33 -21 -62 -30v2q27 14 47 38q21 24 31 59q4 12 -8 15q-17 3 -28.5 18.5t-11.5 35.5q0 29 19.5 47.5t46.5 18.5t44.5 -17.5t17.5 -46.5z" />
    <glyph glyph-name="quotesinglbase" unicode="&#x201a;" horiz-adv-x="204" 
d="M49 1q3 12 -8 14q-17 4 -28.5 19.5t-11.5 35.5q0 28 19.5 47t46.5 19t44.5 -17.5t17.5 -46.5q0 -43 -29 -80.5t-72 -63.5q-30 -19 -57 -26v2q27 14 47 37q22 26 31 60z" />
    <glyph glyph-name="quotedblleft" unicode="&#x201c;" horiz-adv-x="376" 
d="M356 602q17 -4 28.5 -19t11.5 -35q0 -28 -19.5 -47t-46.5 -19t-44.5 17.5t-17.5 46.5q0 78 100 142q30 19 59 28v-2q-28 -15 -49 -39q-22 -27 -30 -58q-3 -12 8 -15zM185 602q17 -4 28 -19t11 -35q0 -28 -19 -47t-46 -19t-45 17.5t-18 46.5q0 76 97 140q33 21 62 30v-2
q-30 -15 -50 -41q-18 -24 -28 -56q-4 -12 8 -15z" />
    <glyph glyph-name="quotedblright" unicode="&#x201d;" horiz-adv-x="376" 
d="M163 578q4 12 -8 15q-17 3 -28.5 18.5t-11.5 35.5q0 29 19.5 47.5t46.5 18.5t44.5 -17.5t17.5 -46.5q0 -80 -97 -141q-29 -19 -61 -29v2q27 14 47 38q22 29 31 59zM335 578q3 12 -8 15q-17 4 -28.5 19t-11.5 35q0 29 19 47.5t47 18.5q27 0 44.5 -17.5t17.5 -46.5
q0 -80 -100 -142q-32 -19 -59 -28v2q32 17 48 38q24 29 31 59z" />
    <glyph glyph-name="quotedblbase" unicode="&#x201e;" horiz-adv-x="376" 
d="M49 1q3 12 -8 14q-17 4 -28.5 19.5t-11.5 35.5q0 28 19.5 47t46.5 19t44.5 -17.5t17.5 -46.5q0 -78 -94 -139q-34 -22 -64 -31v2q26 13 50 44q23 28 28 53zM221 1q3 11 -8 14q-17 4 -28.5 19.5t-11.5 35.5q0 28 19.5 47t46.5 19t44.5 -17.5t17.5 -46.5q0 -75 -93 -138
q-34 -23 -66 -32v2q29 14 50 41q24 29 29 56z" />
    <glyph glyph-name="dagger" unicode="&#x2020;" horiz-adv-x="429" 
d="M432 514h-153l-77 -384l-18 3l76 381h-149v18h153l35 174l18 -3l-35 -171h150v-18z" />
    <glyph glyph-name="daggerdbl" unicode="&#x2021;" horiz-adv-x="429" 
d="M389 301h-153l-34 -171l-18 3l33 168h-149v18h153l39 195h-149v18h153l35 174l18 -3l-35 -171h150v-18h-153l-39 -195h149v-18z" />
    <glyph glyph-name="bullet" unicode="&#x2022;" horiz-adv-x="346" 
d="M191 258q-42 0 -70 26t-28 67q0 43 31.5 72.5t74.5 29.5q41 0 69 -27t28 -67q0 -44 -30.5 -72.5t-74.5 -28.5z" />
    <glyph glyph-name="ellipsis" unicode="&#x2026;" horiz-adv-x="667" 
d="M72 -9q-26 0 -44 17t-18 42q0 34 23 57.5t56 23.5q27 0 45 -16.5t18 -42.5q0 -35 -23 -58t-57 -23zM286 -9q-26 0 -44 17t-18 42q0 34 23.5 57.5t56.5 23.5q27 0 45 -16.5t18 -42.5q0 -34 -23.5 -57.5t-57.5 -23.5zM501 -9q-26 0 -44 17t-18 42q0 34 23.5 57.5t56.5 23.5
q27 0 44.5 -16.5t17.5 -42.5q0 -35 -23 -58t-57 -23z" />
    <glyph glyph-name="perthousand" unicode="&#x2030;" horiz-adv-x="934" 
d="M286 699q-38 0 -63.5 -76.5t-25.5 -139.5q0 -53 34 -53q27 0 48.5 43t31 91.5t9.5 82.5q0 52 -34 52zM289 713q48 0 77.5 -31t29.5 -78q0 -81 -46 -134.5t-122 -53.5q-49 0 -77.5 31t-28.5 79q0 80 46 133.5t121 53.5zM472 274q-38 0 -63.5 -76.5t-25.5 -139.5
q0 -53 34 -53q27 0 48.5 43t31 91.5t9.5 82.5q0 52 -34 52zM475 288q48 0 77.5 -31t29.5 -78q0 -81 -46 -134.5t-122 -53.5q-49 0 -77.5 31t-28.5 79q0 80 46 133.5t121 53.5zM783 274q-38 0 -63.5 -76.5t-25.5 -139.5q0 -53 34 -53q27 0 48.5 43t31 91.5t9.5 82.5
q0 52 -34 52zM786 288q48 0 77.5 -31t29.5 -78q0 -81 -46 -134.5t-122 -53.5q-49 0 -77.5 31t-28.5 79q0 80 46 133.5t121 53.5zM683 701l-649 -711l-13 14l648 710z" />
    <glyph glyph-name="guilsinglleft" unicode="&#x2039;" horiz-adv-x="271" 
d="M31 252l256 213l2 -2l-142 -219l53 -206l-2 -1l-167 213v2z" />
    <glyph glyph-name="guilsinglright" unicode="&#x203a;" horiz-adv-x="271" 
d="M244 250l-256 -213l-2 2l142 218l-53 207l2 1l167 -213v-2z" />
    <glyph glyph-name="fraction" unicode="&#x2044;" horiz-adv-x="48" 
d="M365 701l-649 -711l-13 14l648 710z" />
    <glyph glyph-name="Euro" unicode="&#x20ac;" horiz-adv-x="653" 
d="M475 399h-212q-13 -49 -17 -94h206v-20h-208q-3 -36 -3 -70q0 -92 32.5 -150.5t99.5 -58.5q18 0 28 1q20 2 30 16l165 219h2l-46 -230q-97 -22 -190 -22q-125 0 -193.5 76.5t-68.5 198.5v20h-91v20h92q5 50 16 94h-85v20h91q40 131 139 212.5t231 81.5q110 0 198 -23
l-49 -229h-2l-79 214q-4 12 -8.5 15t-14.5 5q-14 2 -30 2q-82 0 -144.5 -78t-95.5 -200h207v-20z" />
    <glyph glyph-name="trademark" unicode="&#x2122;" horiz-adv-x="907" 
d="M518 428q0 -15 9 -24l46 -39v-2h-127v2l46 40q8 7 8 23v229q0 9 -5 14l-39 30v2h121l93 -217l87 217h119v-2l-38 -27q-6 -5 -6 -12v-261q0 -6 6 -11l38 -25v-2h-168v2l38 25q6 4 6 11v215q0 19 1 29l-113 -286h-1l-110 255q-1 2 -11 27v-213zM311 404q0 -8 5 -12l36 -27
v-2h-166v2l39 27q5 4 5 12v282h-40q-10 0 -14 -9l-54 -94h-2l6 120h288l6 -120h-2l-54 94q-6 9 -15 9h-38v-282z" />
    <glyph glyph-name="Omega" unicode="&#x2126;" horiz-adv-x="735" 
d="M719 451q0 -146 -92 -249t-241 -119l-13 -64h129q27 0 40 15l147 183h2l-53 -217h-288l20 97q60 11 109.5 83.5t74 164t24.5 173.5q0 179 -124 179q-62 0 -117.5 -64.5t-87 -162t-31.5 -196.5q0 -151 88 -175l-20 -99h-287l36 217h2l72 -183q6 -15 33 -15h129l14 67
q-99 17 -154 86t-55 165q0 155 109 265.5t266 110.5q122 0 195 -74.5t73 -187.5z" />
    <glyph glyph-name="estimated" unicode="&#x212e;" horiz-adv-x="664" 
d="M609 235h-508q3 -101 72.5 -163.5t170.5 -62.5q81 0 144 43t87 116l21 -7q-26 -79 -94.5 -125t-157.5 -46q-112 0 -188 70t-76 184q0 115 75.5 184.5t188.5 69.5t189 -69.5t76 -184.5v-9zM344 480q-100 0 -169.5 -62.5t-73.5 -163.5h487q-4 101 -74 163.5t-170 62.5z" />
    <glyph glyph-name="uni2153" unicode="&#x2153;" horiz-adv-x="485" 
d="M448 361v-18h-365v18h365zM362 716l-54 -255q-1 -4 5 -8l59 -31v-2h-219v2l71 31q8 3 9 8l40 189q1 7 -5 9l-66 21v2zM334 92q0 -49 -47.5 -72.5t-115.5 -23.5q-57 0 -106 18l69 96h2l9 -88q1 -8 9 -10q7 -1 15 -1q36 0 61.5 24t25.5 62q0 51 -70 55v2q39 4 64.5 25
t25.5 58q0 41 -41 41q-10 0 -15 -1q-8 -1 -12 -8l-58 -89h-2l-21 91q59 22 113 22q52 0 82 -18.5t30 -48.5t-24.5 -48t-69.5 -22v-2q35 -3 55.5 -20t20.5 -42z" />
    <glyph glyph-name="uni2154" unicode="&#x2154;" horiz-adv-x="485" 
d="M464 343h-365v18h365v-18zM350 92q0 -49 -47.5 -72.5t-115.5 -23.5q-57 0 -106 18l69 96h2l9 -88q1 -8 9 -10q7 -1 15 -1q36 0 61.5 24t25.5 62q0 51 -70 55v2q39 4 64.5 25t25.5 58q0 41 -41 41q-10 0 -15 -1q-8 -1 -12 -8l-58 -89h-2l-21 91q59 22 113 22
q52 0 82 -18.5t30 -48.5t-24.5 -48t-69.5 -22v-2q35 -3 55.5 -20t20.5 -42zM344 713q109 0 109 -73q0 -85 -199 -158v-2h105q21 0 31 8l43 34h2l-35 -102h-239v2q32 24 114 90q46 37 73 71t27 73q0 42 -45 42q-8 0 -13 -1q-8 -1 -11 -7l-58 -92h-2l-20 93q63 22 118 22z" />
    <glyph glyph-name="uni2155" unicode="&#x2155;" horiz-adv-x="485" 
d="M457 361v-18h-365v18h365zM317 461q-1 -4 5 -8l59 -31v-2h-219v2l71 31q8 3 9 8l40 189q1 7 -5 9l-66 21v2l160 34zM341 98q0 -48 -44 -75.5t-113 -27.5q-64 0 -109 19l69 94h2l10 -88q1 -9 11 -10q7 -1 18 -1q33 0 55 24.5t22 58.5q0 62 -70 62q-28 0 -62 -20l-2 1
l39 152q2 0 38 -1.5t58 -1.5q46 0 63 1q19 2 35 13l10 7h2l-12 -37q-7 -23 -16.5 -31.5t-26.5 -10.5q-19 -1 -70 -1q-35 0 -81 4l-20 -76q48 32 95 32q46 0 72.5 -24.5t26.5 -62.5z" />
    <glyph glyph-name="uni2156" unicode="&#x2156;" horiz-adv-x="485" 
d="M455 343h-365v18h365v-18zM339 98q0 -48 -44 -75.5t-113 -27.5q-64 0 -109 19l69 94h2l10 -88q1 -9 11 -10q7 -1 18 -1q33 0 55 24.5t22 58.5q0 62 -70 62q-28 0 -62 -20l-2 1l39 152q2 0 38 -1.5t58 -1.5q38 0 55 1q28 3 43 13l10 7h2l-12 -37q-7 -23 -16.5 -31.5
t-26.5 -10.5q-19 -1 -70 -1q-35 0 -81 4l-20 -76q48 32 95 32q46 0 72.5 -24.5t26.5 -62.5zM335 713q109 0 109 -73q0 -85 -199 -158v-2h105q21 0 31 8l43 34h2l-35 -102h-239v2q32 24 114 90q46 37 73 71t27 73q0 42 -45 42q-9 0 -14 -1q-6 -1 -10 -7l-58 -92h-2l-20 93
q63 22 118 22z" />
    <glyph glyph-name="uni2157" unicode="&#x2157;" horiz-adv-x="485" 
d="M468 343h-365v18h365v-18zM352 98q0 -48 -44 -75.5t-113 -27.5q-64 0 -109 19l69 94h2l10 -88q1 -9 11 -10q7 -1 18 -1q33 0 55 24.5t22 58.5q0 62 -70 62q-28 0 -62 -20l-2 1l39 152q2 0 38 -1.5t58 -1.5q38 0 55 1q28 3 43 13l10 7h2l-12 -37q-7 -23 -16.5 -31.5
t-26.5 -10.5q-19 -1 -70 -1q-35 0 -81 4l-20 -76q48 32 95 32q46 0 72.5 -24.5t26.5 -62.5zM440 512q0 -49 -47.5 -72.5t-115.5 -23.5q-57 0 -106 18l69 96h2l9 -88q1 -8 9 -10q7 -1 15 -1q36 0 61.5 24t25.5 62q0 51 -70 55v2q39 4 64.5 25t25.5 58q0 41 -41 41
q-10 0 -15 -1q-8 -1 -12 -8l-58 -89h-2l-21 91q59 22 113 22q52 0 82 -18.5t30 -48.5t-24.5 -48t-69.5 -22v-2q35 -3 55.5 -20t20.5 -42z" />
    <glyph glyph-name="uni2158" unicode="&#x2158;" horiz-adv-x="485" 
d="M448 361v-18h-365v18h365zM425 492h-68l-7 -34q-1 -7 4 -10l37 -26v-2h-172v2l50 26q8 4 9 11l7 33h-141v2l202 215h56l-42 -202h13q12 0 17 8l62 82h2zM175 507h113l34 155zM332 98q0 -48 -44 -75.5t-113 -27.5q-64 0 -109 19l69 94h2l10 -88q1 -9 11 -10q7 -1 18 -1
q33 0 55 24.5t22 58.5q0 62 -70 62q-28 0 -62 -20l-2 1l39 152q2 0 38 -1.5t58 -1.5q38 0 55 1q28 3 43 13l10 7h2l-12 -37q-7 -23 -16.5 -31.5t-26.5 -10.5q-19 -1 -70 -1q-35 0 -81 4l-20 -76q48 32 95 32q46 0 72.5 -24.5t26.5 -62.5z" />
    <glyph glyph-name="uni2159" unicode="&#x2159;" horiz-adv-x="485" 
d="M459 361v-18h-365v18h365zM373 716l-54 -255q-1 -4 5 -8l59 -31v-2h-219v2l71 31q8 3 9 8l40 189q1 7 -5 9l-66 21v2zM204 -4q-52 0 -82 29.5t-30 78.5q0 80 47.5 134.5t128.5 54.5q60 0 106 -15l-53 -81h-2l-29 74q-3 7 -12 7h-11q-62 0 -91 -132q37 37 85 37
q36 0 60.5 -22t24.5 -55q0 -46 -39 -78t-103 -32zM228 159q-27 0 -54 -23q-7 -38 -7 -71q0 -55 38 -55q25 0 45 30.5t20 64.5q0 54 -42 54z" />
    <glyph glyph-name="uni215A" unicode="&#x215a;" horiz-adv-x="485" 
d="M94 343v18h365v-18h-365zM427 519q0 -48 -44 -75.5t-113 -27.5q-64 0 -109 19l69 94h2l10 -88q1 -9 11 -10q7 -1 18 -1q33 0 55 24.5t22 58.5q0 62 -70 62q-28 0 -62 -20l-2 1l39 152q2 0 38 -1.5t58 -1.5q38 0 55 1q28 3 43 13l10 7h2l-12 -37q-7 -23 -16.5 -31.5
t-26.5 -10.5q-19 -1 -70 -1q-35 0 -81 4l-20 -76q48 32 95 32q46 0 72.5 -24.5t26.5 -62.5zM204 -4q-52 0 -82 29.5t-30 78.5q0 80 47.5 134.5t128.5 54.5q60 0 106 -15l-53 -81h-2l-29 74q-3 7 -12 7h-11q-62 0 -91 -132q37 37 85 37q36 0 60.5 -22t24.5 -55q0 -46 -39 -78
t-103 -32zM228 159q-27 0 -54 -23q-7 -38 -7 -71q0 -55 38 -55q25 0 45 30.5t20 64.5q0 54 -42 54z" />
    <glyph glyph-name="uni215B" unicode="&#x215b;" horiz-adv-x="485" 
d="M451 361v-18h-365v18h365zM197 -4q-47 0 -79 19t-32 48q0 28 26 45t65 22q-48 23 -48 71q0 41 36 66.5t90 25.5q39 0 67 -18.5t28 -44.5q0 -60 -86 -62l22 -10q52 -23 52 -68q0 -43 -43 -68.5t-98 -25.5zM231 105l-47 22q-39 -19 -39 -62q0 -26 16.5 -40.5t42.5 -14.5
q24 0 43.5 14.5t19.5 37.5q0 24 -36 43zM193 229q0 -28 35 -44l31 -15q34 29 34 63q0 21 -12 33.5t-30 12.5q-25 0 -41.5 -14.5t-16.5 -35.5zM311 461q-1 -4 5 -8l59 -31v-2h-219v2l71 31q8 3 9 8l40 189q1 7 -5 9l-66 21v2l160 34z" />
    <glyph glyph-name="uni215C" unicode="&#x215c;" horiz-adv-x="485" 
d="M448 361v-18h-365v18h365zM194 -4q-47 0 -79 19t-32 48q0 28 26.5 45.5t65.5 22.5q-49 24 -49 70q0 41 36 66.5t90 25.5q39 0 67 -18.5t28 -44.5q0 -60 -86 -62l22 -10q52 -23 52 -68q0 -43 -43 -68.5t-98 -25.5zM228 105l-47 22q-39 -19 -39 -62q0 -26 16.5 -40.5
t42.5 -14.5q24 0 43.5 14.5t19.5 37.5q0 26 -36 43zM190 229q0 -27 35 -44l31 -15q34 29 34 63q0 21 -12 33.5t-30 12.5q-25 0 -41.5 -14.5t-16.5 -35.5zM420 512q0 -49 -47.5 -72.5t-115.5 -23.5q-57 0 -106 18l69 96h2l9 -88q1 -8 9 -10q7 -1 15 -1q36 0 61.5 24t25.5 62
q0 51 -70 55v2q39 4 64.5 25t25.5 58q0 41 -41 41q-10 0 -15 -1q-8 -1 -12 -8l-58 -89h-2l-21 91q59 22 113 22q52 0 82 -18.5t30 -48.5t-24.5 -48t-69.5 -22v-2q35 -3 55.5 -20t20.5 -42z" />
    <glyph glyph-name="uni215D" unicode="&#x215d;" horiz-adv-x="485" 
d="M83 361v-18h365v18h-365zM194 -4q-47 0 -79 19t-32 48q0 28 26 45t65 22q-48 23 -48 71q0 41 36 66.5t90 25.5q39 0 67 -18.5t28 -44.5q0 -60 -86 -62l22 -10q52 -23 52 -68q0 -43 -43 -68.5t-98 -25.5zM228 105l-47 22q-39 -19 -39 -62q0 -26 16.5 -40.5t42.5 -14.5
q24 0 43.5 14.5t19.5 37.5q0 24 -36 43zM190 229q0 -28 35 -44l31 -15q34 29 34 63q0 21 -12 33.5t-30 12.5q-25 0 -41.5 -14.5t-16.5 -35.5zM416 519q0 -48 -44 -75.5t-113 -27.5q-64 0 -109 19l69 94h2l10 -88q1 -9 11 -10q7 -1 18 -1q33 0 55 24.5t22 58.5q0 62 -70 62
q-28 0 -62 -20l-2 1l39 152q2 0 38 -1.5t58 -1.5q46 0 55 1q28 3 43 13l10 7h2l-12 -37q-7 -23 -16.5 -31.5t-26.5 -10.5q-19 -1 -70 -1q-35 0 -81 4l-20 -76q48 32 95 32q46 0 72.5 -24.5t26.5 -62.5z" />
    <glyph glyph-name="uni215E" unicode="&#x215e;" horiz-adv-x="485" 
d="M194 -4q-47 0 -79 19t-32 48q0 28 26 45t65 22q-48 23 -48 71q0 41 36 66.5t90 25.5q39 0 67 -18.5t28 -44.5q0 -60 -86 -62l22 -10q52 -23 52 -68q0 -43 -43 -68.5t-98 -25.5zM295 420h-101v2q103 131 207 230v2h-146q-18 0 -28 -9l-30 -27h-2l31 91h250v-2l-43 -37
q-6 -5 -14 -15q-40 -54 -124 -235zM228 105l-47 22q-39 -19 -39 -62q0 -26 16.5 -40.5t42.5 -14.5q24 0 43.5 14.5t19.5 37.5q0 26 -36 43zM190 229q0 -27 35 -44l31 -15q34 29 34 63q0 21 -12 33.5t-30 12.5q-25 0 -41.5 -14.5t-16.5 -35.5zM448 361v-18h-365v18h365z" />
    <glyph glyph-name="uni2190" unicode="&#x2190;" horiz-adv-x="706" 
d="M90 258h561v-17h-562l229 -229l-12 -14l-251 251l251 251l13 -13z" />
    <glyph glyph-name="uni2191" unicode="&#x2191;" horiz-adv-x="612" 
d="M314 -49h-18v560l-228 -228l-13 13l251 251l251 -251l-13 -13l-230 230v-562z" />
    <glyph glyph-name="uni2192" unicode="&#x2192;" horiz-adv-x="706" 
d="M55 258h561l-229 229l13 13l251 -251l-251 -251l-12 14l229 229h-562v17z" />
    <glyph glyph-name="uni2193" unicode="&#x2193;" horiz-adv-x="612" 
d="M296 530h18v-562l230 230l13 -13l-251 -251l-251 251l13 13l228 -228v560z" />
    <glyph glyph-name="uni2196" unicode="&#x2196;" horiz-adv-x="539" 
d="M473 32l-396 394v-323h-18v356h354v-17h-325l399 -397z" />
    <glyph glyph-name="uni2197" unicode="&#x2197;" horiz-adv-x="539" 
d="M461 426l-396 -394l-14 13l399 397h-325v17h354v-356h-18v323z" />
    <glyph glyph-name="uni2198" unicode="&#x2198;" horiz-adv-x="539" 
d="M52 445l14 13l396 -394v323h18v-356h-354v17h325z" />
    <glyph glyph-name="uni2199" unicode="&#x2199;" horiz-adv-x="539" 
d="M472 458l14 -13l-399 -397h325v-17h-354v356h18v-323z" />
    <glyph glyph-name="partialdiff" unicode="&#x2202;" horiz-adv-x="504" 
d="M193 -9q-82 0 -126.5 53t-44.5 141q0 113 73 209t162 96q68 0 98 -51q-2 112 -30.5 178t-104.5 94l2 2q5 -2 18.5 -5t18.5 -4q122 -28 172.5 -112.5t50.5 -216.5q0 -156 -81 -270t-208 -114zM196 7q40 0 78 69.5t59.5 166.5t21.5 184v1q-20 24 -53 24q-45 0 -82 -56
t-55 -130.5t-18 -143.5q0 -115 49 -115z" />
    <glyph glyph-name="Delta" unicode="&#x2206;" horiz-adv-x="551" 
d="M499 0h-542v2l324 599q8 16 8 20.5t-7 15.5l-44 64v2h177zM298 593l-309 -574h377z" />
    <glyph glyph-name="product" unicode="&#x220f;" horiz-adv-x="740" 
d="M714 624l-113 -545q-4 -15 6 -23l65 -54v-2h-306v2l88 54q13 9 17 23l126 605h-269l-126 -605q-4 -15 6 -23l66 -54v-2h-307v2l89 54q13 9 17 23l113 545q4 15 -7 23l-66 54v2h705v-2l-88 -54q-14 -9 -16 -23z" />
    <glyph glyph-name="summation" unicode="&#x2211;" horiz-adv-x="578" 
d="M400 352l-411 -333h355q26 0 38 15l141 187h2l-45 -221h-538v2l341 280l-126 349q-6 16 -22 27l-57 43v2h532l-38 -221h-2l-73 184q-5 12 -9.5 15t-16.5 3h-192z" />
    <glyph glyph-name="minus" unicode="&#x2212;" horiz-adv-x="540" 
d="M70 314v18h440v-18h-440z" />
    <glyph glyph-name="uni2215" unicode="&#x2215;" horiz-adv-x="48" 
d="M365 701l-649 -711l-13 14l648 710z" />
    <glyph glyph-name="uni2219" unicode="&#x2219;" horiz-adv-x="222" 
d="M145 492q28 0 46.5 -17.5t18.5 -44.5q0 -31 -22.5 -53.5t-55.5 -22.5q-27 0 -45 17.5t-18 44.5q0 31 22 53.5t54 22.5z" />
    <glyph glyph-name="radical" unicode="&#x221a;" horiz-adv-x="540" 
d="M118 451l141 -397l246 701l17 -5l-262 -750h-2l-158 444z" />
    <glyph glyph-name="infinity" unicode="&#x221e;" horiz-adv-x="765" 
d="M71 325q0 55 37.5 98t94.5 43q23 0 44 -6t43.5 -22.5t34.5 -26.5t39.5 -37.5t37.5 -36.5q10 10 37 36.5t39.5 37t35 27t43 22.5t44.5 6q57 0 94.5 -43t37.5 -98t-37.5 -98t-94.5 -43q-24 0 -44.5 6t-43 22.5t-35 27t-39.5 37t-37 36.5q-10 -9 -37.5 -36.5t-39.5 -37.5
t-34.5 -26.5t-43.5 -22.5t-44 -6q-57 0 -94.5 43t-37.5 98zM601 202q51 0 82.5 37t31.5 86t-31.5 86t-82.5 37q-22 0 -40.5 -5.5t-39.5 -21t-32.5 -25t-37.5 -36t-36 -35.5q10 -9 36 -35.5t37.5 -36t32.5 -25t39.5 -21t40.5 -5.5zM90 325q0 -49 31.5 -86t81.5 -37
q21 0 40 5.5t40 21t32 24.5t38 36l36 36l-36 36t-38 36t-32 24.5t-40 21t-40 5.5q-50 0 -81.5 -37t-31.5 -86z" />
    <glyph glyph-name="integral" unicode="&#x222b;" horiz-adv-x="418" 
d="M110 114l57 301q27 141 82 219.5t159 78.5q65 0 116 -21l-62 -149h-2l-46 138q-4 11 -7.5 13.5t-12.5 2.5q-22 0 -38.5 -18t-28.5 -55.5t-19 -68.5t-17 -84q-1 -4 -1 -6l-58 -301q-16 -83 -38.5 -151t-55.5 -126t-79.5 -90.5t-102.5 -32.5q-51 0 -83 22l62 158h2l43 -139
q3 -12 6 -15t10 -3q11 0 22 12q9 10 17.5 24t16 36t12.5 39t12.5 49.5t11 50t11.5 58.5t11 58z" />
    <glyph glyph-name="approxequal" unicode="&#x2248;" horiz-adv-x="540" 
d="M402 369q-46 0 -116.5 33t-110.5 33q-60 0 -96 -58l-16 9q40 67 112 67q46 0 116.5 -33t110.5 -33q62 0 98 59l15 -10q-40 -67 -113 -67zM402 191q-46 0 -116.5 33t-110.5 33q-60 0 -96 -58l-16 9q40 67 112 67q46 0 116.5 -33t110.5 -33q62 0 98 59l15 -10
q-40 -67 -113 -67z" />
    <glyph glyph-name="notequal" unicode="&#x2260;" horiz-adv-x="540" 
d="M70 404v18h263l57 102l17 -9l-52 -93h155v-18h-165l-89 -161h254v-18h-264l-59 -106l-17 9l54 97h-154v18h164l89 161h-253z" />
    <glyph glyph-name="lessequal" unicode="&#x2264;" horiz-adv-x="540" 
d="M91 374l388 128l6 -18l-343 -111l343 -111l-6 -18l-388 128v2zM510 104h-440v18h440v-18z" />
    <glyph glyph-name="greaterequal" unicode="&#x2265;" horiz-adv-x="540" 
d="M489 372l-388 -128l-6 18l343 111l-343 111l6 18l388 -128v-2zM510 122v-18h-440v18h440z" />
    <glyph glyph-name="lozenge" unicode="&#x25ca;" horiz-adv-x="540" 
d="M291 729l219 -405l-219 -405h-2l-219 405l219 405h2zM290 690l-198 -366l198 -366l198 366z" />
    <glyph glyph-name="commaaccent" unicode="&#xf6c3;" horiz-adv-x="248" 
d="M113 -153q-38 6 -38 45q0 28 20 47.5t47 19.5q24 0 39 -16t15 -41q0 -41 -29 -77t-72 -59q-25 -13 -46 -19v2q26 12 40 31q23 30 30 55q3 11 -6 12z" />
    <glyph glyph-name="apple" unicode="&#xf8ff;" horiz-adv-x="1254" 
d="M666 341q-11 0 -41 1.5t-39 1.5q-54 0 -83.5 -24t-52.5 -76q-26 -57 -63.5 -88.5t-101.5 -31.5q-13 0 -42.5 2t-40.5 2q-57 0 -92.5 -30.5t-35.5 -75.5q0 -16 1 -22h-19q-1 7 -1 22q0 54 41.5 89.5t106.5 35.5q12 0 42.5 -2t40.5 -2q102 0 147 109q46 111 153 111
q11 0 41 -1.5t39 -1.5q52 0 83 25t54 75q26 57 63 88t101 31q13 0 42.5 -2t40.5 -2q57 0 93.5 31.5t36.5 74.5q0 16 -1 22h19q1 -7 1 -22q0 -53 -42.5 -89t-107.5 -36q-12 0 -42.5 2t-40.5 2q-55 0 -89 -27t-57 -80q-48 -112 -154 -112z" />
    <glyph glyph-name="Iacute_Jacute" horiz-adv-x="668" 
d="M318 624l-114 -545q-4 -15 6 -23l66 -54v-2h-307v2l89 54q13 9 17 23l113 545q4 15 -7 23l-66 54v2h307v-2l-88 -54q-14 -8 -16 -23zM336 916h143v-2l-257 -162l-1 1zM694 915h143v-2l-257 -162l-1 1zM654 624l-118 -564q-51 -247 -311 -271v2q139 63 176 242l124 591
q2 15 -7 23l-66 54v2h307v-2l-89 -54q-14 -9 -16 -23z" />
    <glyph glyph-name="Jacute" horiz-adv-x="316" 
d="M349 917h143v-2l-257 -162l-1 1zM306 624l-118 -564q-51 -247 -311 -271v2q139 63 176 242l124 591q2 15 -7 23l-66 54v2h307v-2l-89 -54q-14 -9 -16 -23z" />
    <glyph glyph-name="caronslovak" horiz-adv-x="250" 
d="M200 703l-149 -193h-1l44 193h106z" />
    <glyph glyph-name="commatop" horiz-adv-x="248" 
d="M127 673q-4 -11 6 -12q38 -6 38 -45q0 -28 -20 -47.5t-47 -19.5q-25 0 -39.5 15.5t-14.5 41.5q0 72 88 128q28 19 59 27v-2q-30 -15 -47 -38q-13 -16 -23 -48z" />
    <glyph glyph-name="jacute" horiz-adv-x="263" 
d="M167 128q-83 -364 -290 -364q-46 0 -80 22l64 158h2l43 -143q4 -14 15 -14q63 0 130 316l67 325q4 17 -11 23l-74 29v2l221 16zM238 703h143v-2l-257 -162l-1 1z" />
    <glyph glyph-name="smiley" horiz-adv-x="794" 
d="M392 -4q-155 0 -249 89t-94 229q0 163 115.5 278t276.5 115q149 0 244.5 -88.5t95.5 -230.5q0 -164 -111.5 -278t-277.5 -114zM392 14q157 0 263.5 108.5t106.5 264.5q0 134 -89.5 218t-230.5 84q-152 0 -263 -108.5t-111 -264.5q0 -133 88.5 -217.5t235.5 -84.5zM398 84
q-100 0 -165.5 53.5t-66.5 134.5h-2q-33 0 -35 36l2 1q11 -16 33 -16q41 0 59 30h2q-6 -39 -41 -49q2 -76 61 -124t155 -48q88 0 148 47t75 123q-32 6 -32 33q0 7 3 18h2q3 -30 45 -30q23 0 39 16l2 -1q-16 -34 -41 -36q-16 -86 -83 -137t-160 -51zM489 456
q15 73 31.5 116.5t27.5 43.5q10 0 10 -31q0 -42 -18 -129q-32 -154 -58 -154q-9 0 -9 32q0 43 16 122zM326 456q15 74 31.5 117t28.5 43q9 0 9 -31q0 -42 -18 -129q-14 -70 -30.5 -112t-26.5 -42t-10 33q0 44 16 121z" />
    <glyph glyph-name="backslash.case" horiz-adv-x="380" 
d="M254 -94l-114 887l18 3l114 -888z" />
    <glyph glyph-name="bar.case" horiz-adv-x="219" 
d="M26 -198l-18 4l206 996l18 -4z" />
    <glyph glyph-name="braceleft.case" horiz-adv-x="352" 
d="M211 230l-50 -166q-17 -55 8 -101.5t102 -42.5v-2q-34 -8 -65 -8q-71 0 -116.5 51.5t-21.5 127.5l51 167q11 35 -7 59.5t-58 28.5v2q42 5 70 27t31 53l18 172q7 65 42.5 108t78.5 58.5t92 15.5q32 0 62 -8v-2q-75 4 -120.5 -44.5t-51.5 -102.5l-19 -171q-4 -40 -35 -68.5
t-73 -37.5v-2q37 -9 55.5 -42t6.5 -72z" />
    <glyph glyph-name="braceright.case" horiz-adv-x="352" 
d="M334 346v-2q-42 -4 -69.5 -26.5t-31.5 -53.5l-19 -172q-10 -95 -72 -138.5t-140 -43.5q-30 0 -62 8v2q75 -4 120.5 44.5t51.5 102.5l19 171q4 40 35 68.5t73 37.5v2q-37 9 -55.5 41.5t-6.5 71.5l50 166q17 56 -9 102.5t-102 42.5v2q35 8 66 8q71 0 116.5 -51.5
t21.5 -127.5l-51 -168q-11 -34 7 -58.5t58 -28.5z" />
    <glyph glyph-name="bracketleft.case" horiz-adv-x="351" 
d="M263 700l-147 -711q-2 -8 -0.5 -11t8.5 -5l147 -47v-2l-258 -14l179 869l252 -14v-2l-166 -47q-9 -2 -11 -4.5t-4 -11.5z" />
    <glyph glyph-name="bracketright.case" horiz-adv-x="351" 
d="M127 -11l147 711q2 8 0.5 10.5t-9.5 5.5l-146 47v2l258 14l-179 -869l-253 14v2l167 47q9 3 11.5 5.5t3.5 10.5z" />
    <glyph glyph-name="emdash.case" horiz-adv-x="1000" 
d="M1015 335h-990v18h990v-18z" />
    <glyph glyph-name="endash.case" horiz-adv-x="500" 
d="M515 335h-490v18h490v-18z" />
    <glyph glyph-name="exclamdown.case" horiz-adv-x="264" 
d="M177 0h-178l190 487h2zM215 573q-27 0 -45.5 17.5t-18.5 44.5q0 31 22.5 53.5t55.5 22.5q27 0 45 -17.5t18 -44.5q0 -31 -22 -53.5t-55 -22.5z" />
    <glyph glyph-name="guillemotleft.case" horiz-adv-x="449" 
d="M50 334l256 213l1 -1l-142 -219l53 -206l-2 -1l-166 212v2zM227 334l257 213l1 -1l-142 -219l53 -206l-2 -1l-167 212v2z" />
    <glyph glyph-name="guillemotright.case" horiz-adv-x="448" 
d="M264 332l-256 -212l-2 1l142 219l-53 206l2 1l167 -213v-2zM441 332l-256 -212l-2 1l142 219l-53 206l2 1l167 -213v-2z" />
    <glyph glyph-name="guilsinglleft.case" horiz-adv-x="271" 
d="M50 334l257 213l1 -1l-142 -219l53 -206l-2 -1l-167 212v2z" />
    <glyph glyph-name="guilsinglright.case" horiz-adv-x="271" 
d="M264 332l-256 -212l-2 1l142 219l-53 206l2 1l167 -213v-2z" />
    <glyph glyph-name="hyphen.case" horiz-adv-x="351" 
d="M66 335v19h260v-19h-260z" />
    <glyph glyph-name="parenleft.case" horiz-adv-x="328" 
d="M62 222q0 157 60 290t166 212q53 39 139 65l1 -2q-57 -41 -105 -96q-80 -93 -124.5 -239.5t-44.5 -274.5q0 -187 90 -278l-2 -2q-180 98 -180 325z" />
    <glyph glyph-name="parenright.case" horiz-adv-x="328" 
d="M303 466q0 -157 -60 -291t-166 -211q-56 -40 -139 -65l-1 2q66 48 114 111q75 90 117 232.5t42 267.5q0 186 -90 277l3 2q180 -99 180 -325z" />
    <glyph glyph-name="questiondown.case" horiz-adv-x="464" 
d="M374 410q0 -30 -17 -57t-42.5 -45.5t-55.5 -40.5t-55.5 -42.5t-42.5 -50.5t-17 -64q0 -100 81 -100q22 0 32 2q19 4 27 17l111 173h2l31 -163q-106 -48 -219 -48q-90 0 -141.5 38.5t-51.5 105.5q0 39 17.5 72.5t48 59t61.5 45.5t69.5 43t59.5 39q41 32 41 64q0 13 -6 24
l1 2q28 -1 47 -23.5t19 -50.5zM356 574q-28 0 -46 17t-18 45q0 31 22 53.5t55 22.5q27 0 45.5 -17.5t18.5 -44.5q0 -31 -22.5 -53.5t-54.5 -22.5z" />
    <glyph glyph-name="slash.case" horiz-adv-x="380" 
d="M455 789l-476 -884l-16 9l476 882z" />
    <glyph glyph-name="braceleft.salt" horiz-adv-x="245" 
d="M137 238q0 -24 -16 -58l-76 -155q-24 -50 -24 -83q0 -65 84 -65q20 0 53 7v-18q-33 -7 -55 -7q-101 0 -101 80q0 38 26 92l73 149q17 34 17 54q0 49 -78 49l3 19q57 1 80.5 23.5t23.5 63.5q0 8 -1 16l-15 149q-2 18 -2 34q0 66 40 102t105 36q21 0 51 -7l-6 -17
q-26 6 -51 6q-52 0 -86 -31t-34 -87q0 -8 2 -30l15 -155q1 -10 1 -17q0 -38 -20.5 -64.5t-55.5 -30.5v-2q47 -10 47 -53z" />
    <glyph glyph-name="braceright.salt" horiz-adv-x="245" 
d="M259 646q0 -38 -26 -92l-73 -149q-17 -34 -17 -54q0 -49 78 -49l-3 -19q-57 -1 -80.5 -23.5t-23.5 -63.5q0 -8 1 -16l15 -149q2 -18 2 -34q0 -66 -40 -102t-105 -36q-21 0 -51 7l6 17q25 -6 51 -6q52 0 86 31t34 87q0 8 -2 30l-15 155q-1 10 -1 17q0 38 20.5 64t55.5 30
v2q-47 10 -47 54q0 24 16 58l76 155q24 50 24 83q0 65 -84 65q-20 0 -53 -7v18q33 7 55 7q101 0 101 -80z" />
    <glyph glyph-name="bracketleft.salt" horiz-adv-x="257" 
d="M166 -120v-18h-165l177 859h163v-18h-148l-171 -823h144z" />
    <glyph glyph-name="bracketright.salt" horiz-adv-x="257" 
d="M96 -138h-163v18h146l171 823h-142v18h165z" />
    <glyph glyph-name="guillemotleft.salt" horiz-adv-x="428" 
d="M31 253l239 213l12 -14l-226 -202l143 -200l-15 -11zM191 253l239 213l12 -14l-226 -202l143 -200l-15 -11z" />
    <glyph glyph-name="guillemotright.salt" horiz-adv-x="428" 
d="M397 251l-239 -213l-12 14l226 202l-143 200l15 11zM237 251l-239 -213l-12 14l226 202l-143 200l15 11z" />
    <glyph glyph-name="guilsinglleft.salt" horiz-adv-x="268" 
d="M31 254l239 213l12 -15l-226 -201l143 -200l-15 -12z" />
    <glyph glyph-name="guilsinglright.salt" horiz-adv-x="268" 
d="M237 250l-239 -213l-12 15l226 201l-143 200l15 12z" />
    <glyph glyph-name="parenleft.salt" horiz-adv-x="276" 
d="M66 319q22 127 97.5 244.5t183.5 169.5l6 -15q-105 -55 -176.5 -167t-92.5 -236q-9 -53 -9 -105q0 -95 31 -189.5t95 -159.5l-12 -14q-66 68 -99 164t-33 200q0 55 9 108z" />
    <glyph glyph-name="parenright.salt" horiz-adv-x="276" 
d="M238 263q-22 -127 -97.5 -244.5t-183.5 -169.5l-6 15q105 55 176.5 167t92.5 236q9 53 9 105q0 95 -31 189.5t-95 159.5l12 14q66 -68 99 -164t33 -200q0 -55 -9 -108z" />
    <glyph glyph-name="braceleft.salt.case" horiz-adv-x="245" 
d="M145 291q0 -24 -16 -58l-76 -155q-24 -50 -24 -83q0 -65 84 -65q20 0 53 7v-18q-33 -7 -55 -7q-101 0 -101 80q0 38 26 92l73 149q17 34 17 54q0 49 -78 49l3 18q104 3 104 88q0 8 -1 16l-15 149q-2 18 -2 34q0 66 40.5 102t104.5 36q21 0 51 -7l-6 -17q-25 6 -51 6
q-52 0 -86 -31t-34 -87q0 -8 2 -30l15 -155q1 -10 1 -17q0 -38 -20.5 -64.5t-55.5 -30.5v-2q47 -10 47 -53z" />
    <glyph glyph-name="braceright.salt.case" horiz-adv-x="245" 
d="M230 354l-3 -18q-104 -3 -104 -88q0 -8 1 -16l15 -149q2 -18 2 -34q0 -66 -40.5 -102t-104.5 -36q-21 0 -51 7l6 17q25 -6 51 -6q52 0 86 31t34 87q0 8 -2 30l-15 155q-1 10 -1 17q0 38 20.5 64t55.5 30v2q-47 10 -47 54q0 24 16 58l76 155q24 50 24 83q0 65 -84 65
q-20 0 -53 -7v18q33 7 55 7q101 0 101 -80q0 -38 -26 -92l-73 -149q-17 -34 -17 -54q0 -49 78 -49z" />
    <glyph glyph-name="bracketleft.salt.case" horiz-adv-x="257" 
d="M176 -69v-18h-165l178 859h163v-18h-148l-171 -823h143z" />
    <glyph glyph-name="bracketright.salt.case" horiz-adv-x="257" 
d="M118 754v18h165l-178 -859h-163v18h148l171 823h-143z" />
    <glyph glyph-name="guillemotleft.salt.case" horiz-adv-x="428" 
d="M50 343l239 213l12 -14l-227 -202l143 -200l-15 -11zM210 343l239 213l12 -14l-227 -202l143 -200l-15 -11z" />
    <glyph glyph-name="guillemotright.salt.case" horiz-adv-x="428" 
d="M415 341l-239 -213l-12 14l227 202l-143 200l15 11zM255 341l-239 -213l-12 14l227 202l-143 200l15 11z" />
    <glyph glyph-name="guilsinglleft.salt.case" horiz-adv-x="268" 
d="M50 343l239 213l12 -14l-227 -202l143 -200l-15 -11z" />
    <glyph glyph-name="guilsinglright.salt.case" horiz-adv-x="268" 
d="M255 341l-239 -213l-12 14l227 202l-143 200l15 11z" />
    <glyph glyph-name="parenleft.salt.case" horiz-adv-x="276" 
d="M75 370q22 127 97.5 244.5t183.5 169.5l6 -15q-87 -47 -151.5 -133t-95 -182.5t-30.5 -191.5q0 -96 30.5 -190t94.5 -159l-12 -15q-66 68 -99 164t-33 200q0 56 9 108z" />
    <glyph glyph-name="parenright.salt.case" horiz-adv-x="276" 
d="M246 316q-22 -127 -97.5 -244.5t-183.5 -169.5l-6 15q87 47 151.5 133t95 182.5t30.5 191.5q0 96 -30.5 190t-94.5 159l12 15q66 -68 99 -164t33 -200q0 -56 -9 -108z" />
    <glyph glyph-name="eight.subs" 
d="M100 -4q-47 0 -79 19t-32 48q0 28 26 45t65 22q-48 23 -48 71q0 41 36 66.5t90 25.5q39 0 67 -18.5t28 -44.5q0 -60 -86 -62l22 -10q52 -23 52 -68q0 -43 -43 -68.5t-98 -25.5zM134 105l-47 22q-39 -19 -39 -62q0 -26 16.5 -40.5t42.5 -14.5q24 0 43.5 14.5t19.5 37.5
q0 24 -36 43zM96 229q0 -28 35 -44l31 -15q34 29 34 63q0 21 -12 33.5t-30 12.5q-25 0 -41.5 -14.5t-16.5 -35.5z" />
    <glyph glyph-name="five.subs" 
d="M238 98q0 -48 -44 -75.5t-113 -27.5q-64 0 -109 19l69 94h2l10 -88q1 -9 11 -10q7 -1 18 -1q33 0 55 24.5t22 58.5q0 62 -70 62q-28 0 -62 -20l-2 1l39 152q2 0 38 -1.5t58 -1.5q38 0 55 1q28 3 43 13l10 7h2l-12 -37q-7 -23 -16.5 -31.5t-26.5 -10.5q-19 -1 -70 -1
q-35 0 -81 4l-20 -76q48 32 95 32q46 0 72.5 -24.5t26.5 -62.5z" />
    <glyph glyph-name="four.subs" 
d="M173 38q-1 -7 4 -10l37 -26v-2h-172v2l50 26q8 4 9 11l7 33h-141v2l202 215h56l-42 -202h13q12 0 17 8l62 82h2l-29 -105h-68zM-2 87h113l34 155z" />
    <glyph glyph-name="nine.subs" 
d="M281 185q0 -79 -48 -134t-128 -55q-61 0 -106 15l53 81h2l28 -74q3 -8 13 -8h10q63 0 92 134q-38 -38 -86 -38q-36 0 -60 22t-24 55q0 45 38.5 77.5t102.5 32.5q53 0 83 -29.5t30 -78.5zM168 278q-26 0 -45.5 -30t-19.5 -65q0 -53 42 -53q29 0 54 24q7 33 7 70
q0 54 -38 54z" />
    <glyph glyph-name="one.subs" horiz-adv-x="252" 
d="M182 296l-54 -255q-1 -4 5 -8l59 -31v-2h-219v2l71 31q8 3 9 8l40 189q1 7 -5 9l-66 21v2z" />
    <glyph glyph-name="parenleft.subs" horiz-adv-x="192" 
d="M75 79q0 -89 44 -144l-1 -2q-57 23 -87 68t-30 101q0 30 6 59q13 74 60.5 124t130.5 66l1 -2q-96 -64 -118 -196q-6 -36 -6 -74z" />
    <glyph glyph-name="parenright.subs" horiz-adv-x="191" 
d="M89 204q0 91 -43 145l1 2q58 -24 87 -68.5t29 -101.5q0 -31 -6 -59q-31 -158 -191 -189l-1 2q98 64 118 198q6 36 6 71z" />
    <glyph glyph-name="seven.subs" 
d="M114 0h-101v2q103 131 207 230v2h-146q-18 0 -28 -9l-30 -27h-2l31 91h250v-2l-43 -37q-6 -5 -14 -15q-40 -54 -124 -235z" />
    <glyph glyph-name="six.subs" 
d="M105 -4q-52 0 -82 29.5t-30 78.5q0 80 47.5 134.5t128.5 54.5q60 0 106 -15l-53 -81h-2l-29 74q-3 7 -12 7h-11q-62 0 -91 -132q37 37 85 37q36 0 60.5 -22t24.5 -55q0 -46 -39 -78t-103 -32zM129 159q-27 0 -54 -23q-7 -38 -7 -71q0 -55 38 -55q25 0 45 30.5t20 64.5
q0 54 -42 54z" />
    <glyph glyph-name="three.subs" 
d="M240 92q0 -49 -47.5 -72.5t-115.5 -23.5q-57 0 -106 18l69 96h2l9 -88q1 -8 9 -10q7 -1 15 -1q36 0 61.5 24t25.5 62q0 51 -70 55v2q39 4 64.5 25t25.5 58q0 41 -41 41q-9 0 -14 -1q-8 -1 -13 -8l-58 -89h-2l-21 91q59 22 113 22q52 0 82 -18.5t30 -48.5t-24.5 -48
t-69.5 -22v-2q35 -3 55.5 -20t20.5 -42z" />
    <glyph glyph-name="two.subs" 
d="M148 293q109 0 109 -73q0 -85 -199 -158v-2h105q21 0 31 8l43 34h2l-35 -102h-239v2q32 24 114 90q46 37 73 71t27 73q0 42 -45 42q-7 0 -12 -1q-9 -1 -12 -7l-58 -92h-2l-20 93q63 22 118 22z" />
    <glyph glyph-name="zero.subs" 
d="M155 277q-38 0 -63.5 -76.5t-25.5 -139.5q0 -53 34 -53q27 0 48.5 43t31 91.5t9.5 82.5q0 52 -34 52zM158 291q48 0 77.5 -31t29.5 -78q0 -81 -46 -134.5t-122 -53.5q-49 0 -77.5 31t-28.5 79q0 80 46 133.5t121 53.5z" />
    <glyph glyph-name="eight.sups" 
d="M186 416q-47 0 -79 19t-32 48q0 28 26 45t65 22q-48 23 -48 71q0 41 36 66.5t90 25.5q39 0 67 -18.5t28 -44.5q0 -60 -86 -62l22 -10q52 -23 52 -68q0 -43 -43 -68.5t-98 -25.5zM220 525l-47 22q-39 -19 -39 -62q0 -26 16.5 -40.5t42.5 -14.5q24 0 43.5 14.5t19.5 37.5
q0 24 -36 43zM182 649q0 -28 35 -44l31 -15q34 29 34 63q0 21 -12 33.5t-30 12.5q-25 0 -41.5 -14.5t-16.5 -35.5z" />
    <glyph glyph-name="five.sups" 
d="M321 519q0 -48 -44 -75.5t-113 -27.5q-64 0 -109 19l69 94h2l10 -88q1 -9 11 -10q7 -1 18 -1q33 0 55 24.5t22 58.5q0 62 -70 62q-28 0 -62 -20l-2 1l39 152q2 0 38 -1.5t58 -1.5q38 0 55 1q28 3 43 13l10 7h2l-12 -37q-7 -23 -16.5 -31.5t-26.5 -10.5q-19 -1 -70 -1
q-35 0 -81 4l-20 -76q48 32 95 32q46 0 72.5 -24.5t26.5 -62.5z" />
    <glyph glyph-name="four.sups" 
d="M255 458q-1 -7 4 -10l37 -26v-2h-172v2l50 26q8 4 9 11l7 33h-141v2l202 215h56l-42 -202h13q12 0 17 8l62 82h2l-29 -105h-68zM80 507h113l34 155z" />
    <glyph glyph-name="nine.sups" 
d="M350 605q0 -79 -48 -134t-128 -55q-61 0 -106 15l53 81h2l28 -74q3 -8 13 -8h10q63 0 92 134q-38 -38 -86 -38q-36 0 -60 22t-24 55q0 45 38.5 77.5t102.5 32.5q53 0 83 -29.5t30 -78.5zM237 698q-26 0 -45.5 -30t-19.5 -65q0 -53 42 -53q29 0 54 24q7 33 7 70
q0 54 -38 54z" />
    <glyph glyph-name="one.sups" horiz-adv-x="252" 
d="M267 716l-54 -255q-1 -4 5 -8l59 -31v-2h-219v2l71 31q8 3 9 8l40 189q1 7 -5 9l-66 21v2z" />
    <glyph glyph-name="parenleft.sups" horiz-adv-x="191" 
d="M158 496q0 -89 44 -144l-2 -2q-57 24 -86.5 68.5t-29.5 100.5q0 38 10 80q35 140 187 169l1 -2q-94 -61 -117 -185q-7 -38 -7 -85z" />
    <glyph glyph-name="parenright.sups" horiz-adv-x="191" 
d="M172 622q0 90 -43 144l1 2q57 -23 86.5 -68t29.5 -102q0 -28 -7 -65q-14 -71 -61.5 -119t-128.5 -64l-1 2q96 62 118 198q6 34 6 72z" />
    <glyph glyph-name="seven.sups" 
d="M200 420h-101v2q103 131 207 230v2h-146q-18 0 -28 -9l-30 -27h-2l31 91h250v-2l-43 -37q-6 -5 -14 -15q-40 -54 -124 -235z" />
    <glyph glyph-name="six.sups" 
d="M189 416q-52 0 -82 29.5t-30 78.5q0 80 47.5 134.5t128.5 54.5q60 0 106 -15l-53 -81h-2l-29 74q-3 7 -12 7h-11q-62 0 -91 -132q37 37 85 37q36 0 60.5 -22t24.5 -55q0 -46 -39 -78t-103 -32zM213 579q-27 0 -54 -23q-7 -38 -7 -71q0 -55 38 -55q25 0 45 30.5t20 64.5
q0 54 -42 54z" />
    <glyph glyph-name="three.sups" 
d="M325 512q0 -49 -47.5 -72.5t-115.5 -23.5q-57 0 -106 18l69 96h2l9 -88q1 -8 9 -10q7 -1 15 -1q36 0 61.5 24t25.5 62q0 51 -70 55v2q39 4 64.5 25t25.5 58q0 41 -41 41q-9 0 -14 -1q-8 -1 -13 -8l-58 -89h-2l-21 91q59 22 113 22q52 0 82 -18.5t30 -48.5t-24.5 -48
t-69.5 -22v-2q35 -3 55.5 -20t20.5 -42z" />
    <glyph glyph-name="two.sups" 
d="M233 713q109 0 109 -73q0 -85 -199 -158v-2h105q21 0 31 8l43 34h2l-35 -102h-239v2q32 24 114 90q46 37 73 71t27 73q0 42 -45 42q-7 0 -12 -1q-9 -1 -12 -7l-58 -92h-2l-20 93q63 22 118 22z" />
    <glyph glyph-name="zero.sups" 
d="M241 699q-38 0 -63.5 -76.5t-25.5 -139.5q0 -53 34 -53q27 0 48.5 43t31 91.5t9.5 82.5q0 52 -34 52zM244 713q48 0 77.5 -31t29.5 -78q0 -81 -46 -134.5t-122 -53.5q-49 0 -77.5 31t-28.5 79q0 80 46 133.5t121 53.5z" />
    <glyph glyph-name="i.trk" horiz-adv-x="285" 
d="M113 -8q-33 0 -52 20.5t-19 55.5q0 30 12 80l74 279q5 18 -10 23l-75 30v2l222 16l-90 -338q-15 -58 -15 -73q0 -27 22 -27q24 0 45 29q29 40 45 113h2q-9 -81 -54.5 -145.5t-106.5 -64.5zM237 692q28 0 46 -17t18 -44q0 -31 -22.5 -52t-54.5 -21q-28 0 -46 16.5
t-18 43.5q0 31 22.5 52.5t54.5 21.5z" />
    </font>
</defs>
</svg>
